<svg xmlns="http://www.w3.org/2000/svg" width="29" height="29" viewBox="0 0 29 29"><g><g><path fill="#111" d="M26.357 21.525a3.577 3.577 0 1 1-4.346 4.346H7.452a3.577 3.577 0 1 1-4.346-4.346V6.967A3.577 3.577 0 1 1 7.452 2.62h14.559a3.577 3.577 0 1 1 4.346 4.346zm-2.683-18.01a1.788 1.788 0 1 0 3.577 0 1.788 1.788 0 0 0-3.577 0zM4 5.303a1.788 1.788 0 1 0 0-3.577 1.788 1.788 0 0 0 0 3.577zM5.79 24.977a1.789 1.789 0 1 0-3.578 0 1.789 1.789 0 0 0 3.578 0zm18.78-3.452V6.967a3.577 3.577 0 0 1-2.558-2.558H7.452a3.577 3.577 0 0 1-2.558 2.558v14.558a3.577 3.577 0 0 1 2.558 2.558h14.559a3.577 3.577 0 0 1 2.557-2.558zm2.682 3.452a1.789 1.789 0 1 0-3.577 0 1.789 1.789 0 0 0 3.577 0z"/></g></g></svg>