<?xml version="1.0" encoding="utf-8"?>
<!-- Generator: Adobe Illustrator 24.0.2, SVG Export Plug-In . SVG Version: 6.00 Build 0)  -->
<svg version="1.1" id="logo" xmlns="http://www.w3.org/2000/svg" xmlns:xlink="http://www.w3.org/1999/xlink" x="0px" y="0px"
	 viewBox="0 0 489.5 251.6" style="enable-background:new 0 0 489.5 251.6;" xml:space="preserve">
<style type="text/css">
	.st0{fill:#FFFFFF;}
	.st1{stroke:#231F20;stroke-width:3;stroke-miterlimit:10;}
</style>
<title>amdocswhite</title>
<g>
	<path class="st0" d="M78.5,167.1c0.6-0.1,1.2-0.3,1.8-0.3c109.6,0,219.3,0,328.9,0c0.5,0,0.9,0,1.6,0c0,0.7,0.1,1.3,0.1,2.1
		c-0.8,0-1.5,0-2.2,0c-109.4,0-218.7,0-328.1,0c-0.7,0-1.4-0.2-2.2-0.3C78.5,168.1,78.5,167.6,78.5,167.1z"/>
	<path class="st0" d="M143.9,210c0-6.7,0-13.3,0-20.1c1.5,0,2.9,0,4.5,0c0,3.9,0,7.9,0,11.8c2.8,0.2,5-1.2,6.2-3.8
		c1.8-3.8,1-8.5-1.9-11.2c-2.9-2.6-7.9-3-11.5-0.8c-3.6,2.2-4.9,6.7-3.3,11.5c0.2,0.6,0.4,1.2,0.6,1.8c-0.1,0.1-0.3,0.1-0.4,0.2
		c-0.2-0.3-0.5-0.6-0.7-1c-2.4-4.5-1.5-10.7,2-14.1c3.7-3.6,9.7-4.4,14.4-1.9c4.6,2.4,7,7.4,6.1,12.6c-0.8,4.5-4.3,7.5-8.9,7.7
		c-0.7,0-1.5,0-2.6,0c0,2.4,0,4.8,0,7.2C146.9,210,145.4,210,143.9,210z"/>
	<path class="st0" d="M258.3,41.6c1.5,1.3,1.6,1.6,0.3,2.7c-3.4,2.9-3.5,5.2,0,8.5c1.2-1.3,2.4-2.7,3.6-4c0.1,0.1,0.2,0.1,0.3,0.2
		c-1.7,4.9-3.5,9.8-5.3,14.9c-1-1.6-1.1-2.9-0.5-4.3c0.4-0.8,0.8-1.5,1.3-2.2c1-1.5,0.8-3-0.2-4.3c-0.6-0.7-1.2-1.4-1.8-2.1
		c-1.9-2.5-1.4-5.1,1.4-6.7c0.5-0.3,1-0.7,1.6-1.1c-2.5-1.3-5.5,0.6-5.5,3.2c0,1.1,0.3,2.3,0.8,3.3c1.4,3.1,1.4,6.2,0.6,9.4
		c-0.4,1.7-0.1,3.5-0.1,5.4c-0.9-0.7-1.9-1.6-3.4-2.7c-0.1,1.2-0.4,2.2-0.1,3c0.1,0.4,1.2,0.6,2.4,1c-0.9,0.2-1.7,0.6-2,0.4
		c-0.8-0.6-1.9-1.4-2.1-2.3c-0.4-1.7-0.6-3.6-0.1-5.2c0.6-1.8,0.8-3.2,0.1-5c0.4,0.6,0.9,1.1,1.7,2.1c0.3-1.3,0.7-2.3,0.8-3.2
		c0.1-0.7-0.2-1.4-0.3-2c-1.4-5-0.9-6.4,3.4-8.9C256.3,41.6,257.3,41.6,258.3,41.6z M253.8,53.3c-1.2,2.5-2.2,4.6-3.3,6.7
		c0.1,0.1,0.3,0.1,0.4,0.2C252.4,58.2,254.6,56.6,253.8,53.3z"/>
	<path class="st0" d="M264.4,116.8c-1.7-1.1-3.3-2-4.8-3c-0.2,0.1-0.3,0.2-0.5,0.3c0.4,0.9,0.7,1.9,1.2,2.7c0.4,0.7,1.3,1.3,1.3,1.9
		c0.1,1.1,0,2.3-0.4,3.2c-0.7,1.3-2.1,1.3-3.8,0.9c0.7-0.4,1.1-0.6,2-1c-2.5-1.6-5.6-2.7-5.2-6.5c-0.6,0.4-0.9,0.6-1.3,0.9
		c0-0.2,0-0.4,0-0.5c0.5-1.4,1.1-2.8,1.4-4.2c0.1-0.6-0.2-1.5-0.7-2c-0.7-0.8-1.7-1.3-2.7-2.1c-0.2,3.9-0.4,7.8-0.6,12.1
		c-1.4-1.8-2.5-3.2-3.7-4.9c-1.7,4.4-5.2,5-9.1,4.7c1-1.6,2.7-3.1,2.9-4.8c0.2-1.7-0.9-3.5-1.6-5.5c-1.1,0.6-1.9,1-2.7,1.4
		c0-0.1-0.1-0.1-0.1-0.2c0.4-0.4,0.8-0.8,1-1.3c0.4-0.8,0.9-1.6,0.8-2.4c-0.1-2.4,1.1-3.9,2.8-5.2c2-1.6,2-2.3,0.2-4.5
		c-3.5,5.6-6.9,11-10.3,16.5c-0.1,0-0.2-0.1-0.3-0.1c0.4-2.7,0.8-5.4,1.2-8.2c-3.1,0.4-4.4,1.5-5.2,4.4c-0.4,1.2-0.8,2.4-1.6,3.4
		c-1.4,1.8-4.1,1.1-4.9-1c-0.5-1.5,0.1-2.3,2.6-3.2c-0.2-0.4-0.3-0.8-0.5-1.2c-1.4-2.6-0.6-4.9,2.1-6c1.3-0.5,2.8-0.8,4.1-1.3
		c0.8-0.3,1.5-0.9,2.3-1.3c0-0.1-0.1-0.3-0.1-0.4c-0.6,0.1-1.3,0.2-1.9,0.2c-0.6,0.1-1.2,0.1-1.9-0.2c1-0.3,1.9-0.7,2.9-0.8
		c2-0.2,2.6-1.4,2.7-3.1c0-0.6,0.1-1.2,0.2-2.3c-4.5,2.5-8.7,4.8-12.8,7.1c-0.1-0.1-0.2-0.1-0.3-0.2c1.1-1.8,2.2-3.6,3.2-5.4
		c-0.1-0.1-0.2-0.2-0.3-0.1c-3.1,2.4-6.1,2.2-9.1-0.4c-0.8-0.7-1.9-1-2.8-1.6c0.6-1.8,1.5-2.6,3.4-1.9c3.3,1.3,4.9-0.8,6.9-2.9
		c-2.5-1.4-4.9-2.6-7.2-3.9c7-0.4,14.1-0.3,21.2-0.4c-0.3-1.8-1.3-1.8-2.2-1.7c-1.9,0.2-3.9,0.6-5.8,0.8c-2.1,0.3-4,0-5.8-1.2
		c-0.7-0.4-1.8-0.2-2.6-0.3c0.3-0.2,0.8-0.6,1.2-0.9c-2.4-2.9-3.5-3.1-8-1.4c-0.9-1.8-0.5-3.8,1.2-5.4c1.9-1.8,4.6-2.3,6.7-1
		c1,0.6,1.9,1.5,2.9,2.2c0.9,0.7,1.9,1.2,3.3,0.4c-1.9-2.2-3.7-4.4-5.5-6.5c0.1-0.1,0.1-0.1,0.2-0.2c3,1.4,5.9,2.9,9.2,4.5
		c-0.6-2.3-0.8-4.4-3.6-4.5c0.7,0,1.4,0,2.2,0c-0.4-1.6-1.5-2.4-2.8-3c-1.1-0.5-2.2-0.7-3.2-1.3c-3.3-1.6-3.6-6.4-0.6-8.3
		c0.7-0.5,1.7-0.5,2.8-0.8c-0.7,5.1,1.1,7.1,5.3,6.2c-0.5-1.5-0.9-3-1.2-4.2c3.9,3.8,8.1,7.8,12.2,11.8c-1.6,1.3-3.4,1.4-4.8-0.2
		c-1.1-1.2-1.9-2.7-2.6-4.2c-1-2-1.5-2.4-3.6-1.8c-0.9,0.3-1.7,0.5-3,0.9c2.9,0.8,3.2,2.9,3.7,5.1c0.3,1.4,0.7,2.9,1.6,3.9
		c0.9,1,2.5,1.5,3.8,2.3c-1.7,1.1-4.7-0.6-6.2,1.5c1.9,1,3.8,2.1,5.8,3.2c-0.4-0.9-0.9-1.9-1.4-2.9c2-0.3,4.2-0.4,4.6-3.2
		c2.1,1,1.8,2.2-0.8,4.5c0.1,0.5,0.1,1,0.2,1.5c0.1,0.5,0.3,1,0.5,1.7c0.3-0.5,0.5-0.8,0.7-1.1c0.8,0.6,1.6,1.3,2.7,2.1
		c-0.2-1.4-0.4-2.3-0.6-3.4c-0.3,0.1-0.6,0.3-1,0.4c-0.1-0.1-0.2-0.2-0.3-0.3c0.5-0.7,1-1.4,1.4-2.1c1.3,0.5,2.5,0.9,3.6,1.4
		c-0.1,0.1-0.2,0.2-0.2,0.3c-0.9,0.2-2.2,0.3-1.7,1.6c0.4,1.3,1.7,0.9,2.7,0.5c1.6-0.7,2.5-2,2.8-3.7c0.1-0.7,0.1-1.3,0.2-2
		c1.4,0.1,2,1.4,1.7,3.2c-0.2,1.1-1.1,2.5,1,2.8c-0.9,0.3-1.8,0.5-2.6,0.8c0,0.3,0.1,0.5,0.1,0.8c1.4,0.1,2.9,0.2,4.3,0.3
		c0,0.1,0,0.3,0,0.4c-1.5,0.1-3.1,0.2-4.6,0.3c0.4,1.3,2,2.5,3.1,2.2c3-0.8,3.5-1.3,3.1-3c1.2,0.4,1.4,0.9,0.6,1.6
		c-0.6,0.6-1.5,0.8-2.2,1.4c-0.6,0.5-1.4,1.2-1.3,1.8c0,0.7,0.8,1.8,1.4,1.8c0.9,0.1,2.1-0.3,2.6-0.9c1.6-2.1,2.1-4.3,0.7-6.9
		c-1.4-2.7-1.2-2.8,2.1-3.4c-1.6,1.8-0.5,2.4,1.3,2.6c-0.5,0.5-0.9,0.9-1.2,1.3c-1,1.3-0.7,2.2,0.8,2.7c2.2,0.8,3.8,2.4,4.9,4.4
		c0.7,1.4,1.3,2.9,2.1,4.2c0.9,1.5,2.1,2.8,3,4.1c-2.3,0.4-4.8-1.6-7.4-6.3c-0.5,3.1,2.7,7.4,6.1,7.8c1.4,0.2,2.9,0.2,4.3,0.2
		c1.9,0,3.2,0.9,3.9,2.6c0.4,1,0.8,2,1.3,3c0.9,1.7,3.6,3,5.3,2.6c0.7-0.2,1.3-0.8,2.2-1.5c-1.3-0.1-2.5,0-3.5-0.4
		c-0.7-0.2-1.4-0.9-1.7-1.6c-0.7-1.4-1.3-3-1.8-4.5c-0.7-2-1.9-3.3-4-3.6c-3.1-0.5-5.2-2.3-6.9-5c-1.8-2.9-3.9-5.6-5.9-8.4
		c1.4-0.3,2.9,0.1,4.1,1.2c1.4,1.3,2.6,2.8,3.9,4.2c0.5,0.6,0.9,1.2,1.4,1.8c3.7,4.5,6.2,4.8,11.2,1.9c1.5-0.8,3.3-1.3,5-1.5
		c2.3-0.2,3.2,0.8,3.2,3.2c0,0.3,0,0.5-0.1,1.2c1.2-2.9,0.3-5.1-2.2-5.5c-1.6-0.2-3.5,0-5,0.5c-3.9,1.4-6.3,0.8-8.7-2.5
		c-0.7-0.9-1.3-1.9-2-2.8c-1.3-1.8-2.7-3.5-5-4.1c0-0.2,0-0.3,0.1-0.5c0.9,0,1.9-0.2,2.7,0.1c1.2,0.4,2.2,1.2,3.3,1.8
		c2,1,3.2,0.6,4.3-1.3c0.6-1.1,1-2.2,1.5-3.3c0.7-1.4,1.6-1.5,2.8-0.6c0.5,0.3,0.9,0.7,1.3,1.2c1.4,1.6,3.1,2.1,5.3,1.1
		c-0.1,0.5-0.2,0.9-0.3,1.3c2.4-0.8,3.2-4.4,1.8-6.5c-0.6,1.3-1,2.8-2,4.1c-0.4,0.5-1.8,0.2-2.8,0.3c0-0.2-0.1-0.3-0.1-0.5
		c0.6-0.2,1.2-0.4,1.5-0.6c-1.7-0.8-3.5-1.6-5.2-2.4c-1.8-0.9-3.7-0.2-5,1.9c-1.7,2.6-1.6,2.6-4.7,1.7c-0.7-0.2-1.4-0.2-2.1-0.4
		c0-0.2-0.1-0.3-0.1-0.5c0.9-0.2,1.7-0.3,2.6-0.6c1-0.3,2.3-0.4,3.1-1c1.9-1.6,3.6-3.1,6.3-2.2c0.4,0.1,1.1-0.5,1.8-0.8
		c-0.2,0.5-0.4,1-0.6,1.5c3.6,2.9,5.3,2.3,6-2.2c2.6,1.2,3.4,4,2.1,6.8c-1.2,2.6-3.7,3.6-6.3,2.3c-0.4-0.2-0.7-0.4-1.1-0.6
		c-1.7-1-1.9-1-3.5,0.6c0.4,0.2,0.8,0.4,1.2,0.6c0.3,0.2,0.7,0.3,1,0.7c-0.4,0-0.8,0-1.2-0.1c-1.2-0.3-2.1,0-3.2,0.6
		c-1.4,0.7-3.1,0.8-4.7,1.2c5.1,0,10.3,0,15.4,0c0,0.2,0.1,0.4,0.1,0.6c-3.2,1.4-6.4,2.9-9.6,4.3c0,0.1,0.1,0.3,0.1,0.4
		c1-0.3,2.1-0.7,3.1-0.8c1.6-0.3,3.3-0.7,4.9-0.5c3.5,0.6,5.3,4.3,3.7,7.2c-0.3,0.5-0.9,0.9-1.5,1.7c-0.8-2.3,0.9-6-3.5-5
		c-1,0.2-2.1,1-2.6,1.8c-0.4,0.7,0,1.9,0.1,2.9c-0.4-0.5-1-1.1-1.6-1.7c-0.5,0.3-1,0.5-1.5,0.7c-0.5,0.2-1.1,0.4-1.9,0.7
		c2.3,1.4,4.4,2.6,6.5,3.9c0,0.1,0,0.2,0,0.3c-1.5,0-3,0-4.4,0c-0.4,3.5,0.7,4.2,6.8,5c-0.4,1.5-1.4,2.5-2.8,2.7
		c-1.7,0.2-3.5-0.1-5.3-0.2c-0.4,0-0.8-0.1-1.6-0.2c-1.1-2-2-4.8-4.8-5.9c-1.2-0.5-2.6-0.5-3.9-0.8c-0.1,0.2-0.3,0.5-0.4,0.7
		c3.3,3.1,6.6,6.2,9.9,9.2c-0.1,0.1-0.2,0.2-0.3,0.4c-0.5,0-1.1,0-1.6,0c-0.7,4.5-2.8,7.5-5.7,7.9c0.5-0.9,1-1.6,1.3-2.4
		c1.1-2.3,0.7-4.3-1.6-5.5c-3.9-2-5.4-5.5-6.6-9.5c0.8,0.9,1.7,1.9,2.5,2.8c1.3,1.5,2.4,3.1,3.9,4.4c3.6,3.1,3.9,3.5,2.7,8.1
		c2.6-2.6,2.7-6.3-0.1-8.4c-5.2-3.9-8.8-9.2-12.9-14.1c-0.7-0.9-1.2-1.9-1.9-3.2c0,0.7-0.2,1.2-0.1,1.6c0.4,1.3,0.7,2.6,1.4,3.7
		c1.6,2.6,3,5.3,3.6,8.3c0.6,2.6,1.8,4.9,4.2,6.7c-1.8,0.4-2.9-0.4-3.6-1.6c-1.3-2.3-2.5-4.8-3.6-7.2c-0.3-0.6-0.5-1.2-0.8-1.9
		c-0.2,0.1-0.4,0.1-0.6,0.2C260.6,105.2,262.5,110.9,264.4,116.8z M236.9,95.7c-0.4-4.1,0.4-7.8,2.2-11.3c-2.3,1.3-3.6,3.2-4,5.6
		c-0.3,1.7-0.4,3.4-0.6,5.1c-0.4,3.9-2.5,6.1-6.4,6.9c-1.1,0.2-2.3,0.4-3.4,0.7c-2.1,0.7-2.6,2.3-1.3,4.2c0.4,0.7,0.8,1.4,1.2,2.1
		c0.4-0.8,0.8-1.6,1.3-2.5c-0.5-0.4-1-0.8-1.8-1.5c5-1.1,9.5-2.7,12.9-6.3c3.5-3.7,4.1-8.6,5.4-13.6
		C239.1,88.1,239.1,92.4,236.9,95.7z M259.9,120.1c0.1,0,0.2-0.1,0.3-0.1c-0.6-1.2-1.2-2.4-1.8-3.6c-0.7-1.4-1.3-2.9-0.2-4.4
		c1.8-2.4,1.6-4.7,0.1-7.2c-2-3.2-3.3-6.6-2.3-10.6c0.2-0.9-0.5-2.1-0.8-3.3c-0.5,1.8-0.7,3.3-1.2,4.6c-1.5,3.8-1.1,7.3,1.4,10.6
		c0.7,1,1.4,2.6,1.1,3.6c-1.3,4.2-0.3,7.5,3,10.2C259.7,119.9,259.8,120,259.9,120.1z M244.1,90.9c-0.4,1.8-0.1,3.5,0.8,5.2
		c0.9,1.9,0.7,3-0.8,4.5c-0.5,0.5-1,0.9-1.5,1.4c-1.9,2.1-2.5,4.5-1.3,7c1.3,2.9,2.2,5.7-0.2,8.8c2.9-0.9,4-2.9,3-6.2
		c-1.2-3.9-0.8-7.3,2-10.5c1.8-2,1.6-4.3,0.2-6.6C245.4,93.4,244.8,92.1,244.1,90.9z M248.6,91.6c1.7,3.9,0.9,7.4-1.4,10.7
		c-2,3-2,6.2-0.5,9.5c0.6-1.1,1.2-2.2,1.3-3.3c0.2-2.4,0.7-4.7,2.1-6.8C252.2,98.5,251.6,94.4,248.6,91.6z M213.2,73.3
		c0.1,0.2,0.1,0.3,0.2,0.5c0.3,0,0.6,0.1,1,0.1c1.7-0.2,3,0.3,4.1,1.6c2.8,3,6.3,4.5,10.5,4c-3.6-1.1-6.4-3.3-9-5.9
		c-1-1-4.2-1.7-5.5-1.1C214,72.6,213.6,73,213.2,73.3z M235.6,84.2c-0.1-0.2-0.2-0.5-0.3-0.7c-2.5,1.6-5,1.7-7.7,0.9
		c-0.8-0.2-1.6-0.3-2.4-0.3c-1.5,0-2.4,0.8-2.8,1.8c1.9,0.4,3.8,0.8,5.6,1.2c1.2,0.2,2.3,0.4,3.9,0.6c-0.4-0.9-0.5-1.3-0.6-1.4
		C232.8,85.6,234.2,84.9,235.6,84.2z M233.9,87.5c-1.9,2.2-4.2,2-6.6,1.5c-1.1-0.2-2.4-0.2-3.6,0c-1.4,0.2-2,0.9-2.2,1.8
		c1.8,0.2,3.7,0.5,5.6,0.7C230.2,91.9,232.6,90.6,233.9,87.5z M219.3,91.7c-2.6-0.4-4.7-0.7-6.8-1c0,0.2,0,0.4-0.1,0.5
		c1.3,0.8,2.6,1.6,4,2.3c0.6,0.3,1.6,0.3,2,0C218.9,93.1,219.1,92.2,219.3,91.7z M246.7,87.1c0,0.2-0.1,0.4-0.1,0.6
		c0.9,0.1,1.8,0.5,2.6,0.2c0.5-0.1,1.1-1.4,0.9-1.8c-0.3-0.6-1.2-1-1.9-1.3c-0.8-0.3-1.6-0.4-2.4-0.6c0,0.1-0.1,0.2-0.1,0.3
		c0.5,0.3,1.1,0.7,1.8,1.1c-0.4,0.2-0.7,0.3-1.1,0.5c0.6,0.3,1,0.5,1.6,0.8C247.3,87,247,87.1,246.7,87.1z M225.1,61.6
		c-0.9-0.8-2.3-1.4-2.7-2.4c-0.5-1-0.1-2.5-0.1-3.6c-1.3,0.5-1.9,1.7-1.5,3.3C221.3,60.9,222.9,61.8,225.1,61.6z M222.4,111.3
		c-0.3-0.6-0.5-1-0.7-1.4c-1.1,0.5-1.6,1.3-0.9,2.2c0.4,0.5,1.6,0.9,2.2,0.7c1.3-0.4,1.2-1.6,0.7-2.8
		C223.3,110.4,222.9,110.7,222.4,111.3z M254,89.6c0-0.1,0-0.2,0-0.4c-2,0-4.1,0-6.1,0c0,0.1,0,0.2,0,0.4
		C249.9,89.6,251.9,89.6,254,89.6z M278.2,79.5c2.3-1.8,2.9-3,2.2-4.7C279.7,76.4,279,77.8,278.2,79.5z"/>
	<path class="st0" d="M409.4,124.7c0,0.6,0,1.2,0,1.7c-0.1,0.1-0.2,0.2-0.3,0.2c-2.7,0.2-2.7,0.2-2.7,3c0,7.5,0,15,0,22.5
		c0,0.3,0,0.6,0,0.9c0,4.5,0.1,4.5,4.3,5.2c0,0.6,0,1.2,0,1.9c-5.3,0-10.7,0-16.2,0c0-0.7,0-1.3,0-1.9c2.8-0.5,2.8-0.5,2.8-3.3
		c0-4.1,0-8.2,0-12.4c-4,0-7.8,0-11.7,0c0,4.6,0,9.1,0,13.6c0,1.3,0.7,2.1,2.2,1.9c0.6-0.1,1.2,0,2,0c0,0.7,0.1,1.3,0.1,2.1
		c-5.5,0-11,0-16.5,0c0-0.6,0-1.2,0-1.8c0.1-0.1,0.2-0.2,0.3-0.2c2.6-0.2,2.6-0.2,2.6-2.9c0-7.9,0-15.8,0-23.7c0-0.5,0-0.9,0-1.4
		c-0.1-3.1-0.3-3.2-3.4-3.3c-0.2,0-0.5,0-0.9-0.1c0-0.6-0.1-1.2-0.1-1.9c5.6,0,11,0,16.5,0c0,0.6,0,1.2,0,1.7
		c-0.1,0.1-0.2,0.2-0.3,0.2c-2.9,0.3-2.9,0.3-2.9,3.3c0,3.2,0,6.3,0,9.6c4,0,7.9,0,11.8,0c0-3.7,0-7.3,0-10.9c0-1.4-0.7-2.1-2.2-2
		c-0.6,0.1-1.1,0-1.9,0c0-0.7-0.1-1.3-0.1-2C398.6,124.7,404,124.7,409.4,124.7z"/>
	<path class="st0" d="M238.9,142.5c3.3,4.8,6.4,9.3,9.6,13.7c0.7,0.9,1.9,1.4,3.1,2.3c0,0.2,0,0.8,0,1.5c-3.5,0-7,0.1-10.5-0.1
		c-0.7,0-1.6-0.9-2-1.7c-2.2-4-4.4-8.1-6.3-12.3c-0.8-1.7-1.7-2-3.2-1.7c0,4.1,0,8.2,0,12.2c0,1,0.7,1.5,1.7,1.4
		c0.7-0.1,1.5,0,2.4,0c0,0.7,0.1,1.3,0.1,2.1c-5.5,0-11,0-16.5,0c0-0.6,0-1.2,0-1.8c0.1-0.1,0.2-0.2,0.3-0.2
		c2.6-0.2,2.6-0.2,2.6-2.9c0-7.9,0-15.9,0-23.8c0-0.6,0-1.2,0-1.7c-0.1-2.5-0.4-2.8-3-2.8c-0.3,0-0.7,0-1.2-0.1
		c0-0.6-0.1-1.2-0.1-1.9c0.5-0.1,1-0.2,1.4-0.2c5.7,0,11.4-0.1,17.1,0.1c2.1,0.1,4.4,0.6,6.3,1.4c3.8,1.5,5.9,5.1,5.8,9.2
		c-0.1,2.9-2.2,5.7-5.2,6.7C240.8,142,240.1,142.2,238.9,142.5z M229.3,141.8c3.2,0.1,5.8-0.3,7.4-3.2c1.9-3.5,0.4-8.8-3.2-10.7
		c-0.9-0.5-2.1-0.7-3.1-0.8c-0.3,0-1,0.6-1,0.9C229.3,132.5,229.3,137,229.3,141.8z"/>
	<path class="st0" d="M151.1,160c0-0.7,0-1.3,0-2c0.9-0.1,1.8-0.2,2.8-0.2c0-0.6,0.1-1.2,0.1-1.7c0-8.6,0-17.3,0-25.9
		c0-0.4,0-0.8,0-1.2c-0.1-1.5-0.7-2.4-2.4-2.2c-0.6,0.1-1.1,0-1.8-0.1c0-0.7-0.1-1.2-0.1-1.9c0.6,0,1.1-0.1,1.6-0.1
		c5.7,0,11.4-0.1,17.1,0.1c2.2,0.1,4.5,0.6,6.5,1.4c3.2,1.3,5,4,5.4,7.5c0.3,3.6-1.3,6.4-4.2,8.3c-3.4,2.3-7.2,2.6-11.1,2
		c-0.6-0.1-1.1-0.2-1.7-0.3c0,4.1,0,8.1,0,12c0,1.8,0.8,2.7,2.7,2.4c0.5-0.1,1,0,1.6,0.1c0,0.7,0,1.3,0,2
		C162,160,156.7,160,151.1,160z M163,134.1c0,2,0,3.9,0,5.9c0,1,0.4,1.3,1.3,1.4c2.9,0.5,5.8-1.1,6.6-4c0.9-3.4,0.2-6.5-2.5-8.8
		c-1-0.9-2.5-1.2-3.9-1.6c-1-0.3-1.6,0.2-1.5,1.4C163,130.3,163,132.2,163,134.1z"/>
	<path class="st0" d="M267.8,126.6c0-0.7,0-1.3,0-1.8c0.1-0.1,0.2-0.2,0.3-0.2c6.7,0,13.5-0.1,20.2,0.1c2.9,0.1,5.5,1.2,7.6,3.3
		c4.1,4.3,3,11-2.4,14.1c-3.3,1.9-6.9,2.2-10.6,1.7c-0.6-0.1-1.1-0.2-1.7-0.3c0,4.1,0,8.1,0,12.2c0,1.5,0.7,2.5,2.5,2.2
		c0.5-0.1,1.1,0,1.8,0c0,0.8,0,1.4,0,2.1c-5.5,0-10.9,0-16.4,0c0-0.7,0-1.3,0-1.9c0.2-0.1,0.3-0.2,0.4-0.2c2.6-0.2,2.6-0.2,2.6-2.7
		c0-8.1,0-16.1,0-24.2c0-0.6,0-1.2,0-1.7c-0.2-2.3-0.5-2.6-2.8-2.6C268.8,126.7,268.4,126.6,267.8,126.6z M281.1,134.1
		c0,2,0,3.9,0,5.9c0,0.9,0.3,1.3,1.2,1.5c2.6,0.5,5.4-0.9,6.4-3.3c1.4-3.2,0.2-8-2.7-9.9c-1-0.7-2.4-0.9-3.7-1.2
		c-0.8-0.2-1.2,0.3-1.2,1.2C281.1,130.2,281.1,132.1,281.1,134.1z"/>
	<path class="st0" d="M135.7,126.6c0-0.7,0-1.2,0-1.9c3.4,0,6.9,0,10.4,0c0,0.6,0.1,1.1,0.1,1.6c-0.2,0.1-0.2,0.3-0.3,0.3
		c-2.8,0.3-2.8,0.3-2.8,3.2c0,5.2-0.1,10.4,0,15.6c0.4,13-8.3,16.1-17,15.8c-2.2-0.1-4.5-0.6-6.6-1.4c-4.5-1.7-6.8-5.1-6.8-10
		c0-5.9,0-11.8,0-17.6c0-0.6,0-1.3,0-1.9c0-3.3-0.2-3.5-3.5-3.6c-0.2,0-0.5,0-0.9-0.1c0-0.6-0.1-1.2-0.1-1.9c5.5,0,10.9,0,16.4,0
		c0,0.6,0,1.2,0,1.8c-0.1,0.1-0.2,0.2-0.3,0.2c-2.6,0.2-2.6,0.2-2.6,2.9c0,6-0.1,12,0,18c0,1.8,0.3,3.7,0.7,5.4
		c0.8,2.9,2.9,4.7,5.9,5.1c5.3,0.7,11.4-1.2,11.7-9.3c0.2-6.2,0.1-12.3,0.1-18.5c0-3.1-0.4-3.4-3.4-3.5
		C136.5,126.7,136.2,126.6,135.7,126.6z"/>
	<path class="st0" d="M182.9,126.7c0-0.8,0-1.4,0-2c9.5,0,18.9,0,28.5,0c-0.2,1.8-0.3,3.5-0.6,5.2c-0.1,0.4-0.6,0.9-0.9,1
		c-0.3,0-0.9-0.5-1-0.9c-0.2-1.2-1-1.9-2.1-2c-3.2-0.4-6.4-0.6-9.6-0.9c-0.3,0-0.9,0.7-1,1c-0.1,3.8,0,7.6,0,11.7
		c2.7-0.2,5.3-0.3,7.9-0.5c1.1-0.1,1.7-0.9,1.7-2c0-0.5,0.1-1,0.1-1.7c0.5,0,1-0.1,1.7-0.1c0,3.3,0,6.5,0,9.9c-0.5,0-1,0-1.5,0.1
		c-0.6-3.1-0.7-3.3-3.9-3.4c-1.9-0.1-3.8,0-5.5,0c0,4.8,0,9.5,0,14.1c0,0.9,0.5,1.5,1.6,1.4c2.7-0.2,5.4-0.2,8.1-0.6
		c2.2-0.3,4.3-1,5.5-3.1c0.2-0.3,0.9-0.5,1.1-0.4c0.3,0.1,0.5,0.8,0.5,1.1c-0.4,1.6-0.8,3.2-1.3,4.8c-0.1,0.3-0.7,0.7-1,0.7
		c-8.8,0-17.6,0-26.4-0.1c0,0-0.1-0.1-0.2-0.2c0-0.5,0-1.1,0-1.7c0.1-0.1,0.2-0.2,0.3-0.2c2.5-0.2,2.5-0.2,2.5-2.7
		c0-8.2,0-16.5,0-24.7c0-0.5,0-1,0-1.6c-0.1-1.6-0.7-2.5-2.5-2.3C184.1,126.7,183.5,126.7,182.9,126.7z"/>
	<path class="st0" d="M299.9,126.7c0-0.8,0-1.3,0-2c5.5,0,10.9,0,16.4,0c0,0.6,0,1.2,0,1.7c-0.1,0.1-0.2,0.2-0.3,0.2
		c-2.7,0.2-2.7,0.2-2.7,3c0,5.9-0.1,11.8,0,17.6c0,1.8,0.2,3.7,0.7,5.5c0.8,3.1,3,4.9,6.3,5.4c6.3,0.8,10.9-2.5,11.3-8.7
		c0.4-6.7,0.2-13.4,0.1-20c0-2.4-0.4-2.5-4.3-2.7c0-0.6-0.1-1.2-0.1-1.9c3.5,0,6.8,0,10.4,0c0,0.5,0.1,1.1,0.1,1.7
		c-0.2,0.1-0.3,0.2-0.4,0.3c-2.8,0.2-2.8,0.2-2.8,3c0,5.5,0,11.1,0,16.6c0,9-4.5,13.9-13.4,14.8c-3.4,0.3-6.7,0.1-9.9-1.1
		c-4.6-1.8-7.1-5.2-7.1-10.2c0-6.2,0-12.4,0-18.7c0-0.6,0-1.3,0-1.9c-0.1-2.1-0.5-2.4-2.6-2.4C301.2,126.7,300.7,126.7,299.9,126.7z
		"/>
	<path class="st0" d="M101.7,127.9c0,0.1,0,0.2,0,0.3c-0.2,0.8-0.1,2.1-0.6,2.2c-1.3,0.5-1.2-1-1.7-1.6c-0.6-0.8-1.4-1.6-2.2-2.1
		c-2.6-1.2-5.3-1.1-7.8,0.3c-1.7,1-2.7,2.4-2.7,4.5c0,2.1,1.2,3.3,2.9,4.1c1.5,0.7,3.1,1.2,4.7,1.8c1.5,0.6,3.1,1.2,4.6,2
		c3.9,2,6,5.4,5.9,9.8c0,4.5-2.2,7.8-6.1,9.9c-4.4,2.4-9.1,2.5-13.8,1.5c-6.3-1.3-4.6-0.4-6-6.2c-0.1-0.5,0.3-1.2,0.5-1.8
		c0.5,0.4,1.3,0.6,1.6,1.1c2.4,4.8,10.2,6.4,14.2,2.8c3.3-2.9,2.8-7.6-1.1-9.6c-1.4-0.7-3-1.2-4.5-1.8c-1.6-0.6-3.3-1.2-4.8-2
		c-3.4-1.8-5.4-4.7-5.4-8.6c0-4,1.8-7,5.2-8.9c4.1-2.3,8.5-2.8,13.1-2c0.1,0,0.1,0,0.2,0C102,124.5,101.4,123.9,101.7,127.9z"/>
	<path class="st0" d="M351.7,161.2c-1.5-0.3-4.3-0.8-7.1-1.3c-1-0.2-1.6-0.7-1.8-1.8c-0.2-1.3-0.6-2.5-0.7-3.7
		c0-0.5,0.4-1.1,0.7-1.7c0.5,0.3,1.2,0.5,1.4,1c2.4,4.4,8.6,6.3,13,3.9c2.3-1.2,3.4-3.2,3.4-5.8c0-2.5-1.5-4.1-3.6-5
		c-2.4-1-5-1.8-7.4-2.9c-3.2-1.4-5.7-3.5-6.5-7.1c-1.1-4.8,0.8-9.1,5.3-11.4c4.9-2.6,10.1-2.6,15.3-1.2c0.4,0.1,0.9,0.7,0.9,1.2
		c0.2,1.3,0.3,2.6,0.3,4c0,0.4-0.4,1-0.7,1.1c-0.3,0.1-1-0.3-1.1-0.7c-2.1-3.9-6.7-5.1-10.6-2.7c-1.7,1-2.7,2.5-2.6,4.6
		c0.1,2,1.2,3.2,2.9,3.9c1.5,0.7,3.1,1.2,4.7,1.8c1.6,0.7,3.4,1.3,4.9,2.1c7.1,4,7.7,13.6,1.2,18.5
		C360.4,160.5,356.8,161.1,351.7,161.2z"/>
	<path class="st0" d="M270.8,191.8c0-3.2,0-6.3,0-9.5c0-0.8,0-1.5,1-1.6c2.8-0.3,5.7-1,8.5-0.7c5.6,0.5,9.3,4.6,9.9,10.3
		c0.7,6.5-2.8,12.2-8.6,13c-3.2,0.5-6.6-0.2-9.9-0.5c-0.3,0-0.9-1-0.9-1.5C270.8,198.1,270.8,195,270.8,191.8z M275.9,191.7
		c0,2.4,0.1,4.7,0,7.1c0,1.2,0.5,1.6,1.6,1.7c2.3,0.2,4.2-0.5,5.6-2.3c2.7-3.3,2.8-9.4,0.2-12.7c-1.5-2-3.5-2.9-6-2.5
		c-1,0.1-1.4,0.6-1.3,1.6C275.9,186.9,275.9,189.3,275.9,191.7z"/>
	<path class="st0" d="M339.7,207c0.8-1.5,1.9-1.8,3.4-1.3c0.1,0,0.2,0.1,0.3,0.1c3.1,1,4.2,0.1,3.9-3.3c-1.8,1.1-3.6,1.1-5.4,0.1
		c-1.9-1.1-2.8-2.9-3.2-4.9c-0.5-2.7-0.4-5.4,1-7.9c1.8-3.2,5.4-3.9,8.2-1.8c1.3-0.5,2.6-1,4.1-1.5c0,3.2,0,6.1,0,8.9
		c0,2.4,0,4.8,0,7.2c0,3.3-1.4,5.7-3.9,6.7C345.4,210.2,341.8,209.3,339.7,207z M347.4,195c-0.1-1,0-2.3-0.3-3.4
		c-0.2-0.6-0.9-1.5-1.5-1.5c-0.5-0.1-1.6,0.8-1.7,1.3c-0.2,2.5-0.2,5,0,7.5c0,0.5,1.2,1.4,1.8,1.4c0.6-0.1,1.3-1,1.5-1.7
		C347.4,197.5,347.3,196.3,347.4,195z"/>
	<path class="st0" d="M185.1,201.9c-1.2,1.4-3,0.1-4.6,0.8c0-8.6,0-16.9,0-25.3c1.4,0,2.8,0,4.4,0c0,3.3,0,6.6,0,9.6
		c1.8-0.3,3.5-0.7,5.2-0.8c0.9,0,1.9,0.4,2.8,0.8c3,1.6,4.2,5.5,3.2,9.8c-0.8,3.6-3.5,6-6.9,6C187.9,202.7,186.6,202.2,185.1,201.9z
		 M191.8,194.2c-0.1,0-0.1,0-0.2,0c-0.1-0.9-0.1-1.7-0.2-2.6c-0.1-0.6-0.2-1.1-0.4-1.7c-0.6-2-1.7-3-3.2-2.9
		c-1.6,0.1-2.8,1.6-2.8,3.6c-0.1,2.6,0,5.3,0,7.9c0,1.6,0.8,2.8,2.4,3.1c1.7,0.3,2.8-0.7,3.3-2.2C191.2,197.8,191.4,196,191.8,194.2
		z"/>
	<path class="st0" d="M329.3,186.8c4.6,0,7.7,3.3,7.8,8.3c0,4.8-3.3,8.3-7.8,8.3c-4.5,0-7.7-3.5-7.7-8.2
		C321.6,190.2,324.8,186.8,329.3,186.8z M326.3,195.2c0.2,1,0.2,1.9,0.5,2.9c0.3,1.2,1.2,2,2.5,2c1.3,0,2.4-0.7,2.5-1.9
		c0.2-2,0.2-4,0-5.9c-0.1-1.2-1.2-1.9-2.5-1.9c-1.3,0-2.1,0.8-2.5,2C326.6,193.2,326.5,194.2,326.3,195.2z"/>
	<path class="st0" d="M308.4,201.5c-2.5,2.1-5.6,2.5-7.8,1c-1.5-1-2.1-3.2-1.4-5.1c0.8-2.3,4.1-4,7.4-3.7c0.2,1.2-0.2,2.1-1.3,2.7
		c-0.4,0.2-1,0.4-1.1,0.7c-0.3,0.8-0.6,1.7-0.4,2.5c0.1,0.4,1.3,0.9,1.8,0.8c0.7-0.2,1.6-0.9,1.7-1.5c0.2-2.3,0.1-4.7,0.1-7.1
		c0-1.2-1-1.7-2-1.6c-0.7,0-1.4,0.2-2,0.5c-2,0.7-2.5,0.6-3.8-1.1c2.2-2.5,7-3.5,10-1.9c1.7,0.9,2.6,2.4,2.7,4.3
		c0.2,2.8-0.3,5.6,0.8,8.4c0.5,1.4-0.7,2.1-1.8,2.8C309.6,204,309.3,202.3,308.4,201.5z"/>
	<path class="st0" d="M168.3,186.6c-0.6,3.6-1.2,6.8-1.7,10.1c-0.1,0.5-0.1,0.9-0.1,1.4c0.1,2.2,1,3.4,2.7,3.4
		c1.9,0,3.4-1.5,3.4-3.6c0-3.3,0-6.7,0-10c0-0.3,0-0.7,0.1-1.2c1.4,0,2.8,0,4.4,0c0,5.2,0,10.4,0,15.7c-1.4,0-2.9,0-4.4,0
		c-0.1-0.5-0.1-1-0.2-1.7c-1.8,1.8-3.8,2.4-6.1,2.1c-2.7-0.4-4.7-2.3-4.4-5.1c0.3-3.5,1.1-6.9,1.7-10.4c0.1-0.3,0.6-0.7,0.9-0.7
		C165.8,186.5,167,186.6,168.3,186.6z"/>
	<path class="st0" d="M236.8,200.7c0.4,0.2,0.8,0.5,1.3,0.6c1.4,0.2,3,0.6,4.4,0.3c1.7-0.3,2.5-2,1.7-3.6c-0.6-1.3-1.6-2.5-2.5-3.7
		c-1.3-1.6-2.8-2.9-4-4.5c-1.5-1.9-2.5-4.1-1.2-6.5c1.3-2.5,3.6-3.1,6.2-3c1.4,0.1,2.7,0.6,4.1,0.9c-0.1,0.3-0.2,0.5-0.2,0.8
		c-0.5-0.2-1-0.4-1.6-0.6c-1.5-0.4-3-0.8-4.1,0.7c-1.1,1.4-0.5,2.9,0.4,4.1c1.5,1.8,3.2,3.5,4.7,5.3c1.4,1.6,2.7,3.4,2.4,5.7
		c-0.2,1.2-0.7,2.6-1.6,3.5c-2,2.2-6.7,2.7-9.3,1.2c-0.3-0.2-0.6-0.5-0.9-0.8C236.6,201,236.7,200.9,236.8,200.7z"/>
	<path class="st0" d="M203.3,177.4c0,8.4,0,16.6,0,25c-1.5,0-2.9,0-4.4,0c0-8.3,0-16.6,0-25C200.3,177.4,201.7,177.4,203.3,177.4z"
		/>
	<path class="st0" d="M314.8,180c2.8-0.2,4.6,1,4.7,3.2c0.1,6.7,0,13.3,0,20c-2.8,0.6-4.6-0.9-4.7-3.8c-0.1-3.9,0-7.8,0-11.7
		C314.8,185.1,314.8,182.6,314.8,180z"/>
	<path class="st0" d="M241.8,66.7c-0.6-2.1-2.3-3.1-3.9-4.2c-1.1-0.8-2.2-1.8-2.8-2.9c-0.7-1.6-1.4-3-3.2-3.6
		c0.7,0.1,1.4,0.2,2.3,0.3c0.6-2.1,1.3-4.2,1.8-6.3c0.4-2.2-0.4-2.9-2.6-2.5c-0.8,0.1-2.1,0.8-2.3-0.5c-0.1-0.8,0.6-2,1.3-2.4
		c2.2-1.3,4.6-1.4,7-0.4c1.9,0.9,2.6,2.5,2.5,4.5c-0.1,1.8-0.2,3.7-0.2,5.5c0,1.2,0.4,2.4,2,2.8c0.7-2.9,1.4-5.7,2.1-8.6
		c0.1,0,0.2,0,0.3,0c0.7,4.1,1.5,8.1,2.2,12.2c-1.6-0.7-3-1.4-4.5-2c-2.3-1-3.2-2.5-3.1-5.1c0.1-1.5,0.3-3,0.3-4.5
		c0.1-3.2-1.5-4.7-5-4.7c0.5,0.3,0.7,0.6,1.1,0.7c1.6,0.9,2.1,2.3,1.5,4c-0.5,1.5-1.2,3-1.9,4.5c-1.7,4-1.1,5.9,2.4,8.4
		C241,63.2,242.2,64.5,241.8,66.7z M231.8,46.8c1.5,0,2.7,0,4.1,0C234.4,45.4,233.4,45.3,231.8,46.8z"/>
	<path class="st0" d="M282.3,58.8c-0.8,0.3-1.5,0.6-2.3,0.9c1-2.1,2.1-2.3,4.7-1c-0.7-1.2-1.7-1.9-2.9-1.7c-1.7,0.3-3,1.3-3.5,2.9
		c-0.4,1.1-0.5,2.2-0.6,3.4c-0.6,3.9-2.1,4.9-5.8,3.6c-1.8-0.6-2.9,0.3-4,1.5c-0.7,0.7-1.5,1.3-2.5,1.7c1.7-2.7,3.1-5.6,6.8-6.1
		c2.9-0.4,3.6-2.9,4-5c0.8-0.5,1.4-0.7,1.8-1.1c2.5-2.2,5.5-2.3,7.5,0c0.5,0.5,0.7,1.2,1,1.6c-1.7,0.6-3.9,0.7-4.5,1.7
		c-1.1,1.7-1.1,4.1-1.7,6.4c1.7,0,3,0,4.3,0c0,0.1,0.1,0.3,0.1,0.4c-4.9,2.2-9.8,4.4-14.7,6.5c-0.1-0.1-0.2-0.2-0.3-0.4
		c0.6-0.5,1.2-1.2,1.9-1.5c1.2-0.6,2.5-0.9,3.7-1.3c2.7-0.8,4.2-2.6,4.4-5.5c0.1-1.1,0-2.4,0.4-3.4
		C280.5,61.2,281.4,60.1,282.3,58.8z M272.3,65.7c0.5,0.2,1.1,0.5,1.8,0.6c0.4,0.1,1.1,0,1.2-0.2c0.6-1.2,1-2.5,1.4-3.7
		C275.2,63.5,273.8,64.6,272.3,65.7z"/>
	<path class="st0" d="M225.7,187.7c-0.4-0.1-0.8-0.1-1.2-0.2c-2.8-0.9-4.8,0-5.2,2.9c-0.4,2.6-0.4,5.3,0,7.8c0.5,3.3,2.8,4.2,5.9,3
		c0.3-0.1,0.6-0.2,1-0.3c-1,2.1-5.7,2.5-8.7,0.9c-3.8-2.1-5-8.4-2.4-12.4C217.4,186,222.7,184.9,225.7,187.7z"/>
	<path class="st0" d="M233.3,186.7c0,5.2,0,10.3,0,15.6c-1.5,0-3,0-4.5,0c0-5.2,0-10.3,0-15.6C230.2,186.7,231.7,186.7,233.3,186.7z
		"/>
	<path class="st0" d="M206.7,186.6c1.5,0,2.9,0,4.4,0c0,5.2,0,10.4,0,15.7c-1.4,0-2.8,0-4.4,0C206.7,197.2,206.7,192,206.7,186.6z"
		/>
	<path class="st0" d="M297.4,203.3c-3.3-0.1-4.6-1.2-4.7-4.1c-0.1-3.2-0.1-6.4,0-9.6c0-2,0.9-2.8,2.5-2.8c1.5,0,2.2,0.9,2.2,2.9
		C297.4,194.2,297.4,198.7,297.4,203.3z"/>
	<path class="st0" d="M272.3,56.2c0.9-0.5,2.1-1.1,3.3-1.6c-3.5,4.8-6.7,9.8-11.2,13.8c2.2-1.8,2.7-4.1,3.1-6.7
		c0.2-1.4,1.4-2.8,2.3-3.9c1.6-1.9,2.4-4,2.4-6.5c-0.1-2-1.1-3.2-3.4-3.9c0.3,0.5,0.6,0.8,0.8,1.2c1.2,1.9,0.9,3.5-1,4.7
		c-0.9,0.6-1.9,1.1-2.9,1.5c-1.8,0.6-2.8,1.9-3.2,3.7c-0.1,0.7-0.3,1.4-0.3,2c-0.1,3.2-2.3,4.7-5.2,5.4c0.5-0.5,0.9-1.1,1.4-1.4
		c1.8-1.3,2.7-2.9,2.7-5.1c0-1.7,0.6-3.2,2-4.4c0.5-0.5,0.5-1.6,0.8-2.6c0.3,0.6,0.5,1.2,0.8,1.9c0.9-0.4,1.7-0.6,2.5-1.1
		c2.1-1.1,2.3-2.5,0.9-4.3c-0.2-0.2-0.4-0.4-0.5-0.7c-0.2-0.4-0.5-1.1-0.3-1.3c0.2-0.3,0.9-0.4,1.4-0.4c1.8,0.1,3.7,1.8,3.9,3.8
		C272.7,52.2,272.4,54.2,272.3,56.2z"/>
	<path class="st0" d="M262.5,191.5c0,1.7-1.5,3.2-3.2,3.2c-1.7,0-3.2-1.5-3.1-3.2c0-1.8,1.4-3.2,3.2-3.2
		C261.1,188.3,262.5,189.7,262.5,191.5z"/>
	<path class="st0" d="M233.5,181.7c0,1.5-1,2.5-2.5,2.4c-1.4,0-2.4-0.9-2.4-2.3c0-1.5,1-2.5,2.4-2.6
		C232.4,179.2,233.5,180.3,233.5,181.7z"/>
	<path class="st0" d="M211.4,181.7c0,1.5-1,2.5-2.5,2.5c-1.4,0-2.4-0.9-2.5-2.3c-0.1-1.5,0.9-2.5,2.4-2.6
		C210.3,179.2,211.4,180.2,211.4,181.7z"/>
	<path class="st0" d="M297.5,182.4c0,1.4-1.1,2.5-2.5,2.5c-1.4,0-2.4-1.1-2.4-2.4c0-1.4,1.2-2.5,2.5-2.5
		C296.5,180,297.5,181.1,297.5,182.4z"/>
	<path class="st0" d="M254.8,76.5c-0.5-1.5-0.7-2.9,0.7-3.8c1.9-1.2,3.3,0.4,4.8,1.1C259.3,75.3,258.4,75.8,254.8,76.5z"/>
	<path class="st0" d="M231,63.3c0.4,0.5,1.1,1,1.5,1.7c0.4,0.6,0.5,1.4,0.7,2.1c0.8,2.7,1.4,3.2,4.2,3.4c0.1,0.2,0.1,0.3,0.2,0.5
		c-0.9,0.3-1.8,1-2.5,0.8c-1-0.3-2.1-1-2.8-1.9c-0.5-0.7-0.3-1.9-0.5-2.8C231.6,65.8,231.3,64.6,231,63.3z"/>
	<path class="st0" d="M241.2,74c1.5-0.7,2.8-2.3,4.7-1.1c1.4,0.9,1.1,2.2,0.7,4c-1.9-0.8-3.7-1.5-5.5-2.2
		C241.1,74.4,241.2,74.2,241.2,74z"/>
	<path class="st0" d="M262.2,67.4c0.4-1.3,1.3-2.6,1.3-3.9c0-3.5,1-6.1,4.4-7.5c0.6-0.2,1-0.7,1.8-0.9c-0.5,0.5-0.9,1.1-1.4,1.4
		c-2.2,1.5-3.4,3.5-3.4,6.2c0,1.7-0.1,3.5-2,4.5C262.5,67.4,262.1,67.4,262.2,67.4z"/>
	<path class="st0" d="M247.8,64.6c-1.2-0.8-2.3-1.8-3.6-2.5c-1.4-0.7-3.1-1-4.5-1.8c-1.8-0.9-2.1-2.1-1.2-4.2
		c0.2,2.5,1.9,3.4,3.8,4.1c1.2,0.4,2.5,0.8,3.7,1.4C247.4,62.4,248.1,63.5,247.8,64.6z"/>
	<path class="st0" d="M245,68.5c-0.7,0.7-1.4,1.3-2.2,2.1c2.7,0,5.1,0,7.6,0c-0.6,1.6-1.5,1.7-2.4,1.2c-1.9-0.9-3.6-0.7-5.4,0.2
		c-1.1,0.6-2.1,0.4-2.4-0.7c1.6-1.1,3.1-2.1,4.6-3C244.9,68.3,244.9,68.4,245,68.5z"/>
	<path class="st0" d="M261.9,71.4c-0.7,0.2-1.6,0.7-2.1,0.4c-1.8-1-3.4-0.7-5.1-0.1c-0.6,0.2-1.9-0.2-2.3-0.8
		c-0.7-0.9-0.3-2,0.5-2.4c0.4,0.8,0.5,1.9,1.1,2.4c0.5,0.3,1.6-0.1,2.3-0.4c1.2-0.5,2.3-0.9,3.6-0.1c0.5,0.3,1.2,0.3,1.7,0.4
		C261.8,71.1,261.9,71.3,261.9,71.4z"/>
	<path class="st0" d="M278.5,67.1c-2.4,3.4-6.8,2.1-9.9,4.7c1-2,2.1-2.6,5.2-3.2c1.5-0.3,2.9-1.2,4.3-1.8c0,0,0.1,0,0.1,0
		C278.3,66.8,278.3,66.9,278.5,67.1z"/>
	<path class="st0" d="M265.9,77.2c-1.5,0.1-2.9,0.1-4.5,0.2C262.3,75.9,264,75.9,265.9,77.2z"/>
</g>
<path class="st1" d="M932.4,1203"/>
</svg>
