<?xml version="1.0" encoding="utf-8"?>
<!-- Generator: Adobe Illustrator 24.0.2, SVG Export Plug-In . SVG Version: 6.00 Build 0)  -->
<svg version="1.1" id="logo" xmlns="http://www.w3.org/2000/svg" xmlns:xlink="http://www.w3.org/1999/xlink" x="0px" y="0px"
	 viewBox="0 0 489.5 251.6" style="enable-background:new 0 0 489.5 251.6;" xml:space="preserve">
<style type="text/css">
	.st0{stroke:#231F20;stroke-width:3;stroke-miterlimit:10;}
	.st1{fill:#FFFFFF;}
</style>
<title>amdocswhite</title>
<path class="st0" d="M932.4,1203"/>
<g>
	<polygon class="st1" points="160.8,100 165.1,100 170.8,73.9 162.2,73.9 162.2,68.5 158.3,68.5 158.3,77.3 165.7,77.3 	"/>
	<path class="st1" d="M174.3,73.9v3.4h2.8c0,0,0.8,7.4,1.1,9.7c0.6,4.3-0.4,8.8-5,8.8h-0.9v4.2h0.8c3.2,0,5.3-2.8,5.9-5.9l0.7,5.9
		h4.1l-2.9-26.1H174.3z"/>
	<rect x="185.5" y="84.4" class="st1" width="9.4" height="3.4"/>
	<rect x="214.1" y="83.9" class="st1" width="4.4" height="16.1"/>
	<path class="st1" d="M205,84.5c0,1.5,0,15.5,0,15.5h4.4c0,0,0-12.1,0-14.8c0-6.6-0.4-11.3-7.5-11.3h-4.8v3.4h4.4
		C205.2,77.3,205,80.6,205,84.5z"/>
	<polygon class="st1" points="223.2,100 227.6,100 227.6,73.9 214.1,73.9 214.1,77.3 223.2,77.3 	"/>
	<path class="st1" d="M162.3,116.6h3v15.6c0,2.4-0.4,3.6-2.6,3.6h-1.8v1.7h2.5c3.7,0,4.3-2.3,4.3-6.4v-16.3h-5.4V116.6z"/>
	<rect x="154.6" y="114.9" class="st1" width="2.4" height="22.7"/>
	<rect x="219.4" y="114.9" class="st1" width="2.4" height="14.2"/>
	<path class="st1" d="M126.7,116.6h2.9c3.2,0,4.5,2.3,4.5,6.2v14.8h2.4v-12.9c0-5.8-0.5-9.8-6.6-9.8h-5.5v22.7h2.4V116.6z"/>
	<rect x="116.4" y="114.9" class="st1" width="2.4" height="22.7"/>
	<path class="st1" d="M104.9,114.9h-6.3v1.7h2.2v19.3h-3.5v1.7h5.9v-21h2c2.9,0,3.7,1.8,3.7,6.5v14.5h2.4v-12.9
		C111.3,118.9,111.2,114.9,104.9,114.9z"/>
	<path class="st1" d="M149.7,123.6c0-6.1-1.3-8.8-6.3-8.8h-3.3v1.7h3.8c2,0,3.4,1.6,3.4,6.1v7.1c0,4.5-1.4,6.1-3.4,6.1h-3.8v1.7h3.3
		c5,0,6.3-2.6,6.3-8.7V123.6z"/>
	<polygon class="st1" points="182,135.9 182,133.5 180,133.5 178.1,142.6 179.1,142.6 	"/>
	<path class="st1" d="M192.9,122.8v14.8h2.4v-12.7c0-5.8,0-10-6.2-10h-4.1v1.7h3.9C192.7,116.6,192.9,119.5,192.9,122.8z"/>
	<path class="st1" d="M208.4,123.6c0-6.1-1.3-8.8-6.3-8.8h-3.3v1.7h3.8c2,0,3.4,1.6,3.4,6.1v7.1c0,4.5-1.4,6.1-3.4,6.1h-3.8v1.7h3.3
		c5,0,6.3-2.6,6.3-8.7V123.6z"/>
	<path class="st1" d="M225.9,128.7c0,6.4-2.3,7.1-5.8,7.1h-3.7l-1.9-21h-2.4l1.9,22.7h6.3c4.9,0,7.9-1.4,7.9-9.7v-13h-2.4V128.7z"/>
	<path class="st1" d="M200.9,167.9c0,6.4-2.3,7.1-5.8,7.1h-3.7l-1.9-21h-2.4l1.9,22.7h6.3c4.9,0,7.9-1.4,7.9-9.7v-13h-2.4V167.9z"/>
	<polygon class="st1" points="164.9,154 155.9,154 155.9,155.7 162.6,155.7 162.6,175 155.8,175 155.8,176.7 167.2,176.7 167.2,175 
		164.9,175 	"/>
	<path class="st1" d="M213.4,154h-6.5v1.7h3l-3,21h2.5l2.8-21h1.2c2.9,0,4,1.8,4,5.3V175h-4v1.7h6.4v-13.9
		C219.7,157,218.4,154,213.4,154z"/>
	<rect x="92.4" y="154" class="st1" width="2.4" height="14.2"/>
	<rect x="225" y="154" class="st1" width="2.4" height="22.7"/>
	<rect x="194.4" y="154" class="st1" width="2.4" height="14.2"/>
	<path class="st1" d="M137.4,161.6V154H135v8.1c0,2.4-0.7,3.1-2.8,3.9l-5.6-12.1h-2.5l3.5,7.4c-2.8,0.7-3.5,2.8-3.5,5.7v9.6h2.3
		v-10.5c0-1.5,0.5-2.6,1.8-3.1l6.6,13.6h2.5l-4.4-9C136.5,166.7,137.4,164.9,137.4,161.6z"/>
	<rect x="149.3" y="154" class="st1" width="2.3" height="12"/>
	<path class="st1" d="M183.5,161.6V154h-2.3v8.1c0,2.4-0.7,3.1-2.8,3.9l-5.6-12.1h-2.5l3.5,7.4c-2.8,0.7-3.5,2.8-3.5,5.7v9.6h2.3
		v-10.5c0-1.5,0.5-2.6,1.8-3.1l6.6,13.6h2.5l-4.4-9C182.6,166.7,183.5,164.9,183.5,161.6z"/>
	<rect x="106.1" y="154" class="st1" width="2.4" height="22.7"/>
	<path class="st1" d="M98.8,167.9c0,6.4-2.3,7.1-5.8,7.1h-3.7l-1.9-21H85l1.9,22.7h6.3c4.9,0,7.9-1.4,7.9-9.7v-13h-2.4V167.9z"/>
	<path class="st1" d="M113.8,155.7h3v15.6c0,2.4-0.4,3.6-2.6,3.6h-1.8v1.7h2.5c3.7,0,4.3-2.3,4.3-6.4V154h-5.4V155.7z"/>
	<rect x="257.3" y="73.6" class="st1" width="0.8" height="102.8"/>
	<path class="st1" d="M339.8,61.1c-35.7,0-64.7,29-64.7,64.7c0,35.7,29,64.7,64.7,64.7c35.7,0,64.7-29,64.7-64.7
		C404.4,90.1,375.5,61.1,339.8,61.1z M355.4,174.5c-4.6-0.7-9.5-2.2-14.9-4.8c-43.8-21.4-39.6-73.6-39.5-74.4
		c3.9-7.4,9.1-13.2,14.7-17.6c0.9-0.4,28.1-12,53.1,0.9c7.2,8.3,17.8,24.1,17.1,44.5C383.3,156.6,361.9,170.9,355.4,174.5z"/>
</g>
</svg>
