<?xml version="1.0" encoding="utf-8"?>
<!-- Generator: Adobe Illustrator 24.0.2, SVG Export Plug-In . SVG Version: 6.00 Build 0)  -->
<svg version="1.1" id="logo" xmlns="http://www.w3.org/2000/svg" xmlns:xlink="http://www.w3.org/1999/xlink" x="0px" y="0px"
	 viewBox="0 0 489.5 251.6" style="enable-background:new 0 0 489.5 251.6;" xml:space="preserve">
<style type="text/css">
	.st0{fill:#FFFFFF;}
	.st1{stroke:#231F20;stroke-width:3;stroke-miterlimit:10;}
</style>
<title>amdocswhite</title>
<g>
	<path class="st0" d="M173.8,83.5c-6,0-10.5,2.4-13.6,7.1c-2.5,3.9-3.8,9.5-3.8,16.8c0,8.7,2,15.1,5.9,19.2
		c2.7,2.9,6.5,4.3,11.4,4.3c3.3,0,6.1-0.6,8.3-1.9c2.8-1.6,5-4.2,6.6-7.7c1.6-3.5,2.4-8.1,2.4-13.7c0-6.7-0.8-11.8-2.4-15.1
		c-1.6-3.3-3.6-5.7-6.1-7.1C179.9,84.2,177,83.5,173.8,83.5z"/>
	<path class="st0" d="M110.9,112v15.3c0,3,0.2,4.9,0.5,5.6s1,1.4,1.9,1.8c0.9,0.5,2.6,0.7,5.1,0.7v1.5h-28v-1.5
		c2.5,0,4.3-0.2,5.2-0.7c0.9-0.5,1.5-1.1,1.9-1.8c0.4-0.8,0.5-2.6,0.5-5.6V91.5c0-3-0.2-4.8-0.5-5.6s-1-1.4-1.9-1.8
		c-0.9-0.5-2.6-0.7-5.2-0.7v-1.5h24c7.9,0,13.6,1.4,17,4.2c3.4,2.8,5.2,6.3,5.2,10.6c0,3.6-1.1,6.6-3.3,9.2
		c-2.2,2.5-5.3,4.3-9.2,5.2C121.6,111.6,117.1,112,110.9,112z M110.9,85v23.8c0.9,0.1,1.6,0.1,2,0.1c3.3,0,5.8-1,7.6-2.9
		c1.8-2,2.7-5,2.7-9.1c0-4.1-0.9-7.1-2.7-9c-1.8-1.9-4.5-2.8-8-2.8H110.9z"/>
	<path class="st0" d="M226.9,81.8l27.2,34.1V92.3c0-3.3-0.5-5.5-1.4-6.7c-1.3-1.6-3.5-2.3-6.5-2.3v-1.5h18.2v1.5
		c-2.3,0.3-3.9,0.7-4.7,1.2c-0.8,0.5-1.4,1.2-1.9,2.3s-0.7,2.9-0.7,5.5v45.8h-1.4l-37.2-45.8v35c0,3.2,0.7,5.3,2.2,6.4
		c1.4,1.1,3.1,1.7,5,1.7h1.3v1.5h-19.5v-1.5c3,0,5.1-0.6,6.3-1.9c1.2-1.2,1.8-3.3,1.8-6.2V88.4l-1.2-1.5c-1.2-1.5-2.2-2.4-3.1-2.9
		c-0.9-0.5-2.2-0.7-3.9-0.8v-1.5H226.9z"/>
	<path class="st0" d="M319.5,81.8v14.9H318c-0.9-3.4-1.8-5.9-2.9-7.4c-1.1-1.5-2.5-2.7-4.3-3.6c-1-0.5-2.8-0.7-5.4-0.7h-4.1v42.5
		c0,2.8,0.2,4.6,0.5,5.3c0.3,0.7,0.9,1.3,1.8,1.8c0.9,0.5,2.1,0.8,3.7,0.8h1.8v1.5h-28.8v-1.5h1.8c1.6,0,2.9-0.3,3.9-0.9
		c0.7-0.4,1.3-1,1.7-1.9c0.3-0.6,0.4-2.4,0.4-5.1V85h-4c-3.7,0-6.4,0.8-8.1,2.4c-2.4,2.2-3.8,5.3-4.5,9.4H270V81.8H319.5z"/>
	<path class="st0" d="M354.9,135.4v1.5h-28.8v-1.5h1.8c1.6,0,2.9-0.3,3.9-0.9c0.7-0.4,1.2-1,1.6-1.9c0.3-0.6,0.4-2.4,0.4-5.1V91.2
		c0-2.8-0.1-4.6-0.4-5.3c-0.3-0.7-0.9-1.3-1.8-1.8c-0.9-0.5-2.1-0.8-3.7-0.8h-1.8v-1.5h28.8v1.5H353c-1.6,0-2.9,0.3-3.9,0.9
		c-0.7,0.4-1.3,1-1.7,1.9c-0.3,0.6-0.4,2.4-0.4,5.1v36.2c0,2.8,0.2,4.6,0.5,5.3c0.3,0.7,0.9,1.3,1.8,1.8c0.9,0.5,2.1,0.8,3.7,0.8
		H354.9z"/>
	<path class="st0" d="M395.1,80.6l0.4,18.4h-1.7c-0.8-4.6-2.7-8.3-5.8-11.1c-3.1-2.8-6.4-4.2-10-4.2c-2.8,0-4.9,0.7-6.6,2.2
		c-1.6,1.5-2.4,3.2-2.4,5.1c0,1.2,0.3,2.3,0.9,3.2c0.8,1.3,2,2.5,3.8,3.8c1.3,0.9,4.2,2.5,8.8,4.8c6.4,3.2,10.8,6.2,13,9
		c2.2,2.8,3.3,6,3.3,9.7c0,4.6-1.8,8.6-5.4,11.9c-3.6,3.3-8.1,5-13.7,5c-1.7,0-3.4-0.2-4.9-0.5c-1.5-0.4-3.5-1-5.8-2
		c-1.3-0.5-2.4-0.8-3.2-0.8c-0.7,0-1.4,0.3-2.2,0.8c-0.8,0.5-1.4,1.4-1.9,2.5h-1.5v-20.8h1.5c1.2,5.8,3.5,10.3,6.9,13.4
		s7.1,4.6,11,4.6c3,0,5.4-0.8,7.2-2.5c1.8-1.7,2.7-3.6,2.7-5.8c0-1.3-0.3-2.6-1-3.8c-0.7-1.2-1.7-2.4-3.1-3.5
		c-1.4-1.1-3.9-2.5-7.5-4.3c-5-2.5-8.6-4.6-10.8-6.3c-2.2-1.7-3.9-3.7-5.1-5.8c-1.2-2.1-1.8-4.5-1.8-7.1c0-4.4,1.6-8.1,4.8-11.2
		c3.2-3.1,7.3-4.6,12.2-4.6c1.8,0,3.5,0.2,5.2,0.6c1.3,0.3,2.8,0.9,4.6,1.8c1.8,0.9,3.1,1.3,3.8,1.3c0.7,0,1.3-0.2,1.7-0.6
		c0.4-0.4,0.8-1.5,1.1-3.1H395.1z"/>
	<g>
		<path class="st0" d="M188.7,83.5c-0.1-0.1-0.1-0.3-0.2-0.4c-3.9-6.3-8.9-9.3-15.2-9c-5.8-0.4-10.6,2.6-14.6,9
			c-0.1,0.1-0.1,0.2-0.2,0.4c4.2-2.9,9.1-4.2,14.7-4C179.3,79.3,184.4,80.6,188.7,83.5z"/>
		<path class="st0" d="M150.6,92c-6.8,3.8-10.3,8.9-10.3,15.5c0,6.5,3.5,11.6,10.5,15.3c-2.8-4.6-4.2-9.9-4.2-15.8
			C146.7,101.4,148,96.4,150.6,92z"/>
		<path class="st0" d="M158.6,131.2c3.7,6.4,8.8,9.6,15.1,9.6c6.2,0,11.1-3.2,14.8-9.5c-4.1,2.7-9,4.1-14.8,4.1
			C167.9,135.3,162.8,133.9,158.6,131.2z"/>
		<path class="st0" d="M197.9,92.6c-0.4-0.3-0.9-0.5-1.3-0.7c2.6,4.4,3.9,9.4,3.9,15.1c0,6.1-1.5,11.6-4.5,16.4
			c0.7-0.3,1.3-0.7,1.9-1c6.3-3.9,9.3-8.9,9-15.2C207.3,101.4,204.3,96.5,197.9,92.6z"/>
	</g>
	<g>
		<path class="st0" d="M170.1,150.4h2.8v18.2h10.5v2.5h-13.3V150.4z"/>
		<path class="st0" d="M192.1,155.7c1.1,0,2.1,0.3,3.1,0.7c1,0.5,1.8,1.2,2.4,2.1c0.4,0.7,0.7,1.5,0.9,2.5c0.1,0.8,0.2,1.9,0.2,3.3
			h-11.1c0.1,3.4,1.5,5.1,4.2,5.1c1.3,0,2.4-0.4,3.2-1.3c0.5-0.5,0.8-1.1,1-1.8h2.5c-0.2,1.3-0.8,2.5-1.9,3.5
			c-1.2,1.2-2.9,1.7-4.9,1.7c-2.1,0-3.8-0.8-5-2.4c-1.1-1.4-1.7-3.3-1.7-5.4c0-2.3,0.6-4.2,1.8-5.7
			C188.1,156.5,189.9,155.7,192.1,155.7z M196.2,162.4c-0.1-1.1-0.3-2-0.7-2.6c-0.7-1.2-1.9-1.8-3.5-1.8c-1.2,0-2.2,0.4-3,1.3
			c-0.7,0.8-1.1,1.9-1.2,3.1H196.2z"/>
		<path class="st0" d="M202.4,151.8h2.6v4.2h2.4v2.1H205v9.9c0,0.5,0.2,0.9,0.5,1.1c0.2,0.1,0.5,0.2,1,0.2c0.3,0,0.6,0,0.9,0v2
			c-0.6,0.2-1.2,0.2-1.9,0.2c-2,0-3-1.1-3-3.3v-10h-2V156h2V151.8z"/>
		<path class="st0" d="M210.5,156.5c1.1-0.2,1.6-1,1.6-2.6c0-0.1,0-0.3,0-0.4h-1.5v-3.1h3v2.8c0,1.2-0.2,2.1-0.6,2.9
			c-0.5,0.9-1.3,1.5-2.4,1.6V156.5z"/>
		<path class="st0" d="M217.9,166.4c0.1,0.8,0.3,1.5,0.6,1.9c0.6,0.8,1.7,1.2,3.3,1.2c0.9,0,1.7-0.2,2.4-0.5c0.8-0.5,1.2-1.1,1.2-2
			c0-0.7-0.3-1.1-0.9-1.5c-0.3-0.2-1.1-0.4-2.2-0.7l-2-0.5c-1.3-0.3-2.2-0.7-2.8-1.1c-1.1-0.7-1.6-1.6-1.6-2.8
			c0-1.6,0.6-2.8,1.7-3.6c1-0.8,2.4-1.2,4-1.2c2.3,0,3.9,0.7,4.9,2c0.6,0.8,0.9,1.7,0.9,2.7H225c0-0.6-0.2-1.1-0.6-1.6
			c-0.6-0.7-1.6-1-3-1c-1.9,0-2.9,0.7-2.9,2c0,0.7,0.3,1.2,1,1.6c0.4,0.2,0.9,0.4,1.7,0.6l1.7,0.4c1.8,0.4,3,0.9,3.7,1.3
			c1,0.6,1.5,1.7,1.5,3.1c0,1.6-0.6,2.9-1.9,3.8c-1.1,0.8-2.5,1.2-4.3,1.2c-4,0-6.1-1.8-6.3-5.3H217.9z"/>
		<path class="st0" d="M244.1,155.8c1.2,0,2.2,0.3,3.1,0.9c0.5,0.3,1,0.8,1.5,1.4v-1.9h2.3v13.7c0,1.9-0.3,3.4-0.8,4.5
			c-1.1,2-3,3.1-6,3.1c-1.6,0-3-0.3-4-1c-1.2-0.8-1.8-1.9-2-3.5h2.6c0.3,1.6,1.4,2.4,3.4,2.4c1.9,0,3.2-0.7,3.8-2.1
			c0.4-0.8,0.5-2.2,0.5-4.3c-1,1.5-2.6,2.3-4.7,2.3c-2.1,0-3.7-0.8-4.7-2.3c-0.9-1.3-1.4-3.1-1.4-5.2c0-2.2,0.5-4,1.5-5.5
			C240.5,156.6,242.1,155.8,244.1,155.8z M248.7,163.5c0-1.5-0.3-2.8-0.9-3.8c-0.7-1.2-1.8-1.8-3.2-1.8c-1.8,0-3,0.8-3.7,2.5
			c-0.3,0.9-0.5,2.1-0.5,3.5c0,1.4,0.3,2.6,0.8,3.5c0.7,1.1,1.7,1.7,3,1.7c1.8,0,3.1-0.8,3.8-2.5
			C248.5,165.9,248.7,164.8,248.7,163.5z"/>
		<path class="st0" d="M261.2,155.7c1.1,0,2.1,0.3,3.1,0.7c1,0.5,1.8,1.2,2.4,2.1c0.4,0.7,0.7,1.5,0.9,2.5c0.1,0.8,0.2,1.9,0.2,3.3
			h-11.1c0.1,3.4,1.5,5.1,4.2,5.1c1.3,0,2.4-0.4,3.2-1.3c0.5-0.5,0.8-1.1,1-1.8h2.5c-0.2,1.3-0.8,2.5-1.9,3.5
			c-1.2,1.2-2.9,1.7-4.9,1.7c-2.1,0-3.8-0.8-5-2.4c-1.1-1.4-1.7-3.3-1.7-5.4c0-2.3,0.6-4.2,1.8-5.7
			C257.1,156.5,258.9,155.7,261.2,155.7z M265.2,162.4c-0.1-1.1-0.3-2-0.7-2.6c-0.7-1.2-1.9-1.8-3.5-1.8c-1.2,0-2.2,0.4-3,1.3
			c-0.7,0.8-1.1,1.9-1.2,3.1H265.2z"/>
		<path class="st0" d="M271.4,151.8h2.6v4.2h2.4v2.1H274v9.9c0,0.5,0.2,0.9,0.5,1.1c0.2,0.1,0.5,0.2,1,0.2c0.3,0,0.6,0,0.9,0v2
			c-0.6,0.2-1.2,0.2-1.9,0.2c-2,0-3-1.1-3-3.3v-10h-2V156h2V151.8z"/>
		<path class="st0" d="M286.8,156.1h2.5v2c1.2-1.6,2.8-2.4,4.7-2.4c2,0,3.6,0.8,4.7,2.4c1,1.4,1.5,3.1,1.5,5.2c0,3.3-0.9,5.6-2.6,7
			c-1.1,0.9-2.4,1.3-3.8,1.3c-1.1,0-2.1-0.2-2.9-0.7c-0.5-0.3-1-0.8-1.5-1.5v7.7h-2.5V156.1z M293.3,169.4c1.5,0,2.5-0.7,3.3-2
			c0.6-1,0.9-2.4,0.9-3.9c0-1.2-0.2-2.2-0.5-3.1c-0.7-1.7-1.9-2.5-3.6-2.5c-2.7,0-4.1,2.1-4.1,6.2c0,1.2,0.2,2.2,0.5,3
			C290.4,168.7,291.6,169.4,293.3,169.4z"/>
		<path class="st0" d="M309.3,155.7c1.1,0,2.1,0.3,3.1,0.7c1,0.5,1.8,1.2,2.4,2.1c0.4,0.7,0.7,1.5,0.9,2.5c0.1,0.8,0.2,1.9,0.2,3.3
			h-11.1c0.1,3.4,1.5,5.1,4.2,5.1c1.3,0,2.4-0.4,3.2-1.3c0.5-0.5,0.8-1.1,1-1.8h2.5c-0.2,1.3-0.8,2.5-1.9,3.5
			c-1.2,1.2-2.9,1.7-4.9,1.7c-2.1,0-3.8-0.8-5-2.4c-1.1-1.4-1.7-3.3-1.7-5.4c0-2.3,0.6-4.2,1.8-5.7
			C305.3,156.5,307.1,155.7,309.3,155.7z M313.4,162.4c-0.1-1.1-0.3-2-0.7-2.6c-0.7-1.2-1.9-1.8-3.5-1.8c-1.2,0-2.2,0.4-3,1.3
			c-0.7,0.8-1.1,1.9-1.2,3.1H313.4z"/>
		<path class="st0" d="M319.1,156h2.4v2.6c0.3-0.8,0.9-1.5,1.7-2c0.8-0.6,1.6-0.9,2.4-0.9c0.1,0,0.4,0,0.8,0.1v2.7
			c-0.3,0-0.5-0.1-0.8-0.1c-1.2,0-2.1,0.4-2.9,1.1c-0.7,0.8-1.1,1.7-1.1,2.9v8.7h-2.5V156z"/>
		<path class="st0" d="M330.2,166.4c0.1,0.8,0.3,1.5,0.6,1.9c0.6,0.8,1.7,1.2,3.3,1.2c0.9,0,1.7-0.2,2.4-0.5c0.8-0.5,1.2-1.1,1.2-2
			c0-0.7-0.3-1.1-0.9-1.5c-0.3-0.2-1.1-0.4-2.2-0.7l-2-0.5c-1.3-0.3-2.2-0.7-2.8-1.1c-1.1-0.7-1.6-1.6-1.6-2.8
			c0-1.6,0.6-2.8,1.7-3.6c1-0.8,2.4-1.2,4-1.2c2.3,0,3.9,0.7,4.9,2c0.6,0.8,0.9,1.7,0.9,2.7h-2.4c0-0.6-0.2-1.1-0.6-1.6
			c-0.6-0.7-1.6-1-3-1c-1.9,0-2.9,0.7-2.9,2c0,0.7,0.3,1.2,1,1.6c0.4,0.2,0.9,0.4,1.7,0.6l1.7,0.4c1.8,0.4,3,0.9,3.7,1.3
			c1,0.6,1.5,1.7,1.5,3.1c0,1.6-0.6,2.9-1.9,3.8c-1.1,0.8-2.5,1.2-4.3,1.2c-4,0-6.1-1.8-6.3-5.3H330.2z"/>
		<path class="st0" d="M349.2,155.6c2.2,0,3.9,0.7,5.2,2.2c1.2,1.4,1.8,3.2,1.8,5.5c0,2.5-0.6,4.5-1.7,6c-1.3,1.6-3.1,2.4-5.6,2.4
			c-2.2,0-3.9-0.8-5.1-2.3c-1.1-1.4-1.7-3.2-1.7-5.5c0-2.4,0.6-4.3,1.7-5.8C345.1,156.4,346.9,155.6,349.2,155.6z M349.1,169.5
			c2.9,0,4.4-2.1,4.4-6.2c0-3.7-1.5-5.5-4.4-5.5c-1.6,0-2.7,0.6-3.5,1.9c-0.6,1.1-0.9,2.4-0.9,4.1c0,1.6,0.3,2.9,1,3.9
			C346.5,168.9,347.6,169.5,349.1,169.5z"/>
		<path class="st0" d="M359.2,156h2.4v2.1c1.3-1.7,3-2.5,4.9-2.5c2.1,0,3.6,0.7,4.3,2.2c0.4,0.8,0.6,2,0.6,3.5v9.7h-2.6v-9.5
			c0-2.4-1-3.6-2.9-3.6c-0.6,0-1.1,0.1-1.5,0.2c-0.7,0.2-1.3,0.6-1.8,1.2c-0.7,0.8-1,2.1-1,3.8v7.9h-2.5V156z"/>
		<path class="st0" d="M383.3,162c0.6-0.1,1-0.3,1.2-0.7c0.1-0.2,0.2-0.6,0.2-1c0-1.6-1.2-2.5-3.6-2.5c-1.3,0-2.3,0.4-2.8,1.1
			c-0.3,0.4-0.5,1-0.6,1.8h-2.4c0.1-3.3,2-5,5.9-5c1.7,0,3,0.3,4,0.8c1.3,0.7,1.9,1.8,1.9,3.3v8.7c0,0.6,0.3,0.9,0.8,0.9
			c0.2,0,0.5,0,0.8-0.1v1.9c-0.6,0.2-1.2,0.3-1.7,0.3c-0.9,0-1.5-0.3-1.9-0.9c-0.2-0.3-0.4-0.8-0.4-1.4c-0.6,0.8-1.4,1.4-2.4,1.9
			c-1,0.4-2,0.6-3,0.6c-1.4,0-2.5-0.4-3.4-1.2c-0.9-0.8-1.4-1.9-1.4-3.3c0-2.7,1.6-4.3,4.8-4.7L383.3,162z M377.2,167.1
			c0,0.7,0.3,1.3,0.8,1.8c0.5,0.4,1.1,0.6,1.9,0.6c0.9,0,1.8-0.2,2.6-0.6c1.4-0.7,2.1-1.8,2.1-3.4v-2c-0.6,0.4-1.5,0.6-2.6,0.8
			l-1.5,0.2c-0.9,0.1-1.6,0.3-2.1,0.6C377.6,165.4,377.2,166.2,377.2,167.1z"/>
		<path class="st0" d="M391.4,150.4h2.5v20.7h-2.5V150.4z"/>
	</g>
</g>
<path class="st1" d="M932.4,1203"/>
</svg>
