<?xml version="1.0" encoding="utf-8"?>
<!-- Generator: Adobe Illustrator 24.0.2, SVG Export Plug-In . SVG Version: 6.00 Build 0)  -->
<svg version="1.1" id="logo" xmlns="http://www.w3.org/2000/svg" xmlns:xlink="http://www.w3.org/1999/xlink" x="0px" y="0px"
	 viewBox="0 0 489.5 251.6" style="enable-background:new 0 0 489.5 251.6;" xml:space="preserve">
<style type="text/css">
	.st0{fill:#FFFFFF;}
	.st1{stroke:#231F20;stroke-width:3;stroke-miterlimit:10;}
</style>
<title>amdocswhite</title>
<g>
	<path class="st0" d="M102,81.1H49.6L54.8,99H102c4.9,0,8.9,4,8.9,8.9v8.9H66.3c-14.8,0-26.8,12-26.8,26.8c0,14.8,12,26.8,26.8,26.8
		H102c14.8,0,26.8-12,26.8-26.8c0,0,0-0.1,0-0.1v-35.6C128.8,93.1,116.8,81.2,102,81.1z M110.9,143.5c0,4.9-4,8.9-8.9,8.9H66.3
		c-4.9-0.3-8.7-4.6-8.4-9.5c0.3-4.5,3.9-8.1,8.4-8.4h44.6V143.5z"/>
	<polygon class="st0" points="154.3,116.9 138.1,116.9 138.1,134.7 159.5,134.7 	"/>
	<path class="st0" d="M219.5,143.8h-7.8v-4.3c-2.7,3.4-6.9,5.4-11.2,5.2c-9.9,0-17.9-8.1-17.9-18c0-0.3,0-0.5,0-0.8
		c-0.5-9.9,7.2-18.3,17.1-18.8c0.3,0,0.5,0,0.8,0c4.4-0.1,8.6,1.8,11.2,5.3V108h7.8L219.5,143.8z M190.6,125.9
		c-0.5,6,4,11.2,9.9,11.6c6,0.5,11.2-4,11.6-9.9c0-0.6,0-1.1,0-1.7c0.5-6-4-11.2-9.9-11.6c-6-0.5-11.2,4-11.6,9.9
		C190.5,124.8,190.5,125.3,190.6,125.9z"/>
	<path class="st0" d="M286.7,121.3v22.5h-7.8v-19.9c0-6-3.1-9.4-8.3-9.4c-4.9-0.2-9,3.5-9.3,8.4c0,0.4,0,0.7,0,1.1v19.8h-7.9v-19.9
		c0-6-3.1-9.4-8.3-9.4c-4.9-0.2-9,3.6-9.3,8.5c0,0.3,0,0.7,0,1v19.8H228V108h7.8v4.4c2.5-3.5,6.7-5.5,11-5.3c5-0.2,9.6,2.2,12.4,6.4
		c2.9-4.3,7.9-6.8,13.1-6.4c7.6-0.4,14.1,5.4,14.5,13C286.7,120.5,286.7,120.9,286.7,121.3z"/>
	<path class="st0" d="M375.9,125.9c0.2,10.6-8.2,19.5-18.8,19.7c-10.6,0.2-19.5-8.2-19.7-18.8s8.2-19.5,18.8-19.7c0.1,0,0.3,0,0.4,0
		c10.3-0.4,18.9,7.6,19.2,17.9C375.9,125.3,376,125.6,375.9,125.9z M345.3,125.9c0,6.2,5,11.2,11.2,11.2c6.2,0,11.2-5,11.2-11.2
		c0,0,0,0,0,0c0-6.2-5-11.2-11.2-11.2C350.4,114.7,345.3,119.7,345.3,125.9C345.3,125.9,345.3,125.9,345.3,125.9z"/>
	<path class="st0" d="M413.6,112.9l-5,5.3c-2.2-2.3-5.3-3.7-8.6-3.7c-5.9,0-10.7,4.9-10.6,10.8c0,0.2,0,0.5,0,0.7
		c-0.4,5.9,4,11,9.9,11.4c0.2,0,0.5,0,0.7,0c3.3-0.1,6.4-1.4,8.8-3.7l4.8,5.4c-3.4,3.8-8.3,5.9-13.4,5.7
		c-9.9,0.4-18.4-7.3-18.8-17.2c0-0.5,0-1.1,0-1.6c-0.4-9.9,7.3-18.4,17.2-18.8c0.5,0,1.1,0,1.6,0C405.4,107,410.2,109.1,413.6,112.9
		z"/>
	<path class="st0" d="M445.8,117c-3.4-1.9-7.2-3-11.1-3.1c-4.3,0-6.8,1.7-6.8,4.3s2.6,3.2,5.9,3.7l3.7,0.5
		c7.8,1.1,12.4,4.5,12.4,10.6c0,6.8-6,11.7-16.3,11.7c-5.4,0.1-10.8-1.5-15.3-4.5l3.6-5.9c3.4,2.6,7.6,3.9,11.8,3.7
		c5.3,0,8.1-1.7,8.1-4.4c0-2-1.9-3.4-6.2-3.9l-3.7-0.5c-7.9-1.1-12.1-4.8-12.1-10.5c0-7.1,5.7-11.5,14.8-11.5
		c5.1-0.1,10.1,1.2,14.5,3.8L445.8,117z"/>
	<path class="st0" d="M322.5,112.3v-13l7.8-2.8v47.3h-7.8v-4.3c-2.7,3.5-6.9,5.4-11.3,5.2c-9.9,0-17.9-8.1-17.9-18
		c0-0.3,0-0.5,0-0.8c-0.5-9.9,7.2-18.3,17.1-18.8c0.3,0,0.5,0,0.8,0C315.6,106.9,319.8,108.9,322.5,112.3z M301.4,126
		c-0.3,6,4.2,11.1,10.2,11.4s11.1-4.2,11.4-10.2c0-0.4,0-0.8,0-1.2c0.3-6-4.2-11.1-10.2-11.4s-11.1,4.2-11.4,10.2
		C301.4,125.1,301.4,125.5,301.4,126z"/>
</g>
<path class="st1" d="M932.4,1203"/>
</svg>
