<?xml version="1.0" encoding="utf-8"?>
<!-- Generator: Adobe Illustrator 24.0.2, SVG Export Plug-In . SVG Version: 6.00 Build 0)  -->
<svg version="1.1" id="logo" xmlns="http://www.w3.org/2000/svg" xmlns:xlink="http://www.w3.org/1999/xlink" x="0px" y="0px"
	 viewBox="0 0 489.5 251.6" style="enable-background:new 0 0 489.5 251.6;" xml:space="preserve">
<style type="text/css">
	.st0{fill-rule:evenodd;clip-rule:evenodd;fill:#FFFFFF;}
	.st1{stroke:#231F20;stroke-width:3;stroke-miterlimit:10;}
</style>
<title>amdocswhite</title>
<path class="st0" d="M209.3,150.7h11.5l-9.5,46h-11.5L209.3,150.7z M226.6,150.7h11.5l-5.7,27.6l-11.5,0L226.6,150.7z M284.2,150.7
	h11.5l-9.5,46l-11.5,0L284.2,150.7z M360.9,151.3c1.1-0.2,2.2-0.3,3.3-0.3c11.1,0,18,10.3,15.4,23c-2.6,12.7-13.8,23-24.9,23
	c-11.1,0-18-10.3-15.4-23c2.4-11.5,11.6-21,21.9-22.7L360.9,151.3L360.9,151.3z M358.4,163.4c-3.1,1.5-6.5,5-7.6,10.6
	c-1.6,7.9,2.9,11.5,6.3,11.5c3.4,0,9.4-3.7,11-11.5c1.6-7.9-2.9-11.5-6.3-11.5c-1.1,0-2.2,0.3-3.2,0.9L358.4,163.4L358.4,163.4z
	 M318.7,162.4c-0.9,0-1.7,0.2-2.5,0.6l2.5-11.9c0.8-0.1,1.6-0.2,2.4-0.2c10.8,0,17.5,10.3,14.9,23s-13.5,23-24.4,23
	c-10.8,0-17.5-10.3-14.9-23l4.7-23h11.5l-4.8,23c-1.7,8.1,2.9,11.5,5.8,11.5s8.9-3.4,10.5-11.5S321.5,162.4,318.7,162.4
	 M278.4,150.7l-2.4,11.5h-5.8l-7.1,34.5l-11.5,0l7.1-34.5l-17.3,0l2.4-11.5L278.4,150.7z M153.6,198.4c0.3,0,0.4,0.1,0.3,0.4
	l0.4,0.1c0-0.2,0.1-0.5,0.1-0.7c-0.2,0-0.5-0.1-0.7-0.1C153.7,198.2,153.7,198.3,153.6,198.4 M131.7,194.2l0.7,0.1
	c0-0.1,0-0.2,0.1-0.4l-0.7-0.1C131.7,193.9,131.7,194.1,131.7,194.2 M161.2,198.1l1.5,0.2c0-0.1,0-0.2,0.1-0.4
	c0.1,0,0.4,0.2,0.4-0.1c0-0.1,0-0.2,0-0.2l-1.8-0.3C161.3,197.6,161.3,197.9,161.2,198.1 M141.1,194.2l0.7,0.1c0-0.1,0-0.2,0.1-0.4
	c-0.2,0-0.5-0.1-0.7-0.1C141.1,193.9,141.1,194,141.1,194.2 M138.2,193.7c0.2,0,0.5,0.1,0.7,0.1c0,0.1,0,0.2-0.1,0.4
	c0.2,0,0.5,0.1,0.7,0.1c0,0.2-0.1,0.5-0.1,0.7l-0.4-0.1c0,0.1,0,0.2-0.1,0.4c0.3,0,0.4,0.1,0.3,0.4l0.4,0.1c0-0.3,0.1-0.4,0.4-0.3
	c0-0.2,0.1-0.5,0.1-0.7l0.4,0.1c0-0.1,0-0.2,0.1-0.4c-0.3,0-0.4-0.1-0.3-0.4c-0.2,0-0.5-0.1-0.7-0.1c0-0.1,0-0.2,0.1-0.4l-1.5-0.2
	C138.2,193.5,138.2,193.6,138.2,193.7 M141.7,193.1c0.3,0,0.4,0.1,0.3,0.4l0.4,0.1c0-0.2,0.1-0.5,0.1-0.7c-0.2,0-0.5-0.1-0.7-0.1
	C141.7,192.9,141.7,193,141.7,193.1 M166.3,197l0.4,0.1c0-0.3,0.1-0.4,0.4-0.3c0-0.1,0-0.2,0.1-0.4l-0.7-0.1
	C166.4,196.5,166.4,196.8,166.3,197 M146.2,192.3l-0.7-0.1c-0.1,0.5-0.2,1-0.2,1.5c0.1,0,0.2,0,0.3,0c0.2,0,0-0.4,0.2-0.3l0.7,0.1
	c0-0.3,0.1-0.4,0.4-0.3c0.1-0.4,0.1-0.7,0.2-1.1l-0.7-0.1C146.3,192.1,146.4,192.4,146.2,192.3 M143.4,191.9l0.7,0.1
	c0-0.1,0-0.2,0.1-0.4l-0.7-0.1C143.4,191.6,143.4,191.8,143.4,191.9 M127.9,189.4c0.1,0,0.2,0,0.4,0.1c0-0.1,0-0.2,0.1-0.4l-0.4-0.1
	C127.9,189.2,127.9,189.3,127.9,189.4 M141.6,191.2l0.4,0.1c0-0.1,0-0.2,0.1-0.4l-0.4-0.1C141.6,191,141.6,191.1,141.6,191.2
	 M166.7,194.8c0.2,0,0.5,0.1,0.7,0.1c0-0.2,0.1-0.5,0.1-0.7c-0.2,0-0.5-0.1-0.7-0.1L166.7,194.8 M152.3,192.2l-0.7-0.1l-0.1,0.4
	c0.5,0.1,1,0.2,1.5,0.2c0-0.2,0.1-0.5,0.1-0.7l-0.7-0.1C152.4,191.9,152.4,192.2,152.3,192.2 M148.3,191.5l0.7,0.1
	c0,0.1,0,0.2-0.1,0.4l0.4,0.1c0-0.2,0.1-0.5,0.1-0.7l-0.4-0.1c0-0.1,0-0.2,0.1-0.4c-0.2,0-0.5-0.1-0.7-0.1
	C148.4,191.1,148.4,191.3,148.3,191.5 M154.7,191.8l0.4,0.1c0-0.1,0-0.2,0.1-0.4c-0.1,0-0.2,0-0.4-0.1
	C154.7,191.5,154.7,191.7,154.7,191.8 M143.3,190c0.3,0,0.4,0.1,0.3,0.4l0.4,0.1c0.1-0.1,0-0.4,0.1-0.4l0.3,0l-0.1,0.4l0.4,0.1
	c0-0.2,0.1-0.5,0.1-0.7l-1.5-0.2C143.3,189.7,143.3,189.9,143.3,190 M128.9,187.7l0.4,0.1c0-0.1,0-0.2,0.1-0.4l-0.4-0.1
	C129,187.5,128.9,187.6,128.9,187.7 M152.2,190.7l0.7,0.1c0-0.1,0-0.2,0.1-0.4c-0.2,0-0.5-0.1-0.7-0.1L152.2,190.7 M138.8,190
	c0,0.3-0.1,0.4-0.4,0.3c0,0.3-0.1,0.5-0.2,0.7l-0.3,0c0-0.1,0-0.2,0.1-0.4l-0.7-0.1l0.1-0.4c-0.3,0-0.4-0.1-0.3-0.4
	c-0.4-0.1-0.7-0.1-1.1-0.2c0,0.3-0.1,0.4-0.4,0.3c0,0.2-0.1,0.5-0.1,0.7c0.1,0,0.2,0,0.4,0.1c0.1-0.1,0-0.4,0.1-0.4l1.4,0.2
	c0,0.1,0,0.2-0.1,0.4l0.7,0.1c0,0.1,0,0.2-0.1,0.4c0.4,0.1,0.7,0.1,1.1,0.2c0-0.5,0.1-1,0.3-1.5c0.1,0,0.2,0,0.3,0
	c0,0.1,0,0.2-0.1,0.4l0.7,0.1c0-0.2,0.1-0.5,0.1-0.7l0.4,0.1c0-0.3,0.1-0.4,0.4-0.3c0.1-0.4,0.1-0.7,0.2-1.1l-0.7-0.1
	c-0.1,0.1,0,0.4-0.1,0.4l-0.7-0.1c0,0.3-0.1,0.4-0.4,0.3c-0.1,0.4-0.1,0.7-0.2,1.1L138.8,190 M133.4,188.1l0.4,0.1
	c0-0.2,0.1-0.5,0.1-0.7l-0.4-0.1C133.5,187.6,133.5,187.8,133.4,188.1 M166.9,193.4l1.5,0.2c0,0.1,0,0.2-0.1,0.4l0.7,0.1
	c0-0.2,0.1-0.5,0.1-0.7c-0.1,0-0.2,0-0.4-0.1c0-0.1,0-0.2,0.1-0.4c-0.3,0-0.4-0.1-0.3-0.4c-0.2,0-0.5-0.1-0.7-0.1
	c-0.1,0.1,0,0.4-0.1,0.4l-0.3,0c0-0.1,0-0.2,0.1-0.4l-0.4-0.1C167,192.6,167,193,166.9,193.4 M133.2,186.9c0.1,0,0.2,0,0.4,0.1
	c0-0.1,0-0.2,0.1-0.4l-0.4-0.1C133.3,186.6,133.2,186.8,133.2,186.9 M130.3,186.4l0.4,0.1l0.1-0.4l-0.4-0.1
	C130.3,186.2,130.3,186.3,130.3,186.4 M150.1,189.2c-0.2,0-0.4-0.1-0.7-0.1c0,0.1,0,0.2-0.1,0.4c0.3,0,0.4,0.1,0.3,0.4
	c0.2,0,0.5,0.1,0.7,0.1c0.1-0.1,0-0.4,0.1-0.4l0.7,0.1l0.1-0.4c-0.3,0-0.4-0.1-0.3-0.4l-0.7-0.1
	C150.2,188.9,150.3,189.2,150.1,189.2 M144.7,188.3c0.2,0,0.5,0.1,0.7,0.1c0,0.1,0,0.2-0.1,0.4l0.7,0.1c0-0.2,0.1-0.5,0.1-0.7
	c-0.5-0.1-1-0.2-1.5-0.2C144.7,188.1,144.7,188.2,144.7,188.3 M139.5,187.9l0.7,0.1c0-0.2,0.1-0.5,0.1-0.7l-0.7-0.1
	C139.5,187.4,139.5,187.6,139.5,187.9 M138,187.7c0.2,0,0.5,0.1,0.7,0.1c0-0.2,0.1-0.5,0.1-0.7l-0.7-0.1
	C138.1,187.2,138,187.4,138,187.7 M148.4,188.9c0-0.1,0-0.2,0.1-0.4c-0.3,0-0.4-0.1-0.3-0.4c-0.2,0-0.5-0.1-0.7-0.1
	c0,0.1,0,0.2-0.1,0.4c0.1,0.1,0.4,0,0.4,0.1l0,0.3l-0.3,0l0,0.3l-0.1,0l-0.1,0.7l1.8,0.3l0-0.3c0-0.2-0.4,0-0.3-0.2
	c0-0.1,0-0.2,0-0.3l-0.1,0l0.1-0.3L148.4,188.9z M176.9,192.3l0.7,0.1c0-0.1,0-0.2,0.1-0.4l-0.7-0.1
	C176.9,192.1,176.9,192.2,176.9,192.3 M155.4,189.7c0.3,0,0.4,0.1,0.3,0.4l0.7,0.1c0.1-0.5,0.2-1,0.2-1.5c-0.4-0.1-0.7-0.1-1.1-0.2
	C155.5,188.9,155.5,189.3,155.4,189.7 M128.3,184.6c0.1,0,0.2,0,0.4,0.1c0-0.1,0-0.2,0.1-0.4l-0.4-0.1
	C128.3,184.4,128.3,184.5,128.3,184.6 M171.7,191.5c0.1,0,0.2,0,0.4,0.1c0,0.1,0,0.2-0.1,0.4l1.1,0.2c0-0.2,0.1-0.5,0.1-0.7
	l-0.4-0.1c0-0.1,0-0.2,0.1-0.4l-1.1-0.2C171.8,191,171.8,191.2,171.7,191.5 M164.6,191.1c0.1,0.1,0.4,0,0.4,0.1c0,0.1,0,0.2,0,0.3
	l-0.7-0.1c-0.1,0.1,0,0.4-0.1,0.4c-0.2,0-0.4-0.1-0.7-0.1c0,0.2-0.1,0.5-0.1,0.7l0.7,0.1c0,0.1,0,0.2-0.1,0.4l1.1,0.2
	c0.1-0.1,0-0.4,0.1-0.4l0.3,0c0,0.1,0,0.2-0.1,0.4c0.2,0,0.5,0.1,0.7,0.1c0-0.1,0-0.2,0.1-0.4l0.4,0.1c0-0.1,0-0.2,0.1-0.4
	c-0.3,0-0.4-0.1-0.3-0.4l-0.7-0.1c0.1-0.5,0.2-1,0.2-1.5c-0.1,0-0.2,0-0.4-0.1c0-0.1,0-0.2,0.1-0.4c-0.1,0-0.2,0-0.4-0.1
	c0-0.1,0-0.2,0.1-0.4l-0.4-0.1C164.8,190.1,164.7,190.6,164.6,191.1 M161.1,189.4c-0.1,0-0.2,0-0.4-0.1c-0.1,0.1,0,0.4-0.1,0.4
	c-0.5-0.1-0.9-0.1-1.4-0.2c0,0.1,0,0.2-0.1,0.4l-0.4-0.1l-0.1,0.4c0.2,0,0.5,0.1,0.7,0.1c0.1-0.1,0-0.4,0.1-0.4l1.8,0.3l0.1-0.4
	c0.1,0,0.2,0,0.4,0.1c0-0.1,0-0.2,0.1-0.4c-0.3,0-0.4-0.1-0.3-0.4l-0.4-0.1L161.1,189.4 M138.7,185.9l0.7,0.1c0-0.1,0-0.2,0.1-0.4
	l-0.7-0.1C138.7,185.6,138.7,185.7,138.7,185.9 M136,185.4l-0.7-0.1c0,0.2-0.1,0.5-0.1,0.7c0.1,0.1,0.4,0,0.4,0.1
	c0,0.2-0.1,0.4-0.1,0.7c-0.1,0-0.2,0-0.4-0.1c0,0.1,0,0.2-0.1,0.4l0.7,0.1c0,0.1,0,0.2-0.1,0.4l0.4,0.1c0-0.2,0.1-0.5,0.1-0.7
	l0.4,0.1c0.1-0.1,0-0.4,0.1-0.4l0.7,0.1c0-0.2,0.1-0.5,0.1-0.7l-0.4-0.1c0-0.1,0-0.2,0.1-0.4l-0.7-0.1c0-0.1,0-0.2,0.1-0.4
	c-0.1,0-0.2,0-0.4-0.1C136.1,185.2,136.2,185.5,136,185.4 M167.7,190.5c0.4,0.1,0.7,0.1,1.1,0.2c0,0.1,0,0.2-0.1,0.4
	c0.4,0.1,0.7,0.1,1.1,0.2c0-0.2,0.1-0.5,0.1-0.7l-0.7-0.1c0-0.1,0-0.2,0.1-0.4c-0.2,0-0.5-0.1-0.7-0.1c-0.1,0.1,0,0.4-0.1,0.4
	l-0.7-0.1c0-0.1,0-0.2,0.1-0.4l-0.4-0.1c0,0.1,0,0.2-0.1,0.4C167.7,190,167.9,190.2,167.7,190.5 M129.5,184l0.4,0.1
	c0-0.1,0-0.2,0.1-0.4l-0.4-0.1C129.6,183.8,129.5,183.9,129.5,184 M127.4,185.2c0.3,0,0.4,0.1,0.3,0.4l1.1,0.2
	c0-0.2,0.1-0.5,0.1-0.7c-0.5-0.1-1-0.2-1.5-0.2l0.1-0.7c0.1,0,0.2,0,0.4,0.1c0-0.1,0-0.2,0.1-0.4c-0.3,0-0.4-0.1-0.3-0.4l-0.7-0.1
	c0,0.1,0,0.2-0.1,0.4l-0.4-0.1c0,0.1,0,0.2-0.1,0.4c-0.1,0-0.2,0-0.4-0.1c0,0.1,0,0.2-0.1,0.4l0.7,0.1c0,0.1,0,0.2-0.1,0.4l0.7,0.1
	C127.5,185,127.5,185.1,127.4,185.2 M152.3,187.7l0.7,0.1c0,0.1,0,0.2-0.1,0.4c0.6,0.1,1.2,0.2,1.8,0.3c0.1-0.4,0.1-0.7,0.2-1.1
	l-0.3,0c-0.2,0,0,0.4-0.2,0.3l-1-0.2c0-0.1,0-0.2,0.1-0.4c-0.4-0.1-0.7-0.1-1.1-0.2C152.4,187.2,152.4,187.4,152.3,187.7 M143,187
	c0,0.2-0.1,0.4-0.1,0.7c0.1,0.1,0.4,0,0.4,0.1c0,0.2-0.1,0.4-0.1,0.7l0.7,0.1c0-0.1,0-0.2,0.1-0.4c0.1,0,0.2,0,0.4,0.1
	c0-0.1,0-0.2,0.1-0.4c-0.1-0.1-0.4,0-0.4-0.1c0-0.2,0.1-0.5,0.1-0.7c0.1,0,0.2,0,0.4,0.1c0.1-0.1,0-0.4,0.1-0.4
	c0.3,0.1,0.7,0.1,1,0.2c0-0.2,0.1-0.5,0.1-0.7c-0.2,0-0.5-0.1-0.7-0.1c0-0.1,0-0.2,0.1-0.4l-0.4-0.1c0,0.3-0.1,0.4-0.4,0.3
	c0,0.3-0.1,0.5-0.2,0.7l-0.7-0.1c-0.1,0.1,0,0.4-0.1,0.4L143,187c0-0.2,0-0.3,0.1-0.4l-1.1-0.2c0,0.1,0,0.2-0.1,0.4
	C142.3,186.8,142.7,186.9,143,187 M123.6,183.1l1.1,0.2c0-0.1,0-0.2,0.1-0.4c-0.3,0-0.4-0.1-0.3-0.4l-0.7-0.1L123.6,183.1
	 M132.5,184.1l0.7,0.1c0.1-0.1,0-0.4,0.1-0.4l1.8,0.3c0-0.2,0.1-0.5,0.1-0.7c-0.9-0.1-1.7-0.3-2.6-0.4
	C132.6,183.4,132.6,183.8,132.5,184.1 M163.2,187.9c-0.2,0-0.4-0.1-0.7-0.1c0,0.1,0,0.2-0.1,0.4c0.3,0,0.4,0.1,0.3,0.4l0.7,0.1
	c0.1-0.4,0.1-0.7,0.2-1.1c-0.1,0-0.2,0-0.4-0.1C163.3,187.6,163.3,187.9,163.2,187.9 M156.9,187.2c0.2,0,0.5,0.1,0.7,0.1l-0.1,0.4
	l0.7,0.1c0-0.2,0.1-0.5,0.1-0.7l-0.7-0.1c0-0.1,0-0.2,0.1-0.4l-0.7-0.1C157,186.7,157,187,156.9,187.2 M138.9,184
	c0.1,0,0.2,0,0.4,0.1c0-0.1,0-0.2,0.1-0.4c-0.1,0-0.2,0-0.4-0.1C139,183.8,139,183.9,138.9,184 M168.4,188.7l0.7,0.1
	c0-0.2,0.1-0.5,0.1-0.7c-0.2,0-0.5-0.1-0.7-0.1C168.5,188.2,168.4,188.4,168.4,188.7 M147,185.3l0.4,0.1c0-0.3,0.1-0.4,0.4-0.3
	c0-0.1,0-0.2,0.1-0.4l-0.7-0.1C147.1,184.8,147.1,185.1,147,185.3 M113.3,179.2c0.1,0,0.2,0,0.4,0.1c0-0.1,0-0.2,0.1-0.4l-0.4-0.1
	C113.3,178.9,113.3,179.1,113.3,179.2 M128.1,181.2c0.1,0,0.2,0,0.4,0.1c0-0.1,0-0.2,0.1-0.4l-0.4-0.1
	C128.1,180.9,128.1,181,128.1,181.2 M184.1,189.7l0.4,0.1c0-0.1,0-0.2,0.1-0.4l-0.4-0.1C184.1,189.4,184.1,189.5,184.1,189.7
	 M140.7,182.8l-0.4-0.1c0,0.1,0,0.2-0.1,0.4c0.4,0.1,0.7,0.1,1.1,0.2c0-0.1,0-0.2,0.1-0.4c0.1,0,0.2,0,0.4,0.1c0-0.1,0-0.2,0.1-0.4
	c-0.4-0.1-0.7-0.1-1.1-0.2C140.7,182.5,140.7,182.7,140.7,182.8 M151,184l-0.7-0.1c0,0.1,0,0.2-0.1,0.4l0.7,0.1
	C151,184.3,151,184.2,151,184c0.2,0,0.3,0,0.4,0.1c0-0.1,0-0.2,0.1-0.4c-0.1,0-0.2,0-0.4-0.1C151,183.8,151.1,184,151,184
	 M144.4,183c0.3,0,0.4,0.1,0.3,0.4l1.1,0.2c0-0.1,0-0.2,0.1-0.4c-0.3,0-0.4-0.1-0.3-0.4l-1.1-0.2C144.4,182.7,144.4,182.9,144.4,183
	 M143.3,182.8l0.4,0.1c0-0.1,0-0.2,0.1-0.4l-0.4-0.1C143.3,182.6,143.3,182.7,143.3,182.8 M127.5,179.9l0.4,0.1
	c0-0.2,0.1-0.5,0.1-0.7l-0.4-0.1C127.6,179.5,127.6,179.7,127.5,179.9 M165.6,185.2l-0.4-0.1c-0.1,0.4-0.1,0.7-0.2,1.1
	c0.5,0.1,1,0.2,1.5,0.2c0.1-0.1,0-0.4,0.1-0.4c0.2,0,0.5,0.1,0.7,0.1l0.1-0.7c-0.1,0-0.2,0-0.4-0.1c0-0.1,0-0.2,0.1-0.4
	c-0.5-0.1-1-0.2-1.5-0.2C165.6,185,165.6,185.1,165.6,185.2 M142,181.5l0.4,0.1c0-0.1,0-0.2,0.1-0.4l-0.4-0.1
	C142,181.2,142,181.4,142,181.5 M172.9,186.7l-0.4-0.1c0,0.1,0,0.2-0.1,0.4c-0.1,0-0.4-0.2-0.4,0.1c0,0.1,0,0.1,0,0.2
	c0,0.2,0.4,0,0.3,0.2l0,0.3l-0.4-0.1c-0.1,0.4-0.1,0.7-0.2,1.1l0.7,0.1c0.1-0.4,0.1-0.7,0.2-1.1l1.8,0.3c0-0.3,0.1-0.4,0.4-0.3
	c0-0.2,0.1-0.5,0.1-0.7l-0.4-0.1c0-0.1,0-0.2,0.1-0.4c-0.3,0-0.5-0.1-0.7-0.2c0-0.2,0.1-0.4,0.1-0.7l-1.1-0.2
	C173,186,172.9,186.4,172.9,186.7 M157.5,183.9l1.2,0.2c0.3,0.1,0.7,0.2,1.1,0c0-0.1,0-0.1,0-0.2c-0.2-0.1-0.5-0.2-0.7-0.2
	c0-0.1,0-0.2,0.1-0.4c-0.5-0.1-1-0.2-1.5-0.2C157.5,183.4,157.5,183.7,157.5,183.9 M150.5,182.4l-0.7-0.1c-0.1,0.1,0,0.4-0.1,0.4
	l-0.3,0c0-0.1,0-0.2,0.1-0.4l-0.7-0.1c0,0.1,0,0.2-0.1,0.4l-0.4-0.1c0,0.1,0,0.2-0.1,0.4c0.2,0,0.5,0.1,0.7,0.1c0,0.1,0,0.2-0.1,0.4
	l1.1,0.2c0.1-0.1,0-0.4,0.1-0.4c0.3,0.1,0.7,0.1,1,0.2c0.1-0.4,0.1-0.7,0.2-1.1l-0.7-0.1C150.5,182.2,150.6,182.5,150.5,182.4
	 M121.4,177.8c0.1,0.1,0.4,0,0.4,0.1l0,0.3c-0.1,0-0.2,0-0.4-0.1c-0.1,0.1,0,0.4-0.1,0.4l-1.4-0.2c0,0.3-0.1,0.4-0.4,0.3l-0.1,0.7
	l1.1,0.2c0,0.1,0,0.2-0.1,0.4c0.1,0.1,0.4,0,0.4,0.1c0,0.2-0.1,0.4-0.1,0.7l0.7,0.1c0.1-0.1,0-0.4,0.1-0.4l1.8,0.3
	c0.1-0.1,0-0.4,0.1-0.4l1.4,0.2c0-0.1,0-0.2,0.1-0.4c0.1,0,0.4,0.2,0.4-0.1c0-0.1,0-0.1,0-0.2c0-0.2-0.4,0-0.3-0.2
	c0.1-0.3,0.1-0.7,0.2-1c-0.5-0.1-1-0.2-1.5-0.2c0-0.1,0-0.2,0.1-0.4l-0.7-0.1c0-0.1,0-0.2,0.1-0.4c-0.5-0.1-1-0.2-1.5-0.2
	C121.5,177.6,121.4,177.7,121.4,177.8 M117.7,177.3l0.7,0.1c0-0.1,0-0.2,0.1-0.4l-0.7-0.1C117.8,177,117.8,177.1,117.7,177.3
	 M184.1,187l0.4,0.1c0-0.1,0-0.2,0.1-0.4c-0.3,0-0.4-0.1-0.3-0.4c-0.1,0-0.2,0-0.4-0.1c0,0.1,0,0.2-0.1,0.4
	C184.1,186.6,184.2,186.7,184.1,187 M169,184.3c-0.2,0-0.4-0.1-0.7-0.1c0,0.2-0.1,0.5-0.1,0.7l1.1,0.2c0.1-0.1,0-0.4,0.1-0.4
	l1.8,0.3l0.1-0.4c0.1,0,0.4,0.2,0.4-0.1c0-0.1,0-0.2,0-0.2l-0.7-0.1c-0.1,0.1,0,0.4-0.1,0.4l-0.3,0c0-0.1,0-0.2,0.1-0.4l-1.5-0.2
	C169.1,184,169.2,184.3,169,184.3 M149.2,181.1c0.2,0,0.5,0.1,0.7,0.1c0-0.1,0-0.2,0.1-0.4c-0.2,0-0.5-0.1-0.7-0.1
	C149.3,180.9,149.2,181,149.2,181.1 M147,180.7c-0.2,0-0.4-0.1-0.7-0.1c0,0.1,0,0.2-0.1,0.4c0.1,0.1,0.4,0,0.4,0.1
	c-0.1,0.6-0.2,1.2-0.3,1.8l1.1,0.2c0-0.2,0.1-0.5,0.1-0.7c-0.1-0.1-0.4,0-0.4-0.1l0-0.3c0.4,0.1,0.7,0.1,1.1,0.2
	c0-0.2,0.1-0.5,0.1-0.7l-0.4-0.1l0.1-0.4l-0.7-0.1c0-0.1,0-0.2,0.1-0.4c-0.1,0-0.2,0-0.4-0.1C147,180.5,147.1,180.8,147,180.7
	 M118,175.8l0.4,0.1c0-0.1,0-0.2,0.1-0.4l-0.4-0.1C118,175.5,118,175.7,118,175.8 M114.7,175.3c0.3,0,0.4,0.1,0.3,0.4
	c0.5,0.1,1,0.2,1.5,0.2c0-0.1,0-0.2,0.1-0.4l-0.7-0.1c0-0.1,0-0.2,0.1-0.4c-0.4-0.1-0.7-0.1-1.1-0.2
	C114.7,175,114.7,175.1,114.7,175.3 M133.5,177.9c0.3,0,0.4,0.1,0.3,0.4c0.1,0,0.2,0,0.4,0.1c0.1-0.1,0-0.4,0.1-0.4l0.7,0.1
	c0-0.1,0-0.2,0.1-0.4l-1.5-0.2C133.5,177.6,133.5,177.7,133.5,177.9 M120.9,176.3c0.1,0.1,0.4,0,0.4,0.1c0,0.2-0.1,0.4-0.1,0.7
	c0.2,0,0.5,0.1,0.7,0.1c0-0.2,0.1-0.5,0.1-0.7l-0.4-0.1c0-0.1,0-0.2,0.1-0.4l-0.4-0.1c0-0.1,0-0.2,0.1-0.4l-0.4-0.1
	C121,175.8,121,176,120.9,176.3 M171.1,183.4c0.1,0,0.2,0,0.4,0.1c0-0.1,0-0.2,0.1-0.4l-0.4-0.1
	C171.1,183.2,171.1,183.3,171.1,183.4 M140.3,180.1c0-0.1,0-0.2,0.1-0.4c-0.3,0-0.4-0.1-0.3-0.4l-0.4-0.1c0-0.1,0-0.2,0.1-0.4
	l-0.4-0.1c-0.1,0.1,0,0.4-0.1,0.4l-0.7-0.1c-0.1,0.1,0,0.4-0.1,0.4l-0.7-0.1c0-0.1,0-0.2,0.1-0.4l-1.5-0.2c0-0.1,0-0.2,0.1-0.4
	l-0.4-0.1c0-0.1,0-0.2,0.1-0.4l-0.4-0.1c0-0.1,0-0.2,0.1-0.4c-0.1,0-0.2,0-0.4-0.1c0,0.2-0.1,0.5-0.1,0.7l0.4,0.1
	c0,0.1,0,0.2-0.1,0.4l0.4,0.1c0,0.1,0,0.2-0.1,0.4c0.3,0,0.4,0.1,0.3,0.4c0.2,0,0.5,0.1,0.7,0.1c0,0.1,0,0.2-0.1,0.4
	c0.3,0,0.4,0.1,0.3,0.4l0.7,0.1c0-0.2,0.1-0.5,0.1-0.7c0.2,0,0.5,0.1,0.7,0.1c0,0.1,0,0.2-0.1,0.4l0.7,0.1c0,0.1,0,0.2-0.1,0.4
	l0.4,0.1c0,0.1,0,0.2-0.1,0.4c0.1,0,0.2,0,0.4,0.1c0-0.3,0.1-0.4,0.4-0.3c0-0.1,0-0.2,0.1-0.4l-0.1,0l0.1-0.3L140.3,180.1z
	 M164.2,182l0.4,0.1c0-0.1,0-0.2,0.1-0.4l-0.4-0.1L164.2,182 M173.4,183.1l0.4,0.1c0-0.1,0-0.2,0.1-0.4c-0.1,0-0.2,0-0.4-0.1
	C173.5,182.8,173.5,182.9,173.4,183.1 M166.4,182c0.4,0.1,0.7,0.1,1.1,0.2c0-0.1,0-0.2,0.1-0.4l-1.1-0.2
	C166.5,181.7,166.5,181.8,166.4,182 M176,183.8l0.7,0.1c0-0.1,0-0.2,0.1-0.4l0.4,0.1c0-0.1,0-0.2,0.1-0.4c-0.3,0-0.4-0.1-0.3-0.4
	l-0.7-0.1C176.1,183.1,176,183.5,176,183.8 M125.3,175.1c0.1,0,0.2,0,0.4,0.1c0-0.1,0-0.2,0.1-0.4l-0.4-0.1
	C125.3,174.8,125.3,174.9,125.3,175.1 M172,182.5l0.4,0.1c0-0.2,0.1-0.5,0.1-0.7l-0.4-0.1C172.1,182,172.1,182.2,172,182.5
	 M165,181.7l0.4,0.1c0-0.3,0.1-0.4,0.4-0.3l0.1-0.4c-0.3,0-0.4-0.1-0.3-0.4c-0.1,0-0.2,0-0.4-0.1C165.1,181,165,181.4,165,181.7
	 M140.1,177c0.1,0,0.2,0,0.4,0.1c0-0.1,0-0.2,0.1-0.4l-0.4-0.1C140.1,176.8,140.1,176.9,140.1,177 M171.2,180.4
	c0,0.3-0.1,0.4-0.4,0.3c-0.1,0.1,0,0.4-0.1,0.4c-0.1,0-0.2,0-0.3,0l0.1-0.4l-0.4-0.1c0,0.3-0.1,0.4-0.4,0.3c0,0.1,0,0.2-0.1,0.4
	l-0.4-0.1c0,0.1,0,0.2-0.1,0.4l0.4,0.1c0.1-0.1,0-0.4,0.1-0.4l0.3,0c0,0.1,0,0.2-0.1,0.4l1.1,0.2l-0.1,0.4l0.7,0.1
	c0-0.1,0-0.2,0.1-0.4c-0.1-0.1-0.4,0-0.4-0.1c0.1-0.5,0.1-0.9,0.2-1.4l0.4,0.1l0.1-0.4l-0.4-0.1c0,0.1,0,0.2-0.1,0.4L171.2,180.4
	 M139.5,175.4c0.1,0,0.2,0,0.4,0.1c0-0.1,0-0.2,0.1-0.4c-0.1,0-0.2,0-0.4-0.1C139.6,175.2,139.6,175.3,139.5,175.4 M128.1,173.6
	l0.4,0.1c0-0.1,0-0.2,0.1-0.4c-0.1,0-0.2,0-0.4-0.1C128.2,173.4,128.2,173.5,128.1,173.6 M174.2,180.5l-0.7-0.1c0,0.1,0,0.2-0.1,0.4
	c-0.1,0-0.2,0-0.4-0.1l-0.1,0.4l0.7,0.1l-0.1,0.4c0.4,0.1,0.7,0.1,1.1,0.2c0.1-0.1,0-0.4,0.1-0.4l1,0.2c0.1-0.1,0-0.4,0.1-0.4
	l0.7,0.1c0-0.2,0.1-0.5,0.1-0.7l-1.1-0.2c-0.1,0.1,0,0.4-0.1,0.4l-0.7-0.1c0-0.1,0-0.2,0.1-0.4l-0.7-0.1
	C174.2,180.3,174.3,180.5,174.2,180.5 M136.7,174.6l-0.4-0.1c0,0.1,0,0.2-0.1,0.4c-0.1,0-0.2,0-0.4-0.1c-0.1,0.1,0,0.4-0.1,0.4
	l-1-0.2c0-0.1,0-0.2,0.1-0.4l-0.7-0.1c0-0.1,0-0.2,0.1-0.4L133,174c-0.1,0.1,0,0.4-0.1,0.4l-2.5-0.4c0,0.1,0,0.2-0.1,0.4l-0.4-0.1
	c0,0.1,0,0.2-0.1,0.4l1.8,0.3c0,0.1-0.2,0.4,0.1,0.4c0.1,0,0.1,0,0.2,0c0.1-0.2,0.1-0.5,0.5-0.3c0.1-0.1,0-0.4,0.1-0.4l1.8,0.3
	l-0.1,0.4c0.2,0,0.5,0.1,0.7,0.1c0,0.1,0,0.2-0.1,0.4l0.7,0.1c0,0.1,0,0.2-0.1,0.4c0.5,0.1,1,0.2,1.5,0.2c0,0.1,0,0.2-0.1,0.4
	l0.4,0.1c0-0.2,0.1-0.5,0.1-0.7c-0.1-0.1-0.4,0-0.4-0.1c0.1-0.6,0.2-1.2,0.3-1.8l-0.7-0.1C136.7,174.4,136.7,174.5,136.7,174.6
	 M142.2,175.1c0.3,0,0.4,0.1,0.3,0.4l0.4,0.1c0-0.3,0.1-0.4,0.4-0.3c0-0.1,0-0.2,0.1-0.4l-1.1-0.2
	C142.3,174.9,142.3,175,142.2,175.1 M128.3,172.9l0.7,0.1c0-0.1,0-0.2,0.1-0.4l-0.7-0.1C128.3,172.6,128.3,172.8,128.3,172.9
	 M123.2,171.7l0.4,0.1c0-0.1,0-0.2,0.1-0.4l-0.4-0.1C123.2,171.5,123.2,171.6,123.2,171.7 M121.3,171.8c0.3,0,0.4,0.1,0.3,0.4
	l0.7,0.1c0-0.2,0.1-0.5,0.1-0.7c0.1,0,0.2,0,0.4,0.1c0-0.1,0-0.2,0.1-0.4l-1.5-0.2C121.3,171.3,121.3,171.5,121.3,171.8
	 M140.9,174.1c0.3,0,0.4,0.1,0.3,0.4l0.7,0.1l0.1-0.4c-0.3,0-0.4-0.1-0.3-0.4l-0.4-0.1c0-0.1,0-0.2,0.1-0.4c-0.1,0-0.2,0-0.4-0.1
	C141,173.6,140.9,173.9,140.9,174.1 M117.3,170.4l0.4,0.1l0.1-0.7l-0.4-0.1C117.4,169.9,117.4,170.1,117.3,170.4 M128.5,171.4
	l0.7,0.1c0-0.1,0-0.2,0.1-0.4c-0.2,0-0.5-0.1-0.7-0.1C128.5,171.2,128.5,171.3,128.5,171.4 M131.1,171.4c0.1,0.1,0.4,0,0.4,0.1
	c0,0.2-0.1,0.4-0.1,0.7c0.1,0,0.2,0,0.4,0.1c0.1-0.4,0.1-0.7,0.2-1.1l-0.7-0.1C131.2,171.2,131.1,171.3,131.1,171.4 M126.3,170.7
	l-0.7-0.1l0,0.3c0.2,0.1,0.5,0.1,0.3,0.5l1.8,0.3c0-0.2,0.1-0.5,0.1-0.7c-0.2,0-0.5-0.1-0.7-0.1l0.1-0.4l-0.7-0.1
	C126.3,170.4,126.4,170.7,126.3,170.7 M117.6,168.9l0.4,0.1c0-0.1,0-0.2,0.1-0.4c-0.1,0-0.2,0-0.4-0.1
	C117.6,168.7,117.6,168.8,117.6,168.9 M121.1,168c0.1,0,0.2,0,0.4,0.1c0-0.2,0.1-0.5,0.1-0.7l-0.4-0.1
	C121.2,167.5,121.1,167.7,121.1,168 M128.1,166.4c0.1,0,0.2,0,0.4,0.1c0-0.1,0-0.2,0.1-0.4c-0.3,0-0.4-0.1-0.3-0.4
	c-0.1,0-0.2,0-0.4-0.1c0,0.1,0,0.2-0.1,0.4C128.2,166,128.3,166.1,128.1,166.4 M128,164.9l0.4,0.1c0-0.1,0-0.2,0.1-0.4l-0.4-0.1
	C128,164.7,128,164.8,128,164.9 M133.8,164.3c0.2,0,0.5,0.1,0.7,0.1c0-0.1,0-0.2,0.1-0.4c-0.3,0-0.4-0.1-0.3-0.4
	c-0.1,0-0.2,0-0.4-0.1C133.8,163.8,133.8,164.1,133.8,164.3 M131.8,158l0.7,0.1c0-0.2,0.1-0.5,0.1-0.7l-0.4-0.1c0-0.1,0-0.2,0.1-0.4
	c-0.1,0-0.2,0-0.4-0.1C131.9,157.2,131.8,157.6,131.8,158 M125.1,154.6l0.4,0.1c0.1-0.4,0.1-0.7,0.2-1.1l-0.4-0.1
	C125.2,153.9,125.2,154.3,125.1,154.6 M125.7,148.7c0.1,0,0.2,0,0.4,0.1c0-0.1,0-0.2,0.1-0.4l-0.4-0.1
	C125.7,148.4,125.7,148.6,125.7,148.7 M120.8,143c-0.2,0-0.4-0.1-0.7-0.1c0,0.1,0,0.2-0.1,0.4c0.3,0,0.4,0.1,0.3,0.4l0.7,0.1
	c0-0.1,0-0.2,0.1-0.4c0.1,0,0.2,0,0.4,0.1c0-0.2,0.1-0.5,0.1-0.7c-0.2,0-0.5-0.1-0.7-0.1C120.9,142.8,121,143,120.8,143
	 M133.6,140.9l-1-0.2c0,0.1,0,0.2-0.1,0.4c0.3,0,0.4,0.1,0.3,0.4l0.7,0.1c0,0.1,0,0.2-0.1,0.4l0.4,0.1c0-0.2,0.1-0.5,0.1-0.7
	c0.1,0,0.2,0,0.4,0.1l0.1-0.7l-0.4-0.1c0-0.1,0-0.2,0.1-0.4l-0.4-0.1C133.8,140.4,133.7,140.7,133.6,140.9 M136.3,138.7
	c0.1,0,0.2,0,0.4,0.1c0-0.1,0-0.2,0.1-0.4c-0.1,0-0.2,0-0.4-0.1C136.3,138.4,136.3,138.6,136.3,138.7 M138.3,135.6
	c0.2,0,0.5,0.1,0.7,0.1c0-0.1,0-0.2,0.1-0.4c-0.2,0-0.5-0.1-0.7-0.1c0.1-0.4,0.1-0.7,0.2-1.1c-0.2,0-0.5-0.1-0.7-0.1l0,0.3
	c0,0.2,0.4,0,0.3,0.2c0,0.2-0.1,0.4-0.1,0.7C138.3,135.2,138.4,135.3,138.3,135.6 M117.2,130.4l0.4,0.1c0-0.1,0-0.2,0.1-0.4
	l-0.4-0.1L117.2,130.4 M132.4,132.4c0.1,0,0.2,0,0.4,0.1c0-0.1,0-0.2,0.1-0.4c-0.1,0-0.2,0-0.4-0.1
	C132.4,132.1,132.4,132.3,132.4,132.4 M133.3,131.4l0.4,0.1c0-0.1,0-0.2,0.1-0.4l-0.4-0.1C133.4,131.2,133.3,131.3,133.3,131.4
	 M133.9,130.4c0.2,0,0.5,0.1,0.7,0.1c0-0.1,0-0.2,0.1-0.4l-0.7-0.1C133.9,130.1,133.9,130.2,133.9,130.4 M139.7,129.4
	c0.1,0,0.2,0,0.4,0.1c0-0.1,0-0.2,0.1-0.4c-0.1,0-0.2,0-0.4-0.1C139.7,129.1,139.7,129.3,139.7,129.4 M125.7,124.5l0.4,0.1
	c0-0.1,0-0.2,0.1-0.4l-0.4-0.1C125.8,124.3,125.7,124.4,125.7,124.5 M123.9,123.9c0.2,0,0.5,0.1,0.7,0.1c0-0.1,0-0.2,0.1-0.4
	l-0.7-0.1C124,123.6,124,123.8,123.9,123.9 M138,123.5l0.7,0.1c0-0.1,0-0.2,0.1-0.4l-0.7-0.1C138,123.2,138,123.3,138,123.5
	 M139.2,122.5c0.1,0,0.2,0,0.4,0.1c0-0.1,0-0.2,0.1-0.4l-0.4-0.1C139.3,122.3,139.3,122.4,139.2,122.5 M125.4,119.6l0.7,0.1
	c0-0.1,0-0.2,0.1-0.4l-0.7-0.1C125.4,119.3,125.4,119.5,125.4,119.6 M123.6,118.9c0.1,0,0.2,0,0.4,0.1c0,0.1,0,0.2-0.1,0.4l0.4,0.1
	c0.1-0.4,0.1-0.7,0.2-1.1c-0.2,0-0.5-0.1-0.7-0.1C123.7,118.4,123.6,118.7,123.6,118.9 M139.7,120l0.4,0.1c0-0.1,0-0.2,0.1-0.4
	l-0.4-0.1C139.7,119.7,139.7,119.8,139.7,120 M141.5,118c0,0.3-0.1,0.4-0.4,0.3c0,0.3-0.1,0.4-0.4,0.3c0,0.2-0.1,0.5-0.1,0.7
	l1.1,0.2c0.1-0.5,0.2-1,0.2-1.5l0.4,0.1c0-0.1,0-0.2,0.1-0.4c-0.1,0-0.2,0-0.4-0.1c0,0.1,0,0.2-0.1,0.4L141.5,118 M142.3,115.1
	l-0.4-0.1c0,0.2-0.1,0.5-0.1,0.7l0.7,0.1c0,0.1,0,0.2-0.1,0.4l0.4,0.1c0-0.2,0.1-0.5,0.1-0.7c-0.1-0.1-0.4,0-0.4-0.1
	c0-0.2,0.1-0.4,0.1-0.7c-0.1,0-0.2,0-0.4-0.1C142.4,114.9,142.3,115,142.3,115.1 M129.8,113.1l0.4,0.1c0-0.1,0-0.2,0.1-0.4l-0.4-0.1
	C129.8,112.9,129.8,113,129.8,113.1 M146.1,112.3l0.4,0.1c0-0.1,0-0.2,0.1-0.4l-0.4-0.1C146.2,112.1,146.2,112.2,146.1,112.3
	 M130.3,109.8c0.1,0,0.2,0,0.4,0.1c0-0.1,0-0.2,0.1-0.4l-0.4-0.1C130.4,109.6,130.3,109.7,130.3,109.8 M148.3,110.4l0.4,0.1
	c0-0.1,0-0.2,0.1-0.4c-0.1,0-0.2,0-0.4-0.1C148.4,110.1,148.4,110.3,148.3,110.4 M148.9,109.3c0,0.1,0,0.2-0.1,0.4l0.4,0.1
	c0-0.3,0.1-0.4,0.4-0.3c0-0.1,0-0.2,0.1-0.4c-0.1,0-0.2,0-0.4-0.1C149.3,109.4,149.2,109.5,148.9,109.3 M150.3,107.7
	c0.1,0,0.2,0,0.4,0.1l0.1-0.4c-0.3,0-0.4-0.1-0.3-0.4l-0.4-0.1c0,0.1,0,0.2-0.1,0.4C150.3,107.2,150.4,107.4,150.3,107.7
	 M150.8,106.6c0.3,0,0.4,0.1,0.3,0.4l0.7,0.1c0-0.2,0.1-0.5,0.1-0.7c-0.4-0.1-0.7-0.1-1.1-0.2C150.9,106.4,150.8,106.5,150.8,106.6
	 M152.2,105.3l0.4,0.1c0-0.1,0-0.2,0.1-0.4l-0.4-0.1C152.2,105.1,152.2,105.2,152.2,105.3 M143,103.5l0.4,0.1c0-0.1,0-0.2,0.1-0.4
	l-0.4-0.1C143.1,103.3,143,103.4,143,103.5 M153.2,103.2c0.3,0,0.4,0.1,0.3,0.4l0.7,0.1l0.1-0.4c-0.3,0-0.4-0.1-0.3-0.4l-0.7-0.1
	C153.3,103,153.3,103.1,153.2,103.2 M143.1,100.5c0.1,0,0.2,0,0.4,0.1c0-0.2,0.1-0.5,0.1-0.7l-0.4-0.1
	C143.2,100,143.2,100.3,143.1,100.5 M144.1,98.8l0.7,0.1c0-0.2,0.1-0.5,0.1-0.7l-0.7-0.1C144.2,98.3,144.2,98.5,144.1,98.8
	 M161.8,180.1c-0.3-0.1-0.4,0-0.4,0.3l-1-0.2c-0.1,0-0.1,0.3-0.1,0.4l-0.7-0.1c-0.1,0-0.1,0.3-0.1,0.4c-0.2,0-0.5-0.1-0.7-0.1l0,0.3
	c0.6,0.2,1.2,0.3,1.8,0.4c0,0.1,0,0.2-0.1,0.4l0.3,0c0.1-0.4,0.2-0.7,0.2-1.1c0.3,0.1,0.4,0,0.4-0.3
	C161.7,180.5,161.9,180.4,161.8,180.1l1,0.2c0.1,0,0.1-0.3,0.1-0.4c0.3,0.1,0.7,0.1,1,0.2c0.1,0,0.1-0.3,0.1-0.4l0.4,0.1l-0.1,0.4
	l0.3,0c0.1,0,0.1-0.2,0.1-0.3c0-0.1-0.3-0.1-0.4-0.1c0.1-0.4,0.1-0.7,0.2-1.1l0.7,0.1c0.1,0,0.1-0.3,0.1-0.4l0.4,0.1
	c0,0.1,0,0.2-0.1,0.4l0.4,0.1c0,0.1,0,0.2-0.1,0.4c0.1,0,0.2,0,0.4,0.1c0,0.1,0,0.2-0.1,0.4l0.3,0c0.1,0,0.1-0.3,0.1-0.4
	c0.5,0.1,1,0.2,1.5,0.2l0-0.3c-0.2-0.1-0.5-0.2-0.7-0.2c0-0.1,0-0.2,0.1-0.4l-0.7-0.1c0-0.2,0.1-0.4,0.1-0.7c0-0.1-0.3-0.1-0.4-0.1
	c0-0.2,0.1-0.5,0.1-0.7c0.3,0.1,0.4,0,0.4-0.3c0.1,0,0.2,0,0.4,0.1c0,0.1,0,0.2-0.1,0.4l0.7,0.1c0,0.1,0,0.2-0.1,0.4l0.7,0.1
	c0.1,0,0.1-0.3,0.1-0.4l0.7,0.1c0.1-0.2,0.2-0.5,0.2-0.7c0.3,0.1,0.4,0,0.4-0.3l1.1,0.2c0,0.1,0,0.2-0.1,0.4L171,177
	c0,0.2-0.1,0.4-0.1,0.7c0.2,0.1,0.4,0.2,0.7,0.2c0.1,0,0.1-0.3,0.1-0.4l1,0.2c0.1,0,0.1-0.3,0.1-0.4l0.7,0.1c0.1,0,0.1-0.3,0.1-0.4
	l0.7,0.1c0,0.1,0,0.2-0.1,0.4l1.1,0.2l0-0.3c0-0.1-0.3-0.1-0.4-0.1l0.1-0.4l-1.1-0.2l0.1-0.4c-0.4-0.1-0.7-0.1-1.1-0.2
	c0-0.2,0.1-0.5,0.1-0.7c0.3,0.1,0.4,0,0.4-0.3c0.3,0.1,0.4,0,0.4-0.3c0.4,0.1,0.7,0.1,1.1,0.2c0,0.1,0,0.2-0.1,0.4l0.7,0.1
	c0.1,0,0.1-0.3,0.1-0.4l0.7,0.1c0.1,0,0.1-0.3,0.1-0.4l0.7,0.1c0.1,0,0.1-0.3,0.1-0.4c0.1,0,0.2,0,0.4,0.1c0,0.1,0,0.2-0.1,0.4
	l0.4,0.1c-0.1,0.4-0.1,0.7-0.2,1.1c-0.3-0.1-0.4,0-0.4,0.3c-0.2,0-0.5-0.1-0.7-0.1c-0.1,0.2-0.2,0.5-0.2,0.7c0.2,0,0.5,0.1,0.7,0.1
	c0,0.2-0.1,0.5-0.1,0.7l0.3,0c0.1,0,0.1-0.3,0.1-0.4c0.6,0.1,1.2,0.2,1.8,0.3c-0.1,0.3,0,0.4,0.3,0.4c0,0.1,0,0.2-0.1,0.4l-0.7-0.1
	c0,0.2-0.1,0.5-0.1,0.7c-0.2,0-0.4-0.1-0.7-0.1c-0.1,0-0.1,0.3-0.1,0.4l-0.7-0.1c0-0.1,0-0.2,0.1-0.4l-0.3,0c-0.1,0-0.1,0.3-0.1,0.4
	l-0.4-0.1c0,0.2-0.1,0.5-0.1,0.7c0.2,0.1,0.4,0.2,0.7,0.2c0.1,0,0.1-0.3,0.1-0.4l0.4,0.1c0,0.1,0,0.2-0.1,0.4l1.4,0.2
	c0.1,0,0.1-0.3,0.1-0.4l0.4,0.1c0-0.1,0-0.2,0.1-0.4c0.3,0.1,0.4,0,0.4-0.3c0.1,0,0.2,0,0.4,0.1c0-0.1,0-0.2,0.1-0.4
	c0.1,0,0.2,0,0.4,0.1c0-0.1,0-0.2,0.1-0.4c0.2,0,0.5,0.1,0.7,0.1l-0.1,0.4l1,0.2c0.1,0,0.1-0.3,0.1-0.4l1.1,0.2
	c0,0.2-0.1,0.4-0.1,0.7c0,0.1,0.3,0.1,0.4,0.1c0,0.1,0,0.2-0.1,0.4c0.1,0,0.2,0,0.4,0.1c0,0.2-0.1,0.5-0.1,0.7
	c-0.2,0-0.5-0.1-0.7-0.1l0,0.3c0,0.1,0.3,0.1,0.4,0.1l-0.1,0.4c-0.6-0.1-1.2-0.2-1.8-0.3c0-0.1,0-0.2,0.1-0.4
	c-0.5-0.1-0.9-0.1-1.4-0.2c-0.1,0-0.1,0.3-0.1,0.4l-0.4-0.1l-0.2,1.5l-1-0.2c-0.1,0-0.1,0.3-0.1,0.4c-0.3-0.1-0.4,0-0.4,0.3
	l-0.4-0.1l0,0.3c0,0.1,0.3,0.1,0.4,0.1c0,0.1,0,0.2-0.1,0.4l0.4,0.1c0,0.1,0,0.2-0.1,0.4l1.5,0.2c0-0.1,0-0.2,0-0.3
	c0-0.1-0.3-0.1-0.4-0.1c0.1-0.5,0.2-1,0.2-1.5l0.7,0.1c0.1,0,0.1-0.3,0.1-0.4l0.4,0.1c0,0.1,0,0.2-0.1,0.4c0.1,0,0.2,0,0.4,0.1
	c0,0.1,0,0.2-0.1,0.4l0.4,0.1l-0.1,0.7l-0.4-0.1c0,0.1,0,0.2-0.1,0.4l-0.4-0.1l0,0.3c0.2,0.1,0.5,0.2,0.7,0.2c0,0.2-0.1,0.5-0.1,0.7
	c-0.2,0-0.4-0.1-0.7-0.1c-0.1,0-0.1,0.3-0.1,0.4l-1-0.2c-0.1,0-0.1,0.3-0.1,0.4l-0.4-0.1c0,0.1,0,0.2-0.1,0.4l-0.7-0.1
	c0-0.1,0-0.2,0.1-0.4l-0.7-0.1c0-0.2,0.1-0.4,0.1-0.7c0-0.1-0.3-0.1-0.4-0.1c0-0.1,0-0.2,0.1-0.4l-0.7-0.1l-0.2,1
	c0,0.1,0.3,0.1,0.4,0.1c0,0.1,0,0.2-0.1,0.4c0.1,0,0.2,0,0.4,0.1c0,0.1,0,0.2-0.1,0.4c0.2,0,0.5,0.1,0.7,0.1c0,0.2-0.1,0.5-0.1,0.7
	l-0.7-0.1c-0.1,0-0.1,0.3-0.1,0.4l-0.7-0.1c-0.1,0-0.1,0.3-0.1,0.4c-0.1,0-0.2,0-0.4-0.1c0,0.2-0.1,0.5-0.1,0.7
	c-0.2,0-0.5-0.1-0.7-0.1c-0.1,0-0.1,0.3-0.1,0.4c-0.1,0-0.2,0-0.4-0.1c0,0.1,0,0.2-0.1,0.4c-0.3-0.1-0.4,0-0.4,0.3l-0.4-0.1
	c0,0.1,0,0.2-0.1,0.4l-0.4-0.1l0,0.3c0.6,0.2,1.2,0.3,1.8,0.3c0.1,0,0.1-0.3,0.1-0.4l0.4,0.1l-0.1,0.4l4,0.6c-0.1,0.3,0,0.4,0.3,0.4
	c-0.1,0.4-0.1,0.7-0.2,1.1l1.1,0.2l0-0.3c0-0.1-0.3-0.1-0.4-0.1c0-0.2,0.1-0.5,0.1-0.7c0.2,0,0.5,0.1,0.7,0.1c0.1,0,0.1-0.3,0.1-0.4
	l0.4,0.1c0,0.1,0,0.2-0.1,0.4l0.7,0.1c0-0.2,0.1-0.5,0.1-0.7c0.3,0.1,0.4,0,0.4-0.3l0.7,0.1c0.1,0,0.1-0.3,0.1-0.4l0.7,0.1
	c0-0.1,0-0.2,0-0.3c-1.6-0.4-3.4-0.6-5.1-0.9c-0.1,0-0.1,0.3-0.1,0.4l-0.4-0.1c0.1-0.4,0.1-0.7,0.2-1.1c0.5,0.1,0.9,0.1,1.4,0.2
	c0.1,0,0.1-0.3,0.1-0.4l0.7,0.1c0,0.1,0,0.2-0.1,0.4l1,0.2c0.1,0,0.1-0.3,0.1-0.4c0.3,0.1,0.4,0,0.4-0.3c0.3,0.1,0.4,0,0.4-0.3
	c0.1,0,0.2,0,0.4,0.1c0-0.2,0.1-0.4,0.1-0.7c0-0.1-0.3-0.1-0.4-0.1c0.1-0.3,0-0.4-0.3-0.4c0-0.1,0-0.2,0.1-0.4
	c-0.2,0-0.5-0.1-0.7-0.1c0-0.2,0.1-0.5,0.1-0.7c0.3,0.1,0.4,0,0.4-0.3l1,0.2c0.1,0,0.1-0.3,0.1-0.4c0.2,0,0.5,0.1,0.7,0.1l-0.1,0.4
	l1.4,0.2c0.1,0,0.1-0.3,0.1-0.4l0.4,0.1c0-0.1,0-0.2,0.1-0.4l0.4,0.1l0.1-0.4l0.7,0.1c0,0.1,0,0.2-0.1,0.4c0.2,0,0.5,0.1,0.7,0.1
	c0,0.2-0.1,0.5-0.1,0.7c0.1,0,0.2,0,0.3,0c0.1,0,0.1-0.3,0.1-0.4c0.1,0,0.2,0,0.4,0.1c0-0.1,0-0.2,0.1-0.4l0.7,0.1
	c0,0.1,0,0.2-0.1,0.4l0.4,0.1l-0.1,0.7l-0.7-0.1c-0.1,0-0.1,0.3-0.1,0.4l-0.4-0.1c0,0.2-0.1,0.5-0.1,0.7l-3.3-0.5c0,0.1,0,0.2,0,0.3
	c0,0.1,0.3,0.1,0.4,0.1c0,0.1,0,0.2-0.1,0.4l1.8,0.3c-0.1,0.4-0.1,0.7-0.2,1.1c-0.1,0-0.2,0-0.4-0.1c0,0.1,0,0.2-0.1,0.4
	c-0.1,0-0.2,0-0.4-0.1l-0.1,0.4c-0.2,0-0.4-0.1-0.7-0.1c-0.1,0-0.1,0.3-0.1,0.4c-0.2,0-0.4-0.1-0.7-0.1c-0.1,0.2-0.2,0.5-0.2,0.7
	c0.2,0,0.5,0.1,0.7,0.1c0,0.2-0.1,0.5-0.1,0.7l-1.4-0.2c-0.1,0-0.1,0.3-0.1,0.4l-0.4-0.1l-0.1,0.4l-1.4-0.2c-0.1,0-0.1,0.3-0.1,0.4
	c-0.2,0-0.4-0.1-0.7-0.1c-0.1,0-0.1,0.3-0.1,0.4l-0.4-0.1c0,0.1,0,0.2,0,0.3c0,0.1,0.3,0.1,0.4,0.1c0,0.2-0.1,0.5-0.1,0.7
	c-0.3-0.1-0.4,0-0.4,0.3l-0.4-0.1c0-0.1,0-0.2,0.1-0.4c-0.2,0-0.5-0.1-0.7-0.1c0-0.1,0-0.2,0.1-0.4l-1.1-0.2l0,0.3
	c0,0.1,0.3,0.1,0.4,0.1c0,0.1,0,0.2-0.1,0.4l0.7,0.1c0,0.2-0.1,0.5-0.1,0.7l-1-0.2c-0.1,0-0.1,0.3-0.1,0.4c-0.1,0-0.2,0-0.4-0.1
	c0,0.1,0,0.2-0.1,0.4c-0.1,0-0.2,0-0.4-0.1c0,0.1,0,0.2-0.1,0.4l-1.4-0.2c-0.1,0-0.1,0.3-0.1,0.4c-0.2,0-0.5-0.1-0.7-0.1
	c0,0.2-0.1,0.5-0.1,0.7l-1.1-0.2l0.1-0.4l-0.3,0c-0.1,0-0.1,0.3-0.1,0.4l-1.1-0.2l0.1-0.4c-0.5-0.1-1-0.2-1.5-0.2
	c0.1-0.4,0.1-0.7,0.2-1.1l0.7,0.1c0-0.2,0.1-0.5,0.1-0.7l0.4,0.1c0,0.1,0,0.2-0.1,0.4l0.7,0.1c0.1,0,0.1-0.3,0.1-0.4l0.7,0.1
	c0.1,0,0.1-0.3,0.1-0.4l1.8,0.3c0,0.1,0,0.2-0.1,0.4l0.7,0.1c0.1,0,0.1-0.3,0.1-0.4c0.1,0,0.2,0,0.4,0.1c0-0.1,0-0.2,0-0.3
	c0-0.1-0.3-0.1-0.4-0.1c0.1-0.3,0-0.4-0.3-0.4c0-0.1,0-0.2,0.1-0.4l-0.4-0.1c0-0.2,0.1-0.5,0.1-0.7l-0.3,0c-0.1,0-0.1,0.3-0.1,0.4
	l-0.7-0.1c-0.1,0-0.1,0.3-0.1,0.4l-0.4-0.1c0,0.1,0,0.2-0.1,0.4c-0.2,0-0.4-0.1-0.7-0.1c-0.1,0-0.1,0.3-0.1,0.4l-0.4-0.1
	c0-0.1,0-0.2,0.1-0.4l-1-0.2c-0.1,0-0.1,0.3-0.1,0.4l-0.4-0.1c0,0.1,0,0.2-0.1,0.4l-0.7-0.1c-0.1,0.2-0.2,0.5-0.2,0.7l-0.4-0.1
	c0,0.1,0,0.2-0.1,0.4l-0.4-0.1c0,0.1,0,0.2-0.1,0.4l-1.1-0.2c0,0.2-0.1,0.5-0.1,0.7l-0.7-0.1c-0.1,0-0.1,0.3-0.1,0.4l-0.4-0.1
	c0,0.1,0,0.2,0,0.3c1.2,0.3,2.7,0.4,4,0.7c0.1,0,0.1-0.3,0.1-0.4c0.1,0,0.2,0,0.4,0.1c-0.1,0.4-0.1,0.7-0.2,1.1l-0.4-0.1l0,0.3
	c0,0.1,0.3,0.1,0.4,0.1c0,0.2-0.1,0.5-0.1,0.7c-0.3-0.1-0.4,0-0.4,0.3l-0.4-0.1c0-0.2,0.1-0.5,0.1-0.7l-0.3,0
	c-0.1,0.2-0.2,0.5-0.2,0.7c-0.3-0.1-0.4,0-0.4,0.3l-0.4-0.1c0,0.1,0,0.2-0.1,0.4l-1.5-0.2c0.1-0.3,0.1-0.7,0.2-1
	c0-0.1-0.3-0.1-0.4-0.1c0.1-0.3,0-0.4-0.3-0.4c0-0.1,0-0.2,0.1-0.4c-0.1,0-0.2,0-0.4-0.1l0,0.3c0,0.1,0.3,0.1,0.4,0.1
	c0,0.1,0,0.2-0.1,0.4c-0.1,0-0.2,0-0.4-0.1c0,0.1,0,0.2-0.1,0.4l-0.4-0.1c0,0.2-0.1,0.5-0.1,0.7l-1-0.2c-0.1,0-0.1,0.3-0.1,0.4
	c-0.3-0.1-0.4,0-0.4,0.3l-0.4-0.1c0-0.1,0-0.2,0.1-0.4l-0.7-0.1l-0.1,0.7c0,0.1,0.3,0.1,0.4,0.1c-0.1,0.4-0.1,0.7-0.2,1.1l-2.5-0.4
	c-0.1,0-0.1,0.3-0.1,0.4c-0.7-0.1-1.4-0.2-2.1-0.3c-0.1,0-0.1,0.3-0.1,0.4l-0.4-0.1c0,0.2-0.1,0.4-0.1,0.7c0,0.1,0.3,0.1,0.4,0.1
	c0,0.2-0.1,0.5-0.1,0.7c-0.3-0.1-0.4,0-0.4,0.3c-0.4-0.1-0.7-0.1-1.1-0.2c0-0.1,0-0.2,0.1-0.4l-0.3,0c-0.1,0-0.1,0.3-0.1,0.4
	l-0.7-0.1c-0.1,0-0.1,0.3-0.1,0.4l-0.7-0.1c-0.1,0-0.1,0.3-0.1,0.4l-0.4-0.1c0,0.2-0.1,0.5-0.1,0.7l-2.6-0.4c0,0.2-0.1,0.5-0.1,0.7
	l-0.7-0.1c0-0.1,0-0.2,0.1-0.4c-0.1,0-0.2,0-0.3,0c-0.1,0-0.1,0.3-0.1,0.4l-1-0.2c-0.1,0-0.1,0.3-0.1,0.4l-0.7-0.1
	c-0.1,0-0.1,0.3-0.1,0.4l-0.7-0.1c-0.1,0-0.1,0.3-0.1,0.4l-0.4-0.1c0-0.1,0-0.2,0.1-0.4c-0.2,0-0.5-0.1-0.7-0.1c0-0.1,0-0.2,0.1-0.4
	l-1-0.2c-0.1,0-0.1,0.3-0.1,0.4l-0.4-0.1c0,0.1,0,0.2-0.1,0.4l-1.8-0.3c0-0.1,0-0.2,0.1-0.4l-0.7-0.1c-0.1,0-0.1,0.3-0.1,0.4
	l-2.5-0.4c-0.1,0-0.1,0.3-0.1,0.4c-0.1,0-0.2,0-0.4-0.1c0-0.1,0-0.2,0.1-0.4l-0.4-0.1c0-0.1,0-0.2,0.1-0.4l-1.4-0.2
	c-0.1,0-0.1,0.3-0.1,0.4l-1.5-0.2c0-0.1,0-0.2,0.1-0.4c-0.4-0.1-0.7-0.1-1.1-0.2c0-0.2,0.1-0.5,0.1-0.7c-0.2-0.1-0.4-0.2-0.7-0.2
	c-0.1,0-0.1,0.3-0.1,0.4l-1-0.2c-0.1,0-0.1,0.3-0.1,0.4l-0.4-0.1c0-0.1,0-0.2,0.1-0.4c-0.2,0-0.5-0.1-0.7-0.1c0-0.1,0-0.2,0.1-0.4
	l-0.4-0.1c0-0.1,0-0.2,0.1-0.4l-0.7-0.1c-0.1,0-0.1,0.3-0.1,0.4l-1.1-0.2c0-0.1,0-0.2,0.1-0.4c-0.5-0.1-1-0.2-1.5-0.2
	c0.1-0.3,0-0.4-0.3-0.4c0-0.1,0-0.2,0.1-0.4l-0.7-0.1c0-0.1,0-0.2,0.1-0.4l-0.7-0.1l0.1-0.4c-0.1,0-0.2,0-0.4-0.1
	c0-0.1,0-0.2,0.1-0.4l-0.7-0.1c0-0.2,0.1-0.4,0.1-0.7c-0.6-0.2-1.2-0.3-1.8-0.4c0.1-0.3,0-0.4-0.3-0.4c0-0.1,0-0.2,0.1-0.4l-0.7-0.1
	c0-0.1,0-0.2,0.1-0.4l-0.7-0.1c0.1-0.6,0.2-1.2,0.3-1.8c-0.2-0.1-0.4-0.2-0.7-0.2c-0.1,0-0.1,0.3-0.1,0.4l-1.5-0.2
	c0-0.2,0.1-0.5,0.1-0.7c0-0.1-0.3-0.1-0.4-0.1c0.1-0.3,0-0.4-0.3-0.4c0-0.1,0-0.2,0.1-0.4l-0.4-0.1c0.1-0.3,0-0.4-0.3-0.4
	c0-0.2,0.1-0.5,0.1-0.7l-0.3,0c-0.1,0-0.1,0.3-0.1,0.4c-0.4-0.1-0.7-0.1-1.1-0.2c0-0.2,0.1-0.5,0.1-0.7c0-0.1-0.3-0.1-0.4-0.1
	c0-0.2,0.1-0.4,0.1-0.7c0-0.1-0.3-0.1-0.4-0.1c0-0.2,0.1-0.5,0.1-0.7l0.4,0.1l0-0.3c-0.2-0.1-0.4-0.2-0.7-0.2
	c-0.1,0-0.1,0.3-0.1,0.4l-0.4-0.1c0-0.1,0-0.2,0.1-0.4l-1.1-0.2c0-0.1,0-0.2,0.1-0.4c-0.1,0-0.2,0-0.4-0.1l0.2-1
	c0-0.1-0.3-0.1-0.4-0.1c0.1-0.3,0-0.4-0.3-0.4c0-0.1,0-0.2,0.1-0.4l-0.7-0.1c0.1-0.3,0-0.4-0.3-0.4c0-0.1,0-0.2,0.1-0.4l-0.4-0.1
	c0-0.2,0.1-0.4,0.1-0.7c0-0.1-0.3-0.1-0.4-0.1c0-0.2,0.1-0.4,0.1-0.7c0-0.1-0.3-0.1-0.4-0.1c0.1-0.3,0-0.4-0.3-0.4
	c0-0.1,0-0.2,0.1-0.4c0.1,0,0.2,0,0.4,0.1c0-0.2,0.1-0.5,0.1-0.7l-1.1-0.2c0.1-0.3,0-0.4-0.3-0.4c0-0.1,0-0.2,0.1-0.4l-0.4-0.1
	c0.1-0.3,0-0.4-0.3-0.4c0.1-0.6,0.2-1.2,0.3-1.8c0-0.1-0.3-0.1-0.4-0.1c0-0.1,0-0.2,0.1-0.4c0.1,0,0.2,0,0.4,0.1
	c0-0.1,0-0.2,0.1-0.4l0.4,0.1c0-0.1,0-0.2,0.1-0.4l0.4,0.1c0-0.1,0-0.2,0-0.3c-0.2-0.1-0.5-0.2-0.7-0.2c0.1-0.3,0-0.4-0.3-0.4
	l0.1-0.4l-0.7-0.1c0-0.1,0-0.2,0.1-0.4c0.1,0,0.2,0,0.4,0.1c0-0.2,0.1-0.5,0.1-0.7l-1.1-0.2c0.1-0.3,0-0.4-0.3-0.4
	c0-0.1,0-0.2,0.1-0.4c0.1,0,0.2,0,0.4,0.1c0-0.1,0-0.2,0-0.3c0-0.1-0.3-0.1-0.4-0.1c0-0.1,0-0.2,0.1-0.4l-0.7-0.1
	c0-0.1,0-0.2,0.1-0.4c-0.1,0-0.2,0-0.4-0.1c0.1-0.5,0.1-0.9,0.2-1.4c0-0.1-0.3-0.1-0.4-0.1c0.1-0.3,0-0.4-0.3-0.4l0.1-0.4l-0.4-0.1
	l0.2-1c0-0.1-0.3-0.1-0.4-0.1c0-0.1,0-0.2,0.1-0.4l0.4,0.1c0.1-0.5,0.1-0.9,0.2-1.4c0-0.1-0.3-0.1-0.4-0.1c0-0.2,0.1-0.4,0.1-0.7
	c0-0.1-0.3-0.1-0.4-0.1c0-0.1,0-0.2,0.1-0.4l0.4,0.1l0-0.3c0-0.1-0.3-0.1-0.4-0.1c0.1-0.7,0.2-1.4,0.3-2.1c0-0.1-0.3-0.1-0.4-0.1
	c0-0.1,0-0.2,0.1-0.4l0.4,0.1c0.1-0.5,0.1-0.9,0.2-1.4c0-0.1-0.3-0.1-0.4-0.1c0-0.1,0-0.2,0.1-0.4l-0.4-0.1c0.1-0.4,0.1-0.7,0.2-1.1
	l0.4,0.1c0-0.2,0.1-0.4,0.1-0.7c0-0.1-0.3-0.1-0.4-0.1c0-0.2,0.1-0.4,0.1-0.7c0-0.1-0.3-0.1-0.4-0.1c0-0.2,0.1-0.5,0.1-0.7l0.4,0.1
	c0.1-0.6,0.2-1.2,0.3-1.8c0-0.1-0.3-0.1-0.4-0.1c0-0.1,0-0.2,0.1-0.4c-0.1,0-0.2,0-0.4-0.1l0.4-2.5c0-0.1-0.3-0.1-0.4-0.1
	c0-0.2,0.1-0.5,0.1-0.7l0.4,0.1c0-0.1,0-0.2,0-0.3c0-0.1-0.3-0.1-0.4-0.1c0.2-1,0.3-2,0.5-2.9l0.4,0.1c0.1-0.3,0.1-0.7,0.2-1
	c0-0.1-0.3-0.1-0.4-0.1c0-0.1,0-0.2,0.1-0.4l0.4,0.1c0.1-0.3,0.1-0.7,0.2-1c0-0.1-0.3-0.1-0.4-0.1c0.1-0.3,0-0.4-0.3-0.4
	c0.1-0.4,0.1-0.7,0.2-1.1c0.1,0,0.2,0,0.4,0.1c0.1-0.4,0.1-0.7,0.2-1.1c0.1,0,0.2,0,0.4,0.1c0.1-0.5,0.1-0.9,0.2-1.4
	c0-0.1-0.3-0.1-0.4-0.1c0.1-0.5,0.2-1,0.2-1.5l0.4,0.1c0-0.2,0.1-0.5,0.1-0.7c0.1,0,0.2,0,0.4,0.1c0.1-0.7,0.2-1.5,0.3-2.2l0.4,0.1
	c0.1-0.4,0.1-0.7,0.2-1.1l0.4,0.1l0-0.3c0-0.1-0.3-0.1-0.4-0.1c0-0.2,0.1-0.4,0.1-0.7c0-0.1-0.3-0.1-0.4-0.1
	c0.1-0.4,0.1-0.7,0.2-1.1l0.4,0.1c0.1-0.4,0.1-0.7,0.2-1.1l0.4,0.1c0-0.2,0.1-0.5,0.1-0.7l0.4,0.1c0-0.1,0-0.2,0.1-0.4
	c0.1,0,0.2,0,0.4,0.1c0-0.1,0-0.2,0-0.3c0-0.1-0.3-0.1-0.4-0.1c0-0.2,0.1-0.5,0.1-0.7c0.1,0,0.2,0,0.4,0.1c0-0.2,0.1-0.5,0.1-0.7
	c0.3,0.1,0.4,0,0.4-0.3l0.4,0.1c0.1-0.5,0.2-1,0.2-1.5l0.4,0.1c0.1-0.9,0.3-1.7,0.4-2.6c0.3,0.1,0.4,0,0.4-0.3l0.4,0.1
	c0-0.1,0-0.2,0.1-0.4l0.4,0.1c0.1-0.7,0.2-1.5,0.3-2.2c0.3,0.1,0.4,0,0.4-0.3c0.1,0,0.2,0,0.4,0.1c0-0.2,0.1-0.4,0.1-0.7
	c0-0.1-0.3-0.1-0.4-0.1c0-0.1,0-0.2,0.1-0.4l0.4,0.1c0-0.1,0-0.2,0.1-0.4l0.4,0.1c0-0.1,0-0.2,0.1-0.4l0.7,0.1
	c0.1,0,0.1-0.3,0.1-0.4l0.4,0.1c0-0.1,0-0.2,0-0.3c0-0.1-0.3-0.1-0.4-0.1c0.1-0.7,0.2-1.5,0.3-2.2c0.1,0,0.2,0,0.4,0.1
	c0-0.2,0.1-0.5,0.1-0.7l0.4,0.1c0-0.2,0.1-0.5,0.1-0.7l0.4,0.1c0-0.2,0.1-0.5,0.1-0.7c0.1,0,0.2,0,0.4,0.1c0-0.2,0.1-0.5,0.1-0.7
	c0.3,0.1,0.4,0,0.4-0.3c0.1,0,0.2,0,0.4,0.1c0-0.1,0-0.2,0.1-0.4c0.1,0,0.2,0,0.4,0.1c0-0.1,0-0.2,0.1-0.4c0.1,0,0.2,0,0.4,0.1
	c0.1-0.3,0.1-0.7,0.2-1c0-0.1-0.3-0.1-0.4-0.1c0.1-0.4,0.1-0.7,0.2-1.1l0.4,0.1c0-0.2,0.1-0.5,0.1-0.7l0.4,0.1
	c0.1-0.4,0.1-0.7,0.2-1.1c0.3,0.1,0.4,0,0.4-0.3l0.4,0.1c0-0.1,0-0.2,0.1-0.4c0.1,0,0.2,0,0.4,0.1c0.1-0.4,0.1-0.7,0.2-1.1
	c0.3,0.1,0.4,0,0.4-0.3c0.3,0.1,0.4,0,0.4-0.3c0.1,0,0.2,0,0.4,0.1c0-0.1,0-0.2,0-0.3c0-0.1-0.3-0.1-0.4-0.1c0-0.1,0-0.2,0.1-0.4
	l0.4,0.1c0.1-0.4,0.1-0.7,0.2-1.1c0.1,0,0.2,0,0.4,0.1c0.1-0.4,0.1-0.7,0.2-1.1l0.4,0.1c0-0.1,0-0.2,0.1-0.4l0.4,0.1
	c0-0.2,0.1-0.5,0.1-0.7l0.4,0.1c0.1-0.4,0.1-0.7,0.2-1.1c0.3,0.1,0.4,0,0.4-0.3c0.1,0,0.2,0,0.4,0.1c0-0.2,0.1-0.5,0.1-0.7
	c0.3,0.1,0.4,0,0.4-0.3l0.4,0.1c0-0.2,0.1-0.5,0.1-0.7c0.3,0.1,0.4,0,0.4-0.3l0.4,0.1c0-0.2,0.1-0.5,0.1-0.7l0.4,0.1
	c0-0.2,0.1-0.5,0.1-0.7c0.3,0.1,0.4,0,0.4-0.3c0.1,0,0.2,0,0.4,0.1c0-0.2,0.1-0.5,0.1-0.7l0.4,0.1c0.1-0.4,0.1-0.7,0.2-1.1
	c0.3,0.1,0.4,0,0.4-0.3c0.3,0.1,0.4,0,0.4-0.3l0.4,0.1c0-0.2,0.1-0.5,0.1-0.7c0.1,0,0.2,0,0.4,0.1c0-0.2,0.1-0.5,0.1-0.7
	c0.3,0.1,0.4,0,0.4-0.3l0.4,0.1l0-0.6l0.4,0.1c0-0.2,0.1-0.5,0.1-0.7l0.4,0.1c0-0.2,0.1-0.5,0.1-0.7l0.4,0.1c0-0.2,0.1-0.5,0.1-0.7
	l0.7,0.1c0.1-0.4,0.2-0.7,0.2-1.1c0.3,0.1,0.4,0,0.4-0.3l0.4,0.1c0-0.1,0-0.2,0.1-0.4c0.3,0.1,0.4,0,0.4-0.3l0.4,0.1l0.1-0.7
	l0.4,0.1c0-0.2,0.1-0.5,0.1-0.7c0.1,0,0.2,0,0.4,0.1c0-0.1,0-0.2,0.1-0.4c0.3,0.1,0.4,0,0.4-0.3c0.3,0.1,0.4,0,0.4-0.3l0.4,0.1
	c0-0.1,0-0.2,0.1-0.4c0.1,0,0.2,0,0.4,0.1l0.1-0.7c0.1,0,0.2,0,0.4,0.1c0-0.2,0.1-0.5,0.1-0.7L146,87c0-0.1,0-0.2,0.1-0.4l0.3,0.1
	c0-0.1,0-0.2,0.1-0.4l0.4,0.1c0-0.1,0-0.2,0.1-0.4c0.3,0.1,0.4,0,0.4-0.3l0.4,0.1c0-0.1,0-0.2,0.1-0.4c0.3,0.1,0.4,0,0.4-0.3
	l0.7,0.1c0.1-0.2,0.2-0.4,0.2-0.7c0-0.1-0.3-0.1-0.4-0.1c0-0.2,0.1-0.5,0.1-0.7l0.4,0.1c0-0.2,0.1-0.5,0.1-0.7l0.4,0.1
	c0-0.1,0-0.2,0.1-0.4l0.7,0.1c0.1,0,0.1-0.3,0.1-0.4c0.1,0,0.2,0,0.4,0.1c0-0.2,0.1-0.5,0.1-0.7l0.4,0.1c0-0.1,0-0.2,0.1-0.4
	c0.3,0.1,0.4,0,0.4-0.3l0.4,0.1c0-0.1,0-0.2,0.1-0.4c0.3,0.1,0.4,0,0.4-0.3c0.3,0.1,0.4,0,0.4-0.3c0.1,0,0.2,0,0.4,0.1
	c0-0.2,0.1-0.5,0.1-0.7l0.4,0.1c0-0.2,0.1-0.5,0.1-0.7c0.3,0.1,0.4,0,0.4-0.3l0.4,0.1c0-0.2,0.1-0.5,0.1-0.7c0.3,0.1,0.4,0,0.4-0.3
	c0.3,0.1,0.4,0,0.4-0.3c0.3,0.1,0.4,0,0.4-0.3l0.4,0.1c0-0.1,0-0.2,0.1-0.4l0.4,0.1c0-0.1,0-0.2,0.1-0.4c0.3,0.1,0.4,0,0.4-0.3
	c0.3,0.1,0.4,0,0.4-0.3c0.3,0.1,0.4,0,0.4-0.3c0.3,0.1,0.4,0,0.4-0.3c0.1,0,0.2,0,0.4,0.1l0.1-0.4c0.1,0,0.2,0,0.4,0.1
	c0-0.1,0-0.2,0.1-0.4l0.4,0.1c0-0.2,0.1-0.5,0.1-0.7l0.4,0.1c0-0.2,0.1-0.5,0.1-0.7l0.4,0.1c0-0.1,0-0.2,0.1-0.4l0.4,0.1
	c0-0.1,0-0.2,0.1-0.4l0.4,0.1c0-0.1,0-0.2,0.1-0.4c0.2,0,0.4,0.1,0.7,0.1c0.1-0.2,0.2-0.5,0.2-0.7c0.3,0.1,0.4,0,0.4-0.3
	c0.3,0.1,0.4,0,0.4-0.3l0.4,0.1c0-0.1,0-0.2,0.1-0.4l0.4,0.1c0-0.1,0-0.2,0.1-0.4l0.7,0.1c0-0.2,0.1-0.5,0.1-0.7l0.4,0.1
	c0-0.1,0-0.2,0.1-0.4l0.7,0.1c0.1,0,0.1-0.3,0.1-0.4c0.3,0.1,0.4,0,0.4-0.3c0.1,0,0.2,0,0.4,0.1c0-0.1,0-0.2,0.1-0.4
	c0.3,0.1,0.4,0,0.4-0.3c0.1,0,0.2,0,0.4,0.1c0-0.2,0.1-0.5,0.1-0.7c0.3,0.1,0.4,0,0.4-0.3c0.3,0.1,0.4,0,0.4-0.3
	c0.3,0.1,0.4,0,0.4-0.3l0.4,0.1c0-0.1,0-0.2,0.1-0.4c0.1,0,0.2,0,0.4,0.1l0.1-0.4l0.7,0.1c0.1,0,0.1-0.3,0.1-0.4l0.4,0.1
	c0-0.2,0.1-0.5,0.1-0.7c0.3,0.1,0.4,0,0.4-0.3c0.3,0.1,0.4,0,0.4-0.3l0.4,0.1c0-0.1,0-0.2,0.1-0.4c0.1,0,0.2,0,0.4,0.1l0.1-0.4
	c0.3,0.1,0.4,0,0.4-0.3c0.3,0.1,0.4,0,0.4-0.3c0.3,0.1,0.4,0,0.4-0.3l0.4,0.1c0-0.1,0-0.2,0.1-0.4l0.4,0.1l0.1-0.4l0.7,0.1
	c0.1,0,0.1-0.3,0.1-0.4c0.1,0,0.2,0,0.4,0.1c0-0.1,0-0.2,0.1-0.4c0.3,0.1,0.4,0,0.4-0.3l0.4,0.1c0-0.1,0-0.2,0.1-0.4l0.7,0.1
	c0.1,0,0.1-0.3,0.1-0.4c0.1,0,0.2,0,0.4,0.1l0.1-0.4c0.3,0.1,0.4,0,0.4-0.3c0.1,0,0.2,0,0.4,0.1c0-0.1,0-0.2,0.1-0.4l0.4,0.1
	c0-0.1,0-0.2,0.1-0.4l0.4,0.1c0-0.1,0-0.2,0.1-0.4l0.7,0.1c0.1-0.2,0.2-0.5,0.2-0.7l0.7,0.1c0.1,0,0.1-0.3,0.1-0.4l0.4,0.1
	c0-0.1,0-0.2,0.1-0.4l0.7,0.1c0.1,0,0.1-0.3,0.1-0.4l0.4,0.1c0-0.1,0-0.2,0.1-0.4l0.7,0.1c0.1-0.2,0.2-0.5,0.2-0.7l0.4,0.1
	c0-0.1,0-0.2,0.1-0.4l0.7,0.1c0.1,0,0.1-0.3,0.1-0.4c0.1,0,0.2,0,0.4,0.1c0-0.2,0.1-0.5,0.1-0.7l0.4,0.1c0-0.1,0-0.2,0.1-0.4l1,0.2
	c0.1,0,0.1-0.3,0.1-0.4l0.4,0.1l0.1-0.4c0.3,0.1,0.4,0,0.4-0.3l0.7,0.1c0.1,0,0.1-0.3,0.1-0.4c0.1,0,0.2,0,0.4,0.1
	c0-0.1,0-0.2,0.1-0.4l0.7,0.1c0.1,0,0.1-0.3,0.1-0.4l0.7,0.1c0.1,0,0.1-0.3,0.1-0.4c0.1,0,0.2,0,0.4,0.1l0.1-0.4l0.4,0.1
	c0-0.1,0-0.2,0.1-0.4l1,0.2c0.1,0,0.1-0.3,0.1-0.4c0.2,0,0.4,0.1,0.7,0.1c0.1,0,0.1-0.3,0.1-0.4c0.2,0,0.4,0.1,0.7,0.1
	c0.1,0,0.1-0.3,0.1-0.4l0.4,0.1c0-0.1,0-0.2,0.1-0.4l0.7,0.1c0.1,0,0.1-0.3,0.1-0.4l0.4,0.1l0.1-0.4l1,0.2c0.1,0,0.1-0.3,0.1-0.4
	l0.4,0.1c0-0.1,0-0.2,0.1-0.4l0.4,0.1c0-0.1,0-0.2,0.1-0.4c0.3,0.1,0.7,0.1,1,0.2c0.1,0,0.1-0.3,0.1-0.4l0.4,0.1
	c0-0.1,0-0.2,0.1-0.4l1,0.2c0.1,0,0.1-0.3,0.1-0.4l0.7,0.1c0.1,0,0.1-0.3,0.1-0.4l0.7,0.1c0.1,0,0.1-0.3,0.1-0.4l1,0.2
	c0.1,0,0.1-0.3,0.1-0.4l0.7,0.1c0.1,0,0.1-0.3,0.1-0.4l1.4,0.2c0.1,0,0.1-0.3,0.1-0.4l0.7,0.1c0.1,0,0.1-0.3,0.1-0.4l1,0.2
	c0.1,0,0.1-0.3,0.1-0.4l1.4,0.2c0.1,0,0.1-0.3,0.1-0.4l1,0.2c0.1,0,0.1-0.3,0.1-0.4l1,0.2c0.1,0,0.1-0.3,0.1-0.4l3.6,0.6
	c0.1,0,0.1-0.3,0.1-0.4l1,0.2c0.1,0,0.1-0.3,0.1-0.4l3.6,0.6c0.1,0,0.1-0.3,0.1-0.4l1.4,0.2c0.1,0,0.1-0.3,0.1-0.4l0.7,0.1l-0.1,0.4
	l1.1,0.2c0,0.1,0,0.2-0.1,0.4l0.7,0.1c0.1,0,0.1-0.3,0.1-0.4c0.3,0.1,0.4,0,0.4-0.3c0.6,0.1,1.2,0.2,1.8,0.3c0,0.1,0,0.2-0.1,0.4
	l1.5,0.2c0,0.1,0,0.2-0.1,0.4l1.8,0.3c0.1,0,0.1-0.3,0.1-0.4l0.4,0.1c0,0.1,0,0.2-0.1,0.4l0.7,0.1c0.1,0,0.1-0.3,0.1-0.4l0.4,0.1
	l-0.1,0.4l1.1,0.2l-0.1,0.4l0.7,0.1c0.1,0,0.1-0.3,0.1-0.4l1.1,0.2l-0.1,0.4l0.3,0c0.1,0,0.1-0.3,0.1-0.4l0.4,0.1
	c0,0.1,0,0.2-0.1,0.4l2.2,0.4c0,0.1,0,0.2-0.1,0.4l0.6,0.2c0,0.1,0,0.2-0.1,0.4l1.8,0.3c0,0.1,0,0.2-0.1,0.4c0.5,0.1,1,0.2,1.5,0.2
	c0,0.1,0,0.2-0.1,0.4l0.7,0.1c0,0.1,0,0.2-0.1,0.4l1.1,0.2c-0.1,0.3,0,0.4,0.3,0.4c0,0.1,0,0.2-0.1,0.4l0.7,0.1
	c-0.1,0.3,0,0.4,0.3,0.4c0,0.1,0,0.2-0.1,0.4l0.7,0.1c0,0.1,0,0.2-0.1,0.4l0.7,0.1c0,0.2-0.1,0.4-0.1,0.7c0.4,0.1,0.7,0.2,1.1,0.2
	c-0.1,0.3,0,0.4,0.3,0.4c-0.1,0.3,0,0.4,0.3,0.4c0,0.1,0,0.2-0.1,0.4l0.4,0.1l-0.1,0.4l0.4,0.1c-0.1,0.3,0,0.4,0.3,0.4
	c-0.1,0.3,0,0.4,0.3,0.4c-0.1,0.3,0,0.4,0.3,0.4c-0.1,0.3,0,0.4,0.3,0.4c-0.1,0.3,0,0.4,0.3,0.4c0,0.2-0.1,0.4-0.1,0.7
	c0,0.1,0.3,0.1,0.4,0.1c0,0.1,0,0.2-0.1,0.4c0.1,0,0.2,0,0.4,0.1l-0.1,0.7c0,0.1,0.3,0.1,0.4,0.1c-0.1,0.4-0.1,0.7-0.2,1.1
	c0.2,0,0.5,0.1,0.7,0.1c0,0.2-0.1,0.5-0.1,0.7l-2.5-0.4c-0.2,0.5-0.3,1-0.3,1.5l-0.4-0.1c0,0.1,0,0.2,0,0.3c0,0.1,0.3,0.1,0.4,0.1
	l-0.1,0.4l-0.4-0.1c0,0.1,0,0.2-0.1,0.4c-0.1,0-0.2,0-0.4-0.1c-0.1,0.5-0.2,1-0.2,1.5l-0.7-0.1c-0.1,0-0.1,0.3-0.1,0.4
	c-0.3-0.1-0.4,0-0.4,0.3l-0.4-0.1l-0.3,2.2l-0.4-0.1c-0.1,0.4-0.1,0.7-0.2,1.1c-0.1,0-0.2,0-0.4-0.1c0,0.2-0.1,0.5-0.1,0.7l-0.4-0.1
	c-0.1,0.4-0.1,0.7-0.2,1.1c-0.3-0.1-0.4,0-0.4,0.3l-0.4-0.1c0,0.2-0.1,0.5-0.1,0.7l-1.1-0.2c0.1-0.4,0.1-0.7,0.2-1.1l-0.3,0
	c-0.1,0.2-0.2,0.5-0.2,0.7c-0.3-0.1-0.4,0-0.4,0.3l-0.4-0.1c0-0.1,0-0.2,0.1-0.4l-0.3,0c-0.1,0-0.1,0.3-0.1,0.4l-1.5-0.2
	c0.1-0.3,0-0.4-0.3-0.4c0-0.1,0-0.2,0.1-0.4c-0.2,0-0.4-0.1-0.7-0.1c-0.1,0-0.1,0.3-0.1,0.4c-0.3-0.1-0.4,0-0.4,0.3l-0.4-0.1
	c0-0.1,0-0.2,0.1-0.4l-0.4-0.1c0-0.1,0-0.2,0.1-0.4l-0.4-0.1l0.1-0.7c-0.6-0.2-1.2-0.3-1.8-0.4c0-0.1,0-0.2,0.1-0.4l-1.5-0.2
	c0-0.1,0-0.2,0.1-0.4l-1.1-0.2l0.1-0.4l-1.1-0.2c0.1-0.3,0-0.4-0.3-0.4c0-0.1,0-0.2,0.1-0.4l-1-0.2c-0.1,0-0.1,0.3-0.1,0.4l-1.1-0.2
	l0.1-0.7c-0.6-0.2-1.2-0.3-1.8-0.3c-0.1,0-0.1,0.3-0.1,0.4c-0.1,0-0.2,0-0.4-0.1c0-0.2,0.1-0.4,0.1-0.7c-0.5-0.2-1-0.3-1.5-0.3
	c0-0.1,0-0.2,0.1-0.4l-0.7-0.1l-0.1,0.7l-0.7-0.1c-0.1,0-0.1,0.3-0.1,0.4l-2.1-0.3c-0.1,0-0.1,0.3-0.1,0.4l-1.1-0.2
	c0-0.1,0-0.2,0.1-0.4l-0.3,0c-0.1,0-0.1,0.3-0.1,0.4l-2.1-0.3c-0.1,0-0.1,0.3-0.1,0.4c-0.3-0.1-0.4,0-0.4,0.3l-1-0.2
	c-0.1,0-0.1,0.3-0.1,0.4l-1.8-0.3c-0.1,0-0.1,0.3-0.1,0.4c-0.1,0-0.2,0-0.4-0.1c0-0.1,0-0.2,0.1-0.4l-0.3,0c-0.1,0-0.1,0.3-0.1,0.4
	l-1-0.2c-0.1,0-0.1,0.3-0.1,0.4c-0.2,0-0.4-0.1-0.7-0.1c-0.1,0-0.1,0.3-0.1,0.4l-0.7-0.1c-0.1,0-0.1,0.3-0.1,0.4l-1.8-0.3
	c-0.1,0-0.1,0.3-0.1,0.4c-0.3-0.1-0.4,0-0.4,0.3l-1-0.2c-0.1,0-0.1,0.3-0.1,0.4l-1.1-0.2c0,0.2-0.1,0.5-0.1,0.7l-0.4-0.1
	c0,0.1,0,0.2-0.1,0.4c-0.2,0-0.5-0.1-0.7-0.1l-0.1,0.7l-0.7-0.1c-0.1,0-0.1,0.3-0.1,0.4c-0.1,0-0.2,0-0.4-0.1l-0.1,0.4
	c-0.3-0.1-0.4,0-0.4,0.3l-0.7-0.1c-0.1,0-0.1,0.3-0.1,0.4l-1-0.2c-0.1,0-0.1,0.3-0.1,0.4c-0.3-0.1-0.4,0-0.4,0.3l-0.4-0.1
	c0,0.1,0,0.2-0.1,0.4c-0.1,0-0.2,0-0.4-0.1c0,0.1,0,0.2-0.1,0.4l-0.4-0.1l-0.1,0.4l-0.4-0.1c0,0.1,0,0.2-0.1,0.4
	c-0.3-0.1-0.4,0-0.4,0.3l-0.7-0.1c-0.1,0-0.1,0.3-0.1,0.4l-0.7-0.1c-0.1,0.2-0.2,0.5-0.2,0.7l-0.4-0.1c0,0.1,0,0.2-0.1,0.4l-0.4-0.1
	c0,0.1,0,0.2-0.1,0.4l-1-0.2c-0.1,0-0.1,0.3-0.1,0.4c-0.3-0.1-0.4,0-0.4,0.3c-0.3-0.1-0.4,0-0.4,0.3l-0.4-0.1c0,0.2-0.1,0.5-0.1,0.7
	l-0.7-0.1c-0.1,0-0.1,0.3-0.1,0.4l-0.4-0.1c0,0.1,0,0.2-0.1,0.4l-0.4-0.1c0,0.1,0,0.2-0.1,0.4l-0.4-0.1c0,0.1,0,0.2-0.1,0.4
	l-0.7-0.1c-0.1,0-0.1,0.3-0.1,0.4c-0.2,0-0.5-0.1-0.7-0.1c0,0.2-0.1,0.5-0.1,0.7l-0.4-0.1l-0.1,0.7l-0.7-0.1c-0.1,0-0.1,0.3-0.1,0.4
	l-0.4-0.1c0,0.1,0,0.2-0.1,0.4l-0.4-0.1c0,0.1,0,0.2-0.1,0.4l-0.7-0.1c0,0.2-0.1,0.5-0.1,0.7c-0.3-0.1-0.4,0-0.4,0.3
	c-0.1,0-0.2,0-0.4-0.1c0,0.1,0,0.2-0.1,0.4l-0.4-0.1c0,0.1,0,0.2-0.1,0.4c-0.3-0.1-0.4,0-0.4,0.3c-0.3-0.1-0.4,0-0.4,0.3l-0.4-0.1
	c0,0.1,0,0.2-0.1,0.4c-0.3-0.1-0.4,0-0.4,0.3c-0.1,0-0.2,0-0.4-0.1l-0.1,0.4c-0.3-0.1-0.4,0-0.4,0.3c-0.1,0-0.2,0-0.4-0.1
	c0,0.1,0,0.2-0.1,0.4c-0.3-0.1-0.4,0-0.4,0.3c-0.3-0.1-0.4,0-0.4,0.3l-0.4-0.1c0,0.1,0,0.2-0.1,0.4c-0.2,0-0.4-0.1-0.7-0.1
	c-0.1,0-0.1,0.3-0.1,0.4c-0.1,0-0.2,0-0.4-0.1c0,0.1,0,0.2-0.1,0.4c-0.1,0-0.2,0-0.4-0.1c0,0.2-0.1,0.5-0.1,0.7
	c-0.3-0.1-0.4,0-0.4,0.3l-0.7-0.1c-0.1,0.2-0.2,0.5-0.2,0.7l-0.4-0.1c0,0.1,0,0.2-0.1,0.4c-0.3-0.1-0.4,0-0.4,0.3l-0.7-0.1
	c-0.1,0-0.1,0.3-0.1,0.4l-0.7-0.1l-0.1,0.7l-0.4-0.1c0,0.2-0.1,0.5-0.1,0.7c-0.3-0.1-0.4,0-0.4,0.3c-0.1,0-0.2,0-0.4-0.1l-0.1,0.7
	c-0.3-0.1-0.4,0-0.4,0.3c-0.1,0-0.2,0-0.4-0.1c0,0.1,0,0.2-0.1,0.4c-0.3-0.1-0.4,0-0.4,0.3l-0.4-0.1c0,0.2-0.1,0.5-0.1,0.7l-1-0.2
	c-0.2,0.5-0.3,1-0.3,1.5c-0.3-0.1-0.4,0-0.4,0.3c-0.3-0.1-0.4,0-0.4,0.3c-0.3-0.1-0.4,0-0.4,0.3l-0.4-0.1c-0.1,0.5-0.2,1-0.2,1.5
	l-0.7-0.1c-0.1,0-0.1,0.3-0.1,0.4l-0.4-0.1c0,0.1,0,0.2-0.1,0.4l-0.7-0.1c-0.1,0.4-0.2,0.7-0.2,1.1c-0.3-0.1-0.4,0-0.4,0.3l-0.4-0.1
	l-0.1,0.7c-0.1,0-0.2,0-0.4-0.1c0,0.2-0.1,0.5-0.1,0.7c-0.1,0-0.2,0-0.4-0.1c0,0.1,0,0.2-0.1,0.4l-0.4-0.1l-0.1,0.4
	c-0.3-0.1-0.4,0-0.4,0.3c-0.3-0.1-0.4,0-0.4,0.3l-1-0.2c-0.2,0.5-0.3,1-0.3,1.5c-0.3-0.1-0.4,0-0.4,0.3l-0.4-0.1l0,0.3
	c0,0.1,0.3,0.1,0.4,0.1c0,0.1,0,0.2-0.1,0.4l-0.4-0.1c0,0.2-0.1,0.5-0.1,0.7l-0.4-0.1c0,0.1,0,0.2-0.1,0.4c-0.3-0.1-0.4,0-0.4,0.3
	c-0.1,0-0.2,0-0.4-0.1c0,0.2-0.1,0.5-0.1,0.7l-0.4-0.1c-0.1,0.4-0.1,0.7-0.2,1.1c-0.3-0.1-0.4,0-0.4,0.3l-0.7-0.1
	c-0.1,0-0.1,0.3-0.1,0.4c-0.3-0.1-0.4,0-0.4,0.3l-0.4-0.1c-0.1,0.5-0.2,1-0.2,1.5l-0.4-0.1c-0.1,0.4-0.1,0.7-0.2,1.1
	c-0.3-0.1-0.4,0-0.4,0.3c-0.1,0-0.2,0-0.4-0.1c0,0.1,0,0.2-0.1,0.4c-0.3-0.1-0.4,0-0.4,0.3c-0.3-0.1-0.4,0-0.4,0.3l-0.4-0.1
	c-0.1,0.4-0.1,0.7-0.2,1.1l-0.4-0.1c-0.1,0.4-0.1,0.7-0.2,1.1l-1.1-0.2l0,0.3c0,0.1,0.3,0.1,0.4,0.1c0,0.2-0.1,0.5-0.1,0.7l-1-0.2
	c-0.1,0-0.1,0.3-0.1,0.4l-0.4-0.1c0,0.1,0,0.2,0,0.3c0,0.1,0.3,0.1,0.4,0.1c-0.1,0.6-0.2,1.2-0.3,1.8c-0.1,0-0.2,0-0.4-0.1
	c0,0.2-0.1,0.5-0.1,0.7c-0.1,0-0.2,0-0.4-0.1c0,0.2-0.1,0.5-0.1,0.7c-0.1,0-0.2,0-0.4-0.1c-0.1,0.4-0.1,0.7-0.2,1.1l-0.4-0.1
	c0,0.1,0,0.2-0.1,0.4l-1-0.2c-0.1,0.2-0.2,0.4-0.2,0.7c0,0.1,0.3,0.1,0.4,0.1c-0.1,0.4-0.1,0.7-0.2,1.1l-0.7-0.1
	c-0.1,0-0.1,0.3-0.1,0.4c-0.1,0-0.2,0-0.4-0.1c0,0.2-0.1,0.5-0.1,0.7l-0.4-0.1c0-0.1,0-0.2,0.1-0.4l-0.6-0.2c0,0.1,0,0.2,0,0.3
	c0,0.1,0.3,0.1,0.4,0.1l-0.1,0.4c-0.1,0-0.2,0-0.4-0.1l-0.1,0.7l-0.4-0.1l0,0.3c0.2,0.1,0.5,0.2,0.7,0.2c0,0.1,0,0.2-0.1,0.4
	c-0.1,0-0.2,0-0.4-0.1l-0.5,3.3c-0.3-0.1-0.4,0-0.4,0.3c-0.1,0-0.2,0-0.4-0.1c0,0.1,0,0.2-0.1,0.4l-1.1-0.2l0,0.3
	c0.2,0.1,0.5,0.2,0.7,0.2c-0.1,0.4-0.1,0.7-0.2,1.1c-0.2,0-0.4-0.1-0.7-0.1c-0.1,0-0.1,0.3-0.1,0.4c-0.1,0-0.2,0-0.4-0.1
	c0,0.2-0.1,0.5-0.1,0.7l-0.4-0.1c-0.1,0.4-0.1,0.7-0.2,1.1l-0.4-0.1c0,0.2-0.1,0.5-0.1,0.7l-0.4-0.1c0,0.1,0,0.2-0.1,0.4l-0.7-0.1
	c-0.1,0.2-0.2,0.4-0.2,0.7c0,0.1,0.3,0.1,0.4,0.1c0,0.1,0,0.2-0.1,0.4l0.4,0.1c0,0.2-0.1,0.5-0.1,0.7l-0.4-0.1
	c-0.1,0.4-0.1,0.7-0.2,1.1c-0.1,0-0.2,0-0.4-0.1c0,0.2-0.1,0.5-0.1,0.7c-0.1,0-0.2,0-0.4-0.1c0,0.2-0.1,0.5-0.1,0.7l-0.4-0.1
	c0,0.1,0,0.2-0.1,0.4c-0.3-0.1-0.4,0-0.4,0.3c-0.5-0.1-1-0.2-1.5-0.2c0,0.1,0,0.2,0,0.3c0,0.1,0.3,0.1,0.4,0.1
	c-0.1,0.3,0,0.4,0.3,0.4c0,0.1,0,0.2-0.1,0.4c-0.1,0-0.2,0-0.4-0.1c0,0.2-0.1,0.4-0.1,0.7c0,0.1,0.3,0.1,0.4,0.1
	c-0.1,0.4-0.1,0.7-0.2,1.1c-0.3-0.1-0.4,0-0.4,0.3c-0.3-0.1-0.4,0-0.4,0.3l-0.4-0.1c-0.2,1.2-0.4,2.5-0.6,3.7l-0.4-0.1l-0.1,0.7
	c-0.3-0.1-0.4,0-0.4,0.3l-0.4-0.1c0,0.2-0.1,0.4-0.1,0.7c0,0.1,0.3,0.1,0.4,0.1c-0.1,0.3,0,0.4,0.3,0.4c-0.1,0.3,0,0.4,0.3,0.4
	c0,0.1,0,0.2-0.1,0.4c-0.1,0-0.2,0-0.4-0.1c0,0.2-0.1,0.5-0.1,0.7c0,0.1,0.3,0.1,0.4,0.1c-0.1,0.3,0,0.4,0.3,0.4
	c0,0.1,0,0.2-0.1,0.4l-0.4-0.1c0,0.1,0,0.2,0,0.3c0,0.1,0.3,0.1,0.4,0.1c-0.1,0.3-0.1,0.7-0.2,1c0,0.1,0.3,0.1,0.4,0.1
	c-0.1,0.4-0.1,0.7-0.2,1.1l-1-0.2c-0.1,0.2-0.2,0.4-0.2,0.7c0,0.1,0.3,0.1,0.4,0.1c0,0.2-0.1,0.4-0.1,0.7c0,0.1,0.3,0.1,0.4,0.1
	c-0.2,1.2-0.4,2.5-0.6,3.7l0.7,0.1c0,0.2-0.1,0.5-0.1,0.7c0,0.1,0.3,0.1,0.4,0.1c-0.1,0.5-0.1,0.9-0.2,1.4c0,0.1,0.3,0.1,0.4,0.1
	c0,0.2-0.1,0.5-0.1,0.7l-0.4-0.1c0,0.2-0.1,0.5-0.1,0.7l-0.4-0.1c0,0.1,0,0.2,0,0.3c0.2,0.1,0.5,0.2,0.7,0.2c0,0.1,0,0.2-0.1,0.4
	l0.7,0.1c0,0.2-0.1,0.5-0.1,0.7c-0.3-0.1-0.4,0-0.4,0.3l-0.4-0.1l0.1-0.4l-0.7-0.1l0,0.3c0,0.1,0.3,0.1,0.4,0.1c0,0.1,0,0.2-0.1,0.4
	l0.7,0.1c-0.1,0.5-0.1,0.9-0.2,1.4c0,0.1,0.3,0.1,0.4,0.1c0,0.1,0,0.2-0.1,0.4l0.7,0.1c-0.1,0.3,0,0.4,0.3,0.4
	c-0.1,0.3,0,0.4,0.3,0.4c0,0.1,0,0.2-0.1,0.4c0.1,0,0.2,0,0.4,0.1c-0.1,0.3,0,0.4,0.3,0.4c0,0.1,0,0.2-0.1,0.4c-0.1,0-0.2,0-0.4-0.1
	c0,0.1,0,0.2-0.1,0.4c-0.1,0-0.2,0-0.4-0.1c0,0.2-0.1,0.5-0.1,0.7c-0.3-0.1-0.7-0.1-1-0.2c-0.1,0-0.1,0.3-0.1,0.4l-0.7-0.1
	c0-0.1,0-0.2,0.1-0.4c-0.1,0-0.2,0-0.3,0c-0.1,0.2-0.2,0.4-0.2,0.7c0,0.1,0.3,0.1,0.4,0.1c0,0.2-0.1,0.5-0.1,0.7l0.3,0
	c0.1-0.2,0.2-0.5,0.2-0.7l0.7,0.1c0.1,0,0.1-0.3,0.1-0.4l2.9,0.5l-0.1,0.7l-1-0.2c-0.1,0-0.1,0.3-0.1,0.4l-0.4-0.1
	c0,0.2-0.1,0.5-0.1,0.7l0.3,0c0.1,0,0.1-0.3,0.1-0.4c0.5,0.1,1,0.2,1.5,0.2c0,0.2-0.1,0.5-0.1,0.7l-1-0.2c-0.1,0.2-0.2,0.5-0.2,0.7
	l1,0.2c0.1,0,0.1-0.3,0.1-0.4l0.4,0.1c0-0.1,0-0.2,0.1-0.4l0.7,0.1c0,0.2-0.1,0.4-0.1,0.7c0,0.1,0.3,0.1,0.4,0.1
	c0,0.1,0,0.2-0.1,0.4l1.1,0.2c-0.1,0.3,0,0.4,0.3,0.4c-0.1,0.3,0,0.4,0.3,0.4c0,0.1,0,0.2-0.1,0.4l1.5,0.2c0,0.1,0,0.2-0.1,0.4
	c0.1,0,0.2,0,0.4,0.1c-0.1,0.3,0,0.4,0.3,0.4c0,0.1,0,0.2-0.1,0.4c0.2,0,0.5,0.1,0.7,0.1c-0.1,0.5-0.2,1-0.2,1.5l-0.4-0.1
	c0,0.2-0.1,0.5-0.1,0.7l0.7,0.1c0.1,0,0.1-0.3,0.1-0.4l0.4,0.1c0-0.1,0-0.2,0.1-0.4c0.4,0.1,0.7,0.1,1.1,0.2
	c-0.1,0.5-0.1,0.9-0.2,1.4c0,0.1,0.3,0.1,0.4,0.1c0,0.2-0.1,0.5-0.1,0.7l-0.7-0.1c0.1-0.3,0-0.4-0.3-0.4c0-0.1,0-0.2,0.1-0.4l-0.3,0
	c-0.1,0.4-0.2,0.7-0.2,1.1c-0.1,0-0.2,0-0.4-0.1l0,0.3c0.8,0.2,1.7,0.4,2.6,0.5c0.1-0.5,0.1-0.9,0.2-1.4c0-0.1-0.3-0.1-0.4-0.1
	c0-0.2,0.1-0.5,0.1-0.7l0.7,0.1c0,0.1,0,0.2-0.1,0.4l1.1,0.2c-0.1,0.3,0,0.4,0.3,0.4c-0.1,0.4-0.1,0.7-0.2,1.1l1.5,0.2l-0.1,0.4
	l0.3,0c0.1-0.2,0.1-0.5,0.5-0.3l0-0.3c0-0.1-0.3-0.1-0.4-0.1l0.1-0.4l-1.5-0.2c0.1-0.4,0.1-0.7,0.2-1.1c0.2,0,0.5,0.1,0.7,0.1
	c0,0.1,0,0.2-0.1,0.4l0.7,0.1l-0.1,0.4c0.2,0,0.5,0.1,0.7,0.1l-0.1,0.7c0.6,0.2,1.2,0.3,1.8,0.3c0.1,0,0.1-0.3,0.1-0.4l1.1,0.2
	l-0.1,0.7c0.2,0.1,0.5,0.2,0.7,0.2c-0.1,0.5-0.2,1-0.2,1.5l-1.8-0.3c-0.1,0.2-0.2,0.5-0.2,0.7l0.7,0.1c0,0.1,0,0.2-0.1,0.4
	c0.1,0,0.2,0,0.4,0.1c0,0.2-0.1,0.5-0.1,0.7c0.2,0.1,0.4,0.2,0.7,0.2c0.1,0,0.1-0.3,0.1-0.4l0.7,0.1c0-0.1,0-0.2,0-0.3
	c0-0.1-0.3-0.1-0.4-0.1c0-0.2,0.1-0.5,0.1-0.7l0.7,0.1c0.1,0,0.1-0.3,0.1-0.4l0.7,0.1c0.1,0,0.1-0.3,0.1-0.4c0.1,0,0.2,0,0.4,0.1
	l0-0.3c-0.4-0.1-0.7-0.2-1.1-0.2c0.1-0.3,0-0.4-0.3-0.4c0-0.1,0-0.2,0.1-0.4l0.4,0.1c0-0.2,0.1-0.5,0.1-0.7l1.1,0.2
	c-0.1,0.3,0,0.4,0.3,0.4c-0.1,0.3-0.1,0.7-0.2,1c0.2,0.1,0.5,0.2,0.7,0.2c0.1-0.3,0.1-0.7,0.2-1c0-0.1-0.3-0.1-0.4-0.1
	c0-0.2,0.1-0.5,0.1-0.7l1.4,0.2c0.1,0,0.1-0.3,0.1-0.4l0.4,0.1c0-0.1,0-0.2,0.1-0.4l0.4,0.1l0.1-0.4l1.4,0.2c0.1,0,0.1-0.3,0.1-0.4
	l0.7,0.1c0,0.2-0.1,0.5-0.1,0.7l-0.4-0.1C161.9,179.9,161.9,180,161.8,180.1"/>
<path class="st1" d="M932.4,1203"/>
</svg>
