<?xml version="1.0" encoding="utf-8"?>
<!-- Generator: Adobe Illustrator 24.0.2, SVG Export Plug-In . SVG Version: 6.00 Build 0)  -->
<svg version="1.1" id="logo" xmlns="http://www.w3.org/2000/svg" xmlns:xlink="http://www.w3.org/1999/xlink" x="0px" y="0px"
	 viewBox="0 0 489.5 251.6" style="enable-background:new 0 0 489.5 251.6;" xml:space="preserve">
<style type="text/css">
	.st0{fill:#FFFFFF;}
	.st1{stroke:#231F20;stroke-width:3;stroke-miterlimit:10;}
</style>
<title>amdocswhite</title>
<g>
	<path class="st0" d="M371,181c0.8-3.8,1.6-7.4,2.3-11c1.4-7.8,1.6-15.7,0.9-23.6c-1-10.5-3.7-20.5-8.8-29.7
		c-10-17.9-25.1-29.1-45-33.6c-16.4-3.8-32.3-1.7-47.2,6.1c-15.1,8-26.3,19.7-32.2,36c-0.3,0.9-0.7,1.3-1.7,1.2
		c-3.9-0.1-7.8,0-12.1,0c1.3-3.3,2.3-6.5,3.7-9.5c9.9-21.3,26.2-35.6,48.2-43.4c11.9-4.2,24.1-5.2,36.6-3.7
		c14.1,1.7,26.9,6.7,38.2,15.2c13.8,10.3,23.2,23.8,28.6,40.2c4.9,15.1,5.6,30.5,3.2,46.1c-0.4,2.9-1.1,5.8-1.8,8.7
		c-0.1,0.4-0.6,1-0.9,1C378.9,181,374.9,181,371,181z"/>
	<path class="st0" d="M173.1,144.7c0,12.2,0,24.2,0,36.4c-4.5,0-8.8,0-13.3,0c0-12.1,0-24.2,0-36.4c-2.7,0-5.1,0-7.8,0
		c0-3.5,0-6.8,0-10.3c2.5,0,5,0,7.5,0c0.2-2.7,0.2-5.3,0.5-7.8c0.8-7.7,5.5-13.3,12.9-15c5.8-1.3,11.4-0.7,16.9,2.1
		c-1.4,3.2-2.7,6.2-4.1,9.2c-1.6-0.4-3-0.9-4.5-1.1c-4.4-0.7-7.5,1.7-8,6.1c-0.2,2.1,0,4.1,0,6.3c6.7,0,13.4,0,20.3,0
		c0-0.8-0.1-1.7,0-2.5c0.4-3.2,0.5-6.5,1.4-9.5c2.3-7.2,7.7-10.5,15-11.1c4.6-0.4,9.2,0.4,13.5,2.7c-1.4,3.1-2.7,6.2-4,9.1
		c-2-0.4-3.8-0.9-5.6-1.1c-3.6-0.3-6.2,1.7-6.7,5.3c-0.3,2.3-0.3,4.7-0.5,7.2c4.2,0,8.1,0,12.1,0c0,3.4,0,6.8,0,10.3
		c-4,0-7.9,0-12,0c0,12.3,0,24.3,0,36.4c-4.5,0-8.9,0-13.4,0c0-12.1,0-24.1,0-36.3C186.5,144.7,179.9,144.7,173.1,144.7z"/>
	<path class="st0" d="M330.9,141c5.5-6.9,12.8-9.5,20.2-7.4c5.8,1.7,9.7,6.3,10.2,12.3c0.1,1.6,0.2,3.2,0.2,4.8c0,9.5,0,19,0,28.4
		c0,0.6,0,1.2,0,1.9c-4.4,0-8.8,0-13.3,0c0-0.6-0.1-1.2-0.1-1.7c0-8.5,0-17.1,0-25.6c0-2.3-0.3-4.7-1.7-6.6c-2.9-4-8.8-3.7-11.8,0.5
		c-2.2,3.1-2.6,6.6-2.6,10.2c-0.1,7.1,0,14.2,0,21.4c0,0.6,0,1.2,0,1.9c-4.5,0-8.8,0-13.4,0c0-0.7,0-1.3,0-2c0-9.2,0-18.4-0.1-27.6
		c0-3.4-2.1-6.1-5-7c-2.9-0.9-6.1,0.2-8.1,3c-1,1.5-1.8,3.2-2.2,4.9c-0.5,1.8-0.5,3.8-0.5,5.7c-0.1,7,0,13.9,0,20.9
		c0,0.6,0,1.2,0,1.9c-4.5,0-8.8,0-13.3,0c0-15.4,0-30.9,0-46.5c4.2,0,8.4,0,12.7,0c0,2.1,0,4.2,0,6.8c3.6-5.6,8.3-8.4,14.5-8.2
		C322.8,133.1,327.7,135.5,330.9,141z"/>
	<path class="st0" d="M146.1,181c-3.8,0-7.4,0-11.1,0c-0.4,0-0.7,0-1.3-0.1c0-2.2,0-4.4,0-6.4c-2,1.7-3.7,3.7-5.8,5
		c-6.1,3.7-12.6,3.9-19,0.6c-7.6-4-9-16.6,0-22.2c4.1-2.5,8.6-3.7,13.3-4.6c2.4-0.5,4.8-0.8,7.1-1.3c2.4-0.5,3.6-1.7,3.7-3.4
		c0.2-2-1.2-4.1-3.3-4.8c-3.2-1.1-6.4-0.9-9.6-0.1c-4.1,1-7.7,3-11.1,5.9c-1.5-3.1-2.9-6.1-4.4-9.2c2.9-2.4,6.3-4,9.8-5.3
		c6-2.2,12.2-2.9,18.6-1.5c8.1,1.8,13,7.5,13.2,15.8c0.2,10.3,0.1,20.6,0.1,30.9C146.2,180.5,146.1,180.6,146.1,181z M132.4,159.7
		c-3.8,0.9-7.6,1.6-11.3,2.6c-1.3,0.3-2.5,1.2-3.5,2.1c-1.7,1.4-1.9,3.4-1.3,5.4c0.6,1.9,2.2,2.6,4.1,2.8
		C127.8,173.3,133,166,132.4,159.7z"/>
	<path class="st0" d="M284,134.1c-0.8,4.1-1.6,8.1-2.4,11.9c-1.9-0.4-3.7-1.1-5.4-1.2c-5.1-0.2-9.3,3-10.5,7.9
		c-0.5,2.2-0.7,4.4-0.8,6.7c-0.1,6.6,0,13.2,0,19.7c0,0.6,0,1.2,0,1.8c-4.5,0-8.8,0-13.3,0c0-15.5,0-31,0-46.5c4.1,0,8.1,0,12.3,0
		c0,2.3,0,4.7,0,7.1c2.1-3.5,4.6-6.4,8.5-7.6C276.3,132.6,280.1,132.7,284,134.1z"/>
	<path class="st0" d="M226.9,180.9c0-15.5,0-30.9,0-46.4c4.4,0,8.8,0,13.3,0c0,15.5,0,30.9,0,46.4
		C235.8,180.9,231.4,180.9,226.9,180.9z"/>
</g>
<path class="st1" d="M932.4,1203"/>
</svg>
