<?xml version="1.0" encoding="utf-8"?>
<!-- Generator: Adobe Illustrator 24.0.2, SVG Export Plug-In . SVG Version: 6.00 Build 0)  -->
<svg version="1.1" id="logo" xmlns="http://www.w3.org/2000/svg" xmlns:xlink="http://www.w3.org/1999/xlink" x="0px" y="0px"
	 viewBox="0 0 489.5 251.6" style="enable-background:new 0 0 489.5 251.6;" xml:space="preserve">
<style type="text/css">
	.st0{stroke:#231F20;stroke-width:3;stroke-miterlimit:10;}
	.st1{fill:#FFFFFF;}
</style>
<title>amdocswhite</title>
<path class="st0" d="M932.4,1203"/>
<g>
	<path class="st1" d="M208.5,89.8c0.2,0,0.4,0,0.5,0c5.5,0,11.1,0,16.6,0c2.4,0,4.7,0.2,7.1,0.8c2.2,0.6,4.2,1.5,5.7,3.2
		c1.3,1.5,2,3.2,2.5,5.1c0.5,2,0.8,4,1,6c0.3,3.8,0.3,7.7,0.3,11.5c0,7.6,0,15.1,0,22.7c0,2.7-0.1,5.5-0.5,8.2c-0.3,2.5-0.9,5-2,7.4
		c-1.6,3.3-4.3,5.2-7.7,6.2c-2.2,0.6-4.4,0.9-6.6,1c-5.5,0.1-11.1,0-16.6,0c-0.1,0-0.2,0-0.3,0C208.5,137.8,208.5,113.9,208.5,89.8z
		 M218.2,153.4c0.2,0,0.3,0,0.4,0c1.9,0,3.8,0,5.6,0c0.5,0,1.1-0.1,1.6-0.2c2.3-0.4,3.9-1.6,4.7-3.8c0.3-0.8,0.5-1.6,0.7-2.4
		c0.5-2.3,0.6-4.7,0.6-7c0-9.6,0-19.1,0-28.7c0-1.7-0.1-3.3-0.2-5c-0.1-1.4-0.3-2.7-0.8-4.1c-0.7-1.8-1.9-3-3.7-3.5
		c-0.7-0.2-1.5-0.4-2.2-0.4c-2.1-0.1-4.2-0.1-6.3-0.1c-0.1,0-0.2,0.1-0.3,0.1C218.2,116.6,218.2,135,218.2,153.4z"/>
	<path class="st1" d="M385.1,130.7c0,10.4,0,20.7,0,31.1c-3.2,0-6.4,0-9.6,0c0,0,0,0,0,0c0,0,0,0,0-0.1c0-23.8,0-47.5,0-71.3
		c0-0.2,0-0.4,0-0.6c0.2,0,0.4-0.1,0.6-0.1c5.9,0,11.8,0,17.7,0.1c2.1,0,4.2,0.3,6.3,0.9c3,0.9,4.8,2.8,5.6,5.7
		c0.5,1.7,0.7,3.5,0.8,5.3c0.2,3.7,0.2,7.3,0.1,11c-0.1,2-0.3,4-0.8,6c-0.8,2.9-2.6,5-5.2,6.3c-0.7,0.3-1.3,0.6-2,0.9
		c-0.2,0.1-0.4,0.2-0.8,0.3c0.7,0.1,1.3,0.2,1.8,0.4c1.9,0.4,3.6,1.2,4.8,2.7c1.1,1.2,1.6,2.7,1.9,4.3c0.2,1,0.3,2,0.3,3
		c0,5.9,0,11.8,0,17.7c0,2.3,0.1,4.7,0.5,7c0,0.2,0,0.3,0,0.5c-3.2,0-6.4,0-9.7,0c-0.6-1-0.7-2.1-0.7-3.2c0-1,0.1-1.9,0.1-2.9
		c0-5.7,0-11.4,0-17.1c0-1.1-0.1-2.3-0.3-3.4c-0.4-2.6-1.8-4-4.4-4.3c-1.1-0.1-2.2-0.2-3.4-0.2C387.6,130.6,386.4,130.7,385.1,130.7
		z M385.2,98.3c0,7.8,0,15.5,0,23.2c0.1,0,0.1,0.1,0.2,0.1c2.3,0,4.6,0.1,6.9-0.2c2.6-0.3,3.9-1.5,4.5-4.1c0.4-1.7,0.4-3.4,0.5-5.1
		c0.1-2.8,0.1-5.7-0.2-8.5c-0.1-0.9-0.3-1.8-0.5-2.6c-0.4-1.4-1.4-2.2-2.8-2.5c-0.5-0.1-1.1-0.2-1.6-0.2c-2.2,0-4.3-0.1-6.5-0.1
		C385.4,98.2,385.3,98.3,385.2,98.3z"/>
	<path class="st1" d="M354,129.4c0,8,0,15.9,0,23.8c5.8,0,11.6,0,17.4,0c0,2.9,0,5.7,0,8.5c-9.1,0-18.1,0-27.2,0c0-24,0-47.9,0-72
		c9.1,0,18.1,0,27.2,0c0,2.8,0,5.6,0,8.5c-5.8,0-11.6,0-17.4,0c0,7.6,0,15.1,0,22.6c5.4,0,10.7,0,16.1,0c0.2,0.6,0.2,7.7,0,8.5
		C364.7,129.4,359.4,129.4,354,129.4z"/>
	<path class="st1" d="M273.3,153.2c0,2.9,0,5.7,0,8.5c-0.5,0.2-25.4,0.2-27.1,0.1c-0.1-0.5-0.2-70.5-0.1-71.9
		c0.5-0.1,26.1-0.2,27.1-0.1c0.1,0.5,0.2,7.3,0,8.5c-1.9,0-3.9,0-5.8,0c-1.9,0-3.9,0-5.8,0c-1.9,0-3.9,0-5.9,0c0,7.6,0,15,0,22.6
		c1.8,0.1,3.6,0,5.3,0c1.8,0,3.6,0,5.4,0c1.8,0,3.6,0,5.3,0c0.2,0.6,0.2,7.7,0,8.4c-5.3,0-10.7,0-16.1,0c0,8,0,15.9,0,23.8
		C261.7,153.2,267.5,153.2,273.3,153.2z"/>
	<path class="st1" d="M287.1,120.9c5.4,0,10.7,0,16.1,0c0,2.8,0,5.6,0,8.4c-5.4,0-10.7,0-16.1,0c-0.2,0.6-0.2,23,0,23.9
		c2.9,0,5.8,0,8.7,0c2.9,0,5.8,0,8.7,0c0,2.9,0,5.7,0,8.5c-9.1,0-18.1,0-27.1,0c-0.1-0.5-0.2-70.9-0.1-71.9c0.5-0.1,26.3-0.2,27.2,0
		c0,2.8,0,5.6,0,8.5c-5.8,0-11.6,0-17.4,0C287.1,105.9,287.1,113.4,287.1,120.9z"/>
	<path class="st1" d="M308.5,98.2c0-2.9,0-5.6,0-8.4c10.6,0,21.1,0,31.8,0c0,0.2,0,0.4,0,0.6c0,2.4,0,4.8,0,7.3
		c0,0.4-0.1,0.7-0.2,1.1c-7.1,17.7-14.1,35.4-21.2,53.1c-0.2,0.5-0.4,0.9-0.6,1.5c7.4,0,14.7,0,21.9,0c0.2,0.6,0.2,7.6,0,8.4
		c-10.5,0-21.1,0-31.7,0c0-0.2-0.1-0.4-0.1-0.5c0-2.5,0-4.9,0-7.4c0-0.3,0.1-0.7,0.2-1c4.3-10.6,8.6-21.3,13-31.9
		c3-7.3,6-14.6,8.9-22c0.1-0.2,0.2-0.5,0.3-0.8C323.4,98.2,316,98.2,308.5,98.2z"/>
	<path class="st1" d="M154.5,145c0-2.2,0-4.3,0-6.4c0.5-0.2,20-0.2,21.5-0.1c0,2.2,0,4.3,0,6.5C168.8,145,161.7,145,154.5,145z"/>
	<path class="st1" d="M130.5,111.2c0-2.2,0-4.3,0-6.4c0.6-0.1,20.8-0.2,21.5,0c0,2.1,0,4.2,0,6.4
		C151.4,111.3,131.9,111.3,130.5,111.2z"/>
	<path class="st1" d="M130.5,145c0-2.2,0-4.3,0-6.5c7.2,0,14.3,0,21.4,0c0.1,0.5,0.2,5.5,0,6.5C144.8,145,137.7,145,130.5,145z"/>
	<path class="st1" d="M151.9,119.7c-7.1,0-14.2,0-21.4,0c0-2.2,0-4.3,0-6.5c7.1,0,14.3,0,21.4,0C152,113.7,152,118.9,151.9,119.7z"
		/>
	<path class="st1" d="M103.8,145c-7.1,0-14.2,0-21.4,0c0-2.2,0-4.3,0-6.5c0.5-0.1,20.1-0.2,21.4-0.1
		C103.8,140.6,103.8,142.8,103.8,145z"/>
	<path class="st1" d="M103.8,128.1c-7.1,0-14.2,0-21.3,0c-0.1-0.5-0.2-5.5,0-6.5c7.1,0,14.2,0,21.4,0
		C103.8,123.8,103.8,125.9,103.8,128.1z"/>
	<path class="st1" d="M130.5,128.1c0-2.2,0-4.3,0-6.4c0.6-0.1,20.8-0.2,21.5,0c0,2.1,0,4.2,0,6.4
		C151.4,128.2,131.9,128.2,130.5,128.1z"/>
	<path class="st1" d="M154.5,128.1c0-2.2,0-4.3,0-6.4c0.5-0.1,20.3-0.2,21.4-0.1c0.1,0.5,0.2,5.7,0,6.5
		C168.8,128.1,161.7,128.1,154.5,128.1z"/>
	<path class="st1" d="M103.8,130c0,2.2,0,4.3,0,6.5c-7.1,0-14.2,0-21.4,0c-0.2-0.5-0.2-5.6,0-6.5C89.6,130,96.7,130,103.8,130z"/>
	<path class="st1" d="M103.8,146.9c0,2.2,0,4.3,0,6.5c-7.1,0-14.2,0-21.4,0c-0.2-0.5-0.2-5.6,0-6.5
		C89.6,146.9,96.7,146.9,103.8,146.9z"/>
	<path class="st1" d="M130.5,153.5c0-2.2,0-4.3,0-6.5c7.2,0,14.3,0,21.4,0c0.1,0.5,0.2,5.5,0.1,6.5
		C144.8,153.5,137.7,153.5,130.5,153.5z"/>
	<path class="st1" d="M152,136.6c-7.2,0-14.3,0-21.5,0c0-2.2,0-4.3,0-6.5c7.2,0,14.3,0,21.5,0C152,132.2,152,134.3,152,136.6z"/>
	<path class="st1" d="M176,130.1c0,2.1,0,4.3,0,6.5c-7.2,0-14.3,0-21.4,0c0-2.2,0-4.3,0-6.5C155.1,129.9,175.2,129.9,176,130.1z"/>
	<path class="st1" d="M154.5,153.4c0-2.2,0-4.3,0-6.4c0.5-0.1,20.6-0.2,21.5,0c0,2.1,0,4.3,0,6.5
		C168.8,153.4,161.7,153.4,154.5,153.4z"/>
	<path class="st1" d="M127.8,145c-7.1,0-14.2,0-21.3,0c-0.2-0.5-0.2-5.5-0.1-6.5c7.1,0,14.2,0,21.3,0
		C127.8,140.6,127.8,142.8,127.8,145z"/>
	<path class="st1" d="M178.6,111.2c0-2.2,0-4.3,0-6.5c7.1,0,14.2,0,21.4,0c0,2.2,0,4.3,0,6.5C192.8,111.2,185.7,111.2,178.6,111.2z"
		/>
	<path class="st1" d="M200,96.3c0,2.2,0,4.3,0,6.5c-7.1,0-14.2,0-21.3,0c-0.1-0.5-0.2-5.5,0-6.5C185.7,96.3,192.8,96.3,200,96.3z"/>
	<path class="st1" d="M200,138.5c0,2.2,0,4.3,0,6.5c-7.1,0-14.2,0-21.4,0c0-2.2,0-4.3,0-6.5C185.7,138.5,192.8,138.5,200,138.5z"/>
	<path class="st1" d="M178.6,136.5c0-2.2,0-4.3,0-6.4c0.5-0.2,20.4-0.2,21.4,0c0,2.1,0,4.3,0,6.4
		C199.5,136.6,179.7,136.7,178.6,136.5z"/>
	<path class="st1" d="M200,121.6c0,2.2,0,4.3,0,6.5c-7.1,0-14.2,0-21.4,0c0-2.2,0-4.3,0-6.5C185.7,121.6,192.8,121.6,200,121.6z"/>
	<path class="st1" d="M178.6,119.7c0-2.2,0-4.3,0-6.5c7.1,0,14.2,0,21.4,0c0,2.1,0,4.3,0,6.5C192.9,119.7,185.8,119.7,178.6,119.7z"
		/>
	<path class="st1" d="M200,153.5c-7.1,0-14.2,0-21.3,0c-0.2-0.5-0.2-5.6-0.1-6.5c7.1,0,14.2,0,21.3,0C200,149.1,200,151.2,200,153.5
		z"/>
	<path class="st1" d="M103.8,161.8c-7.2,0-14.3,0-21.4,0c0-2.1,0-4.3,0-6.4c0.5-0.1,20.3-0.2,21.4-0.1
		C103.8,157.5,103.8,159.6,103.8,161.8z"/>
	<path class="st1" d="M130.5,155.4c7.2,0,14.3,0,21.4,0c0.2,0.5,0.2,5.5,0,6.5c-7.1,0-14.2,0-21.4,0
		C130.5,159.7,130.5,157.6,130.5,155.4z"/>
	<path class="st1" d="M176,155.4c0,2.2,0,4.3,0,6.4c-7.2,0-14.3,0-21.5,0c0-2.1,0-4.3,0-6.4C161.7,155.4,168.8,155.4,176,155.4z"/>
	<path class="st1" d="M106.4,153.4c0-2.2,0-4.3,0-6.4c0.5-0.2,20.4-0.2,21.4,0c0,2.1,0,4.2,0,6.4
		C120.7,153.4,113.6,153.4,106.4,153.4z"/>
	<path class="st1" d="M127.8,155.4c0,2.2,0,4.3,0,6.4c-0.5,0.1-20.4,0.2-21.4,0c0-2.1,0-4.2,0-6.4
		C113.6,155.4,120.7,155.4,127.8,155.4z"/>
	<path class="st1" d="M200,155.4c0,2.1,0,4.3,0,6.4c-0.5,0.1-20.3,0.2-21.4,0.1c0-2.1,0-4.2,0-6.4
		C185.7,155.4,192.8,155.4,200,155.4z"/>
</g>
</svg>
