<?xml version="1.0" encoding="utf-8"?>
<!-- Generator: Adobe Illustrator 24.0.2, SVG Export Plug-In . SVG Version: 6.00 Build 0)  -->
<svg version="1.1" id="logo" xmlns="http://www.w3.org/2000/svg" xmlns:xlink="http://www.w3.org/1999/xlink" x="0px" y="0px"
	 viewBox="0 0 489.5 251.6" style="enable-background:new 0 0 489.5 251.6;" xml:space="preserve">
<style type="text/css">
	.st0{stroke:#231F20;stroke-width:3;stroke-miterlimit:10;}
	.st1{fill:#FFFFFF;}
</style>
<title>amdocswhite</title>
<path class="st0" d="M932.4,1203"/>
<g>
	<path class="st1" d="M123.1,153.6c-0.8-1.5-1.3-3.3-1.5-5.5h38c0-21.2-9.9-31.8-29.6-31.8c-8.1,0-14.7,2.6-19.8,7.9
		c-5.1,5.3-7.7,11.8-7.7,19.6c0,3.6,0.5,6.9,1.5,9.8H123.1z M131.8,129c2.5,0,4.6,0.8,6.3,2.5c1.6,1.7,2.5,3.7,2.5,6.2h-19
		C122.5,131.9,125.9,129,131.8,129z"/>
	<path class="st1" d="M253.3,153.6c-0.8-1.5-1.3-3.3-1.5-5.5h38c0-21.2-9.9-31.8-29.6-31.8c-8.1,0-14.7,2.6-19.8,7.9
		c-5.1,5.3-7.7,11.8-7.7,19.6c0,3.6,0.5,6.9,1.5,9.8H253.3z M262,129c2.5,0,4.6,0.8,6.3,2.5c1.6,1.7,2.5,3.7,2.5,6.2h-19
		C252.7,131.9,256.1,129,262,129z"/>
	<path class="st1" d="M167.2,153.6h19.9v-23.8h7h3.1h5.1v23.8h19.9v-23.8h10v-12.2h-10.4c-0.1-2.4,0.2-4,1.2-4.9
		c0.9-0.9,2.6-1.3,5-1.3c-0.5,0,1.1,0.2,4.8,0.7V98.4c-0.7,0-2.1-0.1-4.4-0.2c-1.9-0.1-3.4-0.2-4.5-0.2c-4.1,0-7.2,0.2-9.2,0.7
		c-3.3,0.7-6,2.1-8.1,4.2c-3,3-4.4,7.9-4.1,14.7h-5.1h-3.1h-7.4c-0.1-2.4,0.2-4,1.2-4.9c0.9-0.9,2.6-1.3,5-1.3
		c-0.5,0,1.1,0.2,4.8,0.7V98.4c-0.7,0-2.1-0.1-4.4-0.2c-1.9-0.1-3.4-0.2-4.5-0.2c-4.1,0-7.2,0.2-9.2,0.7c-3.3,0.7-6,2.1-8.1,4.2
		c-3,3-4.4,7.9-4.1,14.7h-8.1v12.2h8.1v23.8H167.2z"/>
	<g>
		<path class="st1" d="M315.2,153.6c-1.6-2.1-2.4-5.4-2.4-9.9c0-8.6,2.9-12.9,8.7-12.9c4.4,0,6.8,2.2,7.2,6.6h18.9
			c-0.6-6.9-3.4-12.2-8.5-16c-4.8-3.4-10.7-5.1-18-5.1c-8,0-14.7,2.5-20.1,7.6c-5.4,5.1-8.1,11.7-8.1,19.8c0,3.6,0.6,6.9,1.7,9.9
			L315.2,153.6L315.2,153.6z"/>
	</g>
	<path class="st1" d="M356.4,153.6h21.5c-0.1-0.1-0.3-0.2-0.4-0.4c-0.8-0.9-1.2-2.7-1.2-5.2v-18.2h10.6v-12.2h-10.6v-15.9h-19.9
		v15.9h-8.8v12.2h8.8V153.6z"/>
</g>
</svg>
