<?xml version="1.0" encoding="utf-8"?>
<!-- Generator: Adobe Illustrator 24.0.2, SVG Export Plug-In . SVG Version: 6.00 Build 0)  -->
<svg version="1.1" id="logo" xmlns="http://www.w3.org/2000/svg" xmlns:xlink="http://www.w3.org/1999/xlink" x="0px" y="0px"
	 viewBox="0 0 489.5 251.6" style="enable-background:new 0 0 489.5 251.6;" xml:space="preserve">
<style type="text/css">
	.st0{fill:#FFFFFF;}
	.st1{stroke:#231F20;stroke-width:3;stroke-miterlimit:10;}
</style>
<title>amdocswhite</title>
<g>
	<g>
		<g>
			<path class="st0" d="M138,194.3c0,2.7-0.7,4.9-2.2,6.7c-1.5,1.7-3.3,2.6-5.6,2.6s-4.1-0.9-5.6-2.6c-1.5-1.7-2.2-4-2.2-6.7v-37
				c0-2.7,0.7-4.9,2.2-6.7c1.5-1.7,3.3-2.6,5.6-2.6s4.1,0.9,5.6,2.6c1.5,1.7,2.2,4,2.2,6.7v11.1h-6.2v-11.6c0-1.3-0.6-2-1.7-2
				c-1.1,0-1.7,0.7-1.7,2v37.9c0,1.3,0.6,2,1.7,2c1.1,0,1.7-0.7,1.7-2v-11.6h6.2V194.3z"/>
			<path class="st0" d="M157.3,202.9h-13.1v-54.2h6.4v47.7h6.8V202.9z"/>
			<path class="st0" d="M175.9,202.9h-13.1v-54.2h13.1v6.5H169v16.5h4.6v6.5H169v18.2h6.8V202.9z"/>
			<path class="st0" d="M197.5,202.9H191l-0.4-9.8h-3.7l-0.6,9.8h-5.6l4.4-54.2h8L197.5,202.9z M190.2,186.2l-1.2-21.6l-1.6,21.6
				H190.2z"/>
			<path class="st0" d="M220,202.9h-5.3l-6.5-29.6v29.6h-5.3v-54.2h6.4l5.4,30.1v-30.1h5.2V202.9z"/>
			<path class="st0" d="M262.9,202.9h-6.3V165l-4.7,37.9h-4.4l-4.3-38v38h-5.6v-54.2h9.3l3.5,30.6l4.5-30.6h8.1V202.9z"/>
			<path class="st0" d="M285.1,202.9h-6.5l-0.4-9.8h-3.7l-0.6,9.8h-5.6l4.4-54.2h8L285.1,202.9z M277.8,186.2l-1.2-21.6l-1.6,21.6
				H277.8z"/>
			<path class="st0" d="M306.1,193.2c0,3.8-1,6.6-2.9,8.4c-1.4,1.4-3.2,2-5.4,2c-2.5,0-4.5-0.9-6-2.8c-1.5-1.9-2.2-4.3-2.2-7.1v-6.6
				h5.8v7.5c0,0.7,0.2,1.4,0.6,2c0.4,0.6,1,0.9,1.6,0.9c1.4,0,2-0.9,2-2.8c0-4.6-1.3-10-4-16.1c-3.9-9-5.9-15.6-5.9-19.6
				c0-3.3,0.7-5.9,2-7.7c1.5-2,3.6-3,6.4-3c2.2,0,4,1,5.5,2.9c1.5,1.9,2.2,4.3,2.2,7v7.2H300V157c0-1.6-0.6-2.4-1.9-2.4
				c-1.3,0-2,0.8-2,2.4c0,3.3,0.3,6,0.9,8.3c0.4,1.2,1.4,4,3.3,8.3C304.2,182.6,306.1,189.1,306.1,193.2z"/>
			<path class="st0" d="M326.3,155.9h-4.2v47.1h-6.3v-47.1h-4.5v-7.1h15V155.9z"/>
			<path class="st0" d="M345,202.9h-13.1v-54.2H345v6.5h-6.8v16.5h4.6v6.5h-4.6v18.2h6.8V202.9z"/>
			<path class="st0" d="M367,202.9h-6.3c-0.5-2.7-0.8-5.5-0.8-8.4v-12.7c0-1.4-0.5-2.2-1.4-2.2H357v23.3h-6.4v-54.2h8.2
				c4.8,0,7.2,2.8,7.2,8.5v13.8c0,2.1-1,4-2.9,5.6c2,1.7,3,3.6,3,5.6v11.5C366.2,196.1,366.4,199.1,367,202.9z M359.8,171.3v-13.9
				c0-1.4-0.4-2.2-1.2-2.2H357v18.2h1.6C359.4,173.5,359.8,172.8,359.8,171.3z"/>
		</g>
	</g>
	<g>
		<path class="st0" d="M283.5,119.9c-2,1.4-2,1.4-3.5-0.7c-0.7-1-1.5-2.1-2.5-3c0.2,1,0.4,2,0.6,3c0.4,1.7,0,2-1.5,2.8
			c-4.8,2.5-10.1,1-14.9,1.8c-2.4-3.7-2.5-7.8-3.2-11.8c-0.2,0-0.3,0-0.5,0c0,3.7,0,7.5,0,11.4c-0.6,0-1.1,0.1-1.6,0.1
			c-13.1,0-26.3,0-39.4,0c-1.1,0-1.4-0.3-1.5-1.3c-0.2-1.6-0.7-3.2-1.3-4.9c-0.4,2.1-0.8,4.1-1.2,6.2c-0.6,0-1.2,0-1.9,0
			c0.4-3.7,0.8-7.3,1.3-10.9c0.8-5.2,1.8-10.3,3.9-15.1c1.8-4.3,4.4-8.3,7.3-12c1.6-2,3.7-3,6.3-3c14.6,0,29.1,0,43.7,0
			c2.5,0,3.9,1.9,3.3,4.4c-0.4,1.5-1,3.1-1.1,4.6c-0.2,2.9-0.5,5.8-0.2,8.7c0.4,4.8,1.5,9.5,4,13.7
			C280.7,116,282.1,117.9,283.5,119.9z"/>
		<path class="st0" d="M278.2,85.7c-0.1-0.7-0.1-0.9-0.1-1.1c-0.3-2.1-1.4-3.1-3.5-3.1c-14.5,0-29,0-43.6,0c-1.2,0-2.5,0-3.9,0
			c2.7-3.5,5.2-6.9,7.9-10.1c0.7-0.8,2.3-1.2,3.5-1.2c3.1-0.2,6.2,0,9.3-0.1c1.1,0,2.1-0.1,3.2-0.3c1.9-0.3,3.2-1.1,4-3
			c1.8-4.4,3.8-8.7,5.7-13.1c0.8-1.8,1.7-3.3,3.4-4.4c3-2,5.4-1.4,7.7,0.3c1.9,1.5,2.2,4.9,0.8,7.4c-1.7,3-3.6,6-5.4,9
			c-0.7,1.2-1.4,2.4-2.3,3.8c1,0.1,1.7,0.3,2.4,0.3c3.7,0,7.5,0,11.2,0c2.5,0,4.3,1.3,4.7,3.5c0.1,0.4,0,0.9-0.1,1.3
			c-1.2,3.1-2.5,6.1-3.8,9.2C279.1,84.6,278.7,85,278.2,85.7z"/>
	</g>
</g>
<path class="st1" d="M932.4,1203"/>
</svg>
