<?xml version="1.0" encoding="utf-8"?>
<!-- Generator: Adobe Illustrator 24.0.2, SVG Export Plug-In . SVG Version: 6.00 Build 0)  -->
<svg version="1.1" id="logo" xmlns="http://www.w3.org/2000/svg" xmlns:xlink="http://www.w3.org/1999/xlink" x="0px" y="0px"
	 viewBox="0 0 489.5 251.6" style="enable-background:new 0 0 489.5 251.6;" xml:space="preserve">
<style type="text/css">
	.st0{fill:#FFFFFF;}
	.st1{stroke:#231F20;stroke-width:3;stroke-miterlimit:10;}
</style>
<title>amdocswhite</title>
<g>
	<path class="st0" d="M154.1,99.8v10.4h-8v41.7h-13.6v-41.7h-8V99.8H154.1z"/>
	<path class="st0" d="M157.2,99.8h9.6c6.4,0,10.7,0.2,13,0.7c2.3,0.5,4.1,1.8,5.5,3.8c1.4,2,2.1,5.3,2.1,9.7c0,4.1-0.5,6.8-1.5,8.2
		c-1,1.4-3,2.2-6,2.5c2.7,0.7,4.5,1.6,5.4,2.7c0.9,1.1,1.5,2.1,1.7,3.1c0.2,0.9,0.3,3.5,0.3,7.7v13.7h-12.6v-17.3
		c0-2.8-0.2-4.5-0.7-5.2c-0.4-0.7-1.6-1-3.5-1v23.5h-13.6V99.8z M170.8,108.7v11.6c1.5,0,2.6-0.2,3.2-0.6c0.6-0.4,0.9-1.8,0.9-4.1
		v-2.9c0-1.7-0.3-2.7-0.9-3.3C173.4,108.9,172.3,108.7,170.8,108.7z"/>
	<path class="st0" d="M216.2,99.8l7.8,52.1H210l-0.7-9.4h-4.8l-0.8,9.4h-14l6.9-52.1H216.2z M209,133.3c-0.7-5.9-1.4-13.2-2.1-21.9
		c-1.4,10-2.2,17.3-2.6,21.9H209z"/>
	<path class="st0" d="M256.5,99.8v52.1h-11.9l-7.1-23.7v23.7h-11.3V99.8h11.3l7.6,23.5V99.8H256.5z"/>
	<path class="st0" d="M284.6,99.8v10.4l-10.1,31.3h10.1v10.4h-25v-7.6l10.4-34.1h-9.2V99.8H284.6z"/>
	<path class="st0" d="M301.6,99.8v52.1h-13.6V99.8H301.6z"/>
	<path class="st0" d="M320.6,99.8v41.7h8.2v10.4h-21.8V99.8H320.6z"/>
	<path class="st0" d="M357.2,99.8l7.8,52.1h-13.9l-0.7-9.4h-4.8l-0.8,9.4h-14l6.9-52.1H357.2z M350,133.3
		c-0.7-5.9-1.4-13.2-2.1-21.9c-1.4,10-2.2,17.3-2.6,21.9H350z"/>
</g>
<path class="st1" d="M932.4,1203"/>
</svg>
