<?xml version="1.0" encoding="utf-8"?>
<!-- Generator: Adobe Illustrator 24.0.2, SVG Export Plug-In . SVG Version: 6.00 Build 0)  -->
<svg version="1.1" id="logo" xmlns="http://www.w3.org/2000/svg" xmlns:xlink="http://www.w3.org/1999/xlink" x="0px" y="0px"
	 viewBox="0 0 489.5 251.6" style="enable-background:new 0 0 489.5 251.6;" xml:space="preserve">
<style type="text/css">
	.st0{fill:#FFFFFF;}
	.st1{stroke:#231F20;stroke-width:3;stroke-miterlimit:10;}
</style>
<title>amdocswhite</title>
<g>
	<path class="st0" d="M124.8,162.9V88.7h22.8v74.1H124.8z"/>
	<path class="st0" d="M163.7,162.9v-41.2h-8.4V109h8.4c-0.3-7,1.1-12,4.3-15.2c2.2-2.2,5-3.7,8.4-4.4c2.1-0.5,5.3-0.7,9.6-0.7
		c1.2,0,2.7,0.1,4.7,0.2c2.4,0.1,3.9,0.2,4.6,0.2v14.1c-3.9-0.5-5.5-0.7-5-0.7c-2.5,0-4.2,0.5-5.1,1.4c-0.9,0.9-1.3,2.6-1.2,5.1
		h10.8v12.7h-10.4v41.2H163.7z"/>
	<path class="st0" d="M233.4,138h22.8c0,1.8,0.3,3.4,0.8,4.9c1.3,3.6,4.9,5.4,10.9,5.4c6.3,0,9.4-2.2,9.4-6.7c0-1.8-1.1-3.3-3.2-4.4
		c-1.7-0.8-5.9-2.2-12.8-4.2c-8.4-2.4-14-4.5-16.9-6.4c-5.5-3.5-8.2-8.5-8.2-15.1c0-8,3.1-14.3,9.2-18.7c5.4-3.9,12.3-5.8,20.7-5.8
		c8.9,0,16,1.8,21.3,5.3c6.2,4.2,9.4,10.5,9.7,18.9h-21.6c0.3-2.5-0.6-4.5-2.7-5.9c-1.9-1.2-4.1-1.9-6.8-1.9c-5.6,0-8.3,1.7-8.2,5
		c0.1,2.3,2.4,4.2,6.9,5.6c4.9,1.2,9.8,2.5,14.6,3.7c6.4,1.8,11.1,4,14.3,6.6c4.4,3.7,6.5,8.6,6.5,14.7c0,8.9-3.6,15.5-10.9,20
		c-6.1,3.7-13.9,5.5-23.4,5.5c-7.3,0-13.7-1.5-19.4-4.5C237.9,155.6,233.5,148.2,233.4,138z"/>
	<path class="st0" d="M364.6,135.9c0,8-2.4,14.6-7.1,19.7c-5.3,5.7-12.8,8.6-22.3,8.6c-9.6,0-17-2.9-22.3-8.6
		c-4.7-5.1-7.1-11.7-7.1-19.7c0-8,2.4-14.6,7.1-19.7c5.3-5.7,12.7-8.5,22.3-8.5s17.1,2.8,22.3,8.5
		C362.3,121.3,364.6,127.9,364.6,135.9z M344.1,135.9c0-8.9-2.9-13.3-8.8-13.3s-8.8,4.4-8.8,13.3c0,8.9,2.9,13.4,8.8,13.4
		S344.1,144.8,344.1,135.9z"/>
	<polygon class="st0" points="230.4,127.8 204.2,108.9 204.2,146.7 	"/>
</g>
<path class="st1" d="M932.4,1203"/>
</svg>
