<?xml version="1.0" encoding="utf-8"?>
<!-- Generator: Adobe Illustrator 24.0.2, SVG Export Plug-In . SVG Version: 6.00 Build 0)  -->
<svg version="1.1" id="logo" xmlns="http://www.w3.org/2000/svg" xmlns:xlink="http://www.w3.org/1999/xlink" x="0px" y="0px"
	 viewBox="0 0 489.5 251.6" style="enable-background:new 0 0 489.5 251.6;" xml:space="preserve">
<style type="text/css">
	.st0{fill:#FFFFFF;}
	.st1{stroke:#231F20;stroke-width:3;stroke-miterlimit:10;}
</style>
<title>amdocswhite</title>
<g>
	<path class="st0" d="M115.7,138.7H93.1l-5.1,14.1h-7.3l20.6-53.9h6.2l20.6,53.9h-7.3L115.7,138.7z M95.3,132.9h18.3l-9.2-25.2
		L95.3,132.9z"/>
	<path class="st0" d="M160.8,131h-12.7v21.8H141V98.9h17.8c6.1,0,10.7,1.4,14,4.1c3.3,2.8,4.9,6.8,4.9,12.1c0,3.4-0.9,6.3-2.7,8.8
		c-1.8,2.5-4.3,4.4-7.6,5.6l12.7,22.9v0.4h-7.6L160.8,131z M148.1,125.2h10.9c3.5,0,6.3-0.9,8.4-2.7c2.1-1.8,3.1-4.3,3.1-7.3
		c0-3.3-1-5.9-3-7.7c-2-1.8-4.9-2.7-8.6-2.7h-10.9V125.2z"/>
	<path class="st0" d="M242.2,147h25.6v5.8h-32.7V98.9h7.1V147z"/>
	<path class="st0" d="M289.1,152.8H282V98.9h7.1V152.8z"/>
	<path class="st0" d="M349.2,152.8H342l-27.1-41.5v41.5h-7.1V98.9h7.1l27.2,41.7V98.9h7.1V152.8z"/>
	<path class="st0" d="M381.1,127.7l-6.6,6.9v18.2h-7.1V98.9h7.1v26.7l24-26.7h8.6l-21.2,23.8l22.9,30.1h-8.5L381.1,127.7z"/>
	<polygon class="st0" points="219.5,99 188,98.9 188,105.6 212.5,105.6 212.5,152.8 219.5,152.8 219.5,104.7 219.5,104.5 	"/>
</g>
<path class="st1" d="M932.4,1203"/>
</svg>
