<?xml version="1.0" encoding="utf-8"?>
<!-- Generator: Adobe Illustrator 24.0.2, SVG Export Plug-In . SVG Version: 6.00 Build 0)  -->
<svg version="1.1" id="logo" xmlns="http://www.w3.org/2000/svg" xmlns:xlink="http://www.w3.org/1999/xlink" x="0px" y="0px"
	 viewBox="0 0 489.5 251.6" style="enable-background:new 0 0 489.5 251.6;" xml:space="preserve">
<style type="text/css">
	.st0{fill:#FFFFFF;}
	.st1{stroke:#231F20;stroke-width:3;stroke-miterlimit:10;}
</style>
<title>amdocswhite</title>
<g>
	<path class="st0" d="M91.2,80.5c0.5-2.4,0.9-4.9,1.7-7.2c4.2-12.5,13.1-20.5,25.2-25.1c5.1-1.9,10.5-2.8,15.9-2.8
		c74.1,0,148.2-0.1,222.4,0.1c15.2,0,27.7,6.4,36.2,19.4c9.2,14,7.1,32.4-4.7,44.4c-8.8,8.9-19.6,13.3-32.1,13.3
		c-27.5,0.1-55.1,0-82.6,0c-0.6,0-1.2,0-1.9,0c0,16,0,31.8,0,47.6c-0.1,0-0.2,0.1-0.3,0.1c-0.3-0.3-0.6-0.6-0.9-1
		c-13-15.3-25.9-30.7-38.8-46c-0.6-0.7-1.2-0.7-2-0.7c-32,0-64,0.2-95.9-0.1c-15-0.1-27.3-6.2-36-18.7c-3.3-4.7-5.2-10-5.9-15.7
		c0-0.2-0.1-0.4-0.2-0.6C91.2,85.3,91.2,82.9,91.2,80.5z M200.7,74.8c-0.1,0.3-0.2,0.5-0.2,0.7c-2.1,5.1-2.2,10.2-0.7,15.4
		c1.8,6,6.6,9.3,12.9,9.3c6.2,0,10.9-3.5,12.7-9.4c1.3-4.4,1.3-8.8,0.1-13.1c-1.8-6.3-6.6-9.9-13.1-9.7c-4.3,0.1-8.5,0.5-12.8,0.9
		c-2.4,0.2-2.4,0.3-2.4,2.7c0,3.1,0,3.1,3,3.2C200.3,74.8,200.4,74.8,200.7,74.8z M171.8,81.4c-0.3-3.2-0.4-5.9-0.8-8.6
		c-0.4-2.2-1.8-3.9-4.1-4.5c-3.1-0.8-6.2-0.4-9.2,0.6c-0.8,0.3-1,0.7-0.7,1.5c0.4,1.3,0.7,2.5,1,3.8c0.2,1.2,0.7,1.4,1.8,1
		c2.2-0.7,3.1-0.1,3.1,2.2c0,2.8,0.1,5.6,0,8.5c0,1.5-0.2,3-0.6,4.4c-0.6,2.5-2.2,3.7-4.4,3.7c-2.3,0-3.9-1.2-4.5-3.7
		c-0.4-1.8-0.6-3.6-0.7-5.4c-0.2-3.3-0.1-6.7-0.4-10c-0.2-2-1-3.9-1.7-5.8c-0.4-1-1.1-1.4-2.3-1c-1.4,0.5-2.9,0.9-4.4,1.4
		c-0.9,0.3-1.2,0.7-0.9,1.7c0.4,1.5,0.8,3,0.9,4.5c0.2,3.2,0.1,6.3,0.2,9.5c0.2,4.4,1.2,8.6,4.6,11.7c7.3,6.7,19.3,3.2,22-6.5
		C171.5,87.4,171.5,84.2,171.8,81.4z M185.7,92.8c-0.6,0-1,0-1.4,0c-2.8,0-5.6,0-8.5,0c-0.9,0-1.3,0.3-1.3,1.2c0.1,1.4,0,2.7,0,4.1
		c0,0.8,0.2,1.2,1.1,1.1c4.7,0,9.5,0,14.2,0c0.4,0,1.2-0.3,1.3-0.6c1-2.7,3.1-5.1,2-8.3c-0.2-0.5-0.1-1.2-0.1-1.8
		c-0.1-3.7,0-7.3-0.3-11c-0.2-3.2-1-6.4-4.1-8.1c-4.1-2.2-8.4-1.8-12.7-0.5c-0.7,0.2-0.9,0.7-0.7,1.4c0.3,0.9,0.6,1.9,0.8,2.8
		c0.7,2.2,0.7,2.2,2.9,1.6c3.8-1,5.5,0.2,5.8,4.1c0,0.1,0,0.3,0,0.4C185,83.7,184.4,88.2,185.7,92.8z M233.7,73.9c0,0.5,0,1,0,1.5
		c0,2.9,0,5.8,0,8.7c0,1.2,0.4,1.7,1.7,1.6c1.7-0.1,3.3,0,5,0c2.9,0,2.8,0,2.7-2.8c0-0.8-0.3-1.1-1.1-1.1c-1.1,0-2.2,0-3.3,0
		c0-2.9,0-5.7,0-8.4c0.5-0.1,1-0.2,1.4-0.2c1.6-0.1,3.2-0.2,4.7-0.2c2.6,0,4.1,1,4.8,3.5c0.5,1.7,0.8,3.4,0.8,5.2
		c0.1,6.8,0.1,13.7,0.1,20.5c0,2.8,0.3,5.5,1.8,7.9c0.9,1.5,1.2,1.6,2.7,0.8c0.5-0.3,1-0.6,1.6-0.8c1-0.4,1.1-1,0.6-1.9
		c-1.2-1.8-1.4-3.9-1.4-6c0-5.8,0-11.6,0-17.4c0-3.3-0.4-6.5-1.8-9.5c-1.6-3.5-4.4-5.9-8.3-5.9c-4.6,0-9.1,0.4-13.7,0.7
		c-0.3,0-0.8,0.4-0.8,0.7C230.6,73,231.1,73.7,233.7,73.9z M139.5,87.3C139.5,87.3,139.5,87.3,139.5,87.3c-0.1-3.5,0-7-0.1-10.5
		c-0.1-4.5-2.6-7.3-7-8.4c-3.8-0.9-7.6-0.4-11.3,0.2c-1.8,0.3-3.6,0.8-5.3,1.3c-1.1,0.3-1.5,0.9-1,2.1c0.4,0.8,0.6,1.7,0.9,2.5
		c0.3,1.3,0.9,1.6,2.2,1.3c2.9-0.7,5.8-1.4,8.7-1.6c3.8-0.3,5.2,1.2,5.2,5c0,6.1,0,12.3,0,18.4c0,1.1,0.3,1.6,1.5,1.6
		c1.4-0.1,2.8,0,4.2,0c2.1,0,2.1,0,2.1-2.1C139.5,93.9,139.5,90.6,139.5,87.3z M277.1,94.8c-0.5,1.1-1,2.1-1.4,3.1
		c-0.6,1.3-0.5,1.5,1,1.9c0.3,0.1,0.6,0.1,0.9,0.1c3.4,0.3,5.5-1.6,7.1-4.3c0.4-0.6,0.6-1.2,0.9-1.9c0.5,1.6,0.9,3.1,1.5,4.5
		c0.8,1.9,1,2,2.8,0.9c0.4-0.2,0.7-0.5,1.1-0.6c1-0.5,1.1-1.1,0.5-2c-1.1-1.7-1.4-3.6-1.4-5.6c0-2.1,0-4.2,0-6.3
		c-0.1-2.9,0-5.8-0.3-8.7c-0.3-3.7-2.3-5.9-5.5-6.7c-2.2-0.5-4.4-0.5-6.6,0.2c-2.3,0.7-2.5,1.2-1.5,3.4c0.8,1.8,0.8,1.8,2.5,0.9
		c3.5-1.8,6.2-0.4,6.4,3.5c0.2,4.3,0.1,8.6,0.1,12.9c0,0.3-0.1,0.7-0.3,0.9c-0.9,1-1.8,2-2.7,2.9C280.8,95.4,279.2,96,277.1,94.8z
		 M305.8,95.2c-2.1,0-4.4,0-6.6,0c-3.2,0-2.7-0.6-2.8,2.9c0,0.9,0.3,1.2,1.2,1.2c3.8,0,7.5,0,11.3,0c0.4,0,1-0.1,1-0.3
		c0.5-1.3,1.1-2.6,1.1-3.9c0-2.4-0.5-4.7-0.6-7.1c-0.1-4.3,0-8.7-0.1-13.1c-0.1-3.5-1.8-5.4-5.3-5.7c-1.9-0.2-3.8,0-5.7,0.5
		c-2.9,0.7-3,1.2-1.8,3.9c0.4,0.9,0.9,1.1,1.8,0.7c0.7-0.3,1.4-0.6,2.2-0.8c2.9-0.8,4.1,0.1,4.1,3c0,3.8,0,7.7,0,11.5
		C305.5,90.4,305.6,92.7,305.8,95.2z M364.1,73.7c-0.3,1.8-0.8,3.4-0.8,5c-0.1,5.7-0.1,11.4-0.1,17.2c0,3.9-0.5,3.2,3.3,3.3
		c1.3,0,1.6-0.4,1.6-1.6c0-6.1-0.1-12.3,0-18.4c0-1.4,0.5-2.9,0.9-4.3c0.2-0.9,0.9-1.2,1.8-1.2c0.5,0,1.4-0.1,1.6-0.5
		c0.5-0.9,0.8-2,1.2-3.2c-0.8,0-1.3-0.1-1.8-0.1c-6.5,0-13,0-19.5,0c-2.7,0-2.4-0.4-2.5,2.5c0,1,0.3,1.4,1.4,1.4
		c3.9-0.1,7.8,0,11.7,0C363.3,73.7,363.8,73.7,364.1,73.7z M321.3,73.7c-0.4,2.3-0.9,4.4-1.1,6.6c-0.2,2.2,0,4.3,0,6.5
		c0,3,0,6.1,0,9.1c0,3.9-0.5,3.2,3.4,3.4c1.1,0,1.5-0.4,1.5-1.5c0-5.5,0-11,0-16.5c0-2.4,0.1-4.8,1.6-6.8c0.3-0.3,0.8-0.7,1.2-0.7
		c2-0.1,2-0.1,2-2.1c0-0.1,0-0.2,0-0.3c0.2-1.1-0.2-1.6-1.4-1.5c-4.1,0.1-8.3,0-12.4,0c-0.4,0-0.8,0.1-1.2,0.1c0,1.3,0,2.5,0,3.7
		C317.1,73.7,319.3,73.7,321.3,73.7z M264.4,73.7c0,0.7,0,1.2,0,1.7c0,6.8,0,13.6,0,20.3c0,4.1-0.6,3.4,3.5,3.5c1,0,1.4-0.3,1.4-1.3
		c0-8.9,0-17.8,0-26.7c0-1-0.4-1.3-1.4-1.3c-2.2,0-4.4,0-6.7,0c-2.8,0-2.5-0.4-2.5,2.7c0,0.9,0.3,1.2,1.2,1.2
		C261.4,73.7,262.8,73.7,264.4,73.7z M340.4,73.7c0,0.4,0.1,0.7,0.1,1c0,3.2,0,6.5,0,9.7c0,1,0.3,1.4,1.3,1c0.8-0.3,1.6-0.4,2.4-0.6
		c0.9-0.1,1.3-0.6,1.3-1.6c0-4,0-8,0-12c0-1-0.3-1.5-1.4-1.4c-2.2,0-4.4,0-6.7,0c-2.8,0-2.5-0.5-2.5,2.6c0,0.9,0.3,1.2,1.2,1.2
		C337.4,73.7,338.9,73.7,340.4,73.7z"/>
	<path class="st0" d="M293.1,192.7c0.3,6.8-5.1,13.4-13.6,13.5c-8,0.1-13.9-6-13.9-13.2c0-7.3,5.9-13.2,13-13.5
		C287.3,179.2,293.4,186.2,293.1,192.7z"/>
	<path class="st0" d="M218,84.2c-0.4,2.3-0.5,4.5-1.1,6.6c-0.6,2.2-2.2,3.3-4.3,3.3c-2.1,0-3.7-1.1-4.3-3.3c-1.2-4.4-1.2-8.9,0-13.4
		c0.6-2.3,2.2-3.3,4.3-3.3c2.1,0,3.7,1,4.3,3.3C217.4,79.7,217.6,82,218,84.2z"/>
</g>
<path class="st1" d="M932.4,1203"/>
</svg>
