<?xml version="1.0" encoding="utf-8"?>
<!-- Generator: Adobe Illustrator 24.0.2, SVG Export Plug-In . SVG Version: 6.00 Build 0)  -->
<svg version="1.1" id="logo" xmlns="http://www.w3.org/2000/svg" xmlns:xlink="http://www.w3.org/1999/xlink" x="0px" y="0px"
	 viewBox="0 0 489.5 251.6" style="enable-background:new 0 0 489.5 251.6;" xml:space="preserve">
<style type="text/css">
	.st0{fill:#FFFFFF;}
	.st1{stroke:#231F20;stroke-width:3;stroke-miterlimit:10;}
</style>
<title>amdocswhite</title>
<g>
	<path class="st0" d="M157.4,94.5c0,2,0,3.9,0,5.7c0,0.2-0.3,0.5-0.4,0.7c-7.5,8.6-12.5,18.5-14.4,29.8c-1.6,9.5-0.7,18.7,4,27.2
		c3.5,6.5,8.8,11.3,15,15c7,4.2,14.6,6.7,22.6,8.4c13.9,3,28.1,3.6,42.3,2.8c6.7-0.3,13.4-0.9,20-1.7c10-1.2,19.9-3.4,29.6-6.1
		c12.3-3.4,24.4-7.6,35.8-13.4c2.2-1.1,4.3-2.3,6.6-3.5c0,0.3,0,0.6,0,0.9c0,5,0,10,0,14.9c0,0.7-0.2,1.1-0.8,1.4
		c-9.3,5-19.1,8.7-29.2,11.9c-11,3.4-22.3,6-33.7,7.9c-14.3,2.3-28.6,3.2-43,2.6c-12.1-0.5-24.1-2.1-35.7-5.8
		c-9.5-3-18.3-7.2-26-13.6c-8.9-7.5-14.4-16.9-16.3-28.5c-2.5-14.9,0.8-28.4,9.2-40.9c3.9-5.9,8.7-11,14-15.7
		C157,94.7,157.1,94.7,157.4,94.5z"/>
	<path class="st0" d="M322.8,150.7c0-0.5,0-0.8,0-1.1c0-3.3,0-6.6,0-9.8c0-0.9,0.3-1.4,1.1-1.9c7.6-4.8,13.6-11,17.5-19.1
		c7.2-15.2,3.5-31.9-9.3-42.8c-5.6-4.8-12-8-18.9-10.4c-7.3-2.5-14.9-4-22.6-4.8c-8.8-0.9-17.6-1-26.5-0.5
		c-8.9,0.6-17.8,1.7-26.5,3.5c-16.4,3.2-32.2,8.2-47.4,15.1c-2.8,1.3-5.5,2.6-8.4,4c0-1.4,0-2.7,0-4c0-0.2,0.4-0.5,0.7-0.7
		c6.4-3.9,13.1-7.3,20-10.3c12.8-5.5,26.1-9.6,39.7-12.2c13-2.5,26.1-3.8,39.4-3.5c10.5,0.2,20.8,1.4,31,4.1
		c8.9,2.4,17.4,5.8,25,11.2c7.9,5.7,13.9,12.9,16.8,22.3c3.8,12.6,2.5,24.8-3.8,36.3c-5.8,10.8-14.4,18.7-25.7,23.6
		C324.2,150.1,323.6,150.4,322.8,150.7z"/>
	<path class="st0" d="M296.6,131.6c-9.6,0-19.3,0-28.9,0c-0.3,3.9,1.8,8.6,6.8,9.8c4.9,1.1,9.5,0.3,13.2-3.4
		c0.1-0.1,0.3-0.3,0.5-0.5c2.3,2.2,4.7,4.5,7.1,6.7c-2.8,2.9-6,5.1-9.9,6.2c-5.2,1.4-10.4,1.5-15.5-0.1c-5.4-1.6-9.4-5-11.5-10.2
		c-3.2-8-3.4-16.1,0.1-24c3-6.7,8.4-10.4,15.7-11.3c5.2-0.7,10.1,0.2,14.4,3.4c2.1,1.6,3.7,3.5,4.9,5.8
		C296.6,119.7,297,125.7,296.6,131.6z M285.2,123.7c0-6.1-3.6-10-9.1-9.6c-5.8,0.4-8.5,4.8-8.3,9.6
		C273.5,123.7,279.3,123.7,285.2,123.7z"/>
	<path class="st0" d="M187.4,105.4c2.1,0,4.2,0,6.2,0c5.7,0,11.5,0,17.2,0c2.2,0,4.4,0.3,6.4,1.2c4.2,1.8,6.3,5.2,7,9.5
		c0.2,1,0.2,2.1,0.2,3.1c0,10.2,0,20.4,0,30.7c0,0.2,0,0.5,0,0.8c-3.8,0-7.6,0-11.5,0c0-0.3,0-0.7,0-1c0-10,0-20,0-30
		c0-0.2,0-0.5,0-0.7c0-2.5-1.2-4.1-3.7-4.2c-3.5-0.2-6.9,0-10.5,0c0,12,0,23.9,0,36c-3.9,0-7.6,0-11.4,0
		C187.4,135.6,187.4,120.5,187.4,105.4z"/>
	<path class="st0" d="M233.1,93.1c3.9,0,7.6,0,11.5,0c0,4.1,0,8.2,0,12.3c2.9,0,5.7,0,8.6,0c0,3.1,0,6.1,0,9.2c-2.8,0-5.6,0-8.5,0
		c0,0.4,0,0.7,0,1c0,7,0,13.9,0,20.9c0,0.3,0,0.6,0,0.9c0.2,2.5,1.4,3.6,3.9,3.7c1.3,0,2.7,0,4,0c0.4,0,0.7,0,0.7,0.5c0,3,0,6,0,8.9
		c-0.1,0.1-0.1,0.1-0.2,0.1c-3.6,0-7.2,0.4-10.8-0.5c-5-1.3-8.5-5.3-9-10.4c-0.1-1-0.2-2-0.2-3c0-14.1,0-28.2,0-42.3
		C233.1,94,233.1,93.6,233.1,93.1z"/>
	<path class="st0" d="M303.4,86.6c3.9,0,7.7,0,11.5,0c0,21.2,0,42.4,0,63.5c-5.5,0.3-10.6-4-11.3-9.6c-0.1-0.9-0.2-1.8-0.2-2.7
		c0-16.8,0-33.5,0-50.3C303.4,87.2,303.4,87,303.4,86.6z"/>
	<path class="st0" d="M177.1,151.1c-5.2,0.4-10.4-3.8-11.2-9c-0.2-1.1-0.3-2.3-0.3-3.5c0-10.7,0-21.4,0-32.1c0-0.3,0-0.6,0-1
		c3.9,0,7.7,0,11.5,0C177.1,120.6,177.1,135.9,177.1,151.1z"/>
	<path class="st0" d="M165.6,88.2c3.8,0,7.6,0,11.4,0c0,3.6,0,7.2,0,10.9c-3.8,0-7.6,0-11.4,0C165.6,95.4,165.6,91.8,165.6,88.2z"/>
	<path class="st0" d="M327.5,95.8c-2.6,0-4.7-2.1-4.7-4.7c0-2.6,2.1-4.7,4.7-4.7c2.6,0,4.7,2.1,4.7,4.7
		C332.3,93.7,330.1,95.8,327.5,95.8z M327.5,87.2c-2.1,0-3.9,1.7-3.9,3.9s1.7,3.9,3.9,3.9c2.1,0,3.9-1.7,3.9-3.9
		S329.6,87.2,327.5,87.2z"/>
	<g>
		<path class="st0" d="M325.5,93.2v-4.5h2.3c0.5,0,0.9,0.1,1.2,0.3c0.3,0.2,0.4,0.5,0.4,0.9c0,0.6-0.3,1-0.8,1.1v0
			c0.5,0.1,0.7,0.4,0.7,1c0,0.6,0.1,1,0.3,1.2h-0.9c-0.1-0.1-0.1-0.4-0.1-0.7c0-0.4-0.1-0.7-0.2-0.9c-0.1-0.2-0.4-0.3-0.8-0.3h-1.2
			v1.9H325.5z M326.4,89.3v1.4h1.4c0.5,0,0.8-0.2,0.8-0.7c0-0.5-0.3-0.7-0.8-0.7H326.4z"/>
	</g>
</g>
<path class="st1" d="M932.4,1203"/>
</svg>
