<?xml version="1.0" encoding="utf-8"?>
<!-- Generator: Adobe Illustrator 24.0.2, SVG Export Plug-In . SVG Version: 6.00 Build 0)  -->
<svg version="1.1" id="logo" xmlns="http://www.w3.org/2000/svg" xmlns:xlink="http://www.w3.org/1999/xlink" x="0px" y="0px"
	 viewBox="0 0 489.5 251.6" style="enable-background:new 0 0 489.5 251.6;" xml:space="preserve">
<style type="text/css">
	.st0{stroke:#231F20;stroke-width:3;stroke-miterlimit:10;}
	.st1{fill:#FFFFFF;}
</style>
<title>amdocswhite</title>
<path class="st0" d="M932.4,1203"/>
<g>
	<path class="st1" d="M177.8,153.1l-1.4,7.6h-36l1.4-7.6l27.7-20.7h-24l1.4-7.6h36l-1.4,7.6l-27.8,20.7H177.8z"/>
	<path class="st1" d="M178.4,146.9l1.4-7.6h25.1l-1.4,7.6H178.4z"/>
	<path class="st1" d="M248.3,124.8l-1.4,7.6h-26.2c-0.6,0-1.2,0.2-1.7,0.7c-0.5,0.4-0.8,0.9-0.9,1.5l-2.9,16.4
		c-0.1,0.6,0,1.1,0.4,1.5c0.3,0.4,0.8,0.7,1.4,0.7h26.2l-1.4,7.6h-31.6c-1.2,0-2.2-0.4-2.9-1.3c-0.7-0.9-1-1.9-0.7-3.1l4.9-27.3
		c0.2-1.2,0.8-2.2,1.8-3.1c1-0.9,2.1-1.3,3.3-1.3H248.3z"/>
	<path class="st1" d="M281.7,160.7h-7.6l1.6-8.7c0.1-0.6-0.1-1.1-0.4-1.5c-0.3-0.4-0.8-0.7-1.4-0.7h-16.3c-0.6,0-1.2,0.2-1.7,0.7
		c-0.5,0.4-0.8,0.9-0.9,1.5l-1.6,8.7h-7.6l5.7-31.6c0.2-1.2,0.8-2.2,1.8-3.1c1-0.9,2.1-1.3,3.3-1.3h27.3c1.2,0,2.2,0.4,2.9,1.3
		c0.7,0.9,0.9,1.9,0.7,3.1l-2.2,12.5c-0.2,1.2-0.8,2.2-1.8,3.1c-1,0.9-2.1,1.3-3.4,1.3c1.3,0,2.4,0.5,3.1,1.5
		c0.2,0.3,0.3,0.7,0.4,1.3c0.1,1,0.2,1.5,0.2,1.5L281.7,160.7z M277.8,140l1-5.5c0.1-0.6,0-1.1-0.4-1.5c-0.3-0.4-0.8-0.7-1.4-0.7
		h-16.3c-0.6,0-1.2,0.2-1.7,0.7c-0.5,0.4-0.8,0.9-0.9,1.5l-1,5.5c-0.1,0.6,0,1.1,0.4,1.5c0.3,0.4,0.8,0.7,1.4,0.7h16.3
		c0.6,0,1.1-0.2,1.6-0.7C277.4,141.1,277.7,140.6,277.8,140z"/>
	<path class="st1" d="M320.6,138.9l-1.4,7.6h-22.9l-0.8,4.4c-0.1,0.6,0,1.1,0.4,1.5c0.3,0.4,0.8,0.7,1.4,0.7h26.2l-1.4,7.6h-31.6
		c-1.2,0-2.2-0.4-2.9-1.3c-0.7-0.9-1-1.9-0.7-3.1l4.9-27.3c0.2-1.2,0.8-2.2,1.8-3.1c1-0.9,2.1-1.3,3.3-1.3h31.6l-1.4,7.6h-26.2
		c-0.6,0-1.2,0.2-1.7,0.7c-0.5,0.4-0.8,0.9-0.9,1.5l-0.8,4.4H320.6z"/>
	<path class="st1" d="M332.3,124.8h31.6c1.2,0,2.2,0.4,2.9,1.3c0.7,0.9,0.9,1.9,0.7,3.1l-4.9,27.3c-0.2,1.2-0.8,2.2-1.8,3.1
		c-1,0.9-2.1,1.3-3.3,1.3h-31.6L332.3,124.8z M334.9,153.1h18.5c0.6,0,1.2-0.2,1.7-0.7c0.5-0.4,0.8-0.9,0.9-1.5l2.9-16.4
		c0.1-0.6,0-1.1-0.4-1.5c-0.3-0.4-0.8-0.7-1.4-0.7h-18.5L334.9,153.1z"/>
	<path class="st1" d="M372.8,124.8h7.6l-6.4,36h-7.6L372.8,124.8z"/>
	<path class="st1" d="M400.2,160.7h-7.6l4.7-26.2c0.1-0.6,0-1.1-0.4-1.5c-0.3-0.4-0.8-0.7-1.4-0.7h-12l1.4-7.6h36l-1.4,7.6h-12
		c-0.6,0-1.2,0.2-1.7,0.7c-0.5,0.4-0.8,0.9-0.9,1.5L400.2,160.7z"/>
	<g>
		<path class="st1" d="M148.9,176.7h-2.5v-4.9c0-0.4-0.1-0.6-0.2-0.8c-0.1-0.2-0.3-0.2-0.7-0.2h-1.6v3.5c0,0.3,0,0.5,0,0.7
			c0,0.2-0.1,0.4-0.1,0.6c-0.1,0.2-0.1,0.3-0.2,0.4c-0.1,0.1-0.2,0.2-0.3,0.3c-0.2,0.2-0.5,0.4-0.8,0.5c-0.3,0.1-0.7,0.1-1.1,0.1
			c-0.2,0-0.4,0-0.6-0.1c-0.2-0.1-0.4-0.2-0.5-0.3v-1.7c0.2,0.1,0.4,0.2,0.6,0.2c0.2,0,0.4-0.1,0.5-0.2c0.1-0.1,0.2-0.3,0.2-0.6
			v-5.6h1h1.4h2.5c0.9,0,1.5,0.2,1.9,0.7c0.4,0.4,0.6,1.1,0.6,2.1V176.7z"/>
		<path class="st1" d="M155.9,176.7h-2.5v-8h2.5V176.7z"/>
		<path class="st1" d="M168.2,176.7h-2.6L163,173l-0.8,3.7H160v-0.2l1.4-5.4l-1.5-2.2v-0.2h2.7l2.2,3.2h0l0.7-3.2h2.3v0.3l-1.5,4.8
			l1.9,2.8V176.7z"/>
		<path class="st1" d="M179.8,176.7h-2.5v-5c0-0.4-0.1-0.6-0.2-0.8c-0.1-0.2-0.3-0.2-0.7-0.2h-1.7v6h-2.5v-6v-2h5.1
			c0.9,0,1.5,0.2,1.9,0.7c0.4,0.5,0.6,1.2,0.6,2.1V176.7z"/>
		<path class="st1" d="M192.3,176.7h-4.4v-2h2v-2.8c0-0.3,0-0.5-0.1-0.7c-0.1-0.2-0.2-0.3-0.3-0.4c-0.1-0.1-0.2-0.2-0.4-0.2
			c-0.2,0-0.3-0.1-0.5-0.1c-0.1,0-0.2,0-0.4,0.1c-0.1,0-0.3,0.1-0.4,0.2c-0.1,0.1-0.3,0.2-0.4,0.3c-0.1,0.1-0.2,0.2-0.3,0.3
			l-0.5,5.4h-2.4l0.4-3.8c0-0.3,0.1-0.6,0.1-0.9c0-0.3,0-0.5,0-0.8c0-0.2-0.1-0.5-0.1-0.7c-0.1-0.2-0.2-0.4-0.3-0.7l-0.3-0.8v-0.3
			h2.1l0.4,0.6c0.4-0.2,0.9-0.4,1.3-0.6c0.4-0.1,0.9-0.2,1.4-0.2c1.1,0,1.9,0.2,2.4,0.7c0.5,0.5,0.7,1.3,0.7,2.4V176.7z"/>
		<path class="st1" d="M204.2,176.7h-2.5v-4.9c0-0.4-0.1-0.6-0.2-0.8c-0.1-0.2-0.4-0.3-0.7-0.3h-4.1v-2h4.9c0.9,0,1.5,0.2,2,0.6
			c0.4,0.4,0.6,1.1,0.6,2.1V176.7z M199.3,176.7h-2.5V172h2.5V176.7z"/>
		<path class="st1" d="M223.2,176.7h-2.5v-4.9c0-0.4-0.1-0.6-0.2-0.8c-0.1-0.2-0.3-0.2-0.7-0.2h-1.6v3.5c0,0.3,0,0.5,0,0.7
			c0,0.2-0.1,0.4-0.1,0.6c-0.1,0.2-0.1,0.3-0.2,0.4c-0.1,0.1-0.2,0.2-0.3,0.3c-0.2,0.2-0.5,0.4-0.8,0.5c-0.3,0.1-0.7,0.1-1.1,0.1
			c-0.2,0-0.4,0-0.6-0.1c-0.2-0.1-0.4-0.2-0.5-0.3v-1.7c0.2,0.1,0.4,0.2,0.6,0.2c0.2,0,0.4-0.1,0.5-0.2c0.1-0.1,0.2-0.3,0.2-0.6
			v-5.6h1h1.4h2.5c0.9,0,1.5,0.2,1.9,0.7c0.4,0.4,0.6,1.1,0.6,2.1V176.7z"/>
		<path class="st1" d="M235.3,176.7h-2.5v-5c0-0.4-0.1-0.6-0.2-0.8c-0.1-0.2-0.3-0.2-0.7-0.2h-1.7v6h-2.5v-6v-2h5.1
			c0.9,0,1.5,0.2,1.9,0.7c0.4,0.5,0.6,1.2,0.6,2.1V176.7z"/>
		<path class="st1" d="M247.8,169.6l-0.2,4.3c0,0.6-0.2,1.1-0.4,1.5c-0.2,0.4-0.6,0.8-1.1,1c-0.2,0.1-0.4,0.2-0.7,0.2
			s-0.5,0.1-0.7,0.1c-0.3,0-0.5,0-0.7,0.1c-0.2,0-0.4,0-0.6,0c-0.3,0-0.6,0-0.9,0c-0.3,0-0.6,0-0.9-0.1c-0.3,0-0.6-0.1-0.9-0.1
			c-0.3,0-0.5-0.1-0.7-0.1l-0.3-7.8h2.5l0.2,6.1c0.1,0,0.1,0,0.3,0c0.1,0,0.2,0,0.4,0c0.1,0,0.2,0,0.4,0c0.1,0,0.2,0,0.3,0
			c0.6,0,1-0.1,1.2-0.3c0.2-0.2,0.3-0.5,0.4-0.9l0-3.1h-1.7v-2h4.3V169.6z"/>
		<path class="st1" d="M259.2,176.7H252v-2h3.9v-2.8c0-0.4-0.1-0.6-0.2-0.8c-0.1-0.2-0.4-0.3-0.7-0.3h-3v-2h3.8c0.9,0,1.5,0.2,2,0.6
			c0.4,0.4,0.6,1.1,0.6,2.1v3.3h0.7V176.7z"/>
		<path class="st1" d="M270.9,176.7h-2.5v-4.9c0-0.4-0.1-0.6-0.2-0.8c-0.1-0.2-0.4-0.3-0.7-0.3h-4.1v-2h4.9c0.9,0,1.5,0.2,2,0.6
			c0.4,0.4,0.6,1.1,0.6,2.1V176.7z M265.9,176.7h-2.5V172h2.5V176.7z"/>
		<path class="st1" d="M277.8,176.7h-2.5v-8h2.5V176.7z"/>
		<path class="st1" d="M291.1,173.6h-2.5v-4.9h2.5V173.6z"/>
		<path class="st1" d="M303.3,176.7h-2.6l-2.5-3.7l-0.8,3.7h-2.3v-0.2l1.4-5.4l-1.5-2.2v-0.2h2.7l2.2,3.2h0l0.7-3.2h2.3v0.3
			l-1.5,4.8l1.9,2.8V176.7z"/>
		<path class="st1" d="M313.2,176.7h-2.5v-4.8c0-0.4-0.1-0.7-0.2-0.9c-0.1-0.2-0.4-0.3-0.8-0.3H307v-2h3.6c0.9,0,1.5,0.3,2,0.8
			c0.4,0.5,0.7,1.2,0.7,2.2V176.7z"/>
		<path class="st1" d="M327.7,168.7l-0.2,4c0,0.4-0.1,0.8-0.1,1.2c-0.1,0.4-0.2,0.7-0.3,1c-0.2,0.4-0.4,0.7-0.6,0.9
			c-0.3,0.3-0.6,0.5-1,0.6c-0.4,0.2-0.9,0.3-1.4,0.3s-1.2,0.1-2,0.1c-0.9,0-1.6,0-2.3-0.1c-0.7-0.1-1.2-0.2-1.7-0.3l-0.6-7.8h2.5
			l0.3,4c0.2,0,0.3,0,0.4,0c0.1,0,0.2-0.1,0.3-0.1s0.2-0.2,0.2-0.3c0-0.1,0.1-0.3,0.1-0.6l0.1-3h2.4l-0.1,3c0,0.4-0.1,0.8-0.2,1.1
			c-0.1,0.3-0.3,0.5-0.5,0.7s-0.5,0.3-0.7,0.3c-0.3,0.1-0.6,0.1-1,0.1c0,0-0.1,0-0.2,0c-0.1,0-0.2,0-0.3,0s-0.2,0-0.3,0
			c-0.1,0-0.1,0-0.2,0l0.1,1c0.1,0,0.2,0,0.3,0.1c0.1,0,0.3,0,0.4,0c0.2,0,0.3,0,0.5,0c0.2,0,0.3,0,0.4,0c0.7,0,1.3,0,1.7-0.1
			c0.4-0.1,0.7-0.3,0.9-0.7c0.2-0.4,0.3-0.9,0.3-1.6l0.2-3.9H327.7z"/>
		<path class="st1" d="M339.9,176.7h-2.6l-2.5-3.7l-0.8,3.7h-2.3v-0.2l1.4-5.4l-1.5-2.2v-0.2h2.7l2.2,3.2h0l0.7-3.2h2.3v0.3
			l-1.5,4.8l1.9,2.8V176.7z"/>
		<path class="st1" d="M358.4,176.7h-2.5v-4.9c0-0.4-0.1-0.6-0.2-0.8c-0.1-0.2-0.3-0.2-0.7-0.2h-1.6v3.5c0,0.3,0,0.5,0,0.7
			c0,0.2-0.1,0.4-0.1,0.6c-0.1,0.2-0.1,0.3-0.2,0.4c-0.1,0.1-0.2,0.2-0.3,0.3c-0.2,0.2-0.5,0.4-0.8,0.5c-0.3,0.1-0.7,0.1-1.1,0.1
			c-0.2,0-0.4,0-0.6-0.1c-0.2-0.1-0.4-0.2-0.5-0.3v-1.7c0.2,0.1,0.4,0.2,0.6,0.2c0.2,0,0.4-0.1,0.5-0.2c0.1-0.1,0.2-0.3,0.2-0.6
			v-5.6h1h1.4h2.5c0.9,0,1.5,0.2,1.9,0.7c0.4,0.4,0.6,1.1,0.6,2.1V176.7z"/>
		<path class="st1" d="M370.8,171.3c0,0.4-0.1,0.7-0.2,1.2c-0.1,0.4-0.3,0.8-0.4,1.1l-1.6,3.1h-2.5v-0.2l1.7-3.2
			c0.2-0.3,0.3-0.6,0.4-0.9c0.1-0.3,0.1-0.5,0.1-0.7c0-0.1,0-0.2-0.1-0.4c0-0.1-0.1-0.2-0.2-0.3c-0.1-0.1-0.2-0.2-0.3-0.2
			c-0.1-0.1-0.3-0.1-0.4-0.1h-4.4v-2h4.9c0.7,0,1.3,0.1,1.7,0.4c0.4,0.3,0.8,0.6,0.9,1c0.1,0.2,0.1,0.3,0.2,0.6
			C370.8,170.9,370.8,171.1,370.8,171.3z M365.5,179.2h-2.5v-7.3h2.5V179.2z"/>
		<path class="st1" d="M377.5,173.6H375v-4.9h2.5V173.6z"/>
		<path class="st1" d="M388.2,169.8L388,173c-0.1,0.7-0.2,1.3-0.3,1.7c-0.2,0.5-0.4,0.9-0.7,1.2c-0.3,0.3-0.7,0.5-1.2,0.7
			c-0.5,0.1-1.1,0.2-1.8,0.2c-0.1,0-0.2,0-0.4,0c-0.2,0-0.3,0-0.5-0.1v-1.9c0.1,0,0.2,0,0.3,0c0.2,0,0.3,0,0.4,0
			c0.3,0,0.5,0,0.7-0.1c0.2,0,0.4-0.1,0.5-0.3c0.1-0.1,0.3-0.3,0.3-0.5c0.1-0.2,0.1-0.5,0.2-0.9l0.2-2.3h-4.1v-4h2.5v2h4.1V169.8z"
			/>
		<path class="st1" d="M400.8,172.6c0,0.6-0.1,1.2-0.3,1.7c-0.2,0.5-0.5,1-0.9,1.3c-0.4,0.4-0.8,0.7-1.3,0.9
			c-0.5,0.2-1.1,0.3-1.7,0.3c-0.6,0-1.2-0.1-1.7-0.2c-0.5-0.1-1-0.4-1.3-0.7c-0.4-0.3-0.7-0.8-0.9-1.3c-0.2-0.5-0.3-1.2-0.3-2
			c0-0.6,0.1-1.2,0.3-1.7c0.2-0.5,0.4-0.9,0.8-1.3c0.3-0.4,0.8-0.6,1.3-0.8c0.5-0.2,1.1-0.3,1.8-0.3c1.4,0,2.5,0.3,3.2,1
			C400.4,170.2,400.8,171.2,400.8,172.6z M398.2,172.7c0-0.3,0-0.6-0.1-0.9c-0.1-0.3-0.2-0.5-0.3-0.8c-0.1-0.2-0.3-0.4-0.5-0.6
			c-0.2-0.1-0.5-0.2-0.8-0.2c-0.3,0-0.5,0.1-0.7,0.2c-0.2,0.1-0.4,0.3-0.5,0.5c-0.1,0.2-0.2,0.5-0.3,0.8c-0.1,0.3-0.1,0.6-0.1,0.9
			c0,0.7,0.1,1.3,0.4,1.8c0.3,0.4,0.7,0.7,1.2,0.7c0.3,0,0.5-0.1,0.7-0.2c0.2-0.1,0.4-0.3,0.5-0.5c0.1-0.2,0.2-0.5,0.3-0.8
			C398.1,173.3,398.2,173,398.2,172.7z"/>
	</g>
	<path class="st1" d="M145.9,96.5c0-4.2,1.3-13.7,1.3-13.7s-16.9,8.5-31.1,27.6c-7.7,10.5-14.8,26.5-14.8,26.5l-11.1-20.6l-11.9,6.9
		L73.4,103l51.5-24.3l-1.7,16.8l3.8-3.3l2.5-19.9L69,100.8l5.8,24.4l-6.1,3.5c0,0,3.7,2.2,8.3,5.4l10.7,45.2h28.3l4.7-36.6l-5.1,4.6
		l-3,28.1H90.6l-9-37.8c2.5,1.9,5,4,7.2,6.1c7.8,7.7,13.4,14.4,13.4,14.4s10.8-17.9,24.4-30.4s21.2-16.9,21.2-16.9
		S145.9,100.7,145.9,96.5z"/>
</g>
</svg>
