<?xml version="1.0" encoding="utf-8"?>
<!-- Generator: Adobe Illustrator 24.0.2, SVG Export Plug-In . SVG Version: 6.00 Build 0)  -->
<svg version="1.1" id="logo" xmlns="http://www.w3.org/2000/svg" xmlns:xlink="http://www.w3.org/1999/xlink" x="0px" y="0px"
	 viewBox="0 0 489.5 251.6" style="enable-background:new 0 0 489.5 251.6;" xml:space="preserve">
<style type="text/css">
	.st0{fill:#FFFFFF;}
	.st1{stroke:#231F20;stroke-width:3;stroke-miterlimit:10;}
</style>
<title>amdocswhite</title>
<g>
	
		<rect x="244.2" y="93" transform="matrix(0.7071 -0.7071 0.7071 0.7071 -2.8301 210.5448)" class="st0" width="17.1" height="31.3"/>
	
		<rect x="278.4" y="127.3" transform="matrix(0.7071 -0.7071 0.7071 0.7071 -17.0192 244.8008)" class="st0" width="17.1" height="31.3"/>
	
		<rect x="237.1" y="134.4" transform="matrix(0.7071 -0.7071 0.7071 0.7071 -27.0524 220.5785)" class="st0" width="31.3" height="17.1"/>
	
		<rect x="271.3" y="100.1" transform="matrix(0.7071 -0.7071 0.7071 0.7071 7.2032 234.7672)" class="st0" width="31.3" height="17.1"/>
	
		<rect x="376.2" y="117.2" transform="matrix(0.7071 0.7071 -0.7071 0.7071 201.6593 -235.2155)" class="st0" width="17.1" height="17.1"/>
	<path class="st0" d="M235.2,119.8c-0.3-1.8-0.8-3.5-1.3-5.1c-4.6-13.5-17.5-23.3-32.6-23.3c-15.1,0-27.9,9.7-32.6,23.3
		c-0.6,1.7-1,3.4-1.3,5.1c-0.4,1.9-0.5,4-0.5,6c0,2,0.2,4.1,0.5,6c0.3,1.8,0.8,3.5,1.3,5.1c4.6,13.5,17.5,23.3,32.6,23.3
		c15.1,0,27.9-9.7,32.6-23.3h-19.4c-3.2,3.7-7.9,6.1-13.2,6.1c-5.3,0-10-2.4-13.2-6.1c-1.3-1.5-2.3-3.2-3-5.1c0,0-0.4-1.2-0.4-1.3
		l50.7,0c0-0.3,0.1-0.5,0.1-0.8c0.1-0.6,0.1-1.3,0.2-1.9v-4.3C235.6,122.4,235.4,121.1,235.2,119.8z M185.1,119.8
		c0.7-1.9,1.7-3.6,3-5.1c3.2-3.7,7.9-6.1,13.2-6.1c5.3,0,10,2.4,13.2,6.1c1.3,1.5,2.3,3.2,3,5.1H185.1z"/>
	<path class="st0" d="M144.1,96.1c-5-2.9-10.8-4.6-17.1-4.6v0c0,0-0.1,0-0.1,0c0,0-0.1,0-0.1,0v0c-6.2,0-12,1.7-17.1,4.6
		c-10.2,6-17.1,17.1-17.1,29.8v34.4h17.1v-34.4c0-9.5,7.7-17.2,17.2-17.3c9.5,0.1,17.2,7.8,17.2,17.3v34.4h17.1v-34.4
		C161.2,113.1,154.3,102,144.1,96.1z"/>
	<path class="st0" d="M351.6,137h19.4c-4.6,13.5-17.5,23.3-32.6,23.3c-19,0-34.4-15.4-34.4-34.4c0-19,15.4-34.4,34.4-34.4
		c15.1,0,27.9,9.7,32.6,23.3h-19.4c-3.2-3.7-7.9-6.1-13.2-6.1c-9.5,0-17.3,7.7-17.3,17.3c0,9.5,7.7,17.3,17.3,17.3
		C343.7,143.1,348.4,140.7,351.6,137z"/>
</g>
<path class="st1" d="M932.4,1203"/>
</svg>
