<?xml version="1.0" encoding="utf-8"?>
<!-- Generator: Adobe Illustrator 24.0.2, SVG Export Plug-In . SVG Version: 6.00 Build 0)  -->
<svg version="1.1" id="logo" xmlns="http://www.w3.org/2000/svg" xmlns:xlink="http://www.w3.org/1999/xlink" x="0px" y="0px"
	 viewBox="0 0 489.5 251.6" style="enable-background:new 0 0 489.5 251.6;" xml:space="preserve">
<style type="text/css">
	.st0{fill:#FFFFFF;}
	.st1{stroke:#231F20;stroke-width:3;stroke-miterlimit:10;}
</style>
<title>amdocswhite</title>
<g>
	<path class="st0" d="M165,159.6c12.3,0,22.2-4,29.7-11.9c5.3-5.5,8.7-12.2,10.3-19.9l8.1,29.8h24.4l8.5-49.4h0.2l8.7,49.4h24.3
		l13.2-47.3v47.3h23.6v-44.3l25,44.3h24.4v-81h-23.6V120l-23.7-43.4H302h-9.5h-15.2l-10.1,50.7h-0.2l-9.5-50.7h-22l-9.8,50h-0.2
		l-9.9-50h-24.5l2.4,8.7c-7.4-7.1-16.9-10.6-28.5-10.6c-12.3,0-22.2,4-29.7,11.9c-7.6,7.9-11.3,18.1-11.3,30.6s3.8,22.7,11.3,30.6
		C142.8,155.7,152.7,159.6,165,159.6z M154.6,99.3c2.9-2.9,6.4-4.3,10.4-4.3c4.1,0,7.6,1.4,10.4,4.3c3.8,3.9,5.7,9.8,5.7,17.9
		c0,8.1-1.9,14.1-5.7,17.9c-2.9,2.9-6.4,4.3-10.4,4.3c-4.1,0-7.6-1.4-10.4-4.3c-3.8-3.9-5.7-9.8-5.7-17.9
		C148.9,109.1,150.8,103.1,154.6,99.3z"/>
	<rect x="123.9" y="168" class="st0" width="241.7" height="8.9"/>
</g>
<path class="st1" d="M932.4,1203"/>
</svg>
