<?xml version="1.0" encoding="UTF-8" standalone="no"?>
<!-- Created with Inkscape (http://www.inkscape.org/) -->

<svg
   xmlns:dc="http://purl.org/dc/elements/1.1/"
   xmlns:cc="http://creativecommons.org/ns#"
   xmlns:rdf="http://www.w3.org/1999/02/22-rdf-syntax-ns#"
   xmlns:svg="http://www.w3.org/2000/svg"
   xmlns="http://www.w3.org/2000/svg"
   xmlns:sodipodi="http://sodipodi.sourceforge.net/DTD/sodipodi-0.dtd"
   xmlns:inkscape="http://www.inkscape.org/namespaces/inkscape"
   width="178.93358mm"
   height="90.840378mm"
   viewBox="0 0 178.93358 90.840378"
   version="1.1"
   id="svg6398"
   inkscape:version="0.92.3 (2405546, 2018-03-11)"
   sodipodi:docname="1.svg">
  <defs
     id="defs6392" />
  <sodipodi:namedview
     id="base"
     pagecolor="#ffffff"
     bordercolor="#666666"
     borderopacity="1.0"
     inkscape:pageopacity="0.0"
     inkscape:pageshadow="2"
     inkscape:zoom="0.49497475"
     inkscape:cx="386.68765"
     inkscape:cy="222.81947"
     inkscape:document-units="mm"
     inkscape:current-layer="layer1"
     showgrid="false"
     inkscape:window-width="1245"
     inkscape:window-height="1019"
     inkscape:window-x="675"
     inkscape:window-y="24"
     inkscape:window-maximized="0"
     fit-margin-top="0"
     fit-margin-left="0"
     fit-margin-right="0"
     fit-margin-bottom="0" />
  <metadata
     id="metadata6395">
    <rdf:RDF>
      <cc:Work
         rdf:about="">
        <dc:format>image/svg+xml</dc:format>
        <dc:type
           rdf:resource="http://purl.org/dc/dcmitype/StillImage" />
        <dc:title></dc:title>
      </cc:Work>
    </rdf:RDF>
  </metadata>
  <g
     inkscape:label="Layer 1"
     inkscape:groupmode="layer"
     id="layer1"
     transform="translate(-15.390517,-89.404396)">
    <g
       transform="matrix(6.922051,0,0,6.922051,-502.14063,-707.02869)"
       id="layer1-5"
       inkscape:label="Layer 1"
       style="fill:#ffffff">
      <g
         id="g1476"
         transform="matrix(0.26458333,0,0,0.26458333,-24.506087,100.37301)"
         style="fill:#ffffff">
        <path
           id="path1392"
           d="m 375.2,92.4 c 0.2,0 0.4,-0.1 0.5,-0.1 32.2,0 64.5,0 96.7,0 0.1,0 0.3,0 0.5,0 0,0.2 0,0.4 0,0.6 -0.2,0 -0.4,0 -0.6,0 -32.1,0 -64.3,0 -96.4,0 -0.2,0 -0.4,-0.1 -0.6,-0.1 -0.1,-0.1 -0.1,-0.3 -0.1,-0.4 z"
           inkscape:connector-curvature="0"
           style="fill:#ffffff" />
        <path
           id="path1394"
           d="m 394.5,105 c 0,-2 0,-3.9 0,-5.9 0.4,0 0.8,0 1.3,0 0,1.2 0,2.3 0,3.5 0.8,0.1 1.5,-0.3 1.8,-1.1 0.5,-1.1 0.3,-2.5 -0.6,-3.3 -0.9,-0.8 -2.3,-0.9 -3.4,-0.2 -1.1,0.6 -1.4,2 -1,3.4 0.1,0.2 0.1,0.4 0.2,0.5 0,0 -0.1,0 -0.1,0.1 -0.1,-0.1 -0.2,-0.2 -0.2,-0.3 -0.7,-1.3 -0.4,-3.1 0.6,-4.1 1.1,-1.1 2.8,-1.3 4.2,-0.6 1.4,0.7 2.1,2.2 1.8,3.7 -0.2,1.3 -1.2,2.2 -2.6,2.3 -0.2,0 -0.4,0 -0.8,0 0,0.7 0,1.4 0,2.1 -0.4,-0.1 -0.8,-0.1 -1.2,-0.1 z"
           inkscape:connector-curvature="0"
           style="fill:#ffffff" />
        <path
           id="path1396"
           d="m 428.1,55.5 c 0.5,0.4 0.5,0.5 0.1,0.8 -1,0.9 -1,1.5 0,2.5 0.4,-0.4 0.7,-0.8 1.1,-1.2 0,0 0.1,0 0.1,0.1 -0.5,1.4 -1,2.9 -1.6,4.4 -0.3,-0.5 -0.3,-0.9 -0.1,-1.3 0.1,-0.2 0.2,-0.4 0.4,-0.7 0.3,-0.4 0.2,-0.9 -0.1,-1.3 -0.2,-0.2 -0.4,-0.4 -0.5,-0.6 -0.6,-0.7 -0.4,-1.5 0.4,-2 0.1,-0.1 0.3,-0.2 0.5,-0.3 -0.7,-0.4 -1.6,0.2 -1.6,0.9 0,0.3 0.1,0.7 0.2,1 0.4,0.9 0.4,1.8 0.2,2.8 -0.1,0.5 0,1 0,1.6 -0.3,-0.2 -0.6,-0.5 -1,-0.8 0,0.4 -0.1,0.7 0,0.9 0,0.1 0.4,0.2 0.7,0.3 -0.3,0.1 -0.5,0.2 -0.6,0.1 -0.2,-0.2 -0.6,-0.4 -0.6,-0.7 -0.1,-0.5 -0.2,-1.1 0,-1.5 0.2,-0.5 0.2,-1 0,-1.5 0.1,0.2 0.3,0.3 0.5,0.6 0.1,-0.4 0.2,-0.7 0.2,-0.9 0,-0.2 0,-0.4 -0.1,-0.6 -0.4,-1.5 -0.3,-1.9 1,-2.6 0.2,0 0.5,0 0.8,0 z m -1.3,3.4 c -0.3,0.7 -0.7,1.4 -1,2 0,0 0.1,0 0.1,0.1 0.4,-0.6 1.1,-1.1 0.9,-2.1 z"
           inkscape:connector-curvature="0"
           style="fill:#ffffff" />
        <path
           id="path1398"
           d="m 429.9,77.6 c -0.5,-0.3 -1,-0.6 -1.4,-0.9 0,0 -0.1,0.1 -0.1,0.1 0.1,0.3 0.2,0.6 0.4,0.8 0.1,0.2 0.4,0.4 0.4,0.6 0,0.3 0,0.7 -0.1,1 -0.2,0.4 -0.6,0.4 -1.1,0.3 0.2,-0.1 0.3,-0.2 0.6,-0.3 -0.7,-0.5 -1.6,-0.8 -1.5,-1.9 -0.2,0.1 -0.3,0.2 -0.4,0.3 0,-0.1 0,-0.1 0,-0.2 0.1,-0.4 0.3,-0.8 0.4,-1.2 0,-0.2 -0.1,-0.4 -0.2,-0.6 -0.2,-0.2 -0.5,-0.4 -0.8,-0.6 -0.1,1.2 -0.1,2.3 -0.2,3.5 -0.4,-0.5 -0.7,-1 -1.1,-1.4 -0.5,1.3 -1.5,1.5 -2.7,1.4 0.3,-0.5 0.8,-0.9 0.8,-1.4 0.1,-0.5 -0.3,-1 -0.5,-1.6 -0.3,0.2 -0.6,0.3 -0.8,0.4 0,0 0,0 0,-0.1 0.1,-0.1 0.2,-0.2 0.3,-0.4 0.1,-0.2 0.3,-0.5 0.2,-0.7 0,-0.7 0.3,-1.1 0.8,-1.5 0.6,-0.5 0.6,-0.7 0.1,-1.3 -1,1.6 -2,3.2 -3,4.9 0,0 -0.1,0 -0.1,0 0.1,-0.8 0.2,-1.6 0.3,-2.4 -0.9,0.1 -1.3,0.5 -1.5,1.3 -0.1,0.3 -0.2,0.7 -0.5,1 -0.4,0.5 -1.2,0.3 -1.4,-0.3 -0.2,-0.4 0,-0.7 0.8,-1 0,-0.1 -0.1,-0.2 -0.1,-0.4 -0.4,-0.8 -0.2,-1.4 0.6,-1.8 0.4,-0.2 0.8,-0.2 1.2,-0.4 0.2,-0.1 0.5,-0.3 0.7,-0.4 0,0 0,-0.1 0,-0.1 -0.2,0 -0.4,0 -0.6,0.1 -0.2,0 -0.4,0 -0.5,-0.1 0.3,-0.1 0.6,-0.2 0.9,-0.2 0.6,-0.1 0.8,-0.4 0.8,-0.9 0,-0.2 0,-0.4 0.1,-0.7 -1.3,0.7 -2.5,1.4 -3.8,2.1 0,0 -0.1,0 -0.1,-0.1 0.3,-0.5 0.6,-1 0.9,-1.6 0,0 -0.1,0 -0.1,0 -0.9,0.7 -1.8,0.6 -2.7,-0.1 -0.2,-0.2 -0.5,-0.3 -0.8,-0.5 0.2,-0.5 0.4,-0.8 1,-0.6 1,0.4 1.4,-0.2 2,-0.8 -0.7,-0.4 -1.4,-0.8 -2.1,-1.1 2.1,-0.1 4.1,-0.1 6.2,-0.1 -0.1,-0.5 -0.4,-0.5 -0.6,-0.5 -0.6,0.1 -1.1,0.2 -1.7,0.2 -0.6,0.1 -1.2,0 -1.7,-0.4 -0.2,-0.1 -0.5,-0.1 -0.8,-0.1 0.1,-0.1 0.2,-0.2 0.4,-0.3 -0.7,-0.9 -1,-0.9 -2.4,-0.4 -0.3,-0.5 -0.1,-1.1 0.4,-1.6 0.6,-0.5 1.3,-0.7 2,-0.3 0.3,0.2 0.6,0.4 0.8,0.6 0.3,0.2 0.6,0.4 1,0.1 -0.6,-0.7 -1.1,-1.3 -1.6,-1.9 0,0 0,0 0.1,-0.1 0.9,0.4 1.7,0.9 2.7,1.3 -0.2,-0.7 -0.2,-1.3 -1.1,-1.3 0.2,0 0.4,0 0.6,0 -0.1,-0.5 -0.4,-0.7 -0.8,-0.9 -0.3,-0.1 -0.6,-0.2 -0.9,-0.4 -1,-0.5 -1.1,-1.9 -0.2,-2.4 0.2,-0.1 0.5,-0.2 0.8,-0.2 -0.2,1.5 0.3,2.1 1.6,1.8 -0.1,-0.4 -0.3,-0.9 -0.4,-1.2 1.1,1.1 2.4,2.3 3.6,3.5 -0.5,0.4 -1,0.4 -1.4,-0.1 -0.3,-0.4 -0.6,-0.8 -0.8,-1.2 -0.3,-0.6 -0.4,-0.7 -1.1,-0.5 -0.3,0.1 -0.5,0.2 -0.9,0.3 0.8,0.2 1,0.9 1.1,1.5 0.1,0.4 0.2,0.9 0.5,1.2 0.3,0.3 0.7,0.4 1.1,0.7 -0.5,0.3 -1.4,-0.2 -1.8,0.4 0.6,0.3 1.1,0.6 1.7,0.9 -0.1,-0.3 -0.3,-0.5 -0.4,-0.8 0.6,-0.1 1.2,-0.1 1.4,-0.9 0.6,0.3 0.5,0.6 -0.2,1.3 0,0.1 0,0.3 0.1,0.4 0,0.1 0.1,0.3 0.1,0.5 0.1,-0.2 0.2,-0.2 0.2,-0.3 0.2,0.2 0.5,0.4 0.8,0.6 -0.1,-0.4 -0.1,-0.7 -0.2,-1 -0.1,0 -0.2,0.1 -0.3,0.1 0,0 -0.1,-0.1 -0.1,-0.1 0.1,-0.2 0.3,-0.4 0.4,-0.6 0.4,0.1 0.7,0.3 1.1,0.4 0,0 0,0.1 -0.1,0.1 -0.3,0.1 -0.6,0.1 -0.5,0.5 0.1,0.4 0.5,0.3 0.8,0.2 0.5,-0.2 0.7,-0.6 0.8,-1.1 0,-0.2 0,-0.4 0.1,-0.6 0.4,0 0.6,0.4 0.5,0.9 -0.1,0.3 -0.3,0.7 0.3,0.8 -0.3,0.1 -0.5,0.2 -0.8,0.2 0,0.1 0,0.1 0,0.2 0.4,0 0.8,0.1 1.3,0.1 0,0 0,0.1 0,0.1 -0.5,0 -0.9,0.1 -1.3,0.1 0.1,0.4 0.6,0.7 0.9,0.7 0.9,-0.2 1,-0.4 0.9,-0.9 0.4,0.1 0.4,0.3 0.2,0.5 -0.2,0.2 -0.5,0.2 -0.6,0.4 -0.2,0.1 -0.4,0.4 -0.4,0.5 0,0.2 0.2,0.5 0.4,0.5 0.3,0 0.6,-0.1 0.8,-0.3 0.5,-0.6 0.6,-1.3 0.2,-2 -0.4,-0.8 -0.4,-0.8 0.6,-1 -0.5,0.5 -0.1,0.7 0.4,0.8 -0.1,0.2 -0.3,0.3 -0.3,0.4 -0.3,0.4 -0.2,0.6 0.2,0.8 0.7,0.2 1.1,0.7 1.4,1.3 0.2,0.4 0.4,0.8 0.6,1.2 0.3,0.4 0.6,0.8 0.9,1.2 -0.7,0.1 -1.4,-0.5 -2.2,-1.9 -0.2,0.9 0.8,2.2 1.8,2.3 0.4,0.1 0.8,0.1 1.3,0 0.6,0 0.9,0.3 1.1,0.8 0.1,0.3 0.2,0.6 0.4,0.9 0.3,0.5 1,0.9 1.6,0.8 0.2,-0.1 0.4,-0.2 0.7,-0.4 -0.4,0 -0.7,0 -1,-0.1 -0.2,-0.1 -0.4,-0.3 -0.5,-0.5 -0.2,-0.4 -0.4,-0.9 -0.5,-1.3 -0.2,-0.6 -0.6,-1 -1.2,-1.1 -0.9,-0.1 -1.5,-0.7 -2,-1.5 -0.5,-0.8 -1.1,-1.6 -1.7,-2.5 0.4,-0.1 0.8,0 1.2,0.4 0.4,0.4 0.8,0.8 1.1,1.2 0.1,0.2 0.3,0.3 0.4,0.5 1.1,1.3 1.8,1.4 3.3,0.6 0.4,-0.2 1,-0.4 1.5,-0.4 0.7,-0.1 0.9,0.2 0.9,1 0,0.1 0,0.2 0,0.3 0.4,-0.8 0.1,-1.5 -0.6,-1.6 -0.5,-0.1 -1,0 -1.5,0.2 -1.2,0.4 -1.8,0.2 -2.6,-0.7 -0.2,-0.3 -0.4,-0.6 -0.6,-0.8 -0.4,-0.5 -0.8,-1 -1.5,-1.2 0,0 0,-0.1 0,-0.1 0.3,0 0.5,-0.1 0.8,0 0.3,0.1 0.7,0.4 1,0.5 0.6,0.3 1,0.2 1.3,-0.4 0.2,-0.3 0.3,-0.7 0.4,-1 0.2,-0.4 0.5,-0.5 0.8,-0.2 0.1,0.1 0.3,0.2 0.4,0.3 0.4,0.5 0.9,0.6 1.6,0.3 0,0.1 -0.1,0.3 -0.1,0.4 0.7,-0.2 0.9,-1.3 0.5,-1.9 -0.2,0.4 -0.3,0.8 -0.6,1.2 -0.1,0.2 -0.5,0.1 -0.8,0.1 0,-0.1 0,-0.1 0,-0.2 0.2,-0.1 0.3,-0.1 0.4,-0.2 -0.5,-0.2 -1,-0.5 -1.5,-0.7 -0.5,-0.3 -1.1,-0.1 -1.5,0.5 -0.5,0.8 -0.5,0.8 -1.4,0.5 -0.2,-0.1 -0.4,-0.1 -0.6,-0.1 0,0 0,-0.1 0,-0.1 0.3,-0.1 0.5,-0.1 0.8,-0.2 0.3,-0.1 0.7,-0.1 0.9,-0.3 0.5,-0.5 1,-0.9 1.9,-0.7 0.1,0 0.3,-0.1 0.5,-0.2 -0.1,0.2 -0.1,0.3 -0.2,0.4 1.1,0.9 1.6,0.7 1.8,-0.6 0.8,0.4 1,1.2 0.6,2 -0.4,0.8 -1.1,1 -1.9,0.7 -0.1,-0.1 -0.2,-0.1 -0.3,-0.2 -0.5,-0.3 -0.6,-0.3 -1,0.2 0.1,0.1 0.2,0.1 0.4,0.2 0.1,0 0.2,0.1 0.3,0.2 -0.1,0 -0.2,0 -0.4,0 -0.3,-0.1 -0.6,0 -0.9,0.2 -0.4,0.2 -0.9,0.2 -1.4,0.4 1.5,0 3,0 4.5,0 0,0.1 0,0.1 0,0.2 -0.9,0.4 -1.9,0.8 -2.8,1.3 0,0 0,0.1 0,0.1 0.3,-0.1 0.6,-0.2 0.9,-0.2 0.5,-0.1 1,-0.2 1.4,-0.1 1,0.2 1.6,1.3 1.1,2.1 -0.1,0.2 -0.3,0.3 -0.4,0.5 -0.2,-0.7 0.3,-1.8 -1,-1.5 -0.3,0.1 -0.6,0.3 -0.8,0.5 -0.1,0.2 0,0.6 0,0.8 -0.1,-0.1 -0.3,-0.3 -0.5,-0.5 -0.2,0.1 -0.3,0.2 -0.4,0.2 -0.2,0.1 -0.3,0.1 -0.6,0.2 0.7,0.4 1.3,0.8 1.9,1.1 0,0 0,0.1 0,0.1 -0.4,0 -0.9,0 -1.3,0 -0.1,1 0.2,1.2 2,1.5 -0.1,0.4 -0.4,0.7 -0.8,0.8 -0.5,0.1 -1,0 -1.5,-0.1 -0.1,0 -0.2,0 -0.5,-0.1 -0.3,-0.6 -0.6,-1.4 -1.4,-1.7 -0.4,-0.1 -0.8,-0.2 -1.1,-0.2 0,0.1 -0.1,0.1 -0.1,0.2 1,0.9 1.9,1.8 2.9,2.7 0,0 -0.1,0.1 -0.1,0.1 -0.2,0 -0.3,0 -0.5,0 -0.2,1.3 -0.8,2.2 -1.7,2.3 0.1,-0.3 0.3,-0.5 0.4,-0.7 0.3,-0.7 0.2,-1.3 -0.5,-1.6 -1.2,-0.6 -1.6,-1.6 -1.9,-2.8 0.2,0.3 0.5,0.6 0.7,0.8 0.4,0.4 0.7,0.9 1.1,1.3 1.1,0.9 1.1,1 0.8,2.4 0.8,-0.8 0.8,-1.8 0,-2.5 -1.5,-1.2 -2.6,-2.7 -3.8,-4.2 -0.2,-0.3 -0.3,-0.6 -0.6,-0.9 0,0.2 -0.1,0.3 0,0.5 0.1,0.4 0.2,0.8 0.4,1.1 0.5,0.8 0.9,1.6 1.1,2.4 0.2,0.8 0.5,1.4 1.2,2 -0.5,0.1 -0.9,-0.1 -1.1,-0.5 -0.4,-0.7 -0.7,-1.4 -1.1,-2.1 -0.1,-0.2 -0.1,-0.4 -0.2,-0.5 -0.1,0 -0.1,0 -0.2,0.1 0.5,1.5 1,3.2 1.6,4.9 z m -8.1,-6.2 c -0.1,-1.2 0.1,-2.3 0.7,-3.3 -0.7,0.4 -1.1,0.9 -1.2,1.6 -0.1,0.5 -0.1,1 -0.2,1.5 -0.1,1.1 -0.7,1.8 -1.9,2 -0.3,0.1 -0.7,0.1 -1,0.2 -0.6,0.2 -0.8,0.7 -0.4,1.2 0.1,0.2 0.2,0.4 0.4,0.6 0.1,-0.2 0.2,-0.5 0.4,-0.7 -0.1,-0.1 -0.3,-0.2 -0.5,-0.4 1.5,-0.3 2.8,-0.8 3.8,-1.9 1,-1.1 1.2,-2.5 1.6,-4 -1.1,1 -1.1,2.2 -1.7,3.2 z m 6.8,7.1 c 0,0 0,0 0,0 -0.1,-0.4 -0.3,-0.8 -0.4,-1.1 -0.2,-0.4 -0.4,-0.9 -0.1,-1.3 0.5,-0.7 0.5,-1.4 0,-2.1 -0.6,-1 -1,-2 -0.7,-3.1 0.1,-0.3 -0.1,-0.6 -0.2,-1 -0.1,0.5 -0.2,1 -0.4,1.4 -0.4,1.1 -0.3,2.1 0.4,3.1 0.2,0.3 0.4,0.8 0.3,1.1 -0.3,1.2 0,2.2 1.1,3 -0.1,0 -0.1,0 0,0 z M 423.9,70 c -0.1,0.5 0,1 0.2,1.5 0.3,0.6 0.2,0.9 -0.2,1.3 -0.1,0.1 -0.3,0.3 -0.4,0.4 -0.6,0.6 -0.7,1.3 -0.4,2.1 0.4,0.9 0.7,1.7 -0.1,2.6 0.9,-0.3 1.2,-0.9 0.9,-1.8 -0.3,-1.1 -0.2,-2.1 0.6,-3.1 0.5,-0.6 0.5,-1.3 0.1,-1.9 -0.3,-0.4 -0.5,-0.8 -0.7,-1.1 z m 1.3,0.2 c 0.5,1.1 0.3,2.2 -0.4,3.2 -0.6,0.9 -0.6,1.8 -0.2,2.8 0.2,-0.3 0.4,-0.6 0.4,-1 0.1,-0.7 0.2,-1.4 0.6,-2 0.7,-1 0.5,-2.2 -0.4,-3 z m -10.4,-5.4 c 0,0 0,0.1 0.1,0.1 0.1,0 0.2,0 0.3,0 0.5,-0.1 0.9,0.1 1.2,0.5 0.8,0.9 1.8,1.3 3.1,1.2 -1.1,-0.3 -1.9,-1 -2.6,-1.7 -0.3,-0.3 -1.2,-0.5 -1.6,-0.3 -0.2,0 -0.3,0.1 -0.5,0.2 z m 6.6,3.2 c 0,-0.1 -0.1,-0.1 -0.1,-0.2 -0.7,0.5 -1.5,0.5 -2.3,0.3 -0.2,-0.1 -0.5,-0.1 -0.7,-0.1 -0.4,0 -0.7,0.2 -0.8,0.5 0.6,0.1 1.1,0.2 1.7,0.4 0.3,0.1 0.7,0.1 1.1,0.2 -0.1,-0.3 -0.2,-0.4 -0.2,-0.4 0.5,-0.3 0.9,-0.5 1.3,-0.7 z m -0.5,1 c -0.6,0.6 -1.2,0.6 -2,0.4 -0.3,-0.1 -0.7,-0.1 -1,0 -0.4,0.1 -0.6,0.3 -0.6,0.5 0.5,0.1 1.1,0.1 1.6,0.2 0.9,0.2 1.6,-0.2 2,-1.1 z m -4.3,1.2 c -0.8,-0.1 -1.4,-0.2 -2,-0.3 0,0.1 0,0.1 0,0.2 0.4,0.2 0.8,0.5 1.2,0.7 0.2,0.1 0.5,0.1 0.6,0 0.1,-0.2 0.2,-0.4 0.2,-0.6 z m 8.1,-1.3 c 0,0.1 0,0.1 0,0.2 0.3,0 0.5,0.1 0.8,0.1 0.1,0 0.3,-0.4 0.3,-0.5 -0.1,-0.2 -0.3,-0.3 -0.6,-0.4 -0.2,-0.1 -0.5,-0.1 -0.7,-0.2 0,0 0,0.1 0,0.1 0.2,0.1 0.3,0.2 0.5,0.3 -0.1,0.1 -0.2,0.1 -0.3,0.1 0.2,0.1 0.3,0.1 0.5,0.2 -0.4,0 -0.4,0.1 -0.5,0.1 z m -6.4,-7.5 c -0.3,-0.2 -0.7,-0.4 -0.8,-0.7 -0.1,-0.3 0,-0.7 0,-1.1 -0.4,0.1 -0.6,0.5 -0.4,1 0.1,0.6 0.6,0.8 1.2,0.8 z M 417.5,76 c -0.1,-0.2 -0.1,-0.3 -0.2,-0.4 -0.3,0.1 -0.5,0.4 -0.3,0.6 0.1,0.1 0.5,0.3 0.6,0.2 0.4,-0.1 0.4,-0.5 0.2,-0.8 0,0.1 -0.1,0.2 -0.3,0.4 z m 9.3,-6.4 c 0,0 0,-0.1 0,-0.1 -0.6,0 -1.2,0 -1.8,0 0,0 0,0.1 0,0.1 0.6,0 1.2,0 1.8,0 z m 7.1,-3 c 0.7,-0.5 0.9,-0.9 0.7,-1.4 -0.2,0.5 -0.4,0.9 -0.7,1.4 z"
           inkscape:connector-curvature="0"
           style="fill:#ffffff" />
        <path
           id="path1400"
           d="m 472.5,79.9 c 0,0.2 0,0.4 0,0.5 0,0 -0.1,0.1 -0.1,0.1 -0.8,0.1 -0.8,0.1 -0.8,0.9 0,2.2 0,4.4 0,6.6 0,0.1 0,0.2 0,0.3 0,1.3 0,1.3 1.3,1.5 0,0.2 0,0.4 0,0.6 -1.6,0 -3.1,0 -4.7,0 0,-0.2 0,-0.4 0,-0.6 0.8,-0.1 0.8,-0.1 0.8,-1 0,-1.2 0,-2.4 0,-3.6 -1.2,0 -2.3,0 -3.4,0 0,1.3 0,2.7 0,4 0,0.4 0.2,0.6 0.7,0.6 0.2,0 0.4,0 0.6,0 0,0.2 0,0.4 0,0.6 -1.6,0 -3.2,0 -4.9,0 0,-0.2 0,-0.4 0,-0.5 0,0 0.1,-0.1 0.1,-0.1 0.8,-0.1 0.8,-0.1 0.8,-0.9 0,-2.3 0,-4.6 0,-7 0,-0.1 0,-0.3 0,-0.4 0,-0.9 -0.1,-1 -1,-1 -0.1,0 -0.1,0 -0.3,0 0,-0.2 0,-0.4 0,-0.6 1.6,0 3.2,0 4.9,0 0,0.2 0,0.3 0,0.5 0,0 0,0.1 -0.1,0.1 -0.8,0.1 -0.8,0.1 -0.8,1 0,0.9 0,1.9 0,2.8 1.2,0 2.3,0 3.5,0 0,-1.1 0,-2.1 0,-3.2 0,-0.4 -0.2,-0.6 -0.7,-0.6 -0.2,0 -0.3,0 -0.6,0 0,-0.2 0,-0.4 0,-0.6 1.5,0 3.1,0 4.7,0 z"
           inkscape:connector-curvature="0"
           style="fill:#ffffff" />
        <path
           id="path1402"
           d="m 422.4,85.1 c 1,1.4 1.9,2.7 2.8,4 0.2,0.3 0.5,0.4 0.9,0.7 0,0 0,0.2 0,0.4 -1,0 -2.1,0 -3.1,0 -0.2,0 -0.5,-0.3 -0.6,-0.5 -0.6,-1.2 -1.3,-2.4 -1.9,-3.6 -0.2,-0.5 -0.5,-0.6 -0.9,-0.5 0,1.2 0,2.4 0,3.6 0,0.3 0.2,0.4 0.5,0.4 0.2,0 0.4,0 0.7,0 0,0.2 0,0.4 0,0.6 -1.6,0 -3.2,0 -4.8,0 0,-0.2 0,-0.4 0,-0.5 0,0 0.1,-0.1 0.1,-0.1 0.8,-0.1 0.8,-0.1 0.8,-0.8 0,-2.3 0,-4.7 0,-7 0,-0.2 0,-0.3 0,-0.5 0,-0.7 -0.1,-0.8 -0.9,-0.8 -0.1,0 -0.2,0 -0.4,0 0,-0.2 0,-0.4 0,-0.6 0.2,0 0.3,0 0.4,0 1.7,0 3.4,0 5,0 0.6,0 1.3,0.2 1.9,0.4 1.1,0.4 1.7,1.5 1.7,2.7 0,0.9 -0.7,1.7 -1.5,2 -0.2,0 -0.4,0 -0.7,0.1 z m -2.8,-0.2 c 0.9,0 1.7,-0.1 2.2,-0.9 0.6,-1 0.1,-2.6 -0.9,-3.2 -0.3,-0.1 -0.6,-0.2 -0.9,-0.2 -0.1,0 -0.3,0.2 -0.3,0.3 -0.1,1.3 -0.1,2.6 -0.1,4 z"
           inkscape:connector-curvature="0"
           style="fill:#ffffff" />
        <path
           id="path1404"
           d="m 396.6,90.3 c 0,-0.2 0,-0.4 0,-0.6 0.3,0 0.5,0 0.8,-0.1 0,-0.2 0,-0.3 0,-0.5 0,-2.5 0,-5.1 0,-7.6 0,-0.1 0,-0.2 0,-0.4 0,-0.4 -0.2,-0.7 -0.7,-0.7 -0.2,0 -0.3,0 -0.5,0 0,-0.2 0,-0.4 0,-0.6 0.2,0 0.3,0 0.5,0 1.7,0 3.4,0 5,0 0.6,0 1.3,0.2 1.9,0.4 1,0.4 1.5,1.2 1.6,2.2 0.1,1.1 -0.4,1.9 -1.2,2.5 -1,0.7 -2.1,0.8 -3.3,0.6 -0.2,0 -0.3,-0.1 -0.5,-0.1 0,1.2 0,2.4 0,3.5 0,0.5 0.2,0.8 0.8,0.7 0.1,0 0.3,0 0.5,0 0,0.2 0,0.4 0,0.6 -1.7,0.1 -3.3,0.1 -4.9,0.1 z m 3.5,-7.6 c 0,0.6 0,1.2 0,1.7 0,0.3 0.1,0.4 0.4,0.4 0.9,0.2 1.7,-0.3 1.9,-1.2 0.3,-1 0.1,-1.9 -0.7,-2.6 -0.3,-0.3 -0.7,-0.4 -1.1,-0.5 -0.3,-0.1 -0.5,0.1 -0.5,0.4 0,0.7 0,1.2 0,1.8 z"
           inkscape:connector-curvature="0"
           style="fill:#ffffff" />
        <path
           id="path1406"
           d="m 430.9,80.5 c 0,-0.2 0,-0.4 0,-0.5 0,0 0.1,-0.1 0.1,-0.1 2,0 4,0 5.9,0 0.8,0 1.6,0.3 2.2,1 1.2,1.3 0.9,3.2 -0.7,4.2 -1,0.6 -2,0.6 -3.1,0.5 -0.2,0 -0.3,-0.1 -0.5,-0.1 0,1.2 0,2.4 0,3.6 0,0.4 0.2,0.7 0.7,0.7 0.2,0 0.3,0 0.5,0 0,0.2 0,0.4 0,0.6 -1.6,0 -3.2,0 -4.8,0 0,-0.2 0,-0.4 0,-0.5 0,0 0.1,-0.1 0.1,-0.1 0.7,-0.1 0.7,-0.1 0.7,-0.8 0,-2.4 0,-4.7 0,-7.1 0,-0.2 0,-0.3 0,-0.5 -0.1,-0.7 -0.1,-0.8 -0.8,-0.8 0,-0.1 -0.2,-0.1 -0.3,-0.1 z m 3.9,2.2 c 0,0.6 0,1.2 0,1.7 0,0.3 0.1,0.4 0.4,0.4 0.8,0.1 1.6,-0.3 1.9,-1 0.4,-0.9 0.1,-2.3 -0.8,-2.9 -0.3,-0.2 -0.7,-0.3 -1.1,-0.4 -0.2,-0.1 -0.4,0.1 -0.4,0.3 0,0.7 0,1.3 0,1.9 z"
           inkscape:connector-curvature="0"
           style="fill:#ffffff" />
        <path
           id="path1408"
           d="m 392.1,80.5 c 0,-0.2 0,-0.4 0,-0.5 1,0 2,0 3.1,0 0,0.2 0,0.3 0,0.5 -0.1,0 -0.1,0.1 -0.1,0.1 -0.8,0.1 -0.8,0.1 -0.8,0.9 0,1.5 0,3 0,4.6 0.1,3.8 -2.4,4.7 -5,4.6 -0.6,0 -1.3,-0.2 -1.9,-0.4 -1.3,-0.5 -2,-1.5 -2,-2.9 0,-1.7 0,-3.5 0,-5.2 0,-0.2 0,-0.4 0,-0.6 0,-1 -0.1,-1 -1,-1 -0.1,0 -0.1,0 -0.3,0 0,-0.2 0,-0.4 0,-0.6 1.6,0 3.2,0 4.8,0 0,0.2 0,0.3 0,0.5 0,0 0,0 -0.1,0.1 -0.8,0.1 -0.8,0.1 -0.8,0.8 0,1.8 0,3.5 0,5.3 0,0.5 0.1,1.1 0.2,1.6 0.2,0.9 0.8,1.4 1.7,1.5 1.6,0.2 3.4,-0.3 3.4,-2.7 0.1,-1.8 0,-3.6 0,-5.4 0,-0.9 -0.1,-1 -1,-1 0,-0.2 -0.1,-0.2 -0.2,-0.2 z"
           inkscape:connector-curvature="0"
           style="fill:#ffffff" />
        <path
           id="path1410"
           d="m 405.9,80.5 c 0,-0.2 0,-0.4 0,-0.6 2.8,0 5.6,0 8.4,0 -0.1,0.5 -0.1,1 -0.2,1.5 0,0.1 -0.2,0.3 -0.3,0.3 -0.1,0 -0.3,-0.1 -0.3,-0.3 -0.1,-0.4 -0.3,-0.6 -0.6,-0.6 -0.9,-0.1 -1.9,-0.2 -2.8,-0.3 -0.1,0 -0.3,0.2 -0.3,0.3 0,1.1 0,2.2 0,3.4 0.8,-0.1 1.6,-0.1 2.3,-0.2 0.3,0 0.5,-0.3 0.5,-0.6 0,-0.2 0,-0.3 0,-0.5 0.2,0 0.3,0 0.5,0 0,1 0,1.9 0,2.9 -0.1,0 -0.3,0 -0.5,0 -0.2,-0.9 -0.2,-1 -1.2,-1 -0.6,0 -1.1,0 -1.6,0 0,1.4 0,2.8 0,4.2 0,0.3 0.2,0.4 0.5,0.4 0.8,-0.1 1.6,-0.1 2.4,-0.2 0.6,-0.1 1.3,-0.3 1.6,-0.9 0,-0.1 0.3,-0.1 0.3,-0.1 0.1,0 0.2,0.2 0.1,0.3 -0.1,0.5 -0.2,1 -0.4,1.4 0,0.1 -0.2,0.2 -0.3,0.2 -2.6,0 -5.2,0 -7.8,0 0,0 0,0 -0.1,-0.1 0,-0.2 0,-0.3 0,-0.5 0,0 0.1,-0.1 0.1,-0.1 0.7,-0.1 0.7,-0.1 0.7,-0.8 0,-2.4 0,-4.8 0,-7.3 0,-0.2 0,-0.3 0,-0.5 0,-0.5 -0.2,-0.7 -0.7,-0.7 0.1,0.4 -0.1,0.4 -0.3,0.4 z"
           inkscape:connector-curvature="0"
           style="fill:#ffffff" />
        <path
           id="path1412"
           d="m 440.3,80.5 c 0,-0.2 0,-0.4 0,-0.6 1.6,0 3.2,0 4.8,0 0,0.2 0,0.3 0,0.5 0,0 -0.1,0.1 -0.1,0.1 -0.8,0.1 -0.8,0.1 -0.8,0.9 0,1.7 0,3.5 0,5.2 0,0.5 0.1,1.1 0.2,1.6 0.2,0.9 0.9,1.4 1.8,1.6 1.8,0.2 3.2,-0.7 3.3,-2.6 0.1,-2 0.1,-3.9 0,-5.9 0,-0.7 -0.1,-0.7 -1.3,-0.8 0,-0.2 0,-0.3 0,-0.6 1,0 2,0 3.1,0 0,0.2 0,0.3 0,0.5 -0.1,0 -0.1,0.1 -0.1,0.1 -0.8,0.1 -0.8,0.1 -0.8,0.9 0,1.6 0,3.3 0,4.9 0,2.6 -1.3,4.1 -3.9,4.3 -1,0.1 -2,0 -2.9,-0.3 -1.4,-0.5 -2.1,-1.5 -2.1,-3 0,-1.8 0,-3.7 0,-5.5 0,-0.2 0,-0.4 0,-0.6 0,-0.6 -0.1,-0.7 -0.8,-0.7 0,0 -0.2,0 -0.4,0 z"
           inkscape:connector-curvature="0"
           style="fill:#ffffff" />
        <path
           id="path1414"
           d="m 382.1,80.8 c 0,0 0,0.1 0,0.1 0,0.2 0,0.6 -0.2,0.7 -0.4,0.2 -0.3,-0.3 -0.5,-0.5 -0.2,-0.2 -0.4,-0.5 -0.7,-0.6 -0.8,-0.4 -1.5,-0.3 -2.3,0.1 -0.5,0.3 -0.8,0.7 -0.8,1.3 0,0.6 0.4,1 0.9,1.2 0.4,0.2 0.9,0.3 1.4,0.5 0.5,0.2 0.9,0.4 1.3,0.6 1.2,0.6 1.7,1.6 1.7,2.9 0,1.3 -0.7,2.3 -1.8,2.9 -1.3,0.7 -2.7,0.7 -4.1,0.5 -1.8,-0.4 -1.4,-0.1 -1.8,-1.8 0,-0.2 0.1,-0.3 0.2,-0.5 0.2,0.1 0.4,0.2 0.5,0.3 0.7,1.4 3,1.9 4.2,0.8 1,-0.9 0.8,-2.2 -0.3,-2.8 -0.4,-0.2 -0.9,-0.4 -1.3,-0.5 -0.5,-0.2 -1,-0.4 -1.4,-0.6 -1,-0.5 -1.6,-1.4 -1.6,-2.5 0,-1.2 0.5,-2.1 1.5,-2.6 1.2,-0.7 2.5,-0.8 3.8,-0.6 0,0 0,0 0,0 1.4,0.2 1.2,0 1.3,1.1 z"
           inkscape:connector-curvature="0"
           style="fill:#ffffff" />
        <path
           id="path1416"
           d="m 455.5,90.6 c -0.5,-0.1 -1.3,-0.2 -2.1,-0.4 -0.3,-0.1 -0.5,-0.2 -0.5,-0.5 0,-0.4 -0.2,-0.7 -0.2,-1.1 0,-0.2 0.1,-0.3 0.2,-0.5 0.1,0.1 0.3,0.2 0.4,0.3 0.7,1.3 2.5,1.9 3.8,1.1 0.7,-0.4 1,-0.9 1,-1.7 0,-0.7 -0.4,-1.2 -1.1,-1.5 -0.7,-0.3 -1.5,-0.5 -2.2,-0.8 -0.9,-0.4 -1.7,-1 -1.9,-2.1 -0.3,-1.4 0.2,-2.7 1.6,-3.4 1.4,-0.8 3,-0.8 4.5,-0.4 0.1,0 0.3,0.2 0.3,0.3 0.1,0.4 0.1,0.8 0.1,1.2 0,0.1 -0.1,0.3 -0.2,0.3 -0.1,0 -0.3,-0.1 -0.3,-0.2 -0.6,-1.1 -2,-1.5 -3.1,-0.8 -0.5,0.3 -0.8,0.7 -0.8,1.3 0,0.6 0.4,0.9 0.8,1.2 0.4,0.2 0.9,0.3 1.4,0.5 0.5,0.2 1,0.4 1.4,0.6 2.1,1.2 2.2,4 0.3,5.4 -0.8,1 -1.9,1.2 -3.4,1.2 z"
           inkscape:connector-curvature="0"
           style="fill:#ffffff" />
        <path
           id="path1418"
           d="m 431.8,99.6 c 0,-0.9 0,-1.9 0,-2.8 0,-0.2 0,-0.5 0.3,-0.5 0.8,-0.1 1.7,-0.3 2.5,-0.2 1.6,0.1 2.7,1.3 2.9,3 0.2,1.9 -0.8,3.6 -2.5,3.8 -0.9,0.1 -1.9,-0.1 -2.9,-0.1 -0.1,0 -0.3,-0.3 -0.3,-0.4 0,-0.9 0,-1.8 0,-2.8 z m 1.4,0 c 0,0.7 0,1.4 0,2.1 0,0.4 0.1,0.5 0.5,0.5 0.7,0.1 1.2,-0.2 1.7,-0.7 0.8,-1 0.8,-2.8 0.1,-3.7 -0.5,-0.6 -1,-0.8 -1.8,-0.7 -0.3,0 -0.4,0.2 -0.4,0.5 0,0.6 -0.1,1.3 -0.1,2 z"
           inkscape:connector-curvature="0"
           style="fill:#ffffff" />
        <path
           id="path1420"
           d="m 452,104.1 c 0.2,-0.4 0.6,-0.5 1,-0.4 0,0 0.1,0 0.1,0 0.9,0.3 1.2,0 1.1,-1 -0.5,0.3 -1.1,0.3 -1.6,0 -0.6,-0.3 -0.8,-0.8 -0.9,-1.4 -0.1,-0.8 -0.1,-1.6 0.3,-2.3 0.5,-0.9 1.6,-1.2 2.4,-0.5 0.4,-0.1 0.8,-0.3 1.2,-0.4 0,1 0,1.8 0,2.6 0,0.7 0,1.4 0,2.1 0,1 -0.4,1.7 -1.2,2 -0.7,0.3 -1.8,0 -2.4,-0.7 z m 2.3,-3.5 c 0,-0.3 0,-0.7 -0.1,-1 -0.1,-0.2 -0.3,-0.4 -0.4,-0.5 -0.2,0 -0.5,0.2 -0.5,0.4 -0.1,0.7 -0.1,1.5 0,2.2 0,0.2 0.4,0.4 0.5,0.4 0.2,0 0.4,-0.3 0.4,-0.5 0.1,-0.3 0,-0.6 0.1,-1 z"
           inkscape:connector-curvature="0"
           style="fill:#ffffff" />
        <path
           id="path1422"
           d="m 406.6,102.6 c -0.4,0.4 -0.9,0 -1.4,0.2 0,-2.5 0,-5 0,-7.4 0.4,0 0.8,0 1.3,0 0,1 0,1.9 0,2.8 0.5,-0.1 1,-0.2 1.5,-0.2 0.3,0 0.6,0.1 0.8,0.2 0.9,0.5 1.2,1.6 0.9,2.9 -0.2,1.1 -1,1.8 -2,1.8 -0.3,-0.1 -0.7,-0.2 -1.1,-0.3 z m 1.9,-2.3 c 0,0 0,0 0,0 -0.1,-0.3 -0.1,-0.5 -0.1,-0.8 0,-0.2 -0.1,-0.3 -0.1,-0.5 -0.2,-0.6 -0.5,-0.9 -0.9,-0.8 -0.5,0 -0.8,0.5 -0.8,1.1 0,0.8 0,1.6 0,2.3 0,0.5 0.2,0.8 0.7,0.9 0.5,0.1 0.8,-0.2 1,-0.6 0.1,-0.5 0.1,-1 0.2,-1.6 z"
           inkscape:connector-curvature="0"
           style="fill:#ffffff" />
        <path
           id="path1424"
           d="m 449,98.2 c 1.4,0 2.3,1 2.3,2.4 0,1.4 -1,2.5 -2.3,2.4 -1.3,0 -2.3,-1 -2.2,-2.4 -0.1,-1.4 0.8,-2.4 2.2,-2.4 z m -0.9,2.4 c 0,0.3 0.1,0.6 0.2,0.8 0.1,0.4 0.3,0.6 0.7,0.6 0.4,0 0.7,-0.2 0.7,-0.6 0.1,-0.6 0.1,-1.2 0,-1.7 0,-0.4 -0.3,-0.6 -0.7,-0.6 -0.4,0 -0.6,0.2 -0.7,0.6 -0.2,0.3 -0.2,0.6 -0.2,0.9 z"
           inkscape:connector-curvature="0"
           style="fill:#ffffff" />
        <path
           id="path1426"
           d="m 442.8,102.5 c -0.7,0.6 -1.6,0.7 -2.3,0.3 -0.4,-0.3 -0.6,-0.9 -0.4,-1.5 0.2,-0.7 1.2,-1.2 2.2,-1.1 0.1,0.4 0,0.6 -0.4,0.8 -0.1,0.1 -0.3,0.1 -0.3,0.2 -0.1,0.2 -0.2,0.5 -0.1,0.7 0,0.1 0.4,0.3 0.5,0.2 0.2,-0.1 0.5,-0.3 0.5,-0.4 0.1,-0.7 0,-1.4 0,-2.1 0,-0.4 -0.3,-0.5 -0.6,-0.5 -0.2,0 -0.4,0.1 -0.6,0.1 -0.6,0.2 -0.7,0.2 -1.1,-0.3 0.7,-0.7 2.1,-1 2.9,-0.6 0.5,0.3 0.8,0.7 0.8,1.3 0,0.8 -0.1,1.6 0.2,2.5 0.2,0.4 -0.2,0.6 -0.5,0.8 -0.4,0.3 -0.5,-0.2 -0.8,-0.4 z"
           inkscape:connector-curvature="0"
           style="fill:#ffffff" />
        <path
           id="path1428"
           d="m 401.6,98.1 c -0.2,1 -0.3,2 -0.5,3 0,0.1 0,0.3 0,0.4 0,0.6 0.3,1 0.8,1 0.6,0 1,-0.4 1,-1 0,-1 0,-2 0,-2.9 0,-0.1 0,-0.2 0,-0.3 0.4,0 0.8,0 1.3,0 0,1.5 0,3 0,4.6 -0.4,0 -0.8,0 -1.3,0 0,-0.1 0,-0.3 -0.1,-0.5 -0.5,0.5 -1.1,0.7 -1.8,0.6 -0.8,-0.1 -1.4,-0.7 -1.3,-1.5 0.1,-1 0.3,-2 0.5,-3 0,-0.1 0.2,-0.2 0.3,-0.2 0.4,-0.2 0.8,-0.2 1.1,-0.2 z"
           inkscape:connector-curvature="0"
           style="fill:#ffffff" />
        <path
           id="path1430"
           d="m 421.8,102.3 c 0.1,0.1 0.2,0.2 0.4,0.2 0.4,0.1 0.9,0.2 1.3,0.1 0.5,-0.1 0.7,-0.6 0.5,-1.1 -0.2,-0.4 -0.5,-0.7 -0.7,-1.1 -0.4,-0.5 -0.8,-0.9 -1.2,-1.3 -0.4,-0.6 -0.7,-1.2 -0.4,-1.9 0.4,-0.7 1.1,-0.9 1.8,-0.9 0.4,0 0.8,0.2 1.2,0.3 0,0.1 0,0.2 -0.1,0.2 -0.2,-0.1 -0.3,-0.1 -0.5,-0.2 -0.4,-0.1 -0.9,-0.2 -1.2,0.2 -0.3,0.4 -0.2,0.9 0.1,1.2 0.4,0.5 0.9,1 1.4,1.5 0.4,0.5 0.8,1 0.7,1.7 -0.1,0.4 -0.2,0.8 -0.5,1 -0.6,0.7 -2,0.8 -2.7,0.4 -0.1,-0.1 -0.2,-0.2 -0.3,-0.2 0.1,-0.1 0.1,-0.1 0.2,-0.1 z"
           inkscape:connector-curvature="0"
           style="fill:#ffffff" />
        <path
           id="path1432"
           d="m 411.9,95.4 c 0,2.5 0,4.9 0,7.3 -0.4,0 -0.9,0 -1.3,0 0,-2.5 0,-4.9 0,-7.3 0.4,0 0.8,0 1.3,0 z"
           inkscape:connector-curvature="0"
           style="fill:#ffffff" />
        <path
           id="path1434"
           d="m 444.7,96.2 c 0.8,-0.1 1.4,0.3 1.4,0.9 0,2 0,3.9 0,5.9 -0.8,0.2 -1.4,-0.3 -1.4,-1.1 0,-1.1 0,-2.3 0,-3.4 0,-0.8 0,-1.6 0,-2.3 z"
           inkscape:connector-curvature="0"
           style="fill:#ffffff" />
        <path
           id="path1436"
           d="m 423.2,62.9 c -0.2,-0.6 -0.7,-0.9 -1.1,-1.2 -0.3,-0.2 -0.7,-0.5 -0.8,-0.9 -0.2,-0.5 -0.4,-0.9 -0.9,-1.1 0.2,0 0.4,0.1 0.7,0.1 0.2,-0.6 0.4,-1.2 0.5,-1.8 0.1,-0.6 -0.1,-0.8 -0.8,-0.7 -0.2,0 -0.6,0.2 -0.7,-0.1 0,-0.2 0.2,-0.6 0.4,-0.7 0.6,-0.4 1.4,-0.4 2,-0.1 0.6,0.3 0.8,0.7 0.7,1.3 0,0.5 -0.1,1.1 -0.1,1.6 0,0.4 0.1,0.7 0.6,0.8 0.2,-0.8 0.4,-1.7 0.6,-2.5 0,0 0.1,0 0.1,0 0.2,1.2 0.4,2.4 0.6,3.6 -0.5,-0.2 -0.9,-0.4 -1.3,-0.6 -0.7,-0.3 -0.9,-0.7 -0.9,-1.5 0,-0.4 0.1,-0.9 0.1,-1.3 0,-1 -0.4,-1.4 -1.5,-1.4 0.1,0.1 0.2,0.2 0.3,0.2 0.5,0.3 0.6,0.7 0.4,1.2 -0.2,0.4 -0.4,0.9 -0.5,1.3 -0.5,1.2 -0.3,1.7 0.7,2.5 0.7,0.2 1.1,0.6 0.9,1.3 z M 420.3,57 c 0.4,0 0.8,0 1.2,0 -0.4,-0.4 -0.7,-0.4 -1.2,0 z"
           inkscape:connector-curvature="0"
           style="fill:#ffffff" />
        <path
           id="path1438"
           d="m 435.1,60.5 c -0.2,0.1 -0.5,0.2 -0.7,0.3 0.3,-0.6 0.6,-0.7 1.4,-0.3 -0.2,-0.4 -0.5,-0.5 -0.9,-0.5 -0.5,0.1 -0.9,0.4 -1,0.9 -0.1,0.3 -0.1,0.7 -0.2,1 -0.2,1.1 -0.6,1.4 -1.7,1.1 -0.5,-0.2 -0.9,0.1 -1.2,0.4 -0.2,0.2 -0.5,0.4 -0.7,0.5 0.5,-0.8 0.9,-1.6 2,-1.8 0.8,-0.1 1,-0.9 1.2,-1.5 0.2,-0.1 0.4,-0.2 0.5,-0.3 0.7,-0.7 1.6,-0.7 2.2,0 0.1,0.2 0.2,0.4 0.3,0.5 -0.5,0.2 -1.1,0.2 -1.3,0.5 -0.3,0.5 -0.3,1.2 -0.5,1.9 0.5,0 0.9,0 1.3,0 0,0 0,0.1 0,0.1 -1.4,0.6 -2.9,1.3 -4.3,1.9 0,0 -0.1,-0.1 -0.1,-0.1 0.2,-0.2 0.3,-0.4 0.5,-0.5 0.3,-0.2 0.7,-0.3 1.1,-0.4 0.8,-0.2 1.2,-0.8 1.3,-1.6 0,-0.3 0,-0.7 0.1,-1 0.2,-0.4 0.5,-0.7 0.7,-1.1 z m -2.9,2.1 c 0.2,0.1 0.3,0.1 0.5,0.2 0.1,0 0.3,0 0.4,-0.1 0.2,-0.4 0.3,-0.7 0.4,-1.1 -0.4,0.3 -0.9,0.6 -1.3,1 z"
           inkscape:connector-curvature="0"
           style="fill:#ffffff" />
        <path
           id="path1440"
           d="m 418.5,98.4 c -0.1,0 -0.2,0 -0.3,-0.1 -0.8,-0.3 -1.4,0 -1.5,0.9 -0.1,0.8 -0.1,1.6 0,2.3 0.2,1 0.8,1.2 1.7,0.9 0.1,0 0.2,0 0.3,-0.1 -0.3,0.6 -1.7,0.7 -2.6,0.3 -1.1,-0.6 -1.5,-2.5 -0.7,-3.6 0.7,-1.1 2.2,-1.4 3.1,-0.6 z"
           inkscape:connector-curvature="0"
           style="fill:#ffffff" />
        <path
           id="path1442"
           d="m 420.7,98.1 c 0,1.5 0,3 0,4.6 -0.4,0 -0.9,0 -1.3,0 0,-1.5 0,-3 0,-4.6 0.4,0 0.9,0 1.3,0 z"
           inkscape:connector-curvature="0"
           style="fill:#ffffff" />
        <path
           id="path1444"
           d="m 412.9,98.1 c 0.4,0 0.8,0 1.3,0 0,1.5 0,3.1 0,4.6 -0.4,0 -0.8,0 -1.3,0 0,-1.5 0,-3 0,-4.6 z"
           inkscape:connector-curvature="0"
           style="fill:#ffffff" />
        <path
           id="path1446"
           d="m 439.6,103 c -1,0 -1.3,-0.3 -1.4,-1.2 0,-0.9 0,-1.9 0,-2.8 0,-0.6 0.3,-0.8 0.7,-0.8 0.4,0 0.6,0.3 0.6,0.8 0.1,1.3 0.1,2.7 0.1,4 z"
           inkscape:connector-curvature="0"
           style="fill:#ffffff" />
        <path
           id="path1448"
           d="m 432.2,59.8 c 0.3,-0.1 0.6,-0.3 1,-0.5 -1,1.4 -2,2.9 -3.3,4.1 0.6,-0.5 0.8,-1.2 0.9,-2 0.1,-0.4 0.4,-0.8 0.7,-1.2 0.5,-0.6 0.7,-1.2 0.7,-1.9 0,-0.6 -0.3,-1 -1,-1.2 0.1,0.1 0.2,0.2 0.2,0.4 0.3,0.6 0.3,1 -0.3,1.4 -0.3,0.2 -0.6,0.3 -0.9,0.4 -0.5,0.2 -0.8,0.6 -0.9,1.1 0,0.2 -0.1,0.4 -0.1,0.6 0,1 -0.7,1.4 -1.5,1.6 0.1,-0.1 0.3,-0.3 0.4,-0.4 0.5,-0.4 0.8,-0.9 0.8,-1.5 0,-0.5 0.2,-0.9 0.6,-1.3 0.2,-0.1 0.2,-0.5 0.2,-0.8 0.1,0.2 0.1,0.3 0.2,0.6 0.3,-0.1 0.5,-0.2 0.7,-0.3 0.6,-0.3 0.7,-0.7 0.3,-1.3 -0.1,-0.1 -0.1,-0.1 -0.2,-0.2 -0.1,-0.1 -0.1,-0.3 -0.1,-0.4 0.1,-0.1 0.3,-0.1 0.4,-0.1 0.5,0 1.1,0.5 1.2,1.1 0.1,0.6 0,1.2 0,1.8 z"
           inkscape:connector-curvature="0"
           style="fill:#ffffff" />
        <path
           id="path1450"
           d="m 429.3,99.5 c 0,0.5 -0.4,0.9 -0.9,0.9 -0.5,0 -0.9,-0.4 -0.9,-0.9 0,-0.5 0.4,-0.9 0.9,-0.9 0.5,0 0.9,0.4 0.9,0.9 z"
           inkscape:connector-curvature="0"
           style="fill:#ffffff" />
        <path
           id="path1452"
           d="m 420.8,96.7 c 0,0.4 -0.3,0.7 -0.7,0.7 -0.4,0 -0.7,-0.3 -0.7,-0.7 0,-0.4 0.3,-0.7 0.7,-0.8 0.4,0 0.7,0.3 0.7,0.8 z"
           inkscape:connector-curvature="0"
           style="fill:#ffffff" />
        <path
           id="path1454"
           d="m 414.3,96.7 c 0,0.4 -0.3,0.7 -0.7,0.7 -0.4,0 -0.7,-0.3 -0.7,-0.7 0,-0.4 0.3,-0.7 0.7,-0.8 0.4,0 0.7,0.3 0.7,0.8 z"
           inkscape:connector-curvature="0"
           style="fill:#ffffff" />
        <path
           id="path1456"
           d="m 439.6,96.9 c 0,0.4 -0.3,0.7 -0.7,0.7 -0.4,0 -0.7,-0.3 -0.7,-0.7 0,-0.4 0.3,-0.7 0.7,-0.7 0.4,0 0.7,0.3 0.7,0.7 z"
           inkscape:connector-curvature="0"
           style="fill:#ffffff" />
        <path
           id="path1458"
           d="m 427.1,65.8 c -0.1,-0.4 -0.2,-0.9 0.2,-1.1 0.6,-0.4 1,0.1 1.4,0.3 -0.3,0.4 -0.6,0.5 -1.6,0.8 z"
           inkscape:connector-curvature="0"
           style="fill:#ffffff" />
        <path
           id="path1460"
           d="m 420.1,61.9 c 0.1,0.1 0.3,0.3 0.4,0.5 0.1,0.2 0.1,0.4 0.2,0.6 0.2,0.8 0.4,0.9 1.2,1 0,0 0,0.1 0.1,0.1 -0.3,0.1 -0.5,0.3 -0.7,0.2 -0.3,-0.1 -0.6,-0.3 -0.8,-0.6 -0.1,-0.2 -0.1,-0.5 -0.1,-0.8 -0.2,-0.3 -0.2,-0.6 -0.3,-1 z"
           inkscape:connector-curvature="0"
           style="fill:#ffffff" />
        <path
           id="path1462"
           d="m 423.1,65 c 0.4,-0.2 0.8,-0.7 1.4,-0.3 0.4,0.3 0.3,0.7 0.2,1.2 -0.6,-0.2 -1.1,-0.4 -1.6,-0.6 -0.1,-0.2 -0.1,-0.2 0,-0.3 z"
           inkscape:connector-curvature="0"
           style="fill:#ffffff" />
        <path
           id="path1464"
           d="m 429.2,63.1 c 0.1,-0.4 0.4,-0.8 0.4,-1.2 0,-1 0.3,-1.8 1.3,-2.2 0.2,-0.1 0.3,-0.2 0.5,-0.3 -0.1,0.1 -0.3,0.3 -0.4,0.4 -0.6,0.4 -1,1 -1,1.8 0,0.5 0,1 -0.6,1.3 -0.1,0.2 -0.2,0.2 -0.2,0.2 z"
           inkscape:connector-curvature="0"
           style="fill:#ffffff" />
        <path
           id="path1466"
           d="m 425,62.3 c -0.3,-0.2 -0.7,-0.5 -1,-0.7 -0.4,-0.2 -0.9,-0.3 -1.3,-0.5 -0.5,-0.3 -0.6,-0.6 -0.3,-1.2 0.1,0.7 0.5,1 1.1,1.2 0.4,0.1 0.7,0.2 1.1,0.4 0.3,0.1 0.5,0.4 0.4,0.8 z"
           inkscape:connector-curvature="0"
           style="fill:#ffffff" />
        <path
           id="path1468"
           d="m 424.2,63.4 c -0.2,0.2 -0.4,0.4 -0.6,0.6 0.8,0 1.5,0 2.2,0 -0.2,0.5 -0.4,0.5 -0.7,0.4 -0.6,-0.3 -1.1,-0.2 -1.6,0.1 -0.3,0.2 -0.6,0.1 -0.7,-0.2 0.5,-0.4 0.9,-0.7 1.4,-0.9 -0.1,0 0,0 0,0 z"
           inkscape:connector-curvature="0"
           style="fill:#ffffff" />
        <path
           id="path1470"
           d="m 429.2,64.3 c -0.2,0 -0.5,0.2 -0.6,0.1 -0.5,-0.3 -1,-0.2 -1.5,0 -0.2,0.1 -0.6,-0.1 -0.7,-0.2 -0.2,-0.3 -0.1,-0.6 0.2,-0.7 0.1,0.2 0.1,0.6 0.3,0.7 0.1,0.1 0.5,0 0.7,-0.1 0.4,-0.2 0.7,-0.3 1.1,0 0.1,0.1 0.3,0.1 0.5,0.1 -0.1,0 -0.1,0 0,0.1 z"
           inkscape:connector-curvature="0"
           style="fill:#ffffff" />
        <path
           id="path1472"
           d="m 434,63 c -0.7,1 -2,0.6 -2.9,1.4 0.3,-0.6 0.6,-0.7 1.5,-0.9 0.4,-0.1 0.8,-0.3 1.3,-0.5 0,-0.1 0,-0.1 0.1,0 0,-0.1 0,-0.1 0,0 z"
           inkscape:connector-curvature="0"
           style="fill:#ffffff" />
        <path
           id="path1474"
           d="m 430.3,65.9 c -0.4,0 -0.9,0 -1.3,0.1 0.3,-0.4 0.8,-0.4 1.3,-0.1 z"
           inkscape:connector-curvature="0"
           style="fill:#ffffff" />
      </g>
    </g>
  </g>
</svg>
