<?xml version="1.0" encoding="UTF-8" standalone="no"?>
<!-- Created with Inkscape (http://www.inkscape.org/) -->

<svg
   xmlns:dc="http://purl.org/dc/elements/1.1/"
   xmlns:cc="http://creativecommons.org/ns#"
   xmlns:rdf="http://www.w3.org/1999/02/22-rdf-syntax-ns#"
   xmlns:svg="http://www.w3.org/2000/svg"
   xmlns="http://www.w3.org/2000/svg"
   xmlns:sodipodi="http://sodipodi.sourceforge.net/DTD/sodipodi-0.dtd"
   xmlns:inkscape="http://www.inkscape.org/namespaces/inkscape"
   width="178.93358mm"
   height="90.840378mm"
   viewBox="0 0 178.93358 90.840378"
   version="1.1"
   id="svg6398"
   inkscape:version="0.92.3 (2405546, 2018-03-11)"
   sodipodi:docname="1.svg">
  <defs
     id="defs6392" />
  <sodipodi:namedview
     id="base"
     pagecolor="#ffffff"
     bordercolor="#666666"
     borderopacity="1.0"
     inkscape:pageopacity="0.0"
     inkscape:pageshadow="2"
     inkscape:zoom="0.49497475"
     inkscape:cx="386.68765"
     inkscape:cy="222.81947"
     inkscape:document-units="mm"
     inkscape:current-layer="layer1"
     showgrid="false"
     inkscape:window-width="1245"
     inkscape:window-height="1019"
     inkscape:window-x="675"
     inkscape:window-y="24"
     inkscape:window-maximized="0"
     fit-margin-top="0"
     fit-margin-left="0"
     fit-margin-right="0"
     fit-margin-bottom="0" />
  <metadata
     id="metadata6395">
    <rdf:RDF>
      <cc:Work
         rdf:about="">
        <dc:format>image/svg+xml</dc:format>
        <dc:type
           rdf:resource="http://purl.org/dc/dcmitype/StillImage" />
        <dc:title></dc:title>
      </cc:Work>
    </rdf:RDF>
  </metadata>
  <g
     inkscape:label="Layer 1"
     inkscape:groupmode="layer"
     id="layer1"
     transform="translate(-15.390517,-89.404396)">
    <g
       transform="matrix(6.8943363,0,0,6.8943363,-563.06443,-696.32368)"
       id="layer1-1"
       inkscape:label="Layer 1"
       style="fill:#ffffff">
      <g
         id="g1484"
         transform="matrix(0.26458333,0,0,0.26458333,-54.313225,96.719862)"
         style="fill:#ffffff">
        <path
           id="path1478"
           d="m 525.9,77.9 c 0.2,-0.7 0.3,-1.4 0.5,-2.1 1.2,-3.7 3.8,-6 7.4,-7.4 1.5,-0.6 3.1,-0.8 4.7,-0.8 21.8,0 43.6,0 65.4,0 4.5,0 8.1,1.9 10.6,5.7 2.7,4.1 2.1,9.5 -1.4,13 -2.6,2.6 -5.8,3.9 -9.4,3.9 -8.1,0 -16.2,0 -24.3,0 -0.2,0 -0.3,0 -0.6,0 0,4.7 0,9.3 0,14 0,0 -0.1,0 -0.1,0 -0.1,-0.1 -0.2,-0.2 -0.3,-0.3 -3.8,-4.5 -7.6,-9 -11.4,-13.5 -0.2,-0.2 -0.4,-0.2 -0.6,-0.2 -9.4,0 -18.8,0 -28.2,0 -4.4,0 -8,-1.8 -10.6,-5.5 -1,-1.4 -1.5,-2.9 -1.7,-4.6 0,-0.1 0,-0.1 -0.1,-0.2 0.1,-0.6 0.1,-1.3 0.1,-2 z m 32.2,-1.6 c 0,0.1 0,0.1 -0.1,0.2 -0.6,1.5 -0.7,3 -0.2,4.5 0.5,1.8 1.9,2.7 3.8,2.7 1.8,0 3.2,-1 3.7,-2.8 0.4,-1.3 0.4,-2.6 0,-3.9 -0.5,-1.8 -1.9,-2.9 -3.9,-2.9 -1.3,0 -2.5,0.2 -3.8,0.3 -0.7,0.1 -0.7,0.1 -0.7,0.8 0,0.9 0,0.9 0.9,0.9 0.2,0.1 0.2,0.1 0.3,0.2 z m -8.5,1.9 c -0.1,-0.9 -0.1,-1.7 -0.2,-2.5 -0.1,-0.7 -0.5,-1.1 -1.2,-1.3 -0.9,-0.2 -1.8,-0.1 -2.7,0.2 -0.2,0.1 -0.3,0.2 -0.2,0.4 0.1,0.4 0.2,0.7 0.3,1.1 0.1,0.3 0.2,0.4 0.5,0.3 0.6,-0.2 0.9,0 0.9,0.7 0,0.8 0,1.7 0,2.5 0,0.4 -0.1,0.9 -0.2,1.3 -0.2,0.7 -0.6,1.1 -1.3,1.1 -0.7,0 -1.2,-0.3 -1.3,-1.1 -0.1,-0.5 -0.2,-1.1 -0.2,-1.6 -0.1,-1 0,-2 -0.1,-2.9 -0.1,-0.6 -0.3,-1.2 -0.5,-1.7 -0.1,-0.3 -0.3,-0.4 -0.7,-0.3 -0.4,0.2 -0.9,0.3 -1.3,0.4 -0.3,0.1 -0.3,0.2 -0.3,0.5 0.1,0.4 0.2,0.9 0.3,1.3 0.1,0.9 0,1.9 0.1,2.8 0,1.3 0.4,2.5 1.4,3.4 2.2,2 5.7,0.9 6.5,-1.9 0.1,-1 0.1,-1.9 0.2,-2.7 z m 4.1,3.3 c -0.2,0 -0.3,0 -0.4,0 -0.8,0 -1.7,0 -2.5,0 -0.3,0 -0.4,0.1 -0.4,0.4 0,0.4 0,0.8 0,1.2 0,0.2 0.1,0.3 0.3,0.3 1.4,0 2.8,0 4.2,0 0.1,0 0.3,-0.1 0.4,-0.2 0.3,-0.8 0.9,-1.5 0.6,-2.4 -0.1,-0.2 0,-0.3 0,-0.5 0,-1.1 0,-2.2 -0.1,-3.2 -0.1,-0.9 -0.3,-1.9 -1.2,-2.4 -1.2,-0.6 -2.5,-0.5 -3.7,-0.1 -0.2,0.1 -0.3,0.2 -0.2,0.4 0.1,0.3 0.2,0.6 0.2,0.8 0.2,0.7 0.2,0.7 0.8,0.5 1.1,-0.3 1.6,0 1.7,1.2 0,0 0,0.1 0,0.1 0.1,1.3 -0.1,2.6 0.3,3.9 z M 567.8,76 c 0,0.2 0,0.3 0,0.4 0,0.9 0,1.7 0,2.6 0,0.4 0.1,0.5 0.5,0.5 0.5,0 1,0 1.5,0 0.8,0 0.8,0 0.8,-0.8 0,-0.2 -0.1,-0.3 -0.3,-0.3 -0.3,0 -0.6,0 -1,0 0,-0.9 0,-1.7 0,-2.5 0.2,0 0.3,-0.1 0.4,-0.1 0.5,0 0.9,-0.1 1.4,-0.1 0.8,0 1.2,0.3 1.4,1 0.1,0.5 0.2,1 0.2,1.5 0,2 0,4 0,6 0,0.8 0.1,1.6 0.5,2.3 0.3,0.4 0.4,0.5 0.8,0.2 0.2,-0.1 0.3,-0.2 0.5,-0.2 0.3,-0.1 0.3,-0.3 0.2,-0.6 -0.3,-0.5 -0.4,-1.1 -0.4,-1.8 0,-1.7 0,-3.4 0,-5.1 0,-1 -0.1,-1.9 -0.5,-2.8 -0.5,-1 -1.3,-1.7 -2.4,-1.7 -1.3,0 -2.7,0.1 -4,0.2 -0.1,0 -0.2,0.1 -0.2,0.2 -0.3,0.8 -0.2,1 0.6,1.1 z m -27.7,3.9 c 0,0 0,0 0,0 0,-1 0,-2.1 0,-3.1 0,-1.3 -0.8,-2.2 -2.1,-2.5 -1.1,-0.3 -2.2,-0.1 -3.3,0 -0.5,0.1 -1.1,0.2 -1.6,0.4 -0.3,0.1 -0.5,0.3 -0.3,0.6 0.1,0.2 0.2,0.5 0.3,0.7 0.1,0.4 0.3,0.5 0.6,0.4 0.8,-0.2 1.7,-0.4 2.5,-0.5 1.1,-0.1 1.5,0.4 1.5,1.5 0,1.8 0,3.6 0,5.4 0,0.3 0.1,0.5 0.4,0.5 0.4,0 0.8,0 1.2,0 0.6,0 0.6,0 0.6,-0.6 0.2,-0.8 0.2,-1.8 0.2,-2.8 z m 40.5,2.2 c -0.2,0.3 -0.3,0.6 -0.4,0.9 -0.2,0.4 -0.1,0.5 0.3,0.6 0.1,0 0.2,0 0.3,0 1,0.1 1.6,-0.5 2.1,-1.3 0.1,-0.2 0.2,-0.4 0.3,-0.5 0.1,0.5 0.3,0.9 0.4,1.3 0.2,0.6 0.3,0.6 0.8,0.3 0.1,-0.1 0.2,-0.1 0.3,-0.2 0.3,-0.1 0.3,-0.3 0.2,-0.6 -0.3,-0.5 -0.4,-1.1 -0.4,-1.7 0,-0.6 0,-1.2 0,-1.8 0,-0.9 0,-1.7 -0.1,-2.6 -0.1,-1.1 -0.7,-1.7 -1.6,-2 -0.6,-0.2 -1.3,-0.1 -1.9,0.1 -0.7,0.2 -0.7,0.3 -0.4,1 0.2,0.5 0.2,0.5 0.7,0.3 1,-0.5 1.8,-0.1 1.9,1 0.1,1.3 0,2.5 0,3.8 0,0.1 0,0.2 -0.1,0.3 -0.3,0.3 -0.5,0.6 -0.8,0.8 -0.6,0.5 -1,0.7 -1.6,0.3 z m 8.4,0.1 c -0.6,0 -1.3,0 -2,0 -1,0 -0.8,-0.2 -0.8,0.8 0,0.3 0.1,0.4 0.4,0.4 1.1,0 2.2,0 3.3,0 0.1,0 0.3,0 0.3,-0.1 0.1,-0.4 0.3,-0.8 0.3,-1.1 0,-0.7 -0.2,-1.4 -0.2,-2.1 0,-1.3 0,-2.6 0,-3.8 0,-1 -0.5,-1.6 -1.6,-1.7 -0.5,-0.1 -1.1,0 -1.7,0.1 -0.9,0.2 -0.9,0.4 -0.5,1.1 0.1,0.3 0.3,0.3 0.5,0.2 0.2,-0.1 0.4,-0.2 0.6,-0.2 0.8,-0.2 1.2,0 1.2,0.9 0,1.1 0,2.3 0,3.4 0.1,0.7 0.1,1.4 0.2,2.1 z m 17.1,-6.3 c -0.1,0.5 -0.2,1 -0.2,1.5 0,1.7 0,3.4 0,5 0,1.2 -0.1,0.9 1,1 0.4,0 0.5,-0.1 0.5,-0.5 0,-1.8 0,-3.6 0,-5.4 0,-0.4 0.2,-0.9 0.3,-1.3 0.1,-0.3 0.3,-0.4 0.5,-0.3 0.2,0 0.4,0 0.5,-0.1 0.2,-0.3 0.2,-0.6 0.3,-0.9 -0.2,0 -0.4,0 -0.5,0 -1.9,0 -3.8,0 -5.7,0 -0.8,0 -0.7,-0.1 -0.7,0.7 0,0.3 0.1,0.4 0.4,0.4 1.1,0 2.3,0 3.4,0 0,-0.1 0.1,-0.1 0.2,-0.1 z m -12.5,0 c -0.1,0.7 -0.3,1.3 -0.3,1.9 -0.1,0.6 0,1.3 0,1.9 0,0.9 0,1.8 0,2.7 0,1.1 -0.2,1 1,1 0.3,0 0.4,-0.1 0.4,-0.4 0,-1.6 0,-3.2 0,-4.9 0,-0.7 0,-1.4 0.5,-2 0.1,-0.1 0.2,-0.2 0.4,-0.2 0.6,0 0.6,0 0.6,-0.6 0,0 0,-0.1 0,-0.1 0.1,-0.3 -0.1,-0.5 -0.4,-0.5 -1.2,0 -2.4,0 -3.7,0 -0.1,0 -0.2,0 -0.4,0 0,0.4 0,0.7 0,1.1 0.6,0.1 1.2,0.1 1.9,0.1 z m -16.8,0 c 0,0.2 0,0.3 0,0.5 0,2 0,4 0,6 0,1.2 -0.2,1 1,1 0.3,0 0.4,-0.1 0.4,-0.4 0,-2.6 0,-5.2 0,-7.9 0,-0.3 -0.1,-0.4 -0.4,-0.4 -0.7,0 -1.3,0 -2,0 -0.8,0 -0.7,-0.1 -0.7,0.8 0,0.3 0.1,0.4 0.4,0.4 0.4,0 0.9,0 1.3,0 z m 22.4,0 c 0,0.1 0,0.2 0,0.3 0,1 0,1.9 0,2.9 0,0.3 0.1,0.4 0.4,0.3 0.2,-0.1 0.5,-0.1 0.7,-0.2 0.3,0 0.4,-0.2 0.4,-0.5 0,-1.2 0,-2.4 0,-3.5 0,-0.3 -0.1,-0.4 -0.4,-0.4 -0.7,0 -1.3,0 -2,0 -0.8,0 -0.7,-0.1 -0.7,0.8 0,0.3 0.1,0.4 0.4,0.4 0.3,-0.1 0.7,-0.1 1.2,-0.1 z"
           inkscape:connector-curvature="0"
           style="fill:#ffffff" />
        <path
           id="path1480"
           d="m 585.3,110.9 c 0.1,2 -1.5,3.9 -4,4 -2.4,0 -4.1,-1.8 -4.1,-3.9 0,-2.1 1.7,-3.9 3.8,-4 2.6,-0.1 4.4,2 4.3,3.9 z"
           inkscape:connector-curvature="0"
           style="fill:#ffffff" />
        <path
           id="path1482"
           d="m 563.2,79 c -0.1,0.7 -0.2,1.3 -0.3,1.9 -0.2,0.7 -0.6,1 -1.3,1 -0.6,0 -1.1,-0.3 -1.3,-1 -0.4,-1.3 -0.4,-2.6 0,-3.9 0.2,-0.7 0.6,-1 1.3,-1 0.6,0 1.1,0.3 1.3,1 0.1,0.7 0.2,1.3 0.3,2 z"
           inkscape:connector-curvature="0"
           style="fill:#ffffff" />
      </g>
    </g>
  </g>
</svg>
