<svg xmlns="http://www.w3.org/2000/svg" width="18" height="20" viewBox="0 0 18 20"><g><g><path d="M17.994 4.405V17.6a2.4 2.4 0 0 1-2.4 2.4H2.4A2.4 2.4 0 0 1 0 17.6V4.405a2.4 2.4 0 0 1 2.4-2.4h2.4v-.599a.6.6 0 1 1 1.199 0v.6h5.998v-.6a.6.6 0 1 1 1.2 0v.6h2.399a2.4 2.4 0 0 1 2.399 2.399zm-1.2 2.4H1.199V17.6a1.2 1.2 0 0 0 1.2 1.2h13.195a1.2 1.2 0 0 0 1.2-1.2zm0-2.4a1.2 1.2 0 0 0-1.2-1.2h-2.399v.6a.6.6 0 1 1-1.2 0v-.6H5.999v.6a.6.6 0 1 1-1.2 0v-.6H2.4a1.2 1.2 0 0 0-1.2 1.2v1.2h15.595z"/></g></g></svg>