<?xml version="1.0" encoding="utf-8"?>
<!-- Generator: Adobe Illustrator 24.0.2, SVG Export Plug-In . SVG Version: 6.00 Build 0)  -->
<svg version="1.1" xmlns="http://www.w3.org/2000/svg" xmlns:xlink="http://www.w3.org/1999/xlink" x="0px" y="0px"
	 viewBox="0 0 1465.3 137.1" style="enable-background:new 0 0 1465.3 137.1;" xml:space="preserve">
<style type="text/css">
	.st0{fill:#A1A1A1;}
</style>
<g id="logo">
	<title>amdocswhite</title>
	<g>
		<path class="st0" d="M1025.7,49.1h-24.3l2.4,8.3h21.9c2.3,0,4.2,1.9,4.2,4.2v4.2h-20.7c-6.9,0-12.4,5.6-12.4,12.4
			s5.6,12.4,12.4,12.4h16.6c6.9,0,12.4-5.6,12.4-12.5c0,0,0,0,0,0V61.5C1038.1,54.7,1032.6,49.1,1025.7,49.1z M1029.9,78.1
			c0,2.3-1.8,4.1-4.1,4.2h-16.6c-2.3-0.1-4-2.1-3.9-4.4c0.1-2.1,1.8-3.8,3.9-3.9h20.7V78.1z"/>
		<polygon class="st0" points="1050,65.7 1042.5,65.7 1042.5,74 1052.4,74 		"/>
		<path class="st0" d="M1080.2,78.2h-3.6v-2c-1.2,1.6-3.2,2.5-5.2,2.4c-4.6,0-8.3-3.8-8.3-8.4c0-0.1,0-0.2,0-0.4
			c-0.2-4.6,3.3-8.5,7.9-8.7c0.1,0,0.2,0,0.4,0c2-0.1,4,0.8,5.2,2.4v-2h3.6L1080.2,78.2z M1066.8,69.9c-0.2,2.8,1.8,5.2,4.6,5.4
			c2.8,0.2,5.2-1.8,5.4-4.6c0-0.3,0-0.5,0-0.8c0.2-2.8-1.8-5.2-4.6-5.4s-5.2,1.8-5.4,4.6C1066.8,69.3,1066.8,69.6,1066.8,69.9z"/>
		<path class="st0" d="M1111.4,67.7v10.4h-3.6v-9.2c0-2.8-1.4-4.4-3.9-4.4c-2.3-0.1-4.2,1.6-4.3,3.9c0,0.2,0,0.3,0,0.5v9.2h-3.6
			v-9.3c0-2.8-1.4-4.4-3.9-4.4c-2.3-0.1-4.2,1.7-4.3,3.9c0,0.2,0,0.3,0,0.5v9.2h-3.6V61.6h3.6v2c1.2-1.6,3.1-2.6,5.1-2.5
			c2.3-0.1,4.5,1,5.7,3c1.3-2,3.7-3.1,6.1-3c3.5-0.2,6.5,2.5,6.7,6C1111.4,67.4,1111.4,67.5,1111.4,67.7z"/>
		<path class="st0" d="M1152.8,69.9c0.1,4.9-3.8,9-8.7,9.1c-4.9,0.1-9-3.8-9.1-8.7c-0.1-4.9,3.8-9,8.7-9.1c0.1,0,0.1,0,0.2,0
			c4.8-0.2,8.8,3.5,8.9,8.3C1152.8,69.6,1152.8,69.7,1152.8,69.9z M1138.6,69.9c0,2.9,2.3,5.2,5.2,5.2c2.9,0,5.2-2.3,5.2-5.2
			c0,0,0,0,0,0c0-2.9-2.3-5.2-5.2-5.2C1141,64.7,1138.6,67,1138.6,69.9C1138.6,69.9,1138.6,69.9,1138.6,69.9z"/>
		<path class="st0" d="M1170.3,63.8l-2.3,2.5c-1-1.1-2.5-1.7-4-1.7c-2.7,0-4.9,2.3-4.9,5c0,0.1,0,0.2,0,0.3
			c-0.2,2.7,1.9,5.1,4.6,5.3c0.1,0,0.2,0,0.3,0c1.5,0,3-0.7,4.1-1.7l2.2,2.5c-1.6,1.8-3.8,2.7-6.2,2.7c-4.6,0.2-8.5-3.4-8.7-8
			c0-0.2,0-0.5,0-0.7c-0.2-4.6,3.4-8.5,8-8.7c0.2,0,0.5,0,0.7,0C1166.5,61.1,1168.7,62.1,1170.3,63.8z"/>
		<path class="st0" d="M1185.3,65.7c-1.6-0.9-3.3-1.4-5.1-1.4c-2,0-3.2,0.8-3.2,2s1.2,1.5,2.7,1.7l1.7,0.3c3.6,0.5,5.8,2.1,5.8,4.9
			c0,3.2-2.8,5.4-7.5,5.4c-2.5,0.1-5-0.7-7.1-2.1l1.7-2.7c1.6,1.2,3.5,1.8,5.5,1.7c2.5,0,3.8-0.8,3.8-2c0-0.9-0.9-1.6-2.9-1.8
			l-1.7-0.2c-3.7-0.5-5.6-2.2-5.6-4.9c0-3.3,2.6-5.3,6.9-5.3c2.4-0.1,4.7,0.6,6.7,1.8L1185.3,65.7z"/>
		<path class="st0" d="M1128,63.6v-6l3.6-1.3v21.9h-3.6v-2c-1.2,1.6-3.2,2.5-5.2,2.4c-4.6,0-8.3-3.8-8.3-8.4c0-0.1,0-0.2,0-0.4
			c-0.2-4.6,3.3-8.5,7.9-8.7c0.1,0,0.2,0,0.4,0C1124.9,61.1,1126.8,62,1128,63.6z M1118.3,69.9c-0.2,2.8,2,5.1,4.7,5.3
			c2.8,0.2,5.1-2,5.3-4.7c0-0.2,0-0.4,0-0.6c0.2-2.8-2-5.1-4.7-5.3c-2.8-0.2-5.1,2-5.3,4.7C1118.2,69.5,1118.2,69.7,1118.3,69.9z"/>
	</g>
	<g>
		<path class="st0" d="M320.7,55.7c0,0.9,0,1.8,0,2.7c0,0.1-0.1,0.2-0.2,0.3c-3.5,4-5.8,8.6-6.7,13.8c-0.7,4.4-0.3,8.7,1.9,12.6
			c1.6,3,4.1,5.2,7,7c3.3,1.9,6.8,3.1,10.5,3.9c6.5,1.4,13,1.7,19.6,1.3c3.1-0.2,6.2-0.4,9.3-0.8c4.7-0.6,9.2-1.6,13.7-2.8
			c5.7-1.6,11.3-3.5,16.6-6.2c1-0.5,2-1.1,3.1-1.6c0,0.2,0,0.3,0,0.4c0,2.3,0,4.6,0,6.9c0,0.3-0.1,0.5-0.4,0.7
			c-4.3,2.3-8.9,4.1-13.5,5.5c-5.1,1.6-10.3,2.8-15.6,3.7c-6.6,1.1-13.3,1.5-20,1.2c-5.6-0.2-11.2-1-16.5-2.7
			c-4.4-1.4-8.5-3.3-12.1-6.3c-4.1-3.5-6.7-7.9-7.5-13.2c-1.1-6.9,0.4-13.2,4.2-19c1.8-2.7,4-5.1,6.5-7.3
			C320.5,55.8,320.6,55.8,320.7,55.7z"/>
		<path class="st0" d="M397.5,81.8c0-0.2,0-0.4,0-0.5c0-1.5,0-3,0-4.6c0-0.4,0.1-0.7,0.5-0.9c3.5-2.2,6.3-5.1,8.1-8.9
			c3.3-7,1.6-14.8-4.3-19.9c-2.6-2.2-5.6-3.7-8.8-4.8c-3.4-1.2-6.9-1.8-10.5-2.2c-4.1-0.4-8.2-0.5-12.3-0.2
			c-4.1,0.3-8.2,0.8-12.3,1.6c-7.6,1.5-14.9,3.8-22,7c-1.3,0.6-2.6,1.2-3.9,1.9c0-0.6,0-1.2,0-1.8c0-0.1,0.2-0.2,0.3-0.3
			c3-1.8,6.1-3.4,9.3-4.8c5.9-2.6,12.1-4.4,18.4-5.7c6-1.2,12.1-1.8,18.3-1.6c4.9,0.1,9.7,0.7,14.4,1.9c4.1,1.1,8.1,2.7,11.6,5.2
			c3.7,2.6,6.5,6,7.8,10.3c1.8,5.8,1.2,11.5-1.7,16.9c-2.7,5-6.7,8.7-11.9,11C398.1,81.5,397.8,81.6,397.5,81.8z"/>
		<path class="st0" d="M385.3,72.9c-4.5,0-8.9,0-13.4,0c-0.1,1.8,0.9,4,3.2,4.5c2.3,0.5,4.4,0.2,6.1-1.6c0.1-0.1,0.1-0.1,0.2-0.2
			c1.1,1,2.2,2.1,3.3,3.1c-1.3,1.3-2.8,2.4-4.6,2.9c-2.4,0.7-4.8,0.7-7.2,0c-2.5-0.8-4.4-2.3-5.3-4.7c-1.5-3.7-1.6-7.5,0.1-11.1
			c1.4-3.1,3.9-4.8,7.3-5.3c2.4-0.3,4.7,0.1,6.7,1.6c1,0.7,1.7,1.6,2.3,2.7C385.3,67.4,385.5,70.2,385.3,72.9z M380,69.3
			c0-2.8-1.7-4.6-4.2-4.5c-2.7,0.2-4,2.2-3.9,4.5C374.6,69.3,377.3,69.3,380,69.3z"/>
		<path class="st0" d="M334.6,60.8c1,0,1.9,0,2.9,0c2.7,0,5.3,0,8,0c1,0,2,0.1,3,0.5c1.9,0.8,2.9,2.4,3.3,4.4c0.1,0.5,0.1,1,0.1,1.5
			c0,4.7,0,9.5,0,14.2c0,0.1,0,0.2,0,0.4c-1.8,0-3.5,0-5.3,0c0-0.2,0-0.3,0-0.5c0-4.6,0-9.3,0-13.9c0-0.1,0-0.2,0-0.3
			c0-1.2-0.6-1.9-1.7-2c-1.6-0.1-3.2,0-4.9,0c0,5.6,0,11.1,0,16.7c-1.8,0-3.5,0-5.3,0C334.6,74.8,334.6,67.8,334.6,60.8z"/>
		<path class="st0" d="M355.8,55.1c1.8,0,3.5,0,5.3,0c0,1.9,0,3.8,0,5.7c1.3,0,2.7,0,4,0c0,1.4,0,2.8,0,4.3c-1.3,0-2.6,0-4,0
			c0,0.2,0,0.3,0,0.5c0,3.2,0,6.5,0,9.7c0,0.1,0,0.3,0,0.4c0.1,1.2,0.6,1.7,1.8,1.7c0.6,0,1.2,0,1.9,0c0.2,0,0.3,0,0.3,0.2
			c0,1.4,0,2.8,0,4.1c0,0-0.1,0.1-0.1,0.1c-1.7,0-3.3,0.2-5-0.2c-2.3-0.6-3.9-2.5-4.2-4.8c0-0.5-0.1-0.9-0.1-1.4
			c0-6.5,0-13.1,0-19.6C355.8,55.5,355.8,55.3,355.8,55.1z"/>
		<path class="st0" d="M388.4,52c1.8,0,3.6,0,5.3,0c0,9.8,0,19.7,0,29.5c-2.5,0.2-4.9-1.8-5.3-4.4c-0.1-0.4-0.1-0.8-0.1-1.3
			c0-7.8,0-15.6,0-23.3C388.4,52.3,388.4,52.2,388.4,52z"/>
		<path class="st0" d="M329.8,82c-2.4,0.2-4.8-1.8-5.2-4.2c-0.1-0.5-0.1-1.1-0.1-1.6c0-5,0-9.9,0-14.9c0-0.1,0-0.3,0-0.5
			c1.8,0,3.6,0,5.4,0C329.8,67.8,329.8,74.9,329.8,82z"/>
		<path class="st0" d="M324.5,52.8c1.8,0,3.5,0,5.3,0c0,1.7,0,3.3,0,5c-1.8,0-3.5,0-5.3,0C324.5,56.2,324.5,54.5,324.5,52.8z"/>
		<path class="st0" d="M399.6,56.3c-1.2,0-2.2-1-2.2-2.2s1-2.2,2.2-2.2s2.2,1,2.2,2.2S400.9,56.3,399.6,56.3z M399.6,52.3
			c-1,0-1.8,0.8-1.8,1.8s0.8,1.8,1.8,1.8c1,0,1.8-0.8,1.8-1.8S400.6,52.3,399.6,52.3z"/>
		<g>
			<path class="st0" d="M398.7,55.1V53h1.1c0.2,0,0.4,0,0.5,0.1c0.1,0.1,0.2,0.2,0.2,0.4c0,0.3-0.1,0.4-0.4,0.5v0
				c0.2,0,0.3,0.2,0.3,0.4c0,0.3,0,0.5,0.1,0.6h-0.4c0-0.1-0.1-0.2-0.1-0.3c0-0.2,0-0.3-0.1-0.4c-0.1-0.1-0.2-0.1-0.4-0.1h-0.6v0.9
				H398.7z M399.1,53.3V54h0.6c0.3,0,0.4-0.1,0.4-0.3c0-0.2-0.1-0.3-0.4-0.3H399.1z"/>
		</g>
	</g>
	<g>
		<path class="st0" d="M1298.6,57.7v4.8h-3.7v19.3h-6.3V62.6h-3.7v-4.8H1298.6z"/>
		<path class="st0" d="M1300.1,57.7h4.5c3,0,5,0.1,6,0.3c1.1,0.2,1.9,0.8,2.6,1.8c0.7,0.9,1,2.4,1,4.5c0,1.9-0.2,3.1-0.7,3.8
			c-0.5,0.6-1.4,1-2.8,1.2c1.2,0.3,2.1,0.7,2.5,1.2c0.4,0.5,0.7,1,0.8,1.4c0.1,0.4,0.2,1.6,0.2,3.6v6.4h-5.8v-8
			c0-1.3-0.1-2.1-0.3-2.4c-0.2-0.3-0.7-0.5-1.6-0.5v10.9h-6.3V57.7z M1306.4,61.9v5.4c0.7,0,1.2-0.1,1.5-0.3
			c0.3-0.2,0.4-0.8,0.4-1.9v-1.3c0-0.8-0.1-1.3-0.4-1.5C1307.6,62,1307.1,61.9,1306.4,61.9z"/>
		<path class="st0" d="M1327.4,57.7l3.6,24.2h-6.4l-0.3-4.3h-2.2l-0.4,4.3h-6.5l3.2-24.2H1327.4z M1324.1,73.3
			c-0.3-2.7-0.6-6.1-1-10.2c-0.6,4.6-1,8-1.2,10.2H1324.1z"/>
		<path class="st0" d="M1346.1,57.7v24.2h-5.5l-3.3-11v11h-5.3V57.7h5.3l3.5,10.9V57.7H1346.1z"/>
		<path class="st0" d="M1359.2,57.7v4.8l-4.7,14.5h4.7v4.8h-11.6v-3.5l4.8-15.8h-4.3v-4.8H1359.2z"/>
		<path class="st0" d="M1367.1,57.7v24.2h-6.3V57.7H1367.1z"/>
		<path class="st0" d="M1375.9,57.7v19.3h3.8v4.8h-10.1V57.7H1375.9z"/>
		<path class="st0" d="M1392.9,57.7l3.6,24.2h-6.4l-0.3-4.3h-2.2l-0.4,4.3h-6.5l3.2-24.2H1392.9z M1389.5,73.3
			c-0.3-2.7-0.6-6.1-1-10.2c-0.6,4.6-1,8-1.2,10.2H1389.5z"/>
	</g>
	<g>
		<path class="st0" d="M516.1,82.7c0.3-0.1,0.6-0.1,0.8-0.1c50.9,0,101.8,0,152.6,0c0.2,0,0.4,0,0.7,0c0,0.3,0,0.6,0,1
			c-0.4,0-0.7,0-1,0c-50.7,0-101.5,0-152.2,0c-0.3,0-0.7-0.1-1-0.2C516.1,83.1,516.1,82.9,516.1,82.7z"/>
		<path class="st0" d="M546.4,102.6c0-3.1,0-6.2,0-9.3c0.7,0,1.3,0,2.1,0c0,1.8,0,3.7,0,5.5c1.3,0.1,2.3-0.5,2.9-1.7
			c0.8-1.8,0.4-4-0.9-5.2c-1.4-1.2-3.7-1.4-5.3-0.4c-1.7,1-2.3,3.1-1.6,5.3c0.1,0.3,0.2,0.6,0.3,0.8c-0.1,0-0.1,0.1-0.2,0.1
			c-0.1-0.1-0.3-0.3-0.3-0.5c-1.1-2.1-0.7-4.9,0.9-6.5c1.7-1.7,4.5-2,6.7-0.9c2.1,1.1,3.3,3.4,2.8,5.9c-0.4,2.1-2,3.5-4.1,3.6
			c-0.3,0-0.7,0-1.2,0c0,1.1,0,2.2,0,3.3C547.8,102.6,547.1,102.6,546.4,102.6z"/>
		<path class="st0" d="M599.5,24.4c0.7,0.6,0.7,0.8,0.1,1.3c-1.6,1.4-1.6,2.4,0,4c0.6-0.6,1.1-1.2,1.7-1.9c0,0,0.1,0.1,0.1,0.1
			c-0.8,2.3-1.6,4.5-2.5,6.9c-0.5-0.7-0.5-1.4-0.2-2c0.2-0.4,0.4-0.7,0.6-1c0.5-0.7,0.4-1.4-0.1-2c-0.3-0.3-0.6-0.6-0.8-1
			c-0.9-1.2-0.6-2.4,0.6-3.1c0.2-0.1,0.4-0.3,0.7-0.5c-1.2-0.6-2.5,0.3-2.5,1.5c0,0.5,0.1,1.1,0.4,1.5c0.7,1.4,0.7,2.9,0.3,4.4
			c-0.2,0.8,0,1.6,0,2.5c-0.4-0.3-0.9-0.7-1.6-1.3c0,0.6-0.2,1,0,1.4c0.1,0.2,0.6,0.3,1.1,0.5c-0.4,0.1-0.8,0.3-0.9,0.2
			c-0.4-0.3-0.9-0.7-1-1.1c-0.2-0.8-0.3-1.7,0-2.4c0.3-0.8,0.4-1.5,0-2.3c0.2,0.3,0.4,0.5,0.8,1c0.2-0.6,0.3-1,0.3-1.5
			c0-0.3-0.1-0.6-0.2-0.9c-0.6-2.3-0.4-2.9,1.6-4.2C598.6,24.4,599.1,24.4,599.5,24.4z M597.4,29.9c-0.6,1.1-1,2.1-1.5,3.1
			c0.1,0,0.1,0.1,0.2,0.1C596.8,32.1,597.8,31.4,597.4,29.9z"/>
		<path class="st0" d="M602.4,59.3c-0.8-0.5-1.5-0.9-2.2-1.4c-0.1,0-0.2,0.1-0.2,0.1c0.2,0.4,0.3,0.9,0.6,1.3
			c0.2,0.3,0.6,0.6,0.6,0.9c0.1,0.5,0,1.1-0.2,1.5c-0.3,0.6-1,0.6-1.8,0.4c0.3-0.2,0.5-0.3,0.9-0.5c-1.2-0.7-2.6-1.2-2.4-3
			c-0.3,0.2-0.4,0.3-0.6,0.4c0-0.1,0-0.2,0-0.2c0.2-0.7,0.5-1.3,0.7-2c0.1-0.3-0.1-0.7-0.3-0.9c-0.3-0.4-0.8-0.6-1.3-1
			c-0.1,1.8-0.2,3.6-0.3,5.6c-0.6-0.8-1.2-1.5-1.7-2.3c-0.8,2-2.4,2.3-4.2,2.2c0.5-0.8,1.2-1.5,1.3-2.2c0.1-0.8-0.4-1.6-0.7-2.6
			c-0.5,0.3-0.9,0.5-1.2,0.6c0,0,0-0.1-0.1-0.1c0.2-0.2,0.4-0.4,0.5-0.6c0.2-0.4,0.4-0.8,0.4-1.1c0-1.1,0.5-1.8,1.3-2.4
			c0.9-0.7,0.9-1.1,0.1-2.1c-1.6,2.6-3.2,5.1-4.8,7.7c0,0-0.1,0-0.1,0c0.2-1.3,0.4-2.5,0.5-3.8c-1.5,0.2-2,0.7-2.4,2
			c-0.2,0.6-0.4,1.1-0.7,1.6c-0.7,0.8-1.9,0.5-2.3-0.5c-0.2-0.7,0-1.1,1.2-1.5c-0.1-0.2-0.1-0.4-0.2-0.6c-0.6-1.2-0.3-2.3,1-2.8
			c0.6-0.3,1.3-0.4,1.9-0.6c0.4-0.1,0.7-0.4,1.1-0.6c0-0.1,0-0.1-0.1-0.2c-0.3,0-0.6,0.1-0.9,0.1c-0.3,0-0.6,0-0.9-0.1
			c0.5-0.1,0.9-0.3,1.4-0.4c0.9-0.1,1.2-0.6,1.3-1.5c0-0.3,0-0.6,0.1-1.1c-2.1,1.1-4,2.2-6,3.3c0,0-0.1-0.1-0.1-0.1
			c0.5-0.8,1-1.7,1.5-2.5c-0.1,0-0.1-0.1-0.1-0.1c-1.5,1.1-2.8,1-4.2-0.2c-0.4-0.3-0.9-0.5-1.3-0.7c0.3-0.9,0.7-1.2,1.6-0.9
			c1.5,0.6,2.3-0.4,3.2-1.3c-1.2-0.6-2.3-1.2-3.4-1.8c3.3-0.2,6.5-0.1,9.8-0.2c-0.1-0.8-0.6-0.8-1-0.8c-0.9,0.1-1.8,0.3-2.7,0.4
			c-1,0.1-1.8,0-2.7-0.6c-0.3-0.2-0.8-0.1-1.2-0.1c0.1-0.1,0.4-0.3,0.6-0.4c-1.1-1.4-1.6-1.5-3.7-0.6c-0.4-0.9-0.2-1.8,0.6-2.5
			c0.9-0.8,2.1-1,3.1-0.5c0.5,0.3,0.9,0.7,1.3,1c0.4,0.3,0.9,0.6,1.5,0.2c-0.9-1-1.7-2-2.6-3c0,0,0.1-0.1,0.1-0.1
			c1.4,0.7,2.7,1.3,4.3,2.1c-0.3-1.1-0.4-2.1-1.7-2.1c0.3,0,0.6,0,1,0c-0.2-0.8-0.7-1.1-1.3-1.4c-0.5-0.2-1-0.3-1.5-0.6
			c-1.5-0.7-1.7-3-0.3-3.8c0.3-0.2,0.8-0.2,1.3-0.4c-0.3,2.4,0.5,3.3,2.5,2.9c-0.2-0.7-0.4-1.4-0.6-1.9c1.8,1.8,3.7,3.6,5.7,5.5
			c-0.8,0.6-1.6,0.6-2.2-0.1c-0.5-0.6-0.9-1.3-1.2-1.9c-0.4-0.9-0.7-1.1-1.7-0.8c-0.4,0.1-0.8,0.2-1.4,0.4c1.3,0.4,1.5,1.4,1.7,2.4
			c0.1,0.6,0.3,1.4,0.7,1.8c0.4,0.5,1.1,0.7,1.8,1.1c-0.8,0.5-2.2-0.3-2.9,0.7c0.9,0.5,1.8,1,2.7,1.5c-0.2-0.4-0.4-0.9-0.6-1.3
			c0.9-0.1,2-0.2,2.1-1.5c1,0.5,0.9,1-0.4,2.1c0,0.2,0,0.5,0.1,0.7c0,0.2,0.1,0.5,0.2,0.8c0.2-0.3,0.2-0.4,0.3-0.5
			c0.4,0.3,0.8,0.6,1.3,1c-0.1-0.6-0.2-1.1-0.3-1.6c-0.1,0-0.3,0.1-0.4,0.2c0,0-0.1-0.1-0.1-0.1c0.2-0.3,0.4-0.7,0.7-1
			c0.6,0.2,1.1,0.4,1.7,0.6c0,0.1-0.1,0.1-0.1,0.1c-0.4,0.1-1,0.1-0.8,0.7c0.2,0.6,0.8,0.4,1.2,0.2c0.7-0.3,1.2-0.9,1.3-1.7
			c0-0.3,0.1-0.6,0.1-0.9c0.6,0.1,0.9,0.7,0.8,1.5c-0.1,0.5-0.5,1.2,0.5,1.3c-0.4,0.1-0.8,0.2-1.2,0.4c0,0.1,0,0.2,0,0.4
			c0.7,0,1.3,0.1,2,0.1c0,0.1,0,0.1,0,0.2c-0.7,0-1.4,0.1-2.1,0.1c0.2,0.6,0.9,1.2,1.4,1c1.4-0.4,1.6-0.6,1.5-1.4
			c0.6,0.2,0.7,0.4,0.3,0.8c-0.3,0.3-0.7,0.4-1,0.6c-0.3,0.2-0.6,0.6-0.6,0.8c0,0.3,0.4,0.8,0.6,0.8c0.4,0,1-0.1,1.2-0.4
			c0.7-1,1-2,0.3-3.2c-0.6-1.3-0.6-1.3,1-1.6c-0.7,0.8-0.2,1.1,0.6,1.2c-0.2,0.2-0.4,0.4-0.5,0.6c-0.4,0.6-0.3,1,0.4,1.3
			c1,0.4,1.8,1.1,2.3,2c0.3,0.6,0.6,1.3,1,1.9c0.4,0.7,1,1.3,1.4,1.9c-1.1,0.2-2.2-0.7-3.5-2.9c-0.2,1.5,1.3,3.4,2.8,3.6
			c0.7,0.1,1.3,0.1,2,0.1c0.9,0,1.5,0.4,1.8,1.2c0.2,0.5,0.4,0.9,0.6,1.4c0.4,0.8,1.7,1.4,2.5,1.2c0.3-0.1,0.6-0.4,1-0.7
			c-0.6-0.1-1.2,0-1.6-0.2c-0.3-0.1-0.6-0.4-0.8-0.7c-0.3-0.7-0.6-1.4-0.8-2.1c-0.3-0.9-0.9-1.5-1.9-1.7c-1.5-0.2-2.4-1.1-3.2-2.3
			c-0.8-1.3-1.8-2.6-2.7-3.9c0.6-0.2,1.3,0,1.9,0.6c0.6,0.6,1.2,1.3,1.8,1.9c0.2,0.3,0.4,0.5,0.7,0.8c1.7,2.1,2.9,2.2,5.2,0.9
			c0.7-0.4,1.5-0.6,2.3-0.7c1.1-0.1,1.5,0.4,1.5,1.5c0,0.1,0,0.2,0,0.5c0.6-1.3,0.1-2.4-1-2.5c-0.8-0.1-1.6,0-2.3,0.3
			c-1.8,0.6-2.9,0.4-4.1-1.2c-0.3-0.4-0.6-0.9-0.9-1.3c-0.6-0.9-1.2-1.6-2.3-1.9c0-0.1,0-0.1,0-0.2c0.4,0,0.9-0.1,1.2,0
			c0.5,0.2,1,0.6,1.6,0.8c0.9,0.5,1.5,0.3,2-0.6c0.3-0.5,0.4-1,0.7-1.5c0.3-0.6,0.7-0.7,1.3-0.3c0.2,0.2,0.4,0.3,0.6,0.5
			c0.7,0.8,1.4,1,2.5,0.5c0,0.2-0.1,0.4-0.1,0.6c1.1-0.4,1.5-2,0.9-3c-0.3,0.6-0.5,1.3-0.9,1.9c-0.2,0.2-0.9,0.1-1.3,0.1
			c0-0.1,0-0.2,0-0.2c0.3-0.1,0.5-0.2,0.7-0.3c-0.8-0.4-1.6-0.7-2.4-1.1c-0.8-0.4-1.7-0.1-2.3,0.9c-0.8,1.2-0.8,1.2-2.2,0.8
			c-0.3-0.1-0.7-0.1-1-0.2c0-0.1,0-0.2-0.1-0.2c0.4-0.1,0.8-0.2,1.2-0.3c0.5-0.1,1.1-0.2,1.4-0.5c0.9-0.7,1.7-1.4,2.9-1
			c0.2,0.1,0.5-0.2,0.8-0.4c-0.1,0.2-0.2,0.5-0.3,0.7c1.7,1.3,2.5,1.1,2.8-1c1.2,0.6,1.6,1.9,1,3.2c-0.6,1.2-1.7,1.7-2.9,1.1
			c-0.2-0.1-0.3-0.2-0.5-0.3c-0.8-0.5-0.9-0.4-1.6,0.3c0.2,0.1,0.4,0.2,0.6,0.3c0.2,0.1,0.3,0.2,0.5,0.3c-0.2,0-0.4,0-0.6-0.1
			c-0.5-0.1-1,0-1.5,0.3c-0.6,0.3-1.4,0.4-2.2,0.6c2.4,0,4.8,0,7.1,0c0,0.1,0,0.2,0.1,0.3c-1.5,0.7-3,1.3-4.4,2c0,0.1,0,0.1,0.1,0.2
			c0.5-0.1,1-0.3,1.5-0.4c0.8-0.1,1.5-0.3,2.3-0.2c1.6,0.3,2.5,2,1.7,3.4c-0.1,0.3-0.4,0.4-0.7,0.8c-0.3-1,0.4-2.8-1.6-2.3
			c-0.5,0.1-1,0.4-1.2,0.8c-0.2,0.3,0,0.9,0,1.3c-0.2-0.2-0.5-0.5-0.7-0.8c-0.2,0.1-0.5,0.2-0.7,0.3c-0.2,0.1-0.5,0.2-0.9,0.3
			c1.1,0.6,2.1,1.2,3,1.8c0,0,0,0.1,0,0.1c-0.7,0-1.4,0-2,0c-0.2,1.6,0.3,2,3.2,2.3c-0.2,0.7-0.7,1.2-1.3,1.2
			c-0.8,0.1-1.6,0-2.4-0.1c-0.2,0-0.4,0-0.8-0.1c-0.5-0.9-0.9-2.2-2.2-2.8c-0.6-0.2-1.2-0.3-1.8-0.4c-0.1,0.1-0.1,0.2-0.2,0.3
			c1.5,1.4,3.1,2.9,4.6,4.3c0,0.1-0.1,0.1-0.1,0.2c-0.2,0-0.5,0-0.7,0c-0.3,2.1-1.3,3.5-2.6,3.7c0.2-0.4,0.4-0.8,0.6-1.1
			c0.5-1.1,0.3-2-0.7-2.6c-1.8-0.9-2.5-2.6-3-4.4c0.4,0.4,0.8,0.9,1.2,1.3c0.6,0.7,1.1,1.4,1.8,2c1.7,1.4,1.8,1.6,1.3,3.8
			c1.2-1.2,1.3-2.9,0-3.9c-2.4-1.8-4.1-4.3-6-6.6c-0.3-0.4-0.5-0.9-0.9-1.5c0,0.3-0.1,0.5,0,0.7c0.2,0.6,0.3,1.2,0.6,1.7
			c0.7,1.2,1.4,2.4,1.7,3.9c0.3,1.2,0.9,2.3,1.9,3.1c-0.8,0.2-1.4-0.2-1.7-0.7c-0.6-1.1-1.1-2.2-1.7-3.4c-0.1-0.3-0.2-0.6-0.4-0.9
			c-0.1,0-0.2,0.1-0.3,0.1C600.6,54,601.5,56.6,602.4,59.3z M589.6,49.6c-0.2-1.9,0.2-3.6,1-5.2c-1,0.6-1.7,1.5-1.9,2.6
			c-0.1,0.8-0.2,1.6-0.3,2.4c-0.2,1.8-1.2,2.8-3,3.2c-0.5,0.1-1.1,0.2-1.6,0.3c-1,0.3-1.2,1.1-0.6,1.9c0.2,0.3,0.4,0.6,0.6,1
			c0.2-0.4,0.4-0.8,0.6-1.2c-0.2-0.2-0.4-0.4-0.8-0.7c2.3-0.5,4.4-1.3,6-2.9c1.6-1.7,1.9-4,2.5-6.3C590.6,46,590.6,48,589.6,49.6z
			 M600.3,60.8c0,0,0.1,0,0.1-0.1c-0.3-0.6-0.5-1.1-0.8-1.7c-0.3-0.7-0.6-1.4-0.1-2c0.8-1.1,0.7-2.2,0-3.3c-0.9-1.5-1.6-3.1-1.1-4.9
			c0.1-0.4-0.2-1-0.4-1.5c-0.2,0.8-0.3,1.5-0.6,2.1c-0.7,1.8-0.5,3.4,0.7,4.9c0.3,0.4,0.7,1.2,0.5,1.7c-0.6,1.9-0.1,3.5,1.4,4.7
			C600.2,60.8,600.2,60.8,600.3,60.8z M592.9,47.3c-0.2,0.8,0,1.6,0.3,2.4c0.4,0.9,0.3,1.4-0.4,2.1c-0.2,0.2-0.5,0.4-0.7,0.7
			c-0.9,1-1.1,2.1-0.6,3.3c0.6,1.4,1,2.7-0.1,4.1c1.4-0.4,1.9-1.4,1.4-2.9c-0.5-1.8-0.4-3.4,0.9-4.8c0.8-0.9,0.8-2,0.1-3
			C593.5,48.5,593.3,47.9,592.9,47.3z M595,47.7c0.8,1.8,0.4,3.4-0.7,5c-1,1.4-0.9,2.9-0.2,4.4c0.3-0.5,0.6-1,0.6-1.5
			c0.1-1.1,0.3-2.2,1-3.2C596.7,50.8,596.4,48.9,595,47.7z M578.6,39.2c0,0.1,0.1,0.1,0.1,0.2c0.1,0,0.3,0.1,0.4,0
			c0.8-0.1,1.4,0.2,1.9,0.7c1.3,1.4,2.9,2.1,4.8,1.9c-1.7-0.5-3-1.5-4.2-2.8c-0.5-0.5-2-0.8-2.6-0.5C579,38.8,578.8,39,578.6,39.2z
			 M589,44.2c-0.1-0.1-0.1-0.2-0.2-0.3c-1.1,0.7-2.3,0.8-3.6,0.4c-0.4-0.1-0.7-0.2-1.1-0.2c-0.7,0-1.1,0.4-1.3,0.8
			c0.9,0.2,1.8,0.4,2.6,0.6c0.5,0.1,1.1,0.2,1.8,0.3c-0.2-0.4-0.2-0.6-0.3-0.6C587.7,44.8,588.3,44.5,589,44.2z M588.2,45.7
			c-0.9,1-1.9,1-3.1,0.7c-0.5-0.1-1.1-0.1-1.7,0c-0.6,0.1-0.9,0.4-1,0.9c0.8,0.1,1.7,0.2,2.6,0.3C586.5,47.8,587.6,47.2,588.2,45.7z
			 M581.4,47.7c-1.2-0.2-2.2-0.3-3.2-0.5c0,0.1,0,0.2,0,0.2c0.6,0.4,1.2,0.8,1.8,1.1c0.3,0.1,0.7,0.1,0.9,0
			C581.2,48.3,581.3,47.9,581.4,47.7z M594.1,45.6c0,0.1,0,0.2,0,0.3c0.4,0,0.9,0.2,1.2,0.1c0.2-0.1,0.5-0.7,0.4-0.9
			c-0.1-0.3-0.5-0.5-0.9-0.6c-0.3-0.2-0.7-0.2-1.1-0.3c0,0,0,0.1-0.1,0.1c0.3,0.2,0.5,0.3,0.8,0.5c-0.2,0.1-0.3,0.1-0.5,0.2
			c0.3,0.1,0.5,0.2,0.8,0.4C594.4,45.5,594.3,45.5,594.1,45.6z M584.1,33.7c-0.4-0.4-1.1-0.6-1.3-1.1c-0.2-0.5,0-1.1,0-1.7
			c-0.6,0.2-0.9,0.8-0.7,1.6C582.3,33.4,583.1,33.8,584.1,33.7z M582.9,56.8c-0.1-0.3-0.2-0.5-0.3-0.7c-0.5,0.2-0.7,0.6-0.4,1
			c0.2,0.2,0.7,0.4,1,0.3c0.6-0.2,0.6-0.7,0.3-1.3C583.3,56.3,583.1,56.5,582.9,56.8z M597.5,46.7c0-0.1,0-0.1,0-0.2
			c-0.9,0-1.9,0-2.8,0c0,0.1,0,0.1,0,0.2C595.6,46.7,596.6,46.7,597.5,46.7z M608.8,42c1.1-0.8,1.4-1.4,1-2.2
			C609.4,40.6,609.1,41.2,608.8,42z"/>
		<path class="st0" d="M669.6,63c0,0.3,0,0.6,0,0.8c-0.1,0-0.1,0.1-0.1,0.1c-1.3,0.1-1.3,0.1-1.3,1.4c0,3.5,0,7,0,10.4
			c0,0.1,0,0.3,0,0.4c0,2.1,0,2.1,2,2.4c0,0.3,0,0.6,0,0.9c-2.5,0-5,0-7.5,0c0-0.3,0-0.6,0-0.9c1.3-0.2,1.3-0.2,1.3-1.5
			c0-1.9,0-3.8,0-5.8c-1.8,0-3.6,0-5.4,0c0,2.1,0,4.2,0,6.3c0,0.6,0.3,1,1,0.9c0.3,0,0.6,0,0.9,0c0,0.3,0,0.6,0.1,1
			c-2.6,0-5.1,0-7.7,0c0-0.3,0-0.6,0-0.8c0,0,0.1-0.1,0.1-0.1c1.2-0.1,1.2-0.1,1.2-1.3c0-3.7,0-7.3,0-11c0-0.2,0-0.4,0-0.6
			c0-1.4-0.1-1.5-1.6-1.5c-0.1,0-0.2,0-0.4,0c0-0.3,0-0.6,0-0.9c2.6,0,5.1,0,7.7,0c0,0.3,0,0.5,0,0.8c0,0-0.1,0.1-0.1,0.1
			c-1.3,0.1-1.3,0.1-1.3,1.5c0,1.5,0,2.9,0,4.5c1.9,0,3.7,0,5.5,0c0-1.7,0-3.4,0-5.1c0-0.6-0.3-1-1-0.9c-0.3,0-0.5,0-0.9,0
			c0-0.3,0-0.6,0-0.9C664.6,63,667.1,63,669.6,63z"/>
		<path class="st0" d="M590.5,71.3c1.5,2.2,3,4.3,4.5,6.3c0.3,0.4,0.9,0.7,1.4,1.1c0,0.1,0,0.4,0,0.7c-1.6,0-3.2,0-4.9,0
			c-0.3,0-0.8-0.4-0.9-0.8c-1-1.9-2-3.7-2.9-5.7c-0.4-0.8-0.8-0.9-1.5-0.8c0,1.9,0,3.8,0,5.7c0,0.5,0.3,0.7,0.8,0.7
			c0.3,0,0.7,0,1.1,0c0,0.3,0,0.6,0,1c-2.6,0-5.1,0-7.7,0c0-0.3,0-0.6,0-0.8c0.1,0,0.1-0.1,0.2-0.1c1.2-0.1,1.2-0.1,1.2-1.3
			c0-3.7,0-7.4,0-11.1c0-0.3,0-0.5,0-0.8c-0.1-1.2-0.2-1.3-1.4-1.3c-0.2,0-0.3,0-0.6,0c0-0.3,0-0.6-0.1-0.9c0.3,0,0.5-0.1,0.7-0.1
			c2.6,0,5.3-0.1,7.9,0c1,0,2,0.3,2.9,0.6c1.8,0.7,2.7,2.4,2.7,4.3c0,1.4-1,2.6-2.4,3.1C591.4,71,591.1,71.1,590.5,71.3z
			 M586.1,70.9c1.5,0.1,2.7-0.1,3.4-1.5c0.9-1.6,0.2-4.1-1.5-5c-0.4-0.2-1-0.3-1.4-0.4c-0.2,0-0.5,0.3-0.5,0.4
			C586.1,66.6,586.1,68.7,586.1,70.9z"/>
		<path class="st0" d="M549.8,79.4c0-0.3,0-0.6,0-0.9c0.4,0,0.8-0.1,1.3-0.1c0-0.3,0-0.6,0-0.8c0-4,0-8,0-12c0-0.2,0-0.4,0-0.6
			c0-0.7-0.3-1.1-1.1-1c-0.3,0-0.5,0-0.8,0c0-0.3,0-0.6,0-0.9c0.3,0,0.5-0.1,0.7-0.1c2.6,0,5.3-0.1,7.9,0c1,0,2.1,0.3,3,0.6
			c1.5,0.6,2.3,1.8,2.5,3.5c0.2,1.7-0.6,3-2,3.9c-1.6,1.1-3.3,1.2-5.2,0.9c-0.3,0-0.5-0.1-0.8-0.1c0,1.9,0,3.7,0,5.6
			c0,0.8,0.4,1.2,1.3,1.1c0.2,0,0.5,0,0.7,0c0,0.3,0,0.6,0,0.9C554.9,79.4,552.4,79.4,549.8,79.4z M555.3,67.4c0,0.9,0,1.8,0,2.7
			c0,0.5,0.2,0.6,0.6,0.7c1.4,0.2,2.7-0.5,3.1-1.9c0.4-1.6,0.1-3-1.1-4.1c-0.5-0.4-1.2-0.6-1.8-0.7c-0.5-0.1-0.7,0.1-0.7,0.6
			C555.3,65.6,555.3,66.5,555.3,67.4z"/>
		<path class="st0" d="M603.9,63.9c0-0.3,0-0.6,0-0.8c0.1,0,0.1-0.1,0.1-0.1c3.1,0,6.3,0,9.4,0c1.3,0,2.6,0.5,3.5,1.5
			c1.9,2,1.4,5.1-1.1,6.6c-1.5,0.9-3.2,1-4.9,0.8c-0.3,0-0.5-0.1-0.8-0.1c0,1.9,0,3.8,0,5.6c0,0.7,0.3,1.2,1.2,1c0.3,0,0.5,0,0.8,0
			c0,0.4,0,0.6,0,1c-2.5,0-5.1,0-7.6,0c0-0.3,0-0.6,0-0.9c0.1,0,0.1-0.1,0.2-0.1c1.2-0.1,1.2-0.1,1.2-1.3c0-3.7,0-7.5,0-11.2
			c0-0.3,0-0.5,0-0.8c-0.1-1.1-0.2-1.2-1.3-1.2C604.4,63.9,604.2,63.9,603.9,63.9z M610.1,67.4c0,0.9,0,1.8,0,2.7
			c0,0.4,0.1,0.6,0.6,0.7c1.2,0.2,2.5-0.4,3-1.5c0.7-1.5,0.1-3.7-1.3-4.6c-0.5-0.3-1.1-0.4-1.7-0.6c-0.4-0.1-0.6,0.1-0.6,0.5
			C610.1,65.5,610.1,66.4,610.1,67.4z"/>
		<path class="st0" d="M542.7,63.9c0-0.3,0-0.6,0-0.9c1.6,0,3.2,0,4.8,0c0,0.3,0,0.5,0,0.7c-0.1,0.1-0.1,0.1-0.2,0.1
			c-1.3,0.2-1.3,0.2-1.3,1.5c0,2.4-0.1,4.8,0,7.2c0.2,6-3.8,7.5-7.9,7.3c-1,0-2.1-0.3-3-0.6c-2.1-0.8-3.2-2.4-3.2-4.6
			c0-2.7,0-5.5,0-8.2c0-0.3,0-0.6,0-0.9c0-1.5-0.1-1.6-1.6-1.6c-0.1,0-0.2,0-0.4,0c0-0.3,0-0.6-0.1-0.9c2.5,0,5,0,7.6,0
			c0,0.3,0,0.5,0,0.8c0,0-0.1,0.1-0.1,0.1c-1.2,0.1-1.2,0.1-1.2,1.3c0,2.8,0,5.6,0,8.3c0,0.8,0.1,1.7,0.3,2.5
			c0.4,1.4,1.3,2.2,2.7,2.4c2.5,0.3,5.3-0.6,5.4-4.3c0.1-2.9,0-5.7,0-8.6c0-1.4-0.2-1.6-1.6-1.6C543,63.9,542.9,63.9,542.7,63.9z"/>
		<path class="st0" d="M564.5,63.9c0-0.4,0-0.6,0-0.9c4.4,0,8.8,0,13.2,0c-0.1,0.8-0.1,1.6-0.3,2.4c0,0.2-0.3,0.4-0.4,0.4
			c-0.1,0-0.4-0.2-0.5-0.4c-0.1-0.6-0.4-0.9-1-0.9c-1.5-0.2-3-0.3-4.5-0.4c-0.1,0-0.4,0.3-0.4,0.5c0,1.8,0,3.5,0,5.4
			c1.3-0.1,2.5-0.1,3.6-0.2c0.5,0,0.8-0.4,0.8-0.9c0-0.2,0-0.5,0-0.8c0.2,0,0.5,0,0.8-0.1c0,1.5,0,3,0,4.6c-0.2,0-0.5,0-0.7,0
			c-0.3-1.4-0.3-1.5-1.8-1.6c-0.9,0-1.7,0-2.6,0c0,2.2,0,4.4,0,6.6c0,0.4,0.3,0.7,0.7,0.7c1.3-0.1,2.5-0.1,3.8-0.3
			c1-0.1,2-0.5,2.6-1.5c0.1-0.1,0.4-0.2,0.5-0.2c0.1,0.1,0.3,0.4,0.2,0.5c-0.2,0.8-0.4,1.5-0.6,2.2c0,0.1-0.3,0.3-0.5,0.3
			c-4.1,0-8.2,0-12.3,0c0,0,0,0-0.1-0.1c0-0.2,0-0.5,0-0.8c0.1,0,0.1-0.1,0.2-0.1c1.2-0.1,1.2-0.1,1.2-1.3c0-3.8,0-7.6,0-11.5
			c0-0.2,0-0.5,0-0.7c0-0.7-0.3-1.2-1.2-1.1C565.1,63.9,564.8,63.9,564.5,63.9z"/>
		<path class="st0" d="M618.8,63.9c0-0.4,0-0.6,0-0.9c2.5,0,5.1,0,7.6,0c0,0.3,0,0.6,0,0.8c-0.1,0-0.1,0.1-0.1,0.1
			c-1.2,0.1-1.2,0.1-1.2,1.4c0,2.7,0,5.5,0,8.2c0,0.8,0.1,1.7,0.3,2.5c0.4,1.5,1.4,2.3,2.9,2.5c2.9,0.4,5.1-1.1,5.2-4
			c0.2-3.1,0.1-6.2,0.1-9.3c0-1.1-0.2-1.1-2-1.3c0-0.3,0-0.5-0.1-0.9c1.6,0,3.2,0,4.8,0c0,0.3,0,0.5,0,0.8c-0.1,0.1-0.1,0.1-0.2,0.1
			C635,64,635,64,635,65.3c0,2.6,0,5.1,0,7.7c0,4.2-2.1,6.5-6.2,6.9c-1.6,0.2-3.1,0-4.6-0.5c-2.1-0.8-3.3-2.4-3.3-4.7
			c0-2.9,0-5.8,0-8.7c0-0.3,0-0.6,0-0.9c-0.1-1-0.2-1.1-1.2-1.1C619.4,63.9,619.2,63.9,618.8,63.9z"/>
		<path class="st0" d="M526.9,64.5c0,0.1,0,0.1,0,0.2c-0.1,0.4-0.1,1-0.3,1c-0.6,0.2-0.5-0.4-0.8-0.7c-0.3-0.4-0.6-0.8-1-1
			c-1.2-0.6-2.4-0.5-3.6,0.1c-0.8,0.4-1.3,1.1-1.3,2.1c0,1,0.6,1.5,1.4,1.9c0.7,0.3,1.5,0.5,2.2,0.8c0.7,0.3,1.4,0.6,2.1,0.9
			c1.8,0.9,2.8,2.5,2.7,4.5c0,2.1-1,3.6-2.8,4.6c-2,1.1-4.2,1.2-6.4,0.7c-2.9-0.6-2.1-0.2-2.8-2.9c-0.1-0.2,0.2-0.6,0.3-0.8
			c0.3,0.2,0.6,0.3,0.7,0.5c1.1,2.2,4.7,2.9,6.6,1.3c1.5-1.3,1.3-3.5-0.5-4.5c-0.7-0.3-1.4-0.6-2.1-0.8c-0.7-0.3-1.5-0.6-2.2-0.9
			c-1.6-0.8-2.5-2.2-2.5-4c0-1.8,0.8-3.2,2.4-4.1c1.9-1.1,3.9-1.3,6.1-0.9c0,0,0.1,0,0.1,0C527,62.9,526.7,62.6,526.9,64.5z"/>
		<path class="st0" d="M642.9,79.9c-0.7-0.1-2-0.4-3.3-0.6c-0.5-0.1-0.7-0.3-0.8-0.8c-0.1-0.6-0.3-1.1-0.3-1.7
			c0-0.3,0.2-0.5,0.3-0.8c0.2,0.1,0.5,0.2,0.6,0.5c1.1,2,4,2.9,6,1.8c1.1-0.6,1.6-1.5,1.6-2.7c0-1.2-0.7-1.9-1.7-2.3
			c-1.1-0.5-2.3-0.9-3.4-1.3c-1.5-0.6-2.7-1.6-3-3.3c-0.5-2.2,0.4-4.2,2.5-5.3c2.3-1.2,4.7-1.2,7.1-0.6c0.2,0.1,0.4,0.3,0.4,0.5
			c0.1,0.6,0.1,1.2,0.1,1.8c0,0.2-0.2,0.5-0.3,0.5c-0.2,0-0.4-0.2-0.5-0.3c-1-1.8-3.1-2.4-4.9-1.3c-0.8,0.5-1.2,1.2-1.2,2.1
			c0,0.9,0.6,1.5,1.3,1.8c0.7,0.3,1.5,0.5,2.2,0.8c0.8,0.3,1.6,0.6,2.3,1c3.3,1.9,3.6,6.3,0.5,8.6C646.9,79.6,645.2,79.9,642.9,79.9
			z"/>
		<path class="st0" d="M605.3,94.1c0-1.5,0-2.9,0-4.4c0-0.4,0-0.7,0.5-0.8c1.3-0.1,2.7-0.4,4-0.3c2.6,0.2,4.3,2.1,4.6,4.8
			c0.3,3-1.3,5.6-4,6.1c-1.5,0.2-3.1-0.1-4.6-0.2c-0.2,0-0.4-0.4-0.4-0.7C605.3,97.1,605.3,95.6,605.3,94.1z M607.7,94.1
			c0,1.1,0,2.2,0,3.3c0,0.6,0.2,0.7,0.7,0.8c1.1,0.1,1.9-0.3,2.6-1.1c1.3-1.5,1.3-4.3,0.1-5.9c-0.7-0.9-1.6-1.3-2.8-1.2
			c-0.4,0.1-0.6,0.3-0.6,0.7C607.7,91.8,607.7,93,607.7,94.1z"/>
		<path class="st0" d="M637.3,101.2c0.4-0.7,0.9-0.8,1.6-0.6c0.1,0,0.1,0,0.1,0.1c1.4,0.5,2,0.1,1.8-1.5c-0.8,0.5-1.7,0.5-2.5,0
			c-0.9-0.5-1.3-1.3-1.5-2.3c-0.2-1.3-0.2-2.5,0.5-3.7c0.8-1.5,2.5-1.8,3.8-0.8c0.6-0.2,1.2-0.4,1.9-0.7c0,1.5,0,2.8,0,4.1
			c0,1.1,0,2.2,0,3.4c0,1.5-0.7,2.7-1.8,3.1C639.9,102.7,638.3,102.3,637.3,101.2z M640.8,95.6c0-0.5,0-1-0.1-1.6
			c-0.1-0.3-0.4-0.7-0.7-0.7c-0.2,0-0.8,0.4-0.8,0.6c-0.1,1.2-0.1,2.3,0,3.5c0,0.2,0.6,0.7,0.8,0.6c0.3,0,0.6-0.5,0.7-0.8
			C640.9,96.8,640.8,96.2,640.8,95.6z"/>
		<path class="st0" d="M565.6,98.8c-0.6,0.6-1.4,0.1-2.1,0.4c0-4,0-7.8,0-11.7c0.7,0,1.3,0,2,0c0,1.5,0,3.1,0,4.5
			c0.8-0.1,1.6-0.3,2.4-0.4c0.4,0,0.9,0.2,1.3,0.4c1.4,0.7,1.9,2.5,1.5,4.5c-0.4,1.7-1.6,2.8-3.2,2.8
			C566.8,99.2,566.2,99,565.6,98.8z M568.7,95.2C568.6,95.2,568.6,95.2,568.7,95.2c-0.1-0.4-0.1-0.8-0.2-1.2c0-0.3-0.1-0.5-0.2-0.8
			c-0.3-0.9-0.8-1.4-1.5-1.3c-0.7,0.1-1.3,0.7-1.3,1.7c0,1.2,0,2.5,0,3.7c0,0.7,0.4,1.3,1.1,1.5c0.8,0.2,1.3-0.3,1.5-1
			C568.4,96.9,568.5,96.1,568.7,95.2z"/>
		<path class="st0" d="M632.5,91.8c2.2,0,3.6,1.5,3.6,3.8c0,2.2-1.5,3.9-3.6,3.9c-2.1,0-3.6-1.6-3.6-3.8
			C628.9,93.4,630.4,91.8,632.5,91.8z M631.1,95.7c0.1,0.4,0.1,0.9,0.2,1.3c0.2,0.6,0.5,0.9,1.2,0.9c0.6,0,1.1-0.3,1.2-0.9
			c0.1-0.9,0.1-1.8,0-2.7c-0.1-0.6-0.5-0.9-1.2-0.9c-0.6,0-1,0.4-1.1,0.9C631.2,94.8,631.2,95.2,631.1,95.7z"/>
		<path class="st0" d="M622.8,98.6c-1.2,1-2.6,1.2-3.6,0.4c-0.7-0.5-1-1.5-0.7-2.4c0.4-1.1,1.9-1.9,3.4-1.7c0.1,0.6-0.1,1-0.6,1.3
			c-0.2,0.1-0.5,0.2-0.5,0.3c-0.1,0.4-0.3,0.8-0.2,1.2c0,0.2,0.6,0.4,0.8,0.3c0.3-0.1,0.8-0.4,0.8-0.7c0.1-1.1,0.1-2.2,0-3.3
			c0-0.6-0.4-0.8-0.9-0.8c-0.3,0-0.6,0.1-0.9,0.2c-0.9,0.3-1.1,0.3-1.8-0.5c1-1.2,3.3-1.6,4.6-0.9c0.8,0.4,1.2,1.1,1.3,2
			c0.1,1.3-0.1,2.6,0.4,3.9c0.2,0.6-0.3,1-0.8,1.3C623.3,99.8,623.2,99,622.8,98.6z"/>
		<path class="st0" d="M557.8,91.7c-0.3,1.7-0.5,3.2-0.8,4.7c0,0.2-0.1,0.4-0.1,0.6c0,1,0.5,1.6,1.2,1.6c0.9,0,1.6-0.7,1.6-1.7
			c0-1.6,0-3.1,0-4.7c0-0.2,0-0.3,0-0.5c0.7,0,1.3,0,2,0c0,2.4,0,4.8,0,7.3c-0.7,0-1.3,0-2,0c0-0.2-0.1-0.5-0.1-0.8
			c-0.8,0.8-1.8,1.1-2.8,1c-1.3-0.2-2.2-1.1-2-2.3c0.2-1.6,0.5-3.2,0.8-4.8c0-0.1,0.3-0.3,0.4-0.3C556.6,91.7,557.2,91.7,557.8,91.7
			z"/>
		<path class="st0" d="M589.5,98.3c0.2,0.1,0.4,0.2,0.6,0.3c0.7,0.1,1.4,0.3,2,0.1c0.8-0.1,1.2-0.9,0.8-1.7
			c-0.3-0.6-0.7-1.2-1.2-1.7c-0.6-0.7-1.3-1.4-1.9-2.1c-0.7-0.9-1.2-1.9-0.6-3c0.6-1.1,1.7-1.4,2.9-1.4c0.6,0,1.3,0.3,1.9,0.4
			c0,0.1-0.1,0.2-0.1,0.4c-0.2-0.1-0.5-0.2-0.7-0.3c-0.7-0.2-1.4-0.4-1.9,0.3c-0.5,0.7-0.3,1.4,0.2,1.9c0.7,0.8,1.5,1.6,2.2,2.4
			c0.7,0.8,1.3,1.6,1.1,2.6c-0.1,0.6-0.3,1.2-0.7,1.6c-0.9,1-3.1,1.3-4.3,0.6c-0.2-0.1-0.3-0.2-0.4-0.4
			C589.4,98.4,589.5,98.3,589.5,98.3z"/>
		<path class="st0" d="M574,87.4c0,3.9,0,7.7,0,11.6c-0.7,0-1.3,0-2,0c0-3.9,0-7.7,0-11.6C572.6,87.4,573.2,87.4,574,87.4z"/>
		<path class="st0" d="M625.8,88.7c1.3-0.1,2.2,0.4,2.2,1.5c0,3.1,0,6.2,0,9.3c-1.3,0.3-2.1-0.4-2.2-1.7c0-1.8,0-3.6,0-5.4
			C625.8,91,625.8,89.9,625.8,88.7z"/>
		<path class="st0" d="M591.8,36.1c-0.3-1-1.1-1.4-1.8-1.9c-0.5-0.3-1-0.8-1.3-1.4c-0.3-0.7-0.7-1.4-1.5-1.7c0.3,0,0.7,0.1,1.1,0.2
			c0.3-1,0.6-1.9,0.8-2.9c0.2-1-0.2-1.3-1.2-1.1c-0.4,0.1-1,0.4-1.1-0.2c-0.1-0.4,0.3-0.9,0.6-1.1c1-0.6,2.1-0.7,3.2-0.2
			c0.9,0.4,1.2,1.2,1.2,2.1c0,0.9-0.1,1.7-0.1,2.6c0,0.6,0.2,1.1,0.9,1.3c0.3-1.3,0.7-2.7,1-4c0.1,0,0.1,0,0.2,0
			c0.3,1.9,0.7,3.8,1,5.7c-0.7-0.3-1.4-0.6-2.1-0.9c-1.1-0.5-1.5-1.2-1.4-2.4c0-0.7,0.1-1.4,0.2-2.1c0-1.5-0.7-2.2-2.3-2.2
			c0.2,0.2,0.3,0.3,0.5,0.3c0.7,0.4,1,1.1,0.7,1.9c-0.2,0.7-0.6,1.4-0.9,2.1c-0.8,1.9-0.5,2.7,1.1,3.9
			C591.5,34.5,592.1,35.1,591.8,36.1z M587.2,26.8c0.7,0,1.3,0,1.9,0C588.4,26.2,587.9,26.2,587.2,26.8z"/>
		<path class="st0" d="M610.7,32.4c-0.4,0.2-0.7,0.3-1.1,0.4c0.4-1,1-1.1,2.2-0.5c-0.3-0.6-0.8-0.9-1.3-0.8
			c-0.8,0.1-1.4,0.6-1.6,1.3c-0.2,0.5-0.2,1-0.3,1.6c-0.3,1.8-1,2.3-2.7,1.7c-0.9-0.3-1.4,0.1-1.9,0.7c-0.3,0.3-0.7,0.6-1.2,0.8
			c0.8-1.3,1.4-2.6,3.2-2.8c1.3-0.2,1.7-1.4,1.8-2.3c0.4-0.2,0.6-0.3,0.8-0.5c1.1-1,2.5-1.1,3.5,0c0.2,0.2,0.3,0.6,0.5,0.8
			c-0.8,0.3-1.8,0.3-2.1,0.8c-0.5,0.8-0.5,1.9-0.8,3c0.8,0,1.4,0,2,0c0,0.1,0,0.1,0,0.2c-2.3,1-4.5,2-6.8,3c0-0.1-0.1-0.1-0.1-0.2
			c0.3-0.2,0.5-0.6,0.9-0.7c0.6-0.3,1.1-0.4,1.7-0.6c1.3-0.4,2-1.2,2.1-2.5c0-0.5,0-1.1,0.2-1.6C609.8,33.5,610.2,33,610.7,32.4z
			 M606,35.6c0.2,0.1,0.5,0.2,0.8,0.3c0.2,0,0.5,0,0.6-0.1c0.3-0.6,0.5-1.2,0.7-1.7C607.4,34.6,606.7,35.1,606,35.6z"/>
		<path class="st0" d="M584.4,92.2c-0.2,0-0.4-0.1-0.5-0.1c-1.3-0.4-2.2,0-2.4,1.4c-0.2,1.2-0.2,2.5,0,3.6c0.3,1.5,1.3,2,2.7,1.4
			c0.1-0.1,0.3-0.1,0.5-0.1c-0.5,1-2.7,1.2-4,0.4c-1.7-1-2.3-3.9-1.1-5.7C580.5,91.4,583,90.9,584.4,92.2z"/>
		<path class="st0" d="M587.9,91.8c0,2.4,0,4.8,0,7.2c-0.7,0-1.4,0-2.1,0c0-2.4,0-4.8,0-7.2C586.5,91.8,587.2,91.8,587.9,91.8z"/>
		<path class="st0" d="M575.6,91.7c0.7,0,1.3,0,2,0c0,2.4,0,4.8,0,7.3c-0.7,0-1.3,0-2,0C575.6,96.6,575.6,94.2,575.6,91.7z"/>
		<path class="st0" d="M617.7,99.5c-1.6-0.1-2.1-0.5-2.2-1.9c-0.1-1.5,0-3,0-4.5c0-0.9,0.4-1.3,1.2-1.3c0.7,0,1,0.4,1,1.3
			C617.7,95.2,617.7,97.3,617.7,99.5z"/>
		<path class="st0" d="M606,31.2c0.4-0.2,1-0.5,1.5-0.8c-1.6,2.2-3.1,4.6-5.2,6.4c1-0.8,1.3-1.9,1.5-3.1c0.1-0.7,0.6-1.3,1.1-1.8
			c0.7-0.9,1.1-1.9,1.1-3c0-0.9-0.5-1.5-1.6-1.8c0.1,0.2,0.3,0.4,0.4,0.6c0.6,0.9,0.4,1.6-0.5,2.2c-0.4,0.3-0.9,0.5-1.4,0.7
			c-0.8,0.3-1.3,0.9-1.5,1.7c-0.1,0.3-0.1,0.6-0.2,0.9c-0.1,1.5-1.1,2.2-2.4,2.5c0.2-0.2,0.4-0.5,0.7-0.7c0.8-0.6,1.2-1.4,1.3-2.4
			c0-0.8,0.3-1.5,0.9-2c0.3-0.2,0.2-0.7,0.4-1.2c0.1,0.3,0.2,0.5,0.4,0.9c0.4-0.2,0.8-0.3,1.2-0.5c1-0.5,1.1-1.2,0.4-2
			c-0.1-0.1-0.2-0.2-0.3-0.3c-0.1-0.2-0.2-0.5-0.1-0.6c0.1-0.1,0.4-0.2,0.6-0.2c0.8,0.1,1.7,0.8,1.8,1.8
			C606.2,29.4,606.1,30.3,606,31.2z"/>
		<path class="st0" d="M601.5,94c0,0.8-0.7,1.5-1.5,1.5c-0.8,0-1.5-0.7-1.5-1.5c0-0.8,0.7-1.5,1.5-1.5
			C600.8,92.5,601.5,93.2,601.5,94z"/>
		<path class="st0" d="M588,89.5c0,0.7-0.5,1.1-1.2,1.1c-0.7,0-1.1-0.4-1.1-1.1c0-0.7,0.4-1.2,1.1-1.2C587.5,88.3,588,88.8,588,89.5
			z"/>
		<path class="st0" d="M577.8,89.4c0,0.7-0.4,1.2-1.1,1.2c-0.7,0-1.1-0.4-1.2-1.1c0-0.7,0.4-1.2,1.1-1.2
			C577.3,88.3,577.7,88.8,577.8,89.4z"/>
		<path class="st0" d="M617.7,89.8c0,0.7-0.5,1.2-1.2,1.1c-0.6,0-1.1-0.5-1.1-1.1c0-0.6,0.5-1.2,1.2-1.2
			C617.2,88.7,617.7,89.2,617.7,89.8z"/>
		<path class="st0" d="M597.9,40.6c-0.2-0.7-0.3-1.3,0.3-1.8c0.9-0.6,1.5,0.2,2.2,0.5C600,40.1,599.6,40.3,597.9,40.6z"/>
		<path class="st0" d="M586.9,34.5c0.2,0.2,0.5,0.5,0.7,0.8c0.2,0.3,0.2,0.6,0.3,1c0.4,1.3,0.6,1.5,1.9,1.6c0,0.1,0.1,0.1,0.1,0.2
			c-0.4,0.1-0.8,0.5-1.2,0.4c-0.5-0.1-1-0.5-1.3-0.9c-0.2-0.3-0.1-0.9-0.2-1.3C587.1,35.7,587,35.1,586.9,34.5z"/>
		<path class="st0" d="M591.6,39.4c0.7-0.3,1.3-1.1,2.2-0.5c0.6,0.4,0.5,1,0.3,1.8c-0.9-0.4-1.7-0.7-2.6-1
			C591.5,39.6,591.6,39.5,591.6,39.4z"/>
		<path class="st0" d="M601.3,36.4c0.2-0.6,0.6-1.2,0.6-1.8c0-1.6,0.5-2.8,2-3.5c0.3-0.1,0.5-0.3,0.8-0.4c-0.2,0.2-0.4,0.5-0.7,0.7
			c-1,0.7-1.6,1.6-1.6,2.9c0,0.8-0.1,1.6-0.9,2.1C601.4,36.4,601.3,36.4,601.3,36.4z"/>
		<path class="st0" d="M594.6,35.1c-0.5-0.4-1.1-0.8-1.7-1.2c-0.7-0.3-1.4-0.5-2.1-0.8c-0.8-0.4-1-1-0.5-2c0.1,1.2,0.9,1.6,1.8,1.9
			c0.6,0.2,1.2,0.4,1.7,0.7C594.5,34.1,594.8,34.6,594.6,35.1z"/>
		<path class="st0" d="M593.3,36.9c-0.3,0.3-0.6,0.6-1,1c1.3,0,2.4,0,3.5,0c-0.3,0.7-0.7,0.8-1.1,0.6c-0.9-0.4-1.7-0.3-2.5,0.1
			c-0.5,0.3-1,0.2-1.1-0.3c0.8-0.5,1.4-1,2.1-1.4C593.3,36.8,593.3,36.9,593.3,36.9z"/>
		<path class="st0" d="M601.2,38.3c-0.3,0.1-0.8,0.3-1,0.2c-0.8-0.4-1.6-0.3-2.4,0c-0.3,0.1-0.9-0.1-1.1-0.4
			c-0.3-0.4-0.1-0.9,0.3-1.1c0.2,0.4,0.2,0.9,0.5,1.1c0.2,0.2,0.7,0,1.1-0.2c0.6-0.2,1.1-0.4,1.7-0.1c0.2,0.1,0.5,0.1,0.8,0.2
			C601.1,38.1,601.2,38.2,601.2,38.3z"/>
		<path class="st0" d="M608.9,36.3c-1.1,1.6-3.2,1-4.6,2.2c0.5-0.9,1-1.2,2.4-1.5c0.7-0.1,1.3-0.5,2-0.8c0,0,0,0,0.1,0
			C608.8,36.1,608.8,36.2,608.9,36.3z"/>
		<path class="st0" d="M603.1,40.9c-0.7,0-1.4,0.1-2.1,0.1C601.4,40.4,602.2,40.3,603.1,40.9z"/>
	</g>
	<g>
		<path class="st0" d="M754,66.2c0.3-1.1,0.4-2.3,0.8-3.3c2-5.8,6.1-9.5,11.7-11.7c2.4-0.9,4.9-1.3,7.4-1.3c34.4,0,68.8-0.1,103.2,0
			c7.1,0,12.9,3,16.8,9c4.3,6.5,3.3,15.1-2.2,20.6c-4.1,4.1-9.1,6.2-14.9,6.2c-12.8,0-25.5,0-38.3,0c-0.3,0-0.5,0-0.9,0
			c0,7.4,0,14.8,0,22.1c0,0-0.1,0-0.1,0.1c-0.1-0.2-0.3-0.3-0.4-0.5c-6-7.1-12-14.2-18-21.4c-0.3-0.3-0.6-0.3-0.9-0.3
			c-14.8,0-29.7,0.1-44.5,0c-7-0.1-12.7-2.9-16.7-8.7c-1.5-2.2-2.4-4.6-2.7-7.3c0-0.1-0.1-0.2-0.1-0.3C754,68.4,754,67.3,754,66.2z
			 M804.8,63.5c-0.1,0.1-0.1,0.2-0.1,0.3c-1,2.3-1,4.7-0.3,7.1c0.8,2.8,3,4.3,6,4.3c2.9,0,5-1.6,5.9-4.4c0.6-2,0.6-4.1,0-6.1
			c-0.8-2.9-3.1-4.6-6.1-4.5c-2,0.1-4,0.2-5.9,0.4c-1.1,0.1-1.1,0.1-1.1,1.2c0,1.4,0,1.4,1.4,1.5C804.6,63.5,804.7,63.5,804.8,63.5z
			 M791.4,66.6c-0.1-1.5-0.2-2.7-0.4-4c-0.2-1-0.8-1.8-1.9-2.1c-1.4-0.4-2.9-0.2-4.3,0.3c-0.4,0.1-0.4,0.3-0.3,0.7
			c0.2,0.6,0.3,1.2,0.5,1.8c0.1,0.5,0.3,0.7,0.9,0.5c1-0.3,1.4,0,1.4,1c0,1.3,0,2.6,0,3.9c0,0.7-0.1,1.4-0.3,2.1
			c-0.3,1.1-1,1.7-2,1.7c-1.1,0-1.8-0.5-2.1-1.7c-0.2-0.8-0.3-1.7-0.3-2.5c-0.1-1.5,0-3.1-0.2-4.6c-0.1-0.9-0.5-1.8-0.8-2.7
			c-0.2-0.5-0.5-0.6-1.1-0.4c-0.7,0.3-1.4,0.4-2,0.6c-0.4,0.1-0.6,0.3-0.4,0.8c0.2,0.7,0.4,1.4,0.4,2.1c0.1,1.5,0.1,2.9,0.1,4.4
			c0.1,2.1,0.6,4,2.2,5.4c3.4,3.1,9,1.5,10.2-3C791.2,69.4,791.2,67.9,791.4,66.6z M797.8,71.9c-0.3,0-0.5,0-0.6,0
			c-1.3,0-2.6,0-3.9,0c-0.4,0-0.6,0.1-0.6,0.6c0,0.6,0,1.3,0,1.9c0,0.4,0.1,0.5,0.5,0.5c2.2,0,4.4,0,6.6,0c0.2,0,0.5-0.1,0.6-0.3
			c0.5-1.2,1.5-2.4,0.9-3.9c-0.1-0.2,0-0.5,0-0.8c0-1.7,0-3.4-0.1-5.1c-0.1-1.5-0.5-3-1.9-3.8c-1.9-1-3.9-0.8-5.9-0.2
			c-0.3,0.1-0.4,0.3-0.3,0.6c0.1,0.4,0.3,0.9,0.4,1.3c0.3,1,0.3,1,1.3,0.8c1.8-0.5,2.6,0.1,2.7,1.9c0,0.1,0,0.1,0,0.2
			C797.5,67.7,797.2,69.8,797.8,71.9z M820.1,63.1c0,0.2,0,0.5,0,0.7c0,1.3,0,2.7,0,4c0,0.6,0.2,0.8,0.8,0.8c0.8,0,1.5,0,2.3,0
			c1.3,0,1.3,0,1.2-1.3c0-0.4-0.2-0.5-0.5-0.5c-0.5,0-1,0-1.5,0c0-1.4,0-2.6,0-3.9c0.3,0,0.4-0.1,0.6-0.1c0.7,0,1.5-0.1,2.2-0.1
			c1.2,0,1.9,0.5,2.2,1.6c0.2,0.8,0.4,1.6,0.4,2.4c0.1,3.2,0,6.3,0,9.5c0,1.3,0.1,2.5,0.8,3.7c0.4,0.7,0.6,0.7,1.3,0.4
			c0.2-0.1,0.5-0.3,0.7-0.4c0.5-0.2,0.5-0.5,0.3-0.9c-0.5-0.9-0.7-1.8-0.7-2.8c0-2.7,0-5.4,0-8.1c0-1.5-0.2-3-0.8-4.4
			c-0.8-1.6-2-2.7-3.8-2.7c-2.1,0-4.2,0.2-6.3,0.3c-0.1,0-0.4,0.2-0.4,0.3C818.6,62.7,818.9,63,820.1,63.1z M776.4,69.3
			C776.4,69.3,776.4,69.3,776.4,69.3c0-1.6,0-3.2,0-4.9c-0.1-2.1-1.2-3.4-3.3-3.9c-1.8-0.4-3.5-0.2-5.3,0.1
			c-0.8,0.1-1.7,0.4-2.5,0.6c-0.5,0.1-0.7,0.4-0.5,1c0.2,0.4,0.3,0.8,0.4,1.2c0.1,0.6,0.4,0.7,1,0.6c1.3-0.3,2.7-0.6,4-0.7
			c1.8-0.1,2.4,0.6,2.4,2.3c0,2.9,0,5.7,0,8.6c0,0.5,0.1,0.8,0.7,0.7c0.7,0,1.3,0,2,0c1,0,1,0,1-1C776.4,72.4,776.4,70.9,776.4,69.3
			z M840.3,72.8c-0.2,0.5-0.5,1-0.7,1.5c-0.3,0.6-0.2,0.7,0.4,0.9c0.1,0,0.3,0.1,0.4,0.1c1.6,0.1,2.5-0.8,3.3-2
			c0.2-0.3,0.3-0.6,0.4-0.9c0.2,0.7,0.4,1.4,0.7,2.1c0.4,0.9,0.5,0.9,1.3,0.4c0.2-0.1,0.3-0.2,0.5-0.3c0.4-0.2,0.5-0.5,0.3-0.9
			c-0.5-0.8-0.6-1.7-0.6-2.6c0-1,0-1.9,0-2.9c0-1.3,0-2.7-0.1-4c-0.2-1.7-1.1-2.8-2.6-3.1c-1-0.3-2-0.2-3,0.1
			c-1.1,0.3-1.2,0.5-0.7,1.6c0.4,0.8,0.4,0.8,1.1,0.4c1.6-0.8,2.9-0.2,3,1.6c0.1,2,0,4,0,6c0,0.1-0.1,0.3-0.2,0.4
			c-0.4,0.5-0.8,0.9-1.3,1.3C842,73.1,841.2,73.4,840.3,72.8z M853.5,73c-1,0-2,0-3.1,0c-1.5,0-1.3-0.3-1.3,1.3
			c0,0.4,0.1,0.6,0.6,0.6c1.7,0,3.5,0,5.2,0c0.2,0,0.4,0,0.5-0.1c0.2-0.6,0.5-1.2,0.5-1.8c0-1.1-0.2-2.2-0.3-3.3c-0.1-2,0-4-0.1-6.1
			c-0.1-1.6-0.8-2.5-2.5-2.7c-0.9-0.1-1.8,0-2.6,0.2c-1.3,0.3-1.4,0.6-0.8,1.8c0.2,0.4,0.4,0.5,0.8,0.3c0.3-0.1,0.7-0.3,1-0.4
			c1.3-0.4,1.9,0,1.9,1.4c0,1.8,0,3.6,0,5.3C853.4,70.7,853.5,71.8,853.5,73z M880.6,63c-0.1,0.8-0.4,1.6-0.4,2.3
			c-0.1,2.7-0.1,5.3-0.1,8c0,1.8-0.2,1.5,1.5,1.5c0.6,0,0.7-0.2,0.7-0.8c0-2.9,0-5.7,0-8.6c0-0.7,0.2-1.3,0.4-2
			c0.1-0.4,0.4-0.6,0.9-0.5c0.2,0,0.6-0.1,0.7-0.2c0.2-0.4,0.3-0.9,0.5-1.5c-0.4,0-0.6-0.1-0.8-0.1c-3,0-6,0-9,0
			c-1.3,0-1.1-0.2-1.1,1.1c0,0.5,0.1,0.7,0.6,0.7c1.8,0,3.6,0,5.4,0C880.2,63,880.4,63,880.6,63z M860.8,63c-0.2,1.1-0.4,2.1-0.5,3
			c-0.1,1,0,2,0,3c0,1.4,0,2.8,0,4.2c0,1.8-0.2,1.5,1.6,1.6c0.5,0,0.7-0.2,0.7-0.7c0-2.6,0-5.1,0-7.7c0-1.1,0-2.2,0.8-3.2
			c0.1-0.2,0.4-0.3,0.6-0.3c0.9-0.1,0.9,0,0.9-1c0,0,0-0.1,0-0.1c0.1-0.5-0.1-0.7-0.7-0.7c-1.9,0-3.8,0-5.8,0c-0.2,0-0.4,0-0.6,0
			c0,0.6,0,1.1,0,1.7C858.8,63,859.8,63,860.8,63z M834.3,63c0,0.3,0,0.5,0,0.8c0,3.1,0,6.3,0,9.4c0,1.9-0.3,1.6,1.6,1.6
			c0.5,0,0.6-0.1,0.6-0.6c0-4.1,0-8.3,0-12.4c0-0.5-0.2-0.6-0.6-0.6c-1,0-2.1,0-3.1,0c-1.3,0-1.1-0.2-1.2,1.2c0,0.4,0.2,0.6,0.6,0.6
			C832.9,63,833.6,63,834.3,63z M869.6,63c0,0.2,0,0.3,0,0.4c0,1.5,0,3,0,4.5c0,0.4,0.1,0.6,0.6,0.5c0.4-0.1,0.7-0.2,1.1-0.3
			c0.4-0.1,0.6-0.3,0.6-0.7c0-1.9,0-3.7,0-5.6c0-0.5-0.2-0.7-0.7-0.7c-1,0-2.1,0-3.1,0c-1.3,0-1.2-0.2-1.2,1.2
			c0,0.4,0.2,0.6,0.6,0.6C868.2,63,868.9,63,869.6,63z"/>
		<path class="st0" d="M847.6,118.2c0.1,3.2-2.4,6.2-6.3,6.3c-3.7,0-6.4-2.8-6.4-6.1c0-3.4,2.7-6.1,6-6.2
			C845,112,847.8,115.2,847.6,118.2z"/>
		<path class="st0" d="M812.8,67.9c-0.2,1.1-0.2,2.1-0.5,3.1c-0.3,1-1,1.5-2,1.5c-1,0-1.7-0.5-2-1.5c-0.6-2.1-0.6-4.1,0-6.2
			c0.3-1,1-1.5,2-1.5c1,0,1.7,0.5,2,1.5C812.5,65.8,812.6,66.8,812.8,67.9z"/>
	</g>
	<g>
		<rect x="129" y="55" transform="matrix(0.7071 -0.7071 0.7071 0.7071 -5.1156 112.2529)" class="st0" width="8" height="14.5"/>
		
			<rect x="144.9" y="70.9" transform="matrix(0.7071 -0.7071 0.7071 0.7071 -11.6995 128.148)" class="st0" width="8" height="14.5"/>
		
			<rect x="125.7" y="74.2" transform="matrix(0.7071 -0.7071 0.7071 0.7071 -16.355 116.9086)" class="st0" width="14.5" height="8"/>
		<rect x="141.6" y="58.3" transform="matrix(0.7071 -0.7071 0.7071 0.7071 -0.46 123.4924)" class="st0" width="14.5" height="8"/>
		
			<rect x="190.2" y="66.3" transform="matrix(0.7071 0.7071 -0.7071 0.7071 106.5547 -116.7478)" class="st0" width="8" height="8"/>
		<path class="st0" d="M124.8,67.5c-0.1-0.8-0.3-1.6-0.6-2.4c-2.1-6.3-8.1-10.8-15.1-10.8c-7,0-13,4.5-15.1,10.8
			c-0.3,0.8-0.5,1.6-0.6,2.4c-0.2,0.9-0.2,1.8-0.2,2.8c0,0.9,0.1,1.9,0.2,2.8c0.1,0.8,0.3,1.6,0.6,2.4c2.1,6.3,8.1,10.8,15.1,10.8
			c7,0,13-4.5,15.1-10.8h-9c-1.5,1.7-3.7,2.8-6.1,2.8c-2.5,0-4.7-1.1-6.1-2.8c-0.6-0.7-1.1-1.5-1.4-2.4c0,0-0.2-0.5-0.2-0.6l23.5,0
			c0-0.1,0-0.2,0-0.4c0-0.3,0.1-0.6,0.1-0.9v-2C125,68.6,124.9,68,124.8,67.5z M101.6,67.5c0.3-0.9,0.8-1.7,1.4-2.4
			c1.5-1.7,3.7-2.8,6.1-2.8c2.5,0,4.7,1.1,6.1,2.8c0.6,0.7,1.1,1.5,1.4,2.4H101.6z"/>
		<path class="st0" d="M82.5,56.4c-2.3-1.4-5-2.1-7.9-2.2v0c0,0,0,0-0.1,0c0,0,0,0-0.1,0v0c-2.9,0-5.6,0.8-7.9,2.2
			c-4.8,2.8-7.9,7.9-7.9,13.8v16h7.9v-16c0-4.4,3.6-8,8-8c4.4,0,8,3.6,8,8v16h7.9v-16C90.5,64.4,87.3,59.2,82.5,56.4z"/>
		<path class="st0" d="M178.8,75.4h9c-2.1,6.3-8.1,10.8-15.1,10.8c-8.8,0-16-7.1-16-16c0-8.8,7.1-16,16-16c7,0,13,4.5,15.1,10.8h-9
			c-1.5-1.7-3.7-2.8-6.1-2.8c-4.4,0-8,3.6-8,8c0,4.4,3.6,8,8,8C175.1,78.3,177.3,77.2,178.8,75.4z"/>
	</g>
</g>
<g id="Layer_2">
</g>
</svg>
