<?xml version="1.0" encoding="utf-8"?>
<!-- Generator: Adobe Illustrator 24.0.2, SVG Export Plug-In . SVG Version: 6.00 Build 0)  -->
<svg version="1.1" xmlns="http://www.w3.org/2000/svg" xmlns:xlink="http://www.w3.org/1999/xlink" x="0px" y="0px"
	 viewBox="0 0 1465.3 137.1" style="enable-background:new 0 0 1465.3 137.1;" xml:space="preserve">
<style type="text/css">
	.st0{fill:#A1A1A1;}
	.st1{fill-rule:evenodd;clip-rule:evenodd;fill:#A1A1A1;}
	.st2{fill:#A1A1A1;stroke:#231F20;stroke-width:3;stroke-miterlimit:10;}
</style>
<g id="logo">
	<title>amdocswhite</title>
	<g>
		<path class="st0" d="M183.2,81c0.4-1.8,0.7-3.4,1-5.1c0.6-3.6,0.8-7.3,0.4-10.9c-0.4-4.9-1.7-9.5-4.1-13.8
			c-4.6-8.3-11.7-13.5-20.9-15.6c-7.6-1.7-15-0.8-21.9,2.8c-7,3.7-12.2,9.1-14.9,16.7c-0.2,0.4-0.3,0.6-0.8,0.6c-1.8,0-3.6,0-5.6,0
			c0.6-1.5,1.1-3,1.7-4.4c4.6-9.9,12.1-16.5,22.4-20.1c5.5-2,11.2-2.4,17-1.7c6.5,0.8,12.5,3.1,17.7,7c6.4,4.8,10.8,11.1,13.3,18.6
			c2.3,7,2.6,14.2,1.5,21.4c-0.2,1.4-0.5,2.7-0.8,4c0,0.2-0.3,0.5-0.4,0.5C186.9,81,185,81,183.2,81z"/>
		<path class="st0" d="M91.4,64.1c0,5.6,0,11.2,0,16.9c-2.1,0-4.1,0-6.2,0c0-5.6,0-11.2,0-16.9c-1.2,0-2.4,0-3.6,0
			c0-1.6,0-3.2,0-4.8c1.2,0,2.3,0,3.5,0c0.1-1.3,0.1-2.4,0.2-3.6c0.4-3.6,2.6-6.2,6-7c2.7-0.6,5.3-0.3,7.8,1
			c-0.6,1.5-1.3,2.9-1.9,4.3c-0.7-0.2-1.4-0.4-2.1-0.5c-2.1-0.3-3.5,0.8-3.7,2.8c-0.1,1,0,1.9,0,2.9c3.1,0,6.2,0,9.4,0
			c0-0.4,0-0.8,0-1.2c0.2-1.5,0.2-3,0.7-4.4c1-3.3,3.6-4.9,6.9-5.2c2.2-0.2,4.3,0.2,6.3,1.3c-0.6,1.4-1.3,2.9-1.9,4.2
			c-0.9-0.2-1.8-0.4-2.6-0.5c-1.7-0.1-2.9,0.8-3.1,2.5c-0.2,1.1-0.1,2.2-0.2,3.3c1.9,0,3.8,0,5.6,0c0,1.6,0,3.1,0,4.8
			c-1.8,0-3.7,0-5.6,0c0,5.7,0,11.3,0,16.9c-2.1,0-4.1,0-6.2,0c0-5.6,0-11.2,0-16.8C97.6,64.1,94.5,64.1,91.4,64.1z"/>
		<path class="st0" d="M164.6,62.4c2.6-3.2,6-4.4,9.4-3.4c2.7,0.8,4.5,2.9,4.8,5.7c0.1,0.7,0.1,1.5,0.1,2.2c0,4.4,0,8.8,0,13.2
			c0,0.3,0,0.6,0,0.9c-2.1,0-4.1,0-6.2,0c0-0.3,0-0.5,0-0.8c0-4,0-7.9,0-11.9c0-1.1-0.1-2.2-0.8-3c-1.4-1.8-4.1-1.7-5.5,0.2
			c-1,1.4-1.2,3.1-1.2,4.7c0,3.3,0,6.6,0,9.9c0,0.3,0,0.6,0,0.9c-2.1,0-4.1,0-6.2,0c0-0.3,0-0.6,0-0.9c0-4.3,0-8.5-0.1-12.8
			c0-1.6-1-2.8-2.3-3.2c-1.3-0.4-2.9,0.1-3.7,1.4c-0.5,0.7-0.8,1.5-1,2.3c-0.2,0.8-0.2,1.8-0.2,2.6c0,3.2,0,6.5,0,9.7
			c0,0.3,0,0.6,0,0.9c-2.1,0-4.1,0-6.2,0c0-7.2,0-14.3,0-21.6c2,0,3.9,0,5.9,0c0,1,0,1.9,0,3.1c1.7-2.6,3.8-3.9,6.8-3.8
			C160.8,58.7,163.1,59.9,164.6,62.4z"/>
		<path class="st0" d="M78.8,81c-1.7,0-3.4,0-5.1,0c-0.2,0-0.3,0-0.6,0c0-1,0-2,0-3c-0.9,0.8-1.7,1.7-2.7,2.3
			c-2.8,1.7-5.9,1.8-8.8,0.3c-3.5-1.9-4.2-7.7,0-10.3c1.9-1.2,4-1.7,6.2-2.1c1.1-0.2,2.2-0.4,3.3-0.6c1.1-0.2,1.7-0.8,1.7-1.6
			c0.1-0.9-0.6-1.9-1.5-2.2c-1.5-0.5-3-0.4-4.4-0.1c-1.9,0.5-3.6,1.4-5.2,2.7c-0.7-1.4-1.4-2.8-2.1-4.3c1.4-1.1,2.9-1.9,4.5-2.5
			c2.8-1,5.7-1.4,8.6-0.7c3.7,0.8,6,3.5,6.1,7.3c0.1,4.8,0,9.6,0,14.3C78.9,80.7,78.9,80.8,78.8,81z M72.5,71.1
			c-1.8,0.4-3.5,0.7-5.2,1.2c-0.6,0.2-1.1,0.6-1.6,1c-0.8,0.7-0.9,1.6-0.6,2.5c0.3,0.9,1,1.2,1.9,1.3C70.4,77.4,72.8,74,72.5,71.1z"
			/>
		<path class="st0" d="M142.8,59.2c-0.4,1.9-0.8,3.8-1.1,5.5c-0.9-0.2-1.7-0.5-2.5-0.5c-2.4-0.1-4.3,1.4-4.9,3.7
			c-0.2,1-0.3,2.1-0.4,3.1c0,3.1,0,6.1,0,9.2c0,0.3,0,0.5,0,0.8c-2.1,0-4.1,0-6.2,0c0-7.2,0-14.4,0-21.6c1.9,0,3.8,0,5.7,0
			c0,1.1,0,2.2,0,3.3c1-1.6,2.1-3,4-3.5C139.2,58.5,141,58.5,142.8,59.2z"/>
		<path class="st0" d="M116.3,80.9c0-7.2,0-14.3,0-21.5c2,0,4.1,0,6.1,0c0,7.2,0,14.3,0,21.5C120.4,80.9,118.4,80.9,116.3,80.9z"/>
	</g>
	<g>
		<path class="st0" d="M375.5,74c-1.1,0.8-2.2,1.6-3.2,2.4c-1.7,1.2-3.2,2.6-5,3.7c-2.9,1.9-6,1.5-8.3-1.3c-0.8-0.9-1.3-2-1.9-3
			c-0.5-1-0.9-2.1-1.4-3.3c-0.3,0.4-0.5,0.6-0.8,0.9c-1.5,1.9-3,3.9-4.7,5.5c-1,1-2.4,1.6-3.8,2c-2.8,0.8-4.4-0.3-6.1-3.7
			c-1.4,2.6-3.3,4.2-6.3,4c-3.1-0.2-4.6-2.2-5.3-4.7c-2.6,1.6-5.1,3.4-7.7,4.8c-3.7,2-7.8,2.7-12,2.2c-3.9-0.4-6.8-2.6-8.9-5.8
			c-2.7-4.3-3-9.1-2.5-13.9c1.4-12.2,7.6-21.5,17.9-28.1c2.6-1.7,5.5-2.9,8.6-3.3c4.8-0.7,8.8,2.5,9.3,7.3c0.1,1,0.1,2-1.1,2.3
			c-1.2,0.3-1.6-0.6-1.9-1.6c-1.2-3.9-3.3-5-7.2-3.6c-5.9,2.1-10.3,6.1-13.9,11c-4.5,6-7,12.7-6.7,20.3c0,0.9,0.2,1.9,0.3,2.8
			c1.2,6,5.4,8.9,11.5,7.6c6-1.2,10.6-4.6,14.9-8.8c0.9-0.8,1.6-1.8,2.6-2.5c1-0.7,2.2-1.5,3.4-1.8c3.8-1.1,6.4,0.4,7.4,4.2
			c0.5,1.8,0.8,3.7,1.3,5.6c0.5,2,1.9,2.5,3.5,1.2c3.1-2.5,5-5.9,6.9-9.2c0.2-0.3,0-0.9-0.1-1.4c-0.7-8.3-0.7-16.6,1.1-24.8
			c0.4-1.7,1.1-3.4,2-4.8c1.6-2.6,4.7-2.6,6,0.2c0.9,1.8,1.4,4,1.6,6.1c0.5,8.1-1.9,15.5-5.3,22.6c-0.3,0.7-0.5,1.7-0.4,2.5
			c0.6,2.3,1.2,4.7,2.2,6.9c0.9,2.2,2.2,2.4,4.2,1c1.8-1.3,3.4-2.7,5.2-3.9c1-0.7,2.2-1.3,3.3-1.6c2.5-0.6,4,0.5,5.6,3.7
			c0.9-1.2,1.7-2.4,2.7-3.4c1-1.1,2-2.1,3.2-2.9c3.4-2.4,7.1-1.5,9.2,2.1c0.5,0.9,0.9,1.9,1.3,2.9c1-1.3,1.9-2.6,3-3.7
			c3.8-3.8,8.5-3.1,11,1.6c0.5,0.9,0.9,1.7,1.3,2.7c2,5.3,6.6,6.3,11.3,5c1.4-0.4,2.8-1.1,4.2-1.5c0.4-0.1,1,0.1,1.5,0.2
			c-0.2,0.4-0.2,1.1-0.5,1.3c-3.5,2.5-7.4,4.2-11.9,3.8c-4.7-0.4-7.3-3.4-8.9-7.6c-0.2-0.6-0.4-1.3-0.7-1.9c-1-2.2-2.6-2.6-4.2-0.8
			c-0.8,0.9-1.5,2-2,3.1c-0.7,1.4-1.2,2.8-1.9,4.2c-1,2.1-2.1,2.8-3.6,2.5c-1.4-0.3-2.2-1.5-2.4-3.7c-0.1-0.9,0-1.8-0.1-2.6
			c-0.1-0.8-0.1-1.6-0.3-2.3c-0.6-2.9-2.8-3.8-5-1.8c-2,1.8-3.5,4.2-5.1,6.3c-0.7,0.9-1.1,2-1.7,3c-0.6,1-1.6,1.6-2.6,1
			c-0.6-0.4-1.1-1.4-1.3-2.2c-0.3-1.6-0.4-3.2-0.6-4.8C376,74.1,375.7,74.1,375.5,74z M331.7,74.8c0.6,0.9,1.1,2.1,2,2.6
			c1.2,0.7,2.5,0.1,3.2-1c0.8-1.3,1.5-2.8,1.9-4.3c0.2-0.7,0-1.9-0.5-2.3c-0.6-0.5-1.7-0.6-2.5-0.4
			C333.7,69.9,332.1,72.3,331.7,74.8z M360.7,39.4c-2.2,6.4-2,13-1.9,19.6C361.5,52.6,362.7,46.2,360.7,39.4z"/>
	</g>
	<g>
		<path class="st0" d="M532.3,74.7h-10.5l-2.4,6.5h-3.4l9.6-25h2.9l9.6,25h-3.4L532.3,74.7z M522.8,72h8.5l-4.3-11.7L522.8,72z"/>
		<path class="st0" d="M553.2,71.2h-5.9v10.1H544v-25h8.3c2.8,0,5,0.6,6.5,1.9c1.5,1.3,2.3,3.2,2.3,5.6c0,1.6-0.4,2.9-1.3,4.1
			c-0.8,1.2-2,2-3.5,2.6l5.9,10.6v0.2h-3.5L553.2,71.2z M547.3,68.5h5.1c1.6,0,2.9-0.4,3.9-1.3c1-0.8,1.5-2,1.5-3.4
			c0-1.5-0.5-2.7-1.4-3.6c-0.9-0.8-2.3-1.2-4-1.3h-5.1V68.5z"/>
		<path class="st0" d="M591,78.6h11.9v2.7h-15.2v-25h3.3V78.6z"/>
		<path class="st0" d="M612.8,81.3h-3.3v-25h3.3V81.3z"/>
		<path class="st0" d="M640.6,81.3h-3.3L624.7,62v19.3h-3.3v-25h3.3l12.6,19.4V56.3h3.3V81.3z"/>
		<path class="st0" d="M655.5,69.6l-3.1,3.2v8.5h-3.3v-25h3.3v12.4l11.1-12.4h4l-9.8,11l10.6,14h-4L655.5,69.6z"/>
		<polygon class="st0" points="580.5,56.3 565.9,56.3 565.9,59.4 577.2,59.4 577.2,81.3 580.5,81.3 580.5,59 580.5,58.9 		"/>
	</g>
	<path class="st1" d="M1082.8,73.4h5.3l-4.4,21.4h-5.3L1082.8,73.4z M1090.8,73.4h5.3l-2.6,12.8l-5.3,0L1090.8,73.4z M1117.5,73.4
		h5.3l-4.4,21.4l-5.3,0L1117.5,73.4z M1153.2,73.6c0.5-0.1,1-0.1,1.5-0.1c5.2,0,8.4,4.8,7.1,10.7s-6.4,10.7-11.5,10.7
		c-5.2,0-8.4-4.8-7.1-10.7c1.1-5.3,5.4-9.7,10.1-10.5L1153.2,73.6L1153.2,73.6z M1152,79.3c-1.4,0.7-3,2.3-3.5,4.9
		c-0.8,3.6,1.3,5.3,2.9,5.3c1.6,0,4.4-1.7,5.1-5.3s-1.3-5.3-2.9-5.3c-0.5,0-1,0.2-1.5,0.4L1152,79.3L1152,79.3z M1133.5,78.8
		c-0.4,0-0.8,0.1-1.2,0.3l1.1-5.5c0.4-0.1,0.7-0.1,1.1-0.1c5,0,8.1,4.8,6.9,10.7s-6.3,10.7-11.3,10.7c-5,0-8.1-4.8-6.9-10.7
		l2.2-10.7h5.3l-2.2,10.7c-0.8,3.8,1.4,5.3,2.7,5.4c1.3,0,4.1-1.6,4.9-5.3C1137,80.3,1134.9,78.8,1133.5,78.8 M1114.9,73.3l-1.1,5.3
		h-2.7l-3.3,16l-5.3,0l3.3-16l-8,0l1.1-5.3L1114.9,73.3z M1057,95.5c0.2,0,0.2,0.1,0.1,0.2l0.2,0c0-0.1,0-0.2,0.1-0.3
		c-0.1,0-0.2,0-0.3-0.1C1057,95.4,1057,95.4,1057,95.5 M1046.8,93.5l0.3,0.1c0-0.1,0-0.1,0-0.2l-0.3-0.1
		C1046.8,93.4,1046.8,93.5,1046.8,93.5 M1060.5,95.4l0.7,0.1c0-0.1,0-0.1,0-0.2c0.1,0,0.2,0.1,0.2,0c0,0,0-0.1,0-0.1l-0.9-0.1
		C1060.5,95.1,1060.5,95.3,1060.5,95.4 M1051.2,93.5l0.3,0.1c0-0.1,0-0.1,0-0.2c-0.1,0-0.2,0-0.3-0.1
		C1051.2,93.4,1051.2,93.5,1051.2,93.5 M1049.8,93.3c0.1,0,0.2,0,0.3,0.1c0,0.1,0,0.1,0,0.2c0.1,0,0.2,0,0.3,0.1
		c0,0.1,0,0.2-0.1,0.3l-0.2,0c0,0.1,0,0.1,0,0.2c0.2,0,0.2,0.1,0.1,0.2l0.2,0c0-0.2,0.1-0.2,0.2-0.1c0-0.1,0-0.2,0.1-0.3l0.2,0
		c0-0.1,0-0.1,0-0.2c-0.2,0-0.2-0.1-0.1-0.2c-0.1,0-0.2,0-0.3-0.1c0-0.1,0-0.1,0-0.2l-0.7-0.1C1049.8,93.2,1049.8,93.3,1049.8,93.3
		 M1051.4,93c0.2,0,0.2,0.1,0.1,0.2l0.2,0c0-0.1,0-0.2,0.1-0.3c-0.1,0-0.2,0-0.3-0.1C1051.4,92.9,1051.4,93,1051.4,93 M1062.9,94.9
		l0.2,0c0-0.2,0.1-0.2,0.2-0.1c0-0.1,0-0.1,0-0.2l-0.3-0.1C1062.9,94.6,1062.9,94.7,1062.9,94.9 M1053.5,92.7l-0.3,0
		c0,0.2-0.1,0.5-0.1,0.7c0,0,0.1,0,0.1,0c0.1,0,0-0.2,0.1-0.2l0.3,0c0-0.2,0.1-0.2,0.2-0.1c0-0.2,0.1-0.3,0.1-0.5l-0.3-0.1
		C1053.6,92.6,1053.6,92.7,1053.5,92.7 M1052.2,92.5l0.3,0.1c0-0.1,0-0.1,0-0.2l-0.3-0.1C1052.2,92.4,1052.2,92.4,1052.2,92.5
		 M1045,91.3c0.1,0,0.1,0,0.2,0c0-0.1,0-0.1,0-0.2l-0.2,0C1045.1,91.2,1045,91.3,1045,91.3 M1051.4,92.2l0.2,0c0-0.1,0-0.1,0-0.2
		l-0.2,0C1051.4,92.1,1051.4,92.1,1051.4,92.2 M1063,93.8c0.1,0,0.2,0,0.3,0.1c0-0.1,0-0.2,0.1-0.3c-0.1,0-0.2,0-0.3-0.1L1063,93.8
		 M1056.4,92.6l-0.3,0l0,0.2c0.2,0,0.5,0.1,0.7,0.1c0-0.1,0-0.2,0.1-0.3l-0.3-0.1C1056.4,92.5,1056.4,92.6,1056.4,92.6 M1054.5,92.3
		l0.3,0.1c0,0.1,0,0.1,0,0.2l0.2,0c0-0.1,0-0.2,0.1-0.3l-0.2,0c0-0.1,0-0.1,0-0.2c-0.1,0-0.2,0-0.3-0.1
		C1054.5,92.1,1054.5,92.2,1054.5,92.3 M1057.5,92.4l0.2,0c0-0.1,0-0.1,0-0.2c-0.1,0-0.1,0-0.2,0
		C1057.5,92.3,1057.5,92.4,1057.5,92.4 M1052.2,91.6c0.2,0,0.2,0.1,0.1,0.2l0.2,0c0,0,0-0.2,0.1-0.2l0.1,0l0,0.2l0.2,0
		c0-0.1,0-0.2,0.1-0.3l-0.7-0.1C1052.2,91.5,1052.2,91.5,1052.2,91.6 M1045.5,90.5l0.2,0c0-0.1,0-0.1,0-0.2l-0.2,0
		C1045.5,90.4,1045.5,90.5,1045.5,90.5 M1056.3,91.9l0.3,0.1c0-0.1,0-0.1,0-0.2c-0.1,0-0.2,0-0.3-0.1L1056.3,91.9 M1050.1,91.6
		c0,0.2-0.1,0.2-0.2,0.1c0,0.1,0,0.2-0.1,0.3l-0.1,0c0-0.1,0-0.1,0-0.2l-0.3-0.1l0-0.2c-0.2,0-0.2-0.1-0.1-0.2
		c-0.2,0-0.3-0.1-0.5-0.1c0,0.2-0.1,0.2-0.2,0.1c0,0.1,0,0.2-0.1,0.3c0.1,0,0.1,0,0.2,0c0,0,0-0.2,0.1-0.2l0.7,0.1
		c0,0.1,0,0.1,0,0.2l0.3,0.1c0,0.1,0,0.1,0,0.2c0.2,0,0.3,0.1,0.5,0.1c0-0.2,0.1-0.5,0.1-0.7c0,0,0.1,0,0.1,0c0,0.1,0,0.1,0,0.2
		l0.3,0.1c0-0.1,0-0.2,0.1-0.3l0.2,0c0-0.2,0.1-0.2,0.2-0.1c0-0.2,0.1-0.3,0.1-0.5l-0.3-0.1c0,0,0,0.2-0.1,0.2l-0.3,0
		c0,0.2-0.1,0.2-0.2,0.1c0,0.2-0.1,0.3-0.1,0.5L1050.1,91.6 M1047.6,90.7l0.2,0c0-0.1,0-0.2,0.1-0.3l-0.2,0
		C1047.6,90.5,1047.6,90.6,1047.6,90.7 M1063.1,93.2l0.7,0.1c0,0.1,0,0.1,0,0.2l0.3,0.1c0-0.1,0-0.2,0.1-0.3c-0.1,0-0.1,0-0.2,0
		c0-0.1,0-0.1,0-0.2c-0.2,0-0.2-0.1-0.1-0.2c-0.1,0-0.2,0-0.3-0.1c0,0,0,0.2-0.1,0.2l-0.1,0c0-0.1,0-0.1,0-0.2l-0.2,0
		C1063.2,92.8,1063.2,93,1063.1,93.2 M1047.5,90.2c0.1,0,0.1,0,0.2,0c0-0.1,0-0.1,0-0.2l-0.2,0C1047.5,90,1047.5,90.1,1047.5,90.2
		 M1046.1,89.9l0.2,0l0-0.2l-0.2,0C1046.2,89.8,1046.1,89.9,1046.1,89.9 M1055.4,91.2c-0.1,0-0.2,0-0.3,0c0,0.1,0,0.1,0,0.2
		c0.2,0,0.2,0.1,0.1,0.2c0.1,0,0.2,0,0.3,0.1c0,0,0-0.2,0.1-0.2l0.3,0l0-0.2c-0.2,0-0.2-0.1-0.1-0.2l-0.3-0.1
		C1055.4,91.1,1055.4,91.2,1055.4,91.2 M1052.8,90.8c0.1,0,0.2,0,0.3,0.1c0,0.1,0,0.1,0,0.2l0.3,0.1c0-0.1,0-0.2,0.1-0.3
		c-0.2,0-0.5-0.1-0.7-0.1C1052.8,90.7,1052.8,90.8,1052.8,90.8 M1050.4,90.6l0.3,0.1c0-0.1,0-0.2,0.1-0.3l-0.3-0.1
		C1050.4,90.4,1050.4,90.5,1050.4,90.6 M1049.7,90.5c0.1,0,0.2,0,0.3,0.1c0-0.1,0-0.2,0.1-0.3l-0.3-0.1
		C1049.8,90.3,1049.7,90.4,1049.7,90.5 M1054.5,91.1c0-0.1,0-0.1,0-0.2c-0.2,0-0.2-0.1-0.1-0.2c-0.1,0-0.2,0-0.3-0.1
		c0,0.1,0,0.1,0,0.2c0,0,0.2,0,0.2,0.1l0,0.1l-0.1,0l0,0.1l-0.1,0l-0.1,0.3l0.9,0.1l0-0.1c0-0.1-0.2,0-0.2-0.1c0,0,0-0.1,0-0.1
		l-0.1,0l0-0.1L1054.5,91.1z M1067.8,92.7l0.3,0.1c0-0.1,0-0.1,0-0.2l-0.3-0.1C1067.8,92.6,1067.8,92.6,1067.8,92.7 M1057.8,91.4
		c0.2,0,0.2,0.1,0.1,0.2l0.3,0.1c0-0.2,0.1-0.5,0.1-0.7c-0.2,0-0.3-0.1-0.5-0.1C1057.9,91.1,1057.8,91.3,1057.8,91.4 M1045.2,89.1
		c0.1,0,0.1,0,0.2,0c0-0.1,0-0.1,0-0.2l-0.2,0C1045.2,89,1045.2,89,1045.2,89.1 M1065.4,92.3c0.1,0,0.1,0,0.2,0c0,0.1,0,0.1,0,0.2
		l0.5,0.1c0-0.1,0-0.2,0.1-0.3l-0.2,0c0-0.1,0-0.1,0-0.2l-0.5-0.1C1065.4,92.1,1065.4,92.2,1065.4,92.3 M1062.1,92.1
		c0,0,0.2,0,0.2,0.1c0,0,0,0.1,0,0.1l-0.3-0.1c0,0,0,0.2-0.1,0.2c-0.1,0-0.2,0-0.3,0c0,0.1,0,0.2-0.1,0.3l0.3,0.1c0,0.1,0,0.1,0,0.2
		l0.5,0.1c0,0,0-0.2,0.1-0.2l0.1,0c0,0.1,0,0.1,0,0.2c0.1,0,0.2,0,0.3,0.1c0-0.1,0-0.1,0-0.2l0.2,0c0-0.1,0-0.1,0-0.2
		c-0.2,0-0.2-0.1-0.1-0.2l-0.3-0.1c0-0.2,0.1-0.5,0.1-0.7c-0.1,0-0.1,0-0.2,0c0-0.1,0-0.1,0-0.2c-0.1,0-0.1,0-0.2,0
		c0-0.1,0-0.1,0-0.2l-0.2,0C1062.1,91.7,1062.1,91.9,1062.1,92.1 M1060.4,91.3c-0.1,0-0.1,0-0.2,0c0,0,0,0.2-0.1,0.2
		c-0.2,0-0.4-0.1-0.7-0.1c0,0.1,0,0.1,0,0.2l-0.2,0l0,0.2c0.1,0,0.2,0,0.3,0.1c0,0,0-0.2,0.1-0.2l0.8,0.1l0-0.2c0.1,0,0.1,0,0.2,0
		c0-0.1,0-0.1,0-0.2c-0.2,0-0.2-0.1-0.1-0.2l-0.2,0L1060.4,91.3 M1050,89.7l0.3,0.1c0-0.1,0-0.1,0-0.2l-0.3-0.1
		C1050,89.6,1050,89.6,1050,89.7 M1048.8,89.5l-0.3,0c0,0.1,0,0.2-0.1,0.3c0,0,0.2,0,0.2,0.1c0,0.1,0,0.2-0.1,0.3
		c-0.1,0-0.1,0-0.2,0c0,0.1,0,0.1,0,0.2l0.3,0.1c0,0.1,0,0.1,0,0.2l0.2,0c0-0.1,0-0.2,0.1-0.3l0.2,0c0,0,0-0.2,0.1-0.2l0.3,0
		c0-0.1,0-0.2,0.1-0.3l-0.2,0c0-0.1,0-0.1,0-0.2l-0.3-0.1c0-0.1,0-0.1,0-0.2c-0.1,0-0.1,0-0.2,0
		C1048.8,89.4,1048.9,89.5,1048.8,89.5 M1063.5,91.8c0.2,0,0.3,0.1,0.5,0.1c0,0.1,0,0.1,0,0.2c0.2,0,0.3,0.1,0.5,0.1
		c0-0.1,0-0.2,0.1-0.3l-0.3-0.1c0-0.1,0-0.1,0-0.2c-0.1,0-0.2,0-0.3-0.1c0,0,0,0.2-0.1,0.2l-0.3,0c0-0.1,0-0.1,0-0.2l-0.2,0
		c0,0.1,0,0.1,0,0.2C1063.5,91.6,1063.6,91.7,1063.5,91.8 M1045.8,88.8l0.2,0c0-0.1,0-0.1,0-0.2l-0.2,0
		C1045.8,88.7,1045.8,88.8,1045.8,88.8 M1044.8,89.4c0.2,0,0.2,0.1,0.1,0.2l0.5,0.1c0-0.1,0-0.2,0.1-0.3c-0.2,0-0.5-0.1-0.7-0.1
		l0.1-0.3c0.1,0,0.1,0,0.2,0c0-0.1,0-0.1,0-0.2c-0.2,0-0.2-0.1-0.1-0.2l-0.3-0.1c0,0.1,0,0.1,0,0.2l-0.2,0c0,0.1,0,0.1,0,0.2
		c-0.1,0-0.1,0-0.2,0c0,0.1,0,0.1,0,0.2l0.3,0.1c0,0.1,0,0.1,0,0.2l0.3,0.1C1044.8,89.3,1044.8,89.3,1044.8,89.4 M1056.4,90.5
		l0.3,0.1c0,0.1,0,0.1,0,0.2c0.3,0,0.6,0.1,0.9,0.1c0-0.2,0.1-0.3,0.1-0.5l-0.1,0c-0.1,0,0,0.2-0.1,0.2l-0.5-0.1c0-0.1,0-0.1,0-0.2
		c-0.2,0-0.3-0.1-0.5-0.1C1056.4,90.3,1056.4,90.4,1056.4,90.5 M1052,90.2c0,0.1,0,0.2,0,0.3c0,0,0.2,0,0.2,0.1c0,0.1,0,0.2,0,0.3
		l0.3,0.1c0-0.1,0-0.1,0-0.2c0.1,0,0.1,0,0.2,0c0-0.1,0-0.1,0-0.2c0,0-0.2,0-0.2-0.1c0-0.1,0-0.2,0-0.3c0.1,0,0.1,0,0.2,0
		c0,0,0-0.2,0.1-0.2c0.2,0,0.3,0.1,0.5,0.1c0-0.1,0-0.2,0.1-0.3c-0.1,0-0.2,0-0.3-0.1c0-0.1,0-0.1,0-0.2l-0.2,0
		c0,0.2-0.1,0.2-0.2,0.1c0,0.1,0,0.2-0.1,0.3l-0.3,0c0,0,0,0.2-0.1,0.2L1052,90.2c0-0.1,0-0.1,0-0.2l-0.5-0.1c0,0.1,0,0.1,0,0.2
		C1051.7,90.1,1051.9,90.1,1052,90.2 M1043.1,88.4l0.5,0.1c0-0.1,0-0.1,0-0.2c-0.2,0-0.2-0.1-0.1-0.2l-0.3-0.1L1043.1,88.4
		 M1047.2,88.9l0.3,0.1c0,0,0-0.2,0.1-0.2l0.8,0.1c0-0.1,0-0.2,0.1-0.3c-0.4-0.1-0.8-0.1-1.2-0.2
		C1047.2,88.5,1047.2,88.7,1047.2,88.9 M1061.4,90.6c-0.1,0-0.2,0-0.3,0c0,0.1,0,0.1,0,0.2c0.2,0,0.2,0.1,0.1,0.2l0.3,0.1
		c0-0.2,0.1-0.3,0.1-0.5c-0.1,0-0.1,0-0.2,0C1061.4,90.5,1061.5,90.6,1061.4,90.6 M1058.5,90.3c0.1,0,0.2,0,0.3,0.1l0,0.2l0.3,0.1
		c0-0.1,0-0.2,0.1-0.3l-0.3-0.1c0-0.1,0-0.1,0-0.2l-0.3-0.1C1058.5,90.1,1058.5,90.2,1058.5,90.3 M1050.2,88.8c0.1,0,0.1,0,0.2,0
		c0-0.1,0-0.1,0-0.2c-0.1,0-0.1,0-0.2,0C1050.2,88.7,1050.2,88.8,1050.2,88.8 M1063.8,91l0.3,0.1c0-0.1,0-0.2,0.1-0.3
		c-0.1,0-0.2,0-0.3-0.1C1063.9,90.8,1063.8,90.9,1063.8,91 M1053.9,89.4l0.2,0c0-0.2,0.1-0.2,0.2-0.1c0-0.1,0-0.1,0-0.2l-0.3-0.1
		C1054,89.2,1053.9,89.3,1053.9,89.4 M1038.3,86.6c0.1,0,0.1,0,0.2,0c0-0.1,0-0.1,0-0.2l-0.2,0C1038.3,86.5,1038.3,86.5,1038.3,86.6
		 M1045.1,87.5c0.1,0,0.1,0,0.2,0c0-0.1,0-0.1,0-0.2l-0.2,0C1045.1,87.4,1045.1,87.4,1045.1,87.5 M1071.1,91.4l0.2,0
		c0-0.1,0-0.1,0-0.2l-0.2,0C1071.1,91.3,1071.1,91.4,1071.1,91.4 M1051,88.2l-0.2,0c0,0.1,0,0.1,0,0.2c0.2,0,0.3,0.1,0.5,0.1
		c0-0.1,0-0.1,0-0.2c0.1,0,0.1,0,0.2,0c0-0.1,0-0.1,0-0.2c-0.2,0-0.3-0.1-0.5-0.1C1051,88.1,1051,88.2,1051,88.2 M1055.7,88.8
		l-0.3,0c0,0.1,0,0.1,0,0.2l0.3,0.1C1055.7,88.9,1055.8,88.9,1055.7,88.8c0.1,0,0.1,0,0.2,0c0-0.1,0-0.1,0-0.2c-0.1,0-0.1,0-0.2,0
		C1055.8,88.7,1055.8,88.8,1055.7,88.8 M1052.7,88.3c0.2,0,0.2,0.1,0.1,0.2l0.5,0.1c0-0.1,0-0.1,0-0.2c-0.2,0-0.2-0.1-0.1-0.2
		l-0.5-0.1C1052.7,88.2,1052.7,88.3,1052.7,88.3 M1052.2,88.3l0.2,0c0-0.1,0-0.1,0-0.2l-0.2,0C1052.2,88.1,1052.2,88.2,1052.2,88.3
		 M1044.9,86.9l0.2,0c0-0.1,0-0.2,0.1-0.3l-0.2,0C1044.9,86.7,1044.9,86.8,1044.9,86.9 M1062.5,89.4l-0.2,0c0,0.2-0.1,0.3-0.1,0.5
		c0.2,0,0.5,0.1,0.7,0.1c0,0,0-0.2,0.1-0.2c0.1,0,0.2,0,0.3,0l0.1-0.3c-0.1,0-0.1,0-0.2,0c0-0.1,0-0.1,0-0.2c-0.2,0-0.5-0.1-0.7-0.1
		C1062.5,89.3,1062.5,89.3,1062.5,89.4 M1051.6,87.6l0.2,0c0-0.1,0-0.1,0-0.2l-0.2,0C1051.6,87.5,1051.6,87.6,1051.6,87.6
		 M1065.9,90.1l-0.2,0c0,0.1,0,0.1,0,0.2c-0.1,0-0.2-0.1-0.2,0c0,0,0,0.1,0,0.1c0,0.1,0.2,0,0.2,0.1l0,0.1l-0.2,0
		c0,0.2-0.1,0.3-0.1,0.5l0.3,0.1c0-0.2,0.1-0.3,0.1-0.5l0.9,0.1c0-0.2,0.1-0.2,0.2-0.1c0-0.1,0-0.2,0.1-0.3l-0.2,0
		c0-0.1,0-0.1,0-0.2c-0.1,0-0.2,0-0.3-0.1c0-0.1,0-0.2,0-0.3l-0.5-0.1C1066,89.7,1065.9,89.9,1065.9,90.1 M1058.7,88.8l0.5,0.1
		c0.2,0.1,0.3,0.1,0.5,0c0,0,0-0.1,0-0.1c-0.1-0.1-0.2-0.1-0.3-0.1c0-0.1,0-0.1,0-0.2c-0.2,0-0.5-0.1-0.7-0.1
		C1058.8,88.6,1058.8,88.7,1058.7,88.8 M1055.5,88.1l-0.3,0c0,0,0,0.2-0.1,0.2l-0.1,0c0-0.1,0-0.1,0-0.2l-0.3-0.1c0,0.1,0,0.1,0,0.2
		l-0.2,0c0,0.1,0,0.1,0,0.2c0.1,0,0.2,0,0.3,0.1c0,0.1,0,0.1,0,0.2l0.5,0.1c0,0,0-0.2,0.1-0.2c0.2,0,0.3,0.1,0.5,0.1
		c0-0.2,0.1-0.3,0.1-0.5l-0.3-0.1C1055.5,88,1055.6,88.1,1055.5,88.1 M1042,86c0,0,0.2,0,0.2,0.1l0,0.1c-0.1,0-0.1,0-0.2,0
		c0,0,0,0.2-0.1,0.2l-0.7-0.1c0,0.2-0.1,0.2-0.2,0.1l-0.1,0.3l0.5,0.1c0,0.1,0,0.1,0,0.2c0,0,0.2,0,0.2,0.1c0,0.1,0,0.2,0,0.3
		l0.3,0.1c0,0,0-0.2,0.1-0.2l0.8,0.1c0,0,0-0.2,0.1-0.2l0.7,0.1c0-0.1,0-0.1,0-0.2c0.1,0,0.2,0.1,0.2,0c0,0,0-0.1,0-0.1
		c0-0.1-0.2,0-0.2-0.1c0-0.2,0.1-0.3,0.1-0.5c-0.2,0-0.5-0.1-0.7-0.1c0-0.1,0-0.1,0-0.2l-0.3-0.1c0-0.1,0-0.1,0-0.2
		c-0.2,0-0.5-0.1-0.7-0.1C1042.1,85.8,1042,85.9,1042,86 M1040.3,85.7l0.3,0.1c0-0.1,0-0.1,0-0.2l-0.3-0.1
		C1040.3,85.6,1040.3,85.6,1040.3,85.7 M1071.1,90.2l0.2,0c0-0.1,0-0.1,0-0.2c-0.2,0-0.2-0.1-0.1-0.2c-0.1,0-0.1,0-0.2,0
		c0,0.1,0,0.1,0,0.2C1071.1,90,1071.2,90.1,1071.1,90.2 M1064.1,88.9c-0.1,0-0.2,0-0.3,0c0,0.1,0,0.2-0.1,0.3l0.5,0.1
		c0,0,0-0.2,0.1-0.2l0.8,0.1l0-0.2c0.1,0,0.2,0.1,0.2,0c0,0,0-0.1,0-0.1l-0.3-0.1c0,0,0,0.2-0.1,0.2l-0.1,0c0-0.1,0-0.1,0-0.2
		l-0.7-0.1C1064.2,88.8,1064.2,88.9,1064.1,88.9 M1054.9,87.5c0.1,0,0.2,0,0.3,0.1c0-0.1,0-0.1,0-0.2c-0.1,0-0.2,0-0.3-0.1
		C1054.9,87.4,1054.9,87.4,1054.9,87.5 M1053.9,87.3c-0.1,0-0.2,0-0.3,0c0,0.1,0,0.1,0,0.2c0,0,0.2,0,0.2,0.1c0,0.3-0.1,0.6-0.1,0.8
		l0.5,0.1c0-0.1,0-0.2,0.1-0.3c0,0-0.2,0-0.2-0.1l0-0.1c0.2,0,0.3,0.1,0.5,0.1c0-0.1,0-0.2,0.1-0.3l-0.2,0l0-0.2l-0.3-0.1
		c0-0.1,0-0.1,0-0.2c-0.1,0-0.1,0-0.2,0C1053.9,87.2,1053.9,87.3,1053.9,87.3 M1040.4,85l0.2,0c0-0.1,0-0.1,0-0.2l-0.2,0
		C1040.5,84.9,1040.4,84.9,1040.4,85 M1038.9,84.8c0.2,0,0.2,0.1,0.1,0.2c0.2,0,0.5,0.1,0.7,0.1c0-0.1,0-0.1,0-0.2l-0.3-0.1
		c0-0.1,0-0.1,0-0.2c-0.2,0-0.3-0.1-0.5-0.1C1038.9,84.6,1038.9,84.7,1038.9,84.8 M1047.6,86c0.2,0,0.2,0.1,0.1,0.2
		c0.1,0,0.1,0,0.2,0c0,0,0-0.2,0.1-0.2l0.3,0c0-0.1,0-0.1,0-0.2l-0.7-0.1C1047.7,85.9,1047.6,85.9,1047.6,86 M1041.8,85.2
		c0,0,0.2,0,0.2,0.1c0,0.1,0,0.2,0,0.3c0.1,0,0.2,0,0.3,0.1c0-0.1,0-0.2,0.1-0.3l-0.2,0c0-0.1,0-0.1,0-0.2l-0.2,0c0-0.1,0-0.1,0-0.2
		l-0.2,0C1041.8,85,1041.8,85.1,1041.8,85.2 M1065.1,88.6c0.1,0,0.1,0,0.2,0c0-0.1,0-0.1,0-0.2l-0.2,0
		C1065.1,88.4,1065.1,88.5,1065.1,88.6 M1050.8,87c0-0.1,0-0.1,0-0.2c-0.2,0-0.2-0.1-0.1-0.2l-0.2,0c0-0.1,0-0.1,0-0.2l-0.2,0
		c0,0,0,0.2-0.1,0.2l-0.3,0c0,0,0,0.2-0.1,0.2l-0.3,0c0-0.1,0-0.1,0-0.2l-0.7-0.1c0-0.1,0-0.1,0-0.2l-0.2,0c0-0.1,0-0.1,0-0.2
		l-0.2,0c0-0.1,0-0.1,0-0.2c-0.1,0-0.1,0-0.2,0c0,0.1,0,0.2-0.1,0.3l0.2,0c0,0.1,0,0.1,0,0.2l0.2,0c0,0.1,0,0.1,0,0.2
		c0.2,0,0.2,0.1,0.1,0.2c0.1,0,0.2,0,0.3,0.1c0,0.1,0,0.1,0,0.2c0.2,0,0.2,0.1,0.1,0.2l0.3,0.1c0-0.1,0-0.2,0.1-0.3
		c0.1,0,0.2,0,0.3,0.1c0,0.1,0,0.1,0,0.2l0.3,0.1c0,0.1,0,0.1,0,0.2l0.2,0c0,0.1,0,0.1,0,0.2c0.1,0,0.1,0,0.2,0
		c0-0.2,0.1-0.2,0.2-0.1c0-0.1,0-0.1,0-0.2l-0.1,0l0-0.1L1050.8,87z M1061.9,87.9l0.2,0c0-0.1,0-0.1,0-0.2l-0.2,0L1061.9,87.9
		 M1066.2,88.4l0.2,0c0-0.1,0-0.1,0-0.2c-0.1,0-0.1,0-0.2,0C1066.2,88.3,1066.2,88.3,1066.2,88.4 M1062.9,87.9
		c0.2,0,0.3,0.1,0.5,0.1c0-0.1,0-0.1,0-0.2l-0.5-0.1C1062.9,87.7,1062.9,87.8,1062.9,87.9 M1067.3,88.7l0.3,0.1c0-0.1,0-0.1,0-0.2
		l0.2,0c0-0.1,0-0.1,0-0.2c-0.2,0-0.2-0.1-0.1-0.2l-0.3-0.1C1067.4,88.4,1067.4,88.6,1067.3,88.7 M1043.8,84.7c0.1,0,0.1,0,0.2,0
		c0-0.1,0-0.1,0-0.2l-0.2,0C1043.8,84.5,1043.8,84.6,1043.8,84.7 M1065.5,88.1l0.2,0c0-0.1,0-0.2,0.1-0.3l-0.2,0
		C1065.5,87.9,1065.5,88,1065.5,88.1 M1062.2,87.8l0.2,0c0-0.2,0.1-0.2,0.2-0.1l0-0.2c-0.2,0-0.2-0.1-0.1-0.2c-0.1,0-0.1,0-0.2,0
		C1062.3,87.4,1062.3,87.6,1062.2,87.8 M1050.7,85.6c0.1,0,0.1,0,0.2,0c0-0.1,0-0.1,0-0.2l-0.2,0
		C1050.7,85.5,1050.7,85.5,1050.7,85.6 M1065.1,87.2c0,0.2-0.1,0.2-0.2,0.1c0,0,0,0.2-0.1,0.2c0,0-0.1,0-0.1,0l0-0.2l-0.2,0
		c0,0.2-0.1,0.2-0.2,0.1c0,0.1,0,0.1,0,0.2l-0.2,0c0,0.1,0,0.1,0,0.2l0.2,0c0,0,0-0.2,0.1-0.2l0.1,0c0,0.1,0,0.1,0,0.2l0.5,0.1
		l0,0.2l0.3,0.1c0-0.1,0-0.1,0-0.2c0,0-0.2,0-0.2-0.1c0-0.2,0.1-0.4,0.1-0.7l0.2,0l0-0.2l-0.2,0c0,0.1,0,0.1,0,0.2L1065.1,87.2
		 M1050.4,84.8c0.1,0,0.1,0,0.2,0c0-0.1,0-0.1,0-0.2c-0.1,0-0.1,0-0.2,0C1050.5,84.7,1050.5,84.8,1050.4,84.8 M1045.1,84l0.2,0
		c0-0.1,0-0.1,0-0.2c-0.1,0-0.1,0-0.2,0C1045.2,83.9,1045.2,83.9,1045.1,84 M1066.5,87.2l-0.3,0c0,0.1,0,0.1,0,0.2
		c-0.1,0-0.1,0-0.2,0l0,0.2l0.3,0.1l0,0.2c0.2,0,0.3,0.1,0.5,0.1c0,0,0-0.2,0.1-0.2l0.5,0.1c0,0,0-0.2,0.1-0.2l0.3,0
		c0-0.1,0-0.2,0.1-0.3l-0.5-0.1c0,0,0,0.2-0.1,0.2l-0.3,0c0-0.1,0-0.1,0-0.2l-0.3-0.1C1066.5,87.1,1066.6,87.2,1066.5,87.2
		 M1049.1,84.5l-0.2,0c0,0.1,0,0.1,0,0.2c-0.1,0-0.1,0-0.2,0c0,0,0,0.2-0.1,0.2l-0.5-0.1c0-0.1,0-0.1,0-0.2l-0.3-0.1
		c0-0.1,0-0.1,0-0.2l-0.5-0.1c0,0,0,0.2-0.1,0.2l-1.2-0.2c0,0.1,0,0.1,0,0.2l-0.2,0c0,0.1,0,0.1,0,0.2l0.9,0.1c0,0.1-0.1,0.2,0,0.2
		c0,0,0.1,0,0.1,0c0.1-0.1,0-0.2,0.2-0.1c0,0,0-0.2,0.1-0.2l0.8,0.1l0,0.2c0.1,0,0.2,0,0.3,0.1c0,0.1,0,0.1,0,0.2l0.3,0.1
		c0,0.1,0,0.1,0,0.2c0.2,0,0.5,0.1,0.7,0.1c0,0.1,0,0.1,0,0.2l0.2,0c0-0.1,0-0.2,0.1-0.3c0,0-0.2,0-0.2-0.1c0-0.3,0.1-0.6,0.1-0.8
		l-0.3-0.1C1049.1,84.3,1049.1,84.4,1049.1,84.5 M1051.7,84.7c0.2,0,0.2,0.1,0.1,0.2l0.2,0c0-0.2,0.1-0.2,0.2-0.1c0-0.1,0-0.1,0-0.2
		l-0.5-0.1C1051.7,84.6,1051.7,84.6,1051.7,84.7 M1045.2,83.7l0.3,0.1c0-0.1,0-0.1,0-0.2l-0.3-0.1
		C1045.2,83.5,1045.2,83.6,1045.2,83.7 M1042.8,83.1l0.2,0c0-0.1,0-0.1,0-0.2l-0.2,0C1042.9,83,1042.8,83,1042.8,83.1 M1042,83.1
		c0.2,0,0.2,0.1,0.1,0.2l0.3,0.1c0-0.1,0-0.2,0.1-0.3c0.1,0,0.1,0,0.2,0c0-0.1,0-0.1,0-0.2l-0.7-0.1C1042,82.9,1042,83,1042,83.1
		 M1051.1,84.2c0.2,0,0.2,0.1,0.1,0.2l0.3,0.1l0-0.2c-0.2,0-0.2-0.1-0.1-0.2l-0.2,0c0-0.1,0-0.1,0-0.2c-0.1,0-0.1,0-0.2,0
		C1051.1,84,1051.1,84.1,1051.1,84.2 M1040.1,82.5l0.2,0l0.1-0.3l-0.2,0C1040.2,82.3,1040.2,82.4,1040.1,82.5 M1045.3,83l0.3,0.1
		c0-0.1,0-0.1,0-0.2c-0.1,0-0.2,0-0.3-0.1C1045.3,82.9,1045.3,82.9,1045.3,83 M1046.5,83c0,0,0.2,0,0.2,0.1c0,0.1,0,0.2,0,0.3
		c0.1,0,0.1,0,0.2,0c0-0.2,0.1-0.3,0.1-0.5l-0.3-0.1C1046.6,82.9,1046.5,82.9,1046.5,83 M1044.3,82.6l-0.3,0l0,0.1
		c0.1,0.1,0.2,0.1,0.1,0.2l0.9,0.1c0-0.1,0-0.2,0.1-0.3c-0.1,0-0.2,0-0.3-0.1l0-0.2l-0.3-0.1C1044.3,82.5,1044.3,82.6,1044.3,82.6
		 M1040.2,81.8l0.2,0c0-0.1,0-0.1,0-0.2c-0.1,0-0.1,0-0.2,0C1040.3,81.7,1040.2,81.8,1040.2,81.8 M1041.9,81.4c0.1,0,0.1,0,0.2,0
		c0-0.1,0-0.2,0.1-0.3l-0.2,0C1041.9,81.2,1041.9,81.3,1041.9,81.4 M1045.1,80.7c0.1,0,0.1,0,0.2,0c0-0.1,0-0.1,0-0.2
		c-0.2,0-0.2-0.1-0.1-0.2c-0.1,0-0.1,0-0.2,0c0,0.1,0,0.1,0,0.2C1045.2,80.5,1045.2,80.5,1045.1,80.7 M1045.1,80l0.2,0
		c0-0.1,0-0.1,0-0.2l-0.2,0C1045.1,79.8,1045.1,79.9,1045.1,80 M1047.8,79.7c0.1,0,0.2,0,0.3,0.1c0-0.1,0-0.1,0-0.2
		c-0.2,0-0.2-0.1-0.1-0.2c-0.1,0-0.1,0-0.2,0C1047.8,79.5,1047.8,79.6,1047.8,79.7 M1046.8,76.7l0.3,0.1c0-0.1,0-0.2,0.1-0.3l-0.2,0
		c0-0.1,0-0.1,0-0.2c-0.1,0-0.1,0-0.2,0C1046.9,76.4,1046.8,76.6,1046.8,76.7 M1043.7,75.2l0.2,0c0-0.2,0.1-0.3,0.1-0.5l-0.2,0
		C1043.8,74.9,1043.8,75,1043.7,75.2 M1044,72.4c0.1,0,0.1,0,0.2,0c0-0.1,0-0.1,0-0.2l-0.2,0C1044,72.3,1044,72.4,1044,72.4
		 M1041.8,69.8c-0.1,0-0.2,0-0.3,0c0,0.1,0,0.1,0,0.2c0.2,0,0.2,0.1,0.1,0.2l0.3,0.1c0-0.1,0-0.1,0-0.2c0.1,0,0.1,0,0.2,0
		c0-0.1,0-0.2,0.1-0.3c-0.1,0-0.2,0-0.3-0.1C1041.8,69.7,1041.8,69.8,1041.8,69.8 M1047.7,68.8l-0.5-0.1c0,0.1,0,0.1,0,0.2
		c0.2,0,0.2,0.1,0.1,0.2l0.3,0.1c0,0.1,0,0.1,0,0.2l0.2,0c0-0.1,0-0.2,0.1-0.3c0.1,0,0.1,0,0.2,0l0.1-0.3l-0.2,0c0-0.1,0-0.1,0-0.2
		l-0.2,0C1047.8,68.6,1047.7,68.7,1047.7,68.8 M1048.9,67.8c0.1,0,0.1,0,0.2,0c0-0.1,0-0.1,0-0.2c-0.1,0-0.1,0-0.2,0
		C1049,67.7,1048.9,67.7,1048.9,67.8 M1049.9,66.4c0.1,0,0.2,0,0.3,0.1c0-0.1,0-0.1,0-0.2c-0.1,0-0.2,0-0.3-0.1
		c0-0.2,0.1-0.3,0.1-0.5c-0.1,0-0.2,0-0.3-0.1l0,0.1c0,0.1,0.2,0,0.2,0.1c0,0.1,0,0.2,0,0.3C1049.9,66.1,1049.9,66.2,1049.9,66.4
		 M1040.1,63.9l0.2,0c0-0.1,0-0.1,0-0.2l-0.2,0L1040.1,63.9 M1047.1,64.9c0.1,0,0.1,0,0.2,0c0-0.1,0-0.1,0-0.2c-0.1,0-0.1,0-0.2,0
		C1047.1,64.8,1047.1,64.8,1047.1,64.9 M1047.5,64.4l0.2,0c0-0.1,0-0.1,0-0.2l-0.2,0C1047.6,64.3,1047.6,64.4,1047.5,64.4
		 M1047.8,63.9c0.1,0,0.2,0,0.3,0.1c0-0.1,0-0.1,0-0.2l-0.3-0.1C1047.8,63.8,1047.8,63.9,1047.8,63.9 M1050.5,63.5
		c0.1,0,0.1,0,0.2,0c0-0.1,0-0.1,0-0.2c-0.1,0-0.1,0-0.2,0C1050.5,63.4,1050.5,63.4,1050.5,63.5 M1044,61.2l0.2,0c0-0.1,0-0.1,0-0.2
		l-0.2,0C1044,61.1,1044,61.2,1044,61.2 M1043.2,60.9c0.1,0,0.2,0,0.3,0.1c0-0.1,0-0.1,0-0.2l-0.3-0.1
		C1043.2,60.8,1043.2,60.9,1043.2,60.9 M1049.7,60.7l0.3,0.1c0-0.1,0-0.1,0-0.2l-0.3-0.1C1049.7,60.6,1049.7,60.7,1049.7,60.7
		 M1050.3,60.3c0.1,0,0.1,0,0.2,0c0-0.1,0-0.1,0-0.2l-0.2,0C1050.3,60.2,1050.3,60.2,1050.3,60.3 M1043.9,58.9l0.3,0.1
		c0-0.1,0-0.1,0-0.2l-0.3-0.1C1043.9,58.8,1043.9,58.9,1043.9,58.9 M1043,58.6c0.1,0,0.1,0,0.2,0c0,0.1,0,0.1,0,0.2l0.2,0
		c0-0.2,0.1-0.3,0.1-0.5c-0.1,0-0.2,0-0.3-0.1C1043.1,58.4,1043.1,58.5,1043,58.6 M1050.5,59.1l0.2,0c0-0.1,0-0.1,0-0.2l-0.2,0
		C1050.5,59,1050.5,59,1050.5,59.1 M1051.3,58.2c0,0.2-0.1,0.2-0.2,0.1c0,0.2-0.1,0.2-0.2,0.1c0,0.1,0,0.2-0.1,0.3l0.5,0.1
		c0-0.2,0.1-0.5,0.1-0.7l0.2,0c0-0.1,0-0.1,0-0.2c-0.1,0-0.1,0-0.2,0c0,0.1,0,0.1,0,0.2L1051.3,58.2 M1051.7,56.8l-0.2,0
		c0,0.1,0,0.2-0.1,0.3l0.3,0.1c0,0.1,0,0.1,0,0.2l0.2,0c0-0.1,0-0.2,0.1-0.3c0,0-0.2,0-0.2-0.1c0-0.1,0-0.2,0-0.3
		c-0.1,0-0.1,0-0.2,0C1051.7,56.7,1051.7,56.8,1051.7,56.8 M1045.9,55.9l0.2,0c0-0.1,0-0.1,0-0.2l-0.2,0
		C1045.9,55.8,1045.9,55.9,1045.9,55.9 M1053.5,55.5l0.2,0c0-0.1,0-0.1,0-0.2l-0.2,0C1053.5,55.4,1053.5,55.5,1053.5,55.5
		 M1046.2,54.4c0.1,0,0.1,0,0.2,0c0-0.1,0-0.1,0-0.2l-0.2,0C1046.2,54.3,1046.2,54.3,1046.2,54.4 M1054.5,54.7l0.2,0
		c0-0.1,0-0.1,0-0.2c-0.1,0-0.1,0-0.2,0C1054.5,54.5,1054.5,54.6,1054.5,54.7 M1054.8,54.2c0,0.1,0,0.1,0,0.2l0.2,0
		c0-0.2,0.1-0.2,0.2-0.1c0-0.1,0-0.1,0-0.2c-0.1,0-0.1,0-0.2,0C1055,54.2,1054.9,54.2,1054.8,54.2 M1055.4,53.4c0.1,0,0.1,0,0.2,0
		l0-0.2c-0.2,0-0.2-0.1-0.1-0.2l-0.2,0c0,0.1,0,0.1,0,0.2C1055.4,53.2,1055.5,53.3,1055.4,53.4 M1055.7,52.9c0.2,0,0.2,0.1,0.1,0.2
		l0.3,0.1c0-0.1,0-0.2,0.1-0.3c-0.2,0-0.3-0.1-0.5-0.1C1055.7,52.8,1055.7,52.9,1055.7,52.9 M1056.3,52.3l0.2,0c0-0.1,0-0.1,0-0.2
		l-0.2,0C1056.3,52.2,1056.3,52.3,1056.3,52.3 M1052.1,51.5l0.2,0c0-0.1,0-0.1,0-0.2l-0.2,0C1052.1,51.4,1052.1,51.4,1052.1,51.5
		 M1056.8,51.3c0.2,0,0.2,0.1,0.1,0.2l0.3,0.1l0-0.2c-0.2,0-0.2-0.1-0.1-0.2l-0.3-0.1C1056.8,51.2,1056.8,51.3,1056.8,51.3
		 M1052.1,50.1c0.1,0,0.1,0,0.2,0c0-0.1,0-0.2,0.1-0.3l-0.2,0C1052.1,49.8,1052.1,50,1052.1,50.1 M1052.6,49.3l0.3,0.1
		c0-0.1,0-0.2,0.1-0.3l-0.3-0.1C1052.6,49,1052.6,49.2,1052.6,49.3 M1060.8,87c-0.1-0.1-0.2,0-0.2,0.1l-0.5-0.1
		c-0.1,0,0,0.1-0.1,0.2l-0.3,0c-0.1,0,0,0.1-0.1,0.2c-0.1,0-0.2,0-0.3-0.1l0,0.1c0.3,0.1,0.6,0.1,0.8,0.2c0,0.1,0,0.1,0,0.2l0.1,0
		c0.1-0.2,0.1-0.3,0.1-0.5c0.1,0.1,0.2,0,0.2-0.1C1060.7,87.2,1060.8,87.2,1060.8,87l0.5,0.1c0.1,0,0-0.1,0.1-0.2
		c0.2,0,0.3,0.1,0.5,0.1c0.1,0,0-0.1,0.1-0.2l0.2,0l0,0.2l0.1,0c0.1,0,0-0.1,0.1-0.1c0-0.1-0.1,0-0.2-0.1c0-0.2,0.1-0.3,0.1-0.5
		l0.3,0c0.1,0,0-0.1,0.1-0.2l0.2,0c0,0.1,0,0.1,0,0.2l0.2,0c0,0.1,0,0.1,0,0.2c0.1,0,0.1,0,0.2,0c0,0.1,0,0.1,0,0.2l0.1,0
		c0.1,0,0-0.1,0.1-0.2c0.2,0,0.5,0.1,0.7,0.1l0-0.1c-0.1-0.1-0.2-0.1-0.3-0.1c0-0.1,0-0.1,0-0.2l-0.3-0.1c0-0.1,0-0.2,0-0.3
		c0-0.1-0.1,0-0.2-0.1c0-0.1,0-0.2,0.1-0.3c0.1,0.1,0.2,0,0.2-0.1c0.1,0,0.1,0,0.2,0c0,0.1,0,0.1,0,0.2l0.3,0.1c0,0.1,0,0.1,0,0.2
		l0.3,0c0.1,0,0-0.1,0.1-0.2l0.3,0c0.1-0.1,0.1-0.2,0.1-0.3c0.1,0.1,0.2,0,0.2-0.1l0.5,0.1c0,0.1,0,0.1,0,0.2l-0.2,0
		c0,0.1,0,0.2,0,0.3c0.1,0.1,0.2,0.1,0.3,0.1c0.1,0,0-0.1,0.1-0.2l0.5,0.1c0.1,0,0-0.1,0.1-0.2l0.3,0c0.1,0,0-0.1,0.1-0.2l0.3,0.1
		c0,0.1,0,0.1,0,0.2l0.5,0.1l0-0.1c0-0.1-0.1,0-0.2-0.1l0-0.2l-0.5-0.1l0-0.2c-0.2,0-0.3-0.1-0.5-0.1c0-0.1,0-0.2,0.1-0.3
		c0.1,0.1,0.2,0,0.2-0.1c0.1,0.1,0.2,0,0.2-0.1c0.2,0,0.3,0.1,0.5,0.1c0,0.1,0,0.1,0,0.2l0.3,0c0.1,0,0-0.1,0.1-0.2l0.3,0
		c0.1,0,0-0.1,0.1-0.2l0.3,0c0.1,0,0-0.1,0.1-0.2c0.1,0,0.1,0,0.2,0c0,0.1,0,0.1,0,0.2l0.2,0c0,0.2-0.1,0.3-0.1,0.5
		c-0.1-0.1-0.2,0-0.2,0.1c-0.1,0-0.2,0-0.3,0c-0.1,0.1-0.1,0.2-0.1,0.3c0.1,0,0.2,0,0.3,0.1c0,0.1,0,0.2-0.1,0.3l0.1,0
		c0.1,0,0-0.1,0.1-0.2c0.3,0,0.6,0.1,0.9,0.1c-0.1,0.1,0,0.2,0.1,0.2c0,0.1,0,0.1,0,0.2l-0.3-0.1c0,0.1,0,0.2-0.1,0.3
		c-0.1,0-0.2,0-0.3,0c-0.1,0,0,0.1-0.1,0.2l-0.3-0.1c0-0.1,0-0.1,0-0.2l-0.1,0c-0.1,0,0,0.1-0.1,0.2l-0.2,0c0,0.1,0,0.2,0,0.3
		c0.1,0.1,0.2,0.1,0.3,0.1c0.1,0,0-0.1,0.1-0.2l0.2,0c0,0.1,0,0.1,0,0.2l0.7,0.1c0.1,0,0-0.1,0.1-0.2l0.2,0c0-0.1,0-0.1,0-0.2
		c0.1,0.1,0.2,0,0.2-0.1c0.1,0,0.1,0,0.2,0c0-0.1,0-0.1,0-0.2c0.1,0,0.1,0,0.2,0c0-0.1,0-0.1,0-0.2c0.1,0,0.2,0,0.3,0.1l0,0.2
		l0.5,0.1c0.1,0,0-0.1,0.1-0.2l0.5,0.1c0,0.1,0,0.2,0,0.3c0,0.1,0.1,0,0.2,0.1c0,0.1,0,0.1,0,0.2c0.1,0,0.1,0,0.2,0
		c0,0.1,0,0.2-0.1,0.3c-0.1,0-0.2,0-0.3-0.1l0,0.1c0,0.1,0.1,0,0.2,0.1l0,0.2c-0.3,0-0.6-0.1-0.9-0.1c0-0.1,0-0.1,0-0.2
		c-0.2,0-0.4-0.1-0.7-0.1c-0.1,0,0,0.1-0.1,0.2l-0.2,0l-0.1,0.7l-0.5-0.1c-0.1,0,0,0.1-0.1,0.2c-0.1-0.1-0.2,0-0.2,0.1l-0.2,0l0,0.1
		c0,0.1,0.1,0,0.2,0.1c0,0.1,0,0.1,0,0.2l0.2,0c0,0.1,0,0.1,0,0.2l0.7,0.1c0,0,0-0.1,0-0.1c0-0.1-0.1,0-0.2-0.1
		c0-0.2,0.1-0.5,0.1-0.7l0.3,0c0.1,0,0-0.1,0.1-0.2l0.2,0c0,0.1,0,0.1,0,0.2c0.1,0,0.1,0,0.2,0c0,0.1,0,0.1,0,0.2l0.2,0l-0.1,0.3
		l-0.2,0c0,0.1,0,0.1,0,0.2l-0.2,0l0,0.1c0.1,0.1,0.2,0.1,0.3,0.1c0,0.1,0,0.2-0.1,0.3c-0.1,0-0.2,0-0.3,0c-0.1,0,0,0.1-0.1,0.2
		l-0.5-0.1c-0.1,0,0,0.1-0.1,0.2l-0.2,0c0,0.1,0,0.1,0,0.2l-0.3-0.1c0-0.1,0-0.1,0-0.2l-0.3-0.1c0-0.1,0-0.2,0-0.3
		c0-0.1-0.1,0-0.2-0.1c0-0.1,0-0.1,0-0.2l-0.3-0.1l-0.1,0.5c0,0.1,0.1,0,0.2,0.1c0,0.1,0,0.1,0,0.2c0.1,0,0.1,0,0.2,0
		c0,0.1,0,0.1,0,0.2c0.1,0,0.2,0,0.3,0.1c0,0.1,0,0.2-0.1,0.3l-0.3,0c-0.1,0,0,0.1-0.1,0.2l-0.3,0c-0.1,0,0,0.1-0.1,0.2
		c-0.1,0-0.1,0-0.2,0c0,0.1,0,0.2-0.1,0.3c-0.1,0-0.2,0-0.3,0c-0.1,0,0,0.1-0.1,0.2c-0.1,0-0.1,0-0.2,0c0,0.1,0,0.1,0,0.2
		c-0.1-0.1-0.2,0-0.2,0.1l-0.2,0c0,0.1,0,0.1,0,0.2l-0.2,0l0,0.1c0.3,0.1,0.5,0.1,0.8,0.2c0.1,0,0-0.1,0.1-0.2l0.2,0l0,0.2l1.9,0.3
		c-0.1,0.1,0,0.2,0.1,0.2c0,0.2-0.1,0.3-0.1,0.5l0.5,0.1l0-0.1c0-0.1-0.1,0-0.2-0.1c0-0.1,0-0.2,0.1-0.3c0.1,0,0.2,0,0.3,0
		c0.1,0,0-0.1,0.1-0.2l0.2,0c0,0.1,0,0.1,0,0.2l0.3,0.1c0-0.1,0-0.2,0.1-0.3c0.1,0.1,0.2,0,0.2-0.1l0.3,0c0.1,0,0-0.1,0.1-0.2
		l0.3,0.1c0,0,0-0.1,0-0.1c-0.7-0.2-1.6-0.3-2.4-0.4c-0.1,0,0,0.1-0.1,0.2l-0.2,0c0-0.2,0.1-0.3,0.1-0.5c0.2,0,0.4,0.1,0.7,0.1
		c0.1,0,0-0.1,0.1-0.2l0.3,0.1c0,0.1,0,0.1,0,0.2l0.5,0.1c0.1,0,0-0.1,0.1-0.2c0.1,0.1,0.2,0,0.2-0.1c0.1,0.1,0.2,0,0.2-0.1
		c0.1,0,0.1,0,0.2,0c0-0.1,0-0.2,0-0.3c0-0.1-0.1,0-0.2-0.1c0.1-0.1,0-0.2-0.1-0.2c0-0.1,0-0.1,0-0.2c-0.1,0-0.2,0-0.3-0.1
		c0-0.1,0-0.2,0.1-0.3c0.1,0.1,0.2,0,0.2-0.1l0.5,0.1c0.1,0,0-0.1,0.1-0.2c0.1,0,0.2,0,0.3,0.1l0,0.2l0.7,0.1c0.1,0,0-0.1,0.1-0.2
		l0.2,0c0-0.1,0-0.1,0-0.2l0.2,0l0-0.2l0.3,0.1c0,0.1,0,0.1,0,0.2c0.1,0,0.2,0,0.3,0.1c0,0.1,0,0.2-0.1,0.3c0,0,0.1,0,0.1,0
		c0.1,0,0-0.1,0.1-0.2c0.1,0,0.1,0,0.2,0c0-0.1,0-0.1,0-0.2l0.3,0.1c0,0.1,0,0.1,0,0.2l0.2,0l-0.1,0.3l-0.3,0c-0.1,0,0,0.1-0.1,0.2
		l-0.2,0c0,0.1,0,0.2-0.1,0.3l-1.5-0.2c0,0,0,0.1,0,0.1c0,0.1,0.1,0,0.2,0.1c0,0.1,0,0.1,0,0.2l0.9,0.1c0,0.2-0.1,0.3-0.1,0.5
		c-0.1,0-0.1,0-0.2,0c0,0.1,0,0.1,0,0.2c-0.1,0-0.1,0-0.2,0l0,0.2c-0.1,0-0.2,0-0.3,0c-0.1,0,0,0.1-0.1,0.2c-0.1,0-0.2,0-0.3,0
		c-0.1,0.1-0.1,0.2-0.1,0.3c0.1,0,0.2,0,0.3,0.1c0,0.1,0,0.2-0.1,0.3l-0.7-0.1c-0.1,0,0,0.1-0.1,0.2l-0.2,0l0,0.2l-0.7-0.1
		c-0.1,0,0,0.1-0.1,0.2c-0.1,0-0.2,0-0.3,0c-0.1,0,0,0.1-0.1,0.2l-0.2,0c0,0,0,0.1,0,0.1c0,0.1,0.1,0,0.2,0.1c0,0.1,0,0.2-0.1,0.3
		c-0.1-0.1-0.2,0-0.2,0.1l-0.2,0c0-0.1,0-0.1,0-0.2c-0.1,0-0.2,0-0.3-0.1c0-0.1,0-0.1,0-0.2l-0.5-0.1l0,0.1c0,0.1,0.1,0,0.2,0.1
		c0,0.1,0,0.1,0,0.2l0.3,0.1c0,0.1,0,0.2-0.1,0.3l-0.5-0.1c-0.1,0,0,0.1-0.1,0.2c-0.1,0-0.1,0-0.2,0c0,0.1,0,0.1,0,0.2
		c-0.1,0-0.1,0-0.2,0c0,0.1,0,0.1,0,0.2l-0.7-0.1c-0.1,0,0,0.1-0.1,0.2c-0.1,0-0.2,0-0.3-0.1c0,0.1,0,0.2-0.1,0.3l-0.5-0.1l0-0.2
		l-0.1,0c-0.1,0,0,0.1-0.1,0.2l-0.5-0.1l0-0.2c-0.2,0-0.5-0.1-0.7-0.1c0-0.2,0.1-0.3,0.1-0.5l0.3,0.1c0-0.1,0-0.2,0.1-0.3l0.2,0
		c0,0.1,0,0.1,0,0.2l0.3,0c0.1,0,0-0.1,0.1-0.2l0.3,0c0.1,0,0-0.1,0.1-0.2l0.9,0.1c0,0.1,0,0.1,0,0.2l0.3,0c0.1,0,0-0.1,0.1-0.2
		c0.1,0,0.1,0,0.2,0c0,0,0-0.1,0-0.1c0-0.1-0.1,0-0.2-0.1c0.1-0.1,0-0.2-0.1-0.2c0-0.1,0-0.1,0-0.2l-0.2,0c0-0.1,0-0.2,0.1-0.3
		l-0.1,0c-0.1,0,0,0.1-0.1,0.2l-0.3,0c-0.1,0,0,0.1-0.1,0.2l-0.2,0c0,0.1,0,0.1,0,0.2c-0.1,0-0.2,0-0.3,0c-0.1,0,0,0.1-0.1,0.2
		l-0.2,0c0-0.1,0-0.1,0-0.2l-0.5-0.1c-0.1,0,0,0.1-0.1,0.2l-0.2,0c0,0.1,0,0.1,0,0.2l-0.3,0c-0.1,0.1-0.1,0.2-0.1,0.3l-0.2,0
		c0,0.1,0,0.1,0,0.2l-0.2,0c0,0.1,0,0.1,0,0.2l-0.5-0.1c0,0.1,0,0.2-0.1,0.3l-0.3,0c-0.1,0,0,0.1-0.1,0.2l-0.2,0c0,0,0,0.1,0,0.1
		c0.5,0.2,1.2,0.2,1.8,0.3c0.1,0,0-0.1,0.1-0.2c0.1,0,0.1,0,0.2,0c0,0.2-0.1,0.3-0.1,0.5l-0.2,0l0,0.1c0,0.1,0.1,0,0.2,0.1
		c0,0.1,0,0.2-0.1,0.3c-0.1-0.1-0.2,0-0.2,0.1l-0.2,0c0-0.1,0-0.2,0.1-0.3l-0.1,0c-0.1,0.1-0.1,0.2-0.1,0.3c-0.1-0.1-0.2,0-0.2,0.1
		l-0.2,0c0,0.1,0,0.1,0,0.2l-0.7-0.1c0-0.2,0.1-0.3,0.1-0.5c0-0.1-0.1,0-0.2-0.1c0.1-0.1,0-0.2-0.1-0.2c0-0.1,0-0.1,0-0.2
		c-0.1,0-0.1,0-0.2,0l0,0.1c0,0.1,0.1,0,0.2,0.1c0,0.1,0,0.1,0,0.2c-0.1,0-0.1,0-0.2,0c0,0.1,0,0.1,0,0.2l-0.2,0
		c0,0.1,0,0.2-0.1,0.3l-0.5-0.1c-0.1,0,0,0.1-0.1,0.2c-0.1-0.1-0.2,0-0.2,0.1l-0.2,0c0-0.1,0-0.1,0-0.2l-0.3-0.1l0,0.3
		c0,0.1,0.1,0,0.2,0.1c0,0.2-0.1,0.3-0.1,0.5l-1.2-0.2c-0.1,0,0,0.1-0.1,0.2c-0.3-0.1-0.7-0.1-1-0.2c-0.1,0,0,0.1-0.1,0.2l-0.2,0
		c0,0.1,0,0.2-0.1,0.3c0,0.1,0.1,0,0.2,0.1c0,0.1,0,0.2-0.1,0.3c-0.1-0.1-0.2,0-0.2,0.1c-0.2,0-0.3-0.1-0.5-0.1c0-0.1,0-0.1,0-0.2
		l-0.1,0c-0.1,0,0,0.1-0.1,0.2l-0.3,0c-0.1,0,0,0.1-0.1,0.2l-0.3,0c-0.1,0,0,0.1-0.1,0.2l-0.2,0c0,0.1,0,0.2-0.1,0.3l-1.2-0.2
		c0,0.1,0,0.2-0.1,0.3l-0.3-0.1c0-0.1,0-0.1,0-0.2c0,0-0.1,0-0.1,0c-0.1,0,0,0.1-0.1,0.2l-0.5-0.1c-0.1,0,0,0.1-0.1,0.2l-0.3,0
		c-0.1,0,0,0.1-0.1,0.2l-0.3,0c-0.1,0,0,0.1-0.1,0.2l-0.2,0c0-0.1,0-0.1,0-0.2c-0.1,0-0.2,0-0.3-0.1c0-0.1,0-0.1,0-0.2l-0.5-0.1
		c-0.1,0,0,0.1-0.1,0.2l-0.2,0c0,0.1,0,0.1,0,0.2l-0.9-0.1c0-0.1,0-0.1,0-0.2l-0.3,0c-0.1,0,0,0.1-0.1,0.2l-1.2-0.2
		c-0.1,0,0,0.1-0.1,0.2c-0.1,0-0.1,0-0.2,0c0-0.1,0-0.1,0-0.2l-0.2,0c0-0.1,0-0.1,0-0.2l-0.7-0.1c-0.1,0,0,0.1-0.1,0.2l-0.7-0.1
		c0-0.1,0-0.1,0-0.2c-0.2,0-0.3-0.1-0.5-0.1c0-0.1,0-0.2,0-0.3c-0.1-0.1-0.2-0.1-0.3-0.1c-0.1,0,0,0.1-0.1,0.2l-0.5-0.1
		c-0.1,0,0,0.1-0.1,0.2l-0.2,0c0-0.1,0-0.1,0-0.2c-0.1,0-0.2,0-0.3-0.1c0-0.1,0-0.1,0-0.2l-0.2,0c0-0.1,0-0.1,0-0.2l-0.3,0
		c-0.1,0,0,0.1-0.1,0.2l-0.5-0.1c0-0.1,0-0.1,0-0.2c-0.2,0-0.5-0.1-0.7-0.1c0.1-0.1,0-0.2-0.1-0.2c0-0.1,0-0.1,0-0.2l-0.3-0.1
		c0-0.1,0-0.1,0-0.2l-0.3,0l0-0.2c-0.1,0-0.1,0-0.2,0c0-0.1,0-0.1,0-0.2l-0.3-0.1c0-0.1,0-0.2,0-0.3c-0.3-0.1-0.6-0.1-0.8-0.2
		c0.1-0.1,0-0.2-0.1-0.2c0-0.1,0-0.1,0-0.2l-0.3-0.1c0-0.1,0-0.1,0-0.2l-0.3-0.1c0-0.3,0.1-0.6,0.1-0.8c-0.1-0.1-0.2-0.1-0.3-0.1
		c-0.1,0,0,0.1-0.1,0.2l-0.7-0.1c0-0.1,0-0.2,0-0.3c0-0.1-0.1,0-0.2-0.1c0.1-0.1,0-0.2-0.1-0.2c0-0.1,0-0.1,0-0.2l-0.2,0
		c0.1-0.1,0-0.2-0.1-0.2c0-0.1,0-0.2,0.1-0.3l-0.1,0c-0.1,0,0,0.1-0.1,0.2c-0.2,0-0.3-0.1-0.5-0.1c0-0.1,0-0.2,0-0.3
		c0-0.1-0.1,0-0.2-0.1c0-0.1,0-0.2,0-0.3c0-0.1-0.1,0-0.2-0.1c0-0.1,0-0.2,0.1-0.3l0.2,0l0-0.1c-0.1-0.1-0.2-0.1-0.3-0.1
		c-0.1,0,0,0.1-0.1,0.2l-0.2,0c0-0.1,0-0.1,0-0.2l-0.5-0.1c0-0.1,0-0.1,0-0.2c-0.1,0-0.1,0-0.2,0l0.1-0.5c0-0.1-0.1,0-0.2-0.1
		c0.1-0.1,0-0.2-0.1-0.2c0-0.1,0-0.1,0-0.2l-0.3-0.1c0.1-0.1,0-0.2-0.1-0.2c0-0.1,0-0.1,0-0.2l-0.2,0c0-0.1,0-0.2,0-0.3
		c0-0.1-0.1,0-0.2-0.1c0-0.1,0-0.2,0-0.3c0-0.1-0.1,0-0.2-0.1c0.1-0.1,0-0.2-0.1-0.2c0-0.1,0-0.1,0-0.2c0.1,0,0.1,0,0.2,0
		c0-0.1,0-0.2,0.1-0.3l-0.5-0.1c0.1-0.1,0-0.2-0.1-0.2c0-0.1,0-0.1,0-0.2l-0.2,0c0.1-0.1,0-0.2-0.1-0.2c0-0.3,0.1-0.6,0.1-0.8
		c0-0.1-0.1,0-0.2-0.1c0-0.1,0-0.1,0-0.2c0.1,0,0.1,0,0.2,0c0-0.1,0-0.1,0-0.2l0.2,0c0-0.1,0-0.1,0-0.2l0.2,0c0,0,0-0.1,0-0.1
		c-0.1-0.1-0.2-0.1-0.3-0.1c0.1-0.1,0-0.2-0.1-0.2l0-0.2l-0.3-0.1c0-0.1,0-0.1,0-0.2c0.1,0,0.1,0,0.2,0c0-0.1,0-0.2,0.1-0.3
		l-0.5-0.1c0.1-0.1,0-0.2-0.1-0.2c0-0.1,0-0.1,0-0.2c0.1,0,0.1,0,0.2,0c0,0,0-0.1,0-0.1c0-0.1-0.1,0-0.2-0.1c0-0.1,0-0.1,0-0.2
		l-0.3-0.1c0-0.1,0-0.1,0-0.2c-0.1,0-0.1,0-0.2,0c0-0.2,0.1-0.4,0.1-0.7c0-0.1-0.1,0-0.2-0.1c0.1-0.1,0-0.2-0.1-0.2l0-0.2l-0.2,0
		l0.1-0.5c0-0.1-0.1,0-0.2-0.1c0-0.1,0-0.1,0-0.2l0.2,0c0-0.2,0.1-0.4,0.1-0.7c0-0.1-0.1,0-0.2-0.1c0-0.1,0-0.2,0-0.3
		c0-0.1-0.1,0-0.2-0.1c0-0.1,0-0.1,0-0.2l0.2,0l0-0.1c0-0.1-0.1,0-0.2-0.1c0.1-0.3,0.1-0.7,0.2-1c0-0.1-0.1,0-0.2-0.1
		c0-0.1,0-0.1,0-0.2l0.2,0c0-0.2,0.1-0.4,0.1-0.7c0-0.1-0.1,0-0.2-0.1c0-0.1,0-0.1,0-0.2l-0.2,0c0-0.2,0.1-0.3,0.1-0.5l0.2,0
		c0-0.1,0-0.2,0-0.3c0-0.1-0.1,0-0.2-0.1c0-0.1,0-0.2,0-0.3c0-0.1-0.1,0-0.2-0.1c0-0.1,0-0.2,0.1-0.3l0.2,0c0-0.3,0.1-0.6,0.1-0.8
		c0-0.1-0.1,0-0.2-0.1c0-0.1,0-0.1,0-0.2c-0.1,0-0.1,0-0.2,0l0.2-1.2c0-0.1-0.1,0-0.2-0.1c0-0.1,0-0.2,0.1-0.3l0.2,0
		c0,0,0-0.1,0-0.1c0-0.1-0.1,0-0.2-0.1c0.1-0.5,0.1-0.9,0.2-1.4l0.2,0c0-0.2,0.1-0.3,0.1-0.5c0-0.1-0.1,0-0.2-0.1c0-0.1,0-0.1,0-0.2
		l0.2,0c0-0.2,0.1-0.3,0.1-0.5c0-0.1-0.1,0-0.2-0.1c0.1-0.1,0-0.2-0.1-0.2c0-0.2,0.1-0.3,0.1-0.5c0.1,0,0.1,0,0.2,0
		c0-0.2,0.1-0.3,0.1-0.5c0.1,0,0.1,0,0.2,0c0-0.2,0.1-0.4,0.1-0.7c0-0.1-0.1,0-0.2-0.1c0-0.2,0.1-0.5,0.1-0.7l0.2,0
		c0-0.1,0-0.2,0.1-0.3c0.1,0,0.1,0,0.2,0c0.1-0.3,0.1-0.7,0.2-1l0.2,0c0-0.2,0.1-0.3,0.1-0.5l0.2,0l0-0.1c0-0.1-0.1,0-0.2-0.1
		c0-0.1,0-0.2,0-0.3c0-0.1-0.1,0-0.2-0.1c0-0.2,0.1-0.3,0.1-0.5l0.2,0c0-0.2,0.1-0.3,0.1-0.5l0.2,0c0-0.1,0-0.2,0.1-0.3l0.2,0
		c0-0.1,0-0.1,0-0.2c0.1,0,0.1,0,0.2,0c0,0,0-0.1,0-0.1c0-0.1-0.1,0-0.2-0.1c0-0.1,0-0.2,0.1-0.3c0.1,0,0.1,0,0.2,0
		c0-0.1,0-0.2,0.1-0.3c0.1,0.1,0.2,0,0.2-0.1l0.2,0c0-0.2,0.1-0.5,0.1-0.7l0.2,0c0.1-0.4,0.1-0.8,0.2-1.2c0.1,0.1,0.2,0,0.2-0.1
		l0.2,0c0-0.1,0-0.1,0-0.2l0.2,0c0.1-0.3,0.1-0.7,0.2-1c0.1,0.1,0.2,0,0.2-0.1c0.1,0,0.1,0,0.2,0c0-0.1,0-0.2,0-0.3
		c0-0.1-0.1,0-0.2-0.1c0-0.1,0-0.1,0-0.2l0.2,0c0-0.1,0-0.1,0-0.2l0.2,0c0-0.1,0-0.1,0-0.2l0.3,0c0.1,0,0-0.1,0.1-0.2l0.2,0
		c0,0,0-0.1,0-0.1c0-0.1-0.1,0-0.2-0.1c0.1-0.3,0.1-0.7,0.2-1c0.1,0,0.1,0,0.2,0c0-0.1,0-0.2,0.1-0.3l0.2,0c0-0.1,0-0.2,0.1-0.3
		l0.2,0c0-0.1,0-0.2,0.1-0.3c0.1,0,0.1,0,0.2,0c0-0.1,0-0.2,0.1-0.3c0.1,0.1,0.2,0,0.2-0.1c0.1,0,0.1,0,0.2,0c0-0.1,0-0.1,0-0.2
		c0.1,0,0.1,0,0.2,0c0-0.1,0-0.1,0-0.2c0.1,0,0.1,0,0.2,0c0-0.2,0.1-0.3,0.1-0.5c0-0.1-0.1,0-0.2-0.1c0-0.2,0.1-0.3,0.1-0.5l0.2,0
		c0-0.1,0-0.2,0.1-0.3l0.2,0c0-0.2,0.1-0.3,0.1-0.5c0.1,0.1,0.2,0,0.2-0.1l0.2,0c0-0.1,0-0.1,0-0.2c0.1,0,0.1,0,0.2,0
		c0-0.2,0.1-0.3,0.1-0.5c0.1,0.1,0.2,0,0.2-0.1c0.1,0.1,0.2,0,0.2-0.1c0.1,0,0.1,0,0.2,0c0,0,0-0.1,0-0.1c0-0.1-0.1,0-0.2-0.1
		c0-0.1,0-0.1,0-0.2l0.2,0c0-0.2,0.1-0.3,0.1-0.5c0.1,0,0.1,0,0.2,0c0-0.2,0.1-0.3,0.1-0.5l0.2,0c0-0.1,0-0.1,0-0.2l0.2,0
		c0-0.1,0-0.2,0.1-0.3l0.2,0c0-0.2,0.1-0.3,0.1-0.5c0.1,0.1,0.2,0,0.2-0.1c0.1,0,0.1,0,0.2,0c0-0.1,0-0.2,0.1-0.3
		c0.1,0.1,0.2,0,0.2-0.1l0.2,0c0-0.1,0-0.2,0.1-0.3c0.1,0.1,0.2,0,0.2-0.1l0.2,0c0-0.1,0-0.2,0.1-0.3l0.2,0c0-0.1,0-0.2,0.1-0.3
		c0.1,0.1,0.2,0,0.2-0.1c0.1,0,0.1,0,0.2,0c0-0.1,0-0.2,0.1-0.3l0.2,0c0-0.2,0.1-0.3,0.1-0.5c0.1,0.1,0.2,0,0.2-0.1
		c0.1,0.1,0.2,0,0.2-0.1l0.2,0c0-0.1,0-0.2,0.1-0.3c0.1,0,0.1,0,0.2,0c0-0.1,0-0.2,0.1-0.3c0.1,0.1,0.2,0,0.2-0.1l0.2,0l0-0.3l0.2,0
		c0-0.1,0-0.2,0.1-0.3l0.2,0c0-0.1,0-0.2,0.1-0.3l0.2,0c0-0.1,0-0.2,0.1-0.3l0.3,0c0.1-0.2,0.1-0.3,0.1-0.5c0.1,0.1,0.2,0,0.2-0.1
		l0.2,0c0-0.1,0-0.1,0-0.2c0.1,0.1,0.2,0,0.2-0.1l0.2,0l0.1-0.3l0.2,0c0-0.1,0-0.2,0.1-0.3c0.1,0,0.1,0,0.2,0c0-0.1,0-0.1,0-0.2
		c0.1,0.1,0.2,0,0.2-0.1c0.1,0.1,0.2,0,0.2-0.1l0.2,0c0-0.1,0-0.1,0-0.2c0.1,0,0.1,0,0.2,0l0.1-0.3c0.1,0,0.1,0,0.2,0
		c0-0.1,0-0.2,0.1-0.3l0.2,0c0-0.1,0-0.1,0-0.2l0.2,0c0-0.1,0-0.1,0-0.2l0.2,0c0-0.1,0-0.1,0-0.2c0.1,0.1,0.2,0,0.2-0.1l0.2,0
		c0-0.1,0-0.1,0-0.2c0.1,0.1,0.2,0,0.2-0.1l0.3,0c0.1-0.1,0.1-0.2,0.1-0.3c0-0.1-0.1,0-0.2-0.1c0-0.1,0-0.2,0.1-0.3l0.2,0
		c0-0.1,0-0.2,0.1-0.3l0.2,0c0-0.1,0-0.1,0-0.2l0.3,0c0.1,0,0-0.1,0.1-0.2c0.1,0,0.1,0,0.2,0c0-0.1,0-0.2,0.1-0.3l0.2,0
		c0-0.1,0-0.1,0-0.2c0.1,0.1,0.2,0,0.2-0.1l0.2,0c0-0.1,0-0.1,0-0.2c0.1,0.1,0.2,0,0.2-0.1c0.1,0.1,0.2,0,0.2-0.1c0.1,0,0.1,0,0.2,0
		c0-0.1,0-0.2,0.1-0.3l0.2,0c0-0.1,0-0.2,0.1-0.3c0.1,0.1,0.2,0,0.2-0.1l0.2,0c0-0.1,0-0.2,0.1-0.3c0.1,0.1,0.2,0,0.2-0.1
		c0.1,0.1,0.2,0,0.2-0.1c0.1,0.1,0.2,0,0.2-0.1l0.2,0c0-0.1,0-0.1,0-0.2l0.2,0c0-0.1,0-0.1,0-0.2c0.1,0.1,0.2,0,0.2-0.1
		c0.1,0.1,0.2,0,0.2-0.1c0.1,0.1,0.2,0,0.2-0.1c0.1,0.1,0.2,0,0.2-0.1c0.1,0,0.1,0,0.2,0l0-0.2c0.1,0,0.1,0,0.2,0c0-0.1,0-0.1,0-0.2
		l0.2,0c0-0.1,0-0.2,0.1-0.3l0.2,0c0-0.1,0-0.2,0.1-0.3l0.2,0c0-0.1,0-0.1,0-0.2l0.2,0c0-0.1,0-0.1,0-0.2l0.2,0c0-0.1,0-0.1,0-0.2
		c0.1,0,0.2,0,0.3,0c0.1-0.1,0.1-0.2,0.1-0.3c0.1,0.1,0.2,0,0.2-0.1c0.1,0.1,0.2,0,0.2-0.1l0.2,0c0-0.1,0-0.1,0-0.2l0.2,0
		c0-0.1,0-0.1,0-0.2l0.3,0.1c0-0.1,0-0.2,0.1-0.3l0.2,0c0-0.1,0-0.1,0-0.2l0.3,0c0.1,0,0-0.1,0.1-0.2c0.1,0.1,0.2,0,0.2-0.1
		c0.1,0,0.1,0,0.2,0c0-0.1,0-0.1,0-0.2c0.1,0.1,0.2,0,0.2-0.1c0.1,0,0.1,0,0.2,0c0-0.1,0-0.2,0.1-0.3c0.1,0.1,0.2,0,0.2-0.1
		c0.1,0.1,0.2,0,0.2-0.1c0.1,0.1,0.2,0,0.2-0.1l0.2,0c0-0.1,0-0.1,0-0.2c0.1,0,0.1,0,0.2,0l0-0.2l0.3,0c0.1,0,0-0.1,0.1-0.2l0.2,0
		c0-0.1,0-0.2,0.1-0.3c0.1,0.1,0.2,0,0.2-0.1c0.1,0.1,0.2,0,0.2-0.1l0.2,0c0-0.1,0-0.1,0-0.2c0.1,0,0.1,0,0.2,0l0-0.2
		c0.1,0.1,0.2,0,0.2-0.1c0.1,0.1,0.2,0,0.2-0.1c0.1,0.1,0.2,0,0.2-0.1l0.2,0c0-0.1,0-0.1,0-0.2l0.2,0l0-0.2l0.3,0
		c0.1,0,0-0.1,0.1-0.2c0.1,0,0.1,0,0.2,0c0-0.1,0-0.1,0-0.2c0.1,0.1,0.2,0,0.2-0.1l0.2,0c0-0.1,0-0.1,0-0.2l0.3,0
		c0.1,0,0-0.1,0.1-0.2c0.1,0,0.1,0,0.2,0l0-0.2c0.1,0.1,0.2,0,0.2-0.1c0.1,0,0.1,0,0.2,0c0-0.1,0-0.1,0-0.2l0.2,0c0-0.1,0-0.1,0-0.2
		l0.2,0c0-0.1,0-0.1,0-0.2l0.3,0c0.1-0.1,0.1-0.2,0.1-0.3l0.3,0c0.1,0,0-0.1,0.1-0.2l0.2,0c0-0.1,0-0.1,0-0.2l0.3,0
		c0.1,0,0-0.1,0.1-0.2l0.2,0c0-0.1,0-0.1,0-0.2l0.3,0c0.1-0.1,0.1-0.2,0.1-0.3l0.2,0c0-0.1,0-0.1,0-0.2l0.3,0c0.1,0,0-0.1,0.1-0.2
		c0.1,0,0.1,0,0.2,0c0-0.1,0-0.2,0.1-0.3l0.2,0c0-0.1,0-0.1,0-0.2l0.5,0.1c0.1,0,0-0.1,0.1-0.2l0.2,0l0-0.2c0.1,0.1,0.2,0,0.2-0.1
		l0.3,0c0.1,0,0-0.1,0.1-0.2c0.1,0,0.1,0,0.2,0c0-0.1,0-0.1,0-0.2l0.3,0c0.1,0,0-0.1,0.1-0.2l0.3,0c0.1,0,0-0.1,0.1-0.2
		c0.1,0,0.1,0,0.2,0l0-0.2l0.2,0c0-0.1,0-0.1,0-0.2l0.5,0.1c0.1,0,0-0.1,0.1-0.2c0.1,0,0.2,0,0.3,0c0.1,0,0-0.1,0.1-0.2
		c0.1,0,0.2,0,0.3,0c0.1,0,0-0.1,0.1-0.2l0.2,0c0-0.1,0-0.1,0-0.2l0.3,0c0.1,0,0-0.1,0.1-0.2l0.2,0l0-0.2l0.5,0.1
		c0.1,0,0-0.1,0.1-0.2l0.2,0c0-0.1,0-0.1,0-0.2l0.2,0c0-0.1,0-0.1,0-0.2c0.2,0,0.3,0.1,0.5,0.1c0.1,0,0-0.1,0.1-0.2l0.2,0
		c0-0.1,0-0.1,0-0.2l0.5,0.1c0.1,0,0-0.1,0.1-0.2l0.3,0c0.1,0,0-0.1,0.1-0.2l0.3,0c0.1,0,0-0.1,0.1-0.2l0.5,0.1c0.1,0,0-0.1,0.1-0.2
		l0.3,0c0.1,0,0-0.1,0.1-0.2l0.7,0.1c0.1,0,0-0.1,0.1-0.2l0.3,0c0.1,0,0-0.1,0.1-0.2l0.5,0.1c0.1,0,0-0.1,0.1-0.2l0.7,0.1
		c0.1,0,0-0.1,0.1-0.2l0.5,0.1c0.1,0,0-0.1,0.1-0.2l0.5,0.1c0.1,0,0-0.1,0.1-0.2l1.7,0.3c0.1,0,0-0.1,0.1-0.2l0.5,0.1
		c0.1,0,0-0.1,0.1-0.2l1.7,0.3c0.1,0,0-0.1,0.1-0.2l0.7,0.1c0.1,0,0-0.1,0.1-0.2l0.3,0.1l0,0.2l0.5,0.1c0,0.1,0,0.1,0,0.2l0.3,0
		c0.1,0,0-0.1,0.1-0.2c0.1,0.1,0.2,0,0.2-0.1c0.3,0,0.6,0.1,0.9,0.1c0,0.1,0,0.1,0,0.2l0.7,0.1c0,0.1,0,0.1,0,0.2l0.8,0.1
		c0.1,0,0-0.1,0.1-0.2l0.2,0c0,0.1,0,0.1,0,0.2l0.3,0c0.1,0,0-0.1,0.1-0.2l0.2,0l0,0.2l0.5,0.1l0,0.2l0.3,0c0.1,0,0-0.1,0.1-0.2
		l0.5,0.1l0,0.2l0.1,0c0.1,0,0-0.1,0.1-0.2l0.2,0c0,0.1,0,0.1,0,0.2l1,0.2c0,0.1,0,0.1,0,0.2l0.3,0.1c0,0.1,0,0.1,0,0.2l0.9,0.1
		c0,0.1,0,0.1,0,0.2c0.2,0,0.5,0.1,0.7,0.1c0,0.1,0,0.1,0,0.2l0.3,0.1c0,0.1,0,0.1,0,0.2l0.5,0.1c-0.1,0.1,0,0.2,0.1,0.2
		c0,0.1,0,0.1,0,0.2l0.3,0.1c-0.1,0.1,0,0.2,0.1,0.2c0,0.1,0,0.1,0,0.2l0.3,0.1c0,0.1,0,0.1,0,0.2l0.3,0.1c0,0.1,0,0.2-0.1,0.3
		c0.2,0.1,0.3,0.1,0.5,0.1c-0.1,0.1,0,0.2,0.1,0.2c-0.1,0.1,0,0.2,0.1,0.2c0,0.1,0,0.1,0,0.2l0.2,0l0,0.2l0.2,0
		c-0.1,0.1,0,0.2,0.1,0.2c-0.1,0.1,0,0.2,0.1,0.2c-0.1,0.1,0,0.2,0.1,0.2c-0.1,0.1,0,0.2,0.1,0.2c-0.1,0.1,0,0.2,0.1,0.2
		c0,0.1,0,0.2,0,0.3c0,0.1,0.1,0,0.2,0.1c0,0.1,0,0.1,0,0.2c0.1,0,0.1,0,0.2,0l0,0.3c0,0.1,0.1,0,0.2,0.1c0,0.2-0.1,0.3-0.1,0.5
		c0.1,0,0.2,0,0.3,0.1c0,0.1,0,0.2-0.1,0.3l-1.2-0.2c-0.1,0.2-0.1,0.4-0.1,0.7l-0.2,0c0,0,0,0.1,0,0.1c0,0.1,0.1,0,0.2,0.1l0,0.2
		l-0.2,0c0,0.1,0,0.1,0,0.2c-0.1,0-0.1,0-0.2,0c0,0.2-0.1,0.5-0.1,0.7l-0.3,0c-0.1,0,0,0.1-0.1,0.2c-0.1-0.1-0.2,0-0.2,0.1l-0.2,0
		l-0.2,1l-0.2,0c0,0.2-0.1,0.3-0.1,0.5c-0.1,0-0.1,0-0.2,0c0,0.1,0,0.2-0.1,0.3l-0.2,0c0,0.2-0.1,0.3-0.1,0.5
		c-0.1-0.1-0.2,0-0.2,0.1l-0.2,0c0,0.1,0,0.2-0.1,0.3l-0.5-0.1c0-0.2,0.1-0.3,0.1-0.5l-0.1,0c-0.1,0.1-0.1,0.2-0.1,0.3
		c-0.1-0.1-0.2,0-0.2,0.1l-0.2,0c0-0.1,0-0.1,0-0.2l-0.1,0c-0.1,0,0,0.1-0.1,0.2l-0.7-0.1c0.1-0.1,0-0.2-0.1-0.2c0-0.1,0-0.1,0-0.2
		c-0.1,0-0.2,0-0.3,0c-0.1,0,0,0.1-0.1,0.2c-0.1-0.1-0.2,0-0.2,0.1l-0.2,0c0-0.1,0-0.1,0-0.2l-0.2,0c0-0.1,0-0.1,0-0.2l-0.2,0l0-0.3
		c-0.3-0.1-0.6-0.1-0.8-0.2c0-0.1,0-0.1,0-0.2l-0.7-0.1c0-0.1,0-0.1,0-0.2l-0.5-0.1l0-0.2l-0.5-0.1c0.1-0.1,0-0.2-0.1-0.2
		c0-0.1,0-0.1,0-0.2l-0.5-0.1c-0.1,0,0,0.1-0.1,0.2l-0.5-0.1l0-0.3c-0.3-0.1-0.5-0.1-0.8-0.2c-0.1,0,0,0.1-0.1,0.2
		c-0.1,0-0.1,0-0.2,0c0-0.1,0-0.2,0-0.3c-0.2-0.1-0.4-0.1-0.7-0.1c0-0.1,0-0.1,0-0.2l-0.3-0.1l-0.1,0.3l-0.3,0c-0.1,0,0,0.1-0.1,0.2
		l-1-0.2c-0.1,0,0,0.1-0.1,0.2l-0.5-0.1c0-0.1,0-0.1,0-0.2l-0.1,0c-0.1,0,0,0.1-0.1,0.2l-1-0.2c-0.1,0,0,0.1-0.1,0.2
		c-0.1-0.1-0.2,0-0.2,0.1l-0.5-0.1c-0.1,0,0,0.1-0.1,0.2l-0.8-0.1c-0.1,0,0,0.1-0.1,0.2c-0.1,0-0.1,0-0.2,0c0-0.1,0-0.1,0-0.2
		l-0.1,0c-0.1,0,0,0.1-0.1,0.2l-0.5-0.1c-0.1,0,0,0.1-0.1,0.2c-0.1,0-0.2,0-0.3,0c-0.1,0,0,0.1-0.1,0.2l-0.3,0c-0.1,0,0,0.1-0.1,0.2
		l-0.8-0.1c-0.1,0,0,0.1-0.1,0.2c-0.1-0.1-0.2,0-0.2,0.1l-0.5-0.1c-0.1,0,0,0.1-0.1,0.2l-0.5-0.1c0,0.1,0,0.2-0.1,0.3l-0.2,0
		c0,0.1,0,0.1,0,0.2c-0.1,0-0.2,0-0.3-0.1l-0.1,0.3l-0.3,0c-0.1,0,0,0.1-0.1,0.2c-0.1,0-0.1,0-0.2,0l0,0.2c-0.1-0.1-0.2,0-0.2,0.1
		l-0.3,0c-0.1,0,0,0.1-0.1,0.2l-0.5-0.1c-0.1,0,0,0.1-0.1,0.2c-0.1-0.1-0.2,0-0.2,0.1l-0.2,0c0,0.1,0,0.1,0,0.2c-0.1,0-0.1,0-0.2,0
		c0,0.1,0,0.1,0,0.2l-0.2,0l0,0.2l-0.2,0c0,0.1,0,0.1,0,0.2c-0.1-0.1-0.2,0-0.2,0.1l-0.3,0c-0.1,0,0,0.1-0.1,0.2l-0.3,0
		c-0.1,0.1-0.1,0.2-0.1,0.3l-0.2,0c0,0.1,0,0.1,0,0.2l-0.2,0c0,0.1,0,0.1,0,0.2l-0.5-0.1c-0.1,0,0,0.1-0.1,0.2
		c-0.1-0.1-0.2,0-0.2,0.1c-0.1-0.1-0.2,0-0.2,0.1l-0.2,0c0,0.1,0,0.2-0.1,0.3l-0.3,0c-0.1,0,0,0.1-0.1,0.2l-0.2,0c0,0.1,0,0.1,0,0.2
		l-0.2,0c0,0.1,0,0.1,0,0.2l-0.2,0c0,0.1,0,0.1,0,0.2l-0.3,0c-0.1,0,0,0.1-0.1,0.2c-0.1,0-0.2,0-0.3-0.1c0,0.1,0,0.2-0.1,0.3l-0.2,0
		l-0.1,0.3l-0.3,0c-0.1,0,0,0.1-0.1,0.2l-0.2,0c0,0.1,0,0.1,0,0.2l-0.2,0c0,0.1,0,0.1,0,0.2l-0.3-0.1c0,0.1,0,0.2-0.1,0.3
		c-0.1-0.1-0.2,0-0.2,0.1c-0.1,0-0.1,0-0.2,0c0,0.1,0,0.1,0,0.2l-0.2,0c0,0.1,0,0.1,0,0.2c-0.1-0.1-0.2,0-0.2,0.1
		c-0.1-0.1-0.2,0-0.2,0.1l-0.2,0c0,0.1,0,0.1,0,0.2c-0.1-0.1-0.2,0-0.2,0.1c-0.1,0-0.1,0-0.2,0l0,0.2c-0.1-0.1-0.2,0-0.2,0.1
		c-0.1,0-0.1,0-0.2,0c0,0.1,0,0.1,0,0.2c-0.1-0.1-0.2,0-0.2,0.1c-0.1-0.1-0.2,0-0.2,0.1l-0.2,0c0,0.1,0,0.1,0,0.2
		c-0.1,0-0.2,0-0.3,0c-0.1,0,0,0.1-0.1,0.2c-0.1,0-0.1,0-0.2,0c0,0.1,0,0.1,0,0.2c-0.1,0-0.1,0-0.2,0c0,0.1,0,0.2-0.1,0.3
		c-0.1-0.1-0.2,0-0.2,0.1l-0.3,0c-0.1,0.1-0.1,0.2-0.1,0.3l-0.2,0c0,0.1,0,0.1,0,0.2c-0.1-0.1-0.2,0-0.2,0.1l-0.3,0
		c-0.1,0,0,0.1-0.1,0.2l-0.3-0.1l-0.1,0.3l-0.2,0c0,0.1,0,0.2-0.1,0.3c-0.1-0.1-0.2,0-0.2,0.1c-0.1,0-0.1,0-0.2,0l-0.1,0.3
		c-0.1-0.1-0.2,0-0.2,0.1c-0.1,0-0.1,0-0.2,0c0,0.1,0,0.1,0,0.2c-0.1-0.1-0.2,0-0.2,0.1l-0.2,0c0,0.1,0,0.2-0.1,0.3l-0.5-0.1
		c-0.1,0.2-0.1,0.4-0.1,0.7c-0.1-0.1-0.2,0-0.2,0.1c-0.1-0.1-0.2,0-0.2,0.1c-0.1-0.1-0.2,0-0.2,0.1l-0.2,0c0,0.2-0.1,0.5-0.1,0.7
		l-0.3,0c-0.1,0,0,0.1-0.1,0.2l-0.2,0c0,0.1,0,0.1,0,0.2l-0.3,0c-0.1,0.2-0.1,0.3-0.1,0.5c-0.1-0.1-0.2,0-0.2,0.1l-0.2,0l-0.1,0.3
		c-0.1,0-0.1,0-0.2,0c0,0.1,0,0.2-0.1,0.3c-0.1,0-0.1,0-0.2,0c0,0.1,0,0.1,0,0.2l-0.2,0l0,0.2c-0.1-0.1-0.2,0-0.2,0.1
		c-0.1-0.1-0.2,0-0.2,0.1l-0.5-0.1c-0.1,0.2-0.1,0.4-0.1,0.7c-0.1-0.1-0.2,0-0.2,0.1l-0.2,0l0,0.1c0,0.1,0.1,0,0.2,0.1
		c0,0.1,0,0.1,0,0.2l-0.2,0c0,0.1,0,0.2-0.1,0.3l-0.2,0c0,0.1,0,0.1,0,0.2c-0.1-0.1-0.2,0-0.2,0.1c-0.1,0-0.1,0-0.2,0
		c0,0.1,0,0.2-0.1,0.3l-0.2,0c0,0.2-0.1,0.3-0.1,0.5c-0.1-0.1-0.2,0-0.2,0.1l-0.3,0c-0.1,0,0,0.1-0.1,0.2c-0.1-0.1-0.2,0-0.2,0.1
		l-0.2,0c0,0.2-0.1,0.5-0.1,0.7l-0.2,0c0,0.2-0.1,0.3-0.1,0.5c-0.1-0.1-0.2,0-0.2,0.1c-0.1,0-0.1,0-0.2,0c0,0.1,0,0.1,0,0.2
		c-0.1-0.1-0.2,0-0.2,0.1c-0.1-0.1-0.2,0-0.2,0.1l-0.2,0c0,0.2-0.1,0.3-0.1,0.5l-0.2,0c0,0.2-0.1,0.3-0.1,0.5l-0.5-0.1l0,0.1
		c0,0.1,0.1,0,0.2,0.1c0,0.1,0,0.2-0.1,0.3l-0.5-0.1c-0.1,0,0,0.1-0.1,0.2l-0.2,0c0,0,0,0.1,0,0.1c0,0.1,0.1,0,0.2,0.1
		c0,0.3-0.1,0.6-0.1,0.9c-0.1,0-0.1,0-0.2,0c0,0.1,0,0.2-0.1,0.3c-0.1,0-0.1,0-0.2,0c0,0.1,0,0.2-0.1,0.3c-0.1,0-0.1,0-0.2,0
		c0,0.2-0.1,0.3-0.1,0.5l-0.2,0c0,0.1,0,0.1,0,0.2l-0.5-0.1c-0.1,0.1-0.1,0.2-0.1,0.3c0,0.1,0.1,0,0.2,0.1c0,0.2-0.1,0.3-0.1,0.5
		l-0.3,0c-0.1,0,0,0.1-0.1,0.2c-0.1,0-0.1,0-0.2,0c0,0.1,0,0.2-0.1,0.3l-0.2,0c0-0.1,0-0.1,0-0.2l-0.3-0.1c0,0,0,0.1,0,0.1
		c0,0.1,0.1,0,0.2,0.1l0,0.2c-0.1,0-0.1,0-0.2,0l-0.1,0.3l-0.2,0l0,0.1c0.1,0.1,0.2,0.1,0.3,0.1c0,0.1,0,0.1,0,0.2
		c-0.1,0-0.1,0-0.2,0l-0.2,1.5c-0.1-0.1-0.2,0-0.2,0.1c-0.1,0-0.1,0-0.2,0c0,0.1,0,0.1,0,0.2l-0.5-0.1l0,0.1
		c0.1,0.1,0.2,0.1,0.3,0.1c0,0.2-0.1,0.3-0.1,0.5c-0.1,0-0.2,0-0.3,0c-0.1,0,0,0.1-0.1,0.2c-0.1,0-0.1,0-0.2,0c0,0.1,0,0.2-0.1,0.3
		l-0.2,0c0,0.2-0.1,0.3-0.1,0.5l-0.2,0c0,0.1,0,0.2-0.1,0.3l-0.2,0c0,0.1,0,0.1,0,0.2l-0.3,0c-0.1,0.1-0.1,0.2-0.1,0.3
		c0,0.1,0.1,0,0.2,0.1c0,0.1,0,0.1,0,0.2l0.2,0c0,0.1,0,0.2-0.1,0.3l-0.2,0c0,0.2-0.1,0.3-0.1,0.5c-0.1,0-0.1,0-0.2,0
		c0,0.1,0,0.2-0.1,0.3c-0.1,0-0.1,0-0.2,0c0,0.1,0,0.2-0.1,0.3l-0.2,0c0,0.1,0,0.1,0,0.2c-0.1-0.1-0.2,0-0.2,0.1
		c-0.2,0-0.5-0.1-0.7-0.1c0,0,0,0.1,0,0.1c0,0.1,0.1,0,0.2,0.1c-0.1,0.1,0,0.2,0.1,0.2c0,0.1,0,0.1,0,0.2c-0.1,0-0.1,0-0.2,0
		c0,0.1,0,0.2,0,0.3c0,0.1,0.1,0,0.2,0.1c0,0.2-0.1,0.3-0.1,0.5c-0.1-0.1-0.2,0-0.2,0.1c-0.1-0.1-0.2,0-0.2,0.1l-0.2,0
		c-0.1,0.6-0.2,1.1-0.3,1.7l-0.2,0l0,0.3c-0.1-0.1-0.2,0-0.2,0.1l-0.2,0c0,0.1,0,0.2,0,0.3c0,0.1,0.1,0,0.2,0.1
		c-0.1,0.1,0,0.2,0.1,0.2c-0.1,0.1,0,0.2,0.1,0.2c0,0.1,0,0.1,0,0.2c-0.1,0-0.1,0-0.2,0c0,0.1,0,0.2,0,0.3c0,0.1,0.1,0,0.2,0.1
		c-0.1,0.1,0,0.2,0.1,0.2c0,0.1,0,0.1,0,0.2l-0.2,0c0,0,0,0.1,0,0.1c0,0.1,0.1,0,0.2,0.1c0,0.2-0.1,0.3-0.1,0.5c0,0.1,0.1,0,0.2,0.1
		c0,0.2-0.1,0.3-0.1,0.5l-0.5-0.1c-0.1,0.1-0.1,0.2-0.1,0.3c0,0.1,0.1,0,0.2,0.1c0,0.1,0,0.2-0.1,0.3c0,0.1,0.1,0,0.2,0.1
		c-0.1,0.6-0.2,1.1-0.3,1.7l0.3,0.1c0,0.1,0,0.2,0,0.3c0,0.1,0.1,0,0.2,0.1c0,0.2-0.1,0.4-0.1,0.7c0,0.1,0.1,0,0.2,0.1
		c0,0.1,0,0.2-0.1,0.3l-0.2,0c0,0.1,0,0.2-0.1,0.3l-0.2,0c0,0,0,0.1,0,0.1c0.1,0.1,0.2,0.1,0.3,0.1c0,0.1,0,0.1,0,0.2l0.3,0.1
		c0,0.1,0,0.2-0.1,0.3c-0.1-0.1-0.2,0-0.2,0.1l-0.2,0l0-0.2l-0.3-0.1l0,0.1c0,0.1,0.1,0,0.2,0.1c0,0.1,0,0.1,0,0.2l0.3,0.1
		c0,0.2-0.1,0.4-0.1,0.7c0,0.1,0.1,0,0.2,0.1c0,0.1,0,0.1,0,0.2l0.3,0.1c-0.1,0.1,0,0.2,0.1,0.2c-0.1,0.1,0,0.2,0.1,0.2
		c0,0.1,0,0.1,0,0.2c0.1,0,0.1,0,0.2,0c-0.1,0.1,0,0.2,0.1,0.2c0,0.1,0,0.1,0,0.2c-0.1,0-0.1,0-0.2,0c0,0.1,0,0.1,0,0.2
		c-0.1,0-0.1,0-0.2,0c0,0.1,0,0.2-0.1,0.3c-0.2,0-0.3-0.1-0.5-0.1c-0.1,0,0,0.1-0.1,0.2l-0.3-0.1c0-0.1,0-0.1,0-0.2c0,0-0.1,0-0.1,0
		c-0.1,0.1-0.1,0.2-0.1,0.3c0,0.1,0.1,0,0.2,0.1c0,0.1,0,0.2-0.1,0.3l0.1,0c0.1-0.1,0.1-0.2,0.1-0.3l0.3,0c0.1,0,0-0.1,0.1-0.2
		l1.4,0.2l-0.1,0.3l-0.5-0.1c-0.1,0,0,0.1-0.1,0.2l-0.2,0c0,0.1,0,0.2-0.1,0.3l0.1,0c0.1,0,0-0.1,0.1-0.2c0.2,0,0.5,0.1,0.7,0.1
		c0,0.1,0,0.2-0.1,0.3l-0.5-0.1c-0.1,0.1-0.1,0.2-0.1,0.3l0.5,0.1c0.1,0,0-0.1,0.1-0.2l0.2,0c0-0.1,0-0.1,0-0.2l0.3,0.1
		c0,0.1,0,0.2,0,0.3c0,0.1,0.1,0,0.2,0.1c0,0.1,0,0.1,0,0.2l0.5,0.1c-0.1,0.1,0,0.2,0.1,0.2c-0.1,0.1,0,0.2,0.1,0.2
		c0,0.1,0,0.1,0,0.2l0.7,0.1c0,0.1,0,0.1,0,0.2c0.1,0,0.1,0,0.2,0c-0.1,0.1,0,0.2,0.1,0.2c0,0.1,0,0.1,0,0.2c0.1,0,0.2,0,0.3,0.1
		c0,0.2-0.1,0.5-0.1,0.7l-0.2,0c0,0.1,0,0.2-0.1,0.3l0.3,0c0.1,0,0-0.1,0.1-0.2l0.2,0c0-0.1,0-0.1,0-0.2c0.2,0,0.3,0.1,0.5,0.1
		c0,0.2-0.1,0.4-0.1,0.7c0,0.1,0.1,0,0.2,0.1c0,0.1,0,0.2-0.1,0.3l-0.3-0.1c0.1-0.1,0-0.2-0.1-0.2c0-0.1,0-0.1,0-0.2l-0.1,0
		c-0.1,0.2-0.1,0.3-0.1,0.5c-0.1,0-0.1,0-0.2,0l0,0.1c0.4,0.1,0.8,0.2,1.2,0.2c0-0.2,0.1-0.4,0.1-0.7c0-0.1-0.1,0-0.2-0.1
		c0-0.1,0-0.2,0.1-0.3l0.3,0.1c0,0.1,0,0.1,0,0.2l0.5,0.1c-0.1,0.1,0,0.2,0.1,0.2c0,0.2-0.1,0.3-0.1,0.5l0.7,0.1l0,0.2l0.1,0
		c0.1-0.1,0.1-0.2,0.2-0.1l0-0.1c0-0.1-0.1,0-0.2-0.1l0-0.2l-0.7-0.1c0-0.2,0.1-0.3,0.1-0.5c0.1,0,0.2,0,0.3,0.1c0,0.1,0,0.1,0,0.2
		l0.3,0.1l0,0.2c0.1,0,0.2,0,0.3,0.1l0,0.3c0.3,0.1,0.5,0.1,0.8,0.2c0.1,0,0-0.1,0.1-0.2l0.5,0.1l0,0.3c0.1,0.1,0.2,0.1,0.3,0.1
		c0,0.2-0.1,0.5-0.1,0.7l-0.8-0.1c-0.1,0.1-0.1,0.2-0.1,0.3l0.3,0.1c0,0.1,0,0.1,0,0.2c0.1,0,0.1,0,0.2,0c0,0.1,0,0.2,0,0.3
		c0.1,0.1,0.2,0.1,0.3,0.1c0.1,0,0-0.1,0.1-0.2l0.3,0.1c0,0,0-0.1,0-0.1c0-0.1-0.1,0-0.2-0.1c0-0.1,0-0.2,0.1-0.3l0.3,0
		c0.1,0,0-0.1,0.1-0.2l0.3,0c0.1,0,0-0.1,0.1-0.2c0.1,0,0.1,0,0.2,0l0-0.1c-0.2-0.1-0.3-0.1-0.5-0.1c0.1-0.1,0-0.2-0.1-0.2
		c0-0.1,0-0.1,0-0.2l0.2,0c0-0.1,0-0.2,0.1-0.3l0.5,0.1c-0.1,0.1,0,0.2,0.1,0.2c0,0.2-0.1,0.3-0.1,0.5c0.1,0.1,0.2,0.1,0.3,0.1
		c0-0.2,0.1-0.3,0.1-0.5c0-0.1-0.1,0-0.2-0.1c0-0.1,0-0.2,0.1-0.3l0.7,0.1c0.1,0,0-0.1,0.1-0.2l0.2,0c0-0.1,0-0.1,0-0.2l0.2,0l0-0.2
		l0.7,0.1c0.1,0,0-0.1,0.1-0.2l0.3,0.1c0,0.1,0,0.2-0.1,0.3l-0.2,0C1060.8,86.9,1060.8,87,1060.8,87"/>
	<g>
		<path class="st0" d="M777.8,86.2V51.8h10.6v34.4H777.8z"/>
		<path class="st0" d="M795.9,86.2V67H792v-5.9h3.9c-0.1-3.2,0.5-5.6,2-7c1-1,2.3-1.7,3.9-2c1-0.2,2.5-0.3,4.4-0.3
			c0.5,0,1.3,0,2.2,0.1c1.1,0.1,1.8,0.1,2.1,0.1v6.6c-1.8-0.2-2.6-0.3-2.3-0.3c-1.2,0-2,0.2-2.4,0.6c-0.4,0.4-0.6,1.2-0.6,2.4h5V67
			h-4.8v19.1H795.9z"/>
		<path class="st0" d="M828.2,74.6h10.6c0,0.8,0.1,1.6,0.4,2.3c0.6,1.7,2.3,2.5,5.1,2.5c2.9,0,4.4-1,4.4-3.1c0-0.8-0.5-1.5-1.5-2
			c-0.8-0.4-2.7-1-5.9-1.9c-3.9-1.1-6.5-2.1-7.9-3c-2.5-1.6-3.8-3.9-3.8-7c0-3.7,1.4-6.6,4.3-8.7c2.5-1.8,5.7-2.7,9.6-2.7
			c4.1,0,7.4,0.8,9.9,2.5c2.9,1.9,4.4,4.9,4.5,8.8h-10c0.2-1.2-0.3-2.1-1.3-2.7c-0.9-0.6-1.9-0.9-3.1-0.9c-2.6,0-3.9,0.8-3.8,2.3
			c0,1.1,1.1,1.9,3.2,2.6c2.3,0.6,4.5,1.2,6.8,1.7c3,0.8,5.2,1.9,6.6,3.1c2,1.7,3,4,3,6.8c0,4.1-1.7,7.2-5.1,9.3
			c-2.8,1.7-6.4,2.6-10.8,2.6c-3.4,0-6.4-0.7-9-2.1C830.3,82.8,828.2,79.4,828.2,74.6z"/>
		<path class="st0" d="M889.1,73.6c0,3.7-1.1,6.8-3.3,9.2c-2.5,2.7-5.9,4-10.4,4c-4.4,0-7.9-1.3-10.4-4c-2.2-2.4-3.3-5.4-3.3-9.2
			c0-3.7,1.1-6.8,3.3-9.2c2.4-2.6,5.9-4,10.4-4s7.9,1.3,10.4,4C888,66.9,889.1,69.9,889.1,73.6z M879.6,73.6c0-4.1-1.4-6.2-4.1-6.2
			c-2.7,0-4.1,2.1-4.1,6.2c0,4.1,1.4,6.2,4.1,6.2C878.2,79.9,879.6,77.8,879.6,73.6z"/>
		<polygon class="st0" points="826.8,69.9 814.7,61.1 814.7,78.7 		"/>
	</g>
	<g>
		<g>
			<path class="st0" d="M1287.3,92.2c0,1.3-0.3,2.3-1,3.1c-0.7,0.8-1.6,1.2-2.6,1.2s-1.9-0.4-2.6-1.2c-0.7-0.8-1-1.8-1-3.1V75.1
				c0-1.3,0.3-2.3,1-3.1c0.7-0.8,1.6-1.2,2.6-1.2s1.9,0.4,2.6,1.2c0.7,0.8,1,1.8,1,3.1v5.2h-2.9v-5.4c0-0.6-0.3-0.9-0.8-0.9
				c-0.5,0-0.8,0.3-0.8,0.9v17.6c0,0.6,0.3,0.9,0.8,0.9c0.5,0,0.8-0.3,0.8-0.9v-5.4h2.9V92.2z"/>
			<path class="st0" d="M1296.3,96.2h-6.1V71.1h3v22.1h3.1V96.2z"/>
			<path class="st0" d="M1304.9,96.2h-6.1V71.1h6.1v3h-3.2v7.7h2.1v3h-2.1v8.4h3.2V96.2z"/>
			<path class="st0" d="M1314.9,96.2h-3l-0.2-4.6h-1.7l-0.3,4.6h-2.6l2-25.1h3.7L1314.9,96.2z M1311.5,88.5l-0.5-10l-0.8,10H1311.5z
				"/>
			<path class="st0" d="M1325.4,96.2h-2.5l-3-13.7v13.7h-2.5V71.1h3l2.5,14v-14h2.4V96.2z"/>
			<path class="st0" d="M1345.2,96.2h-2.9V78.6l-2.2,17.6h-2l-2-17.6v17.6h-2.6V71.1h4.3l1.6,14.2l2.1-14.2h3.7V96.2z"/>
			<path class="st0" d="M1355.6,96.2h-3l-0.2-4.6h-1.7l-0.3,4.6h-2.6l2-25.1h3.7L1355.6,96.2z M1352.2,88.5l-0.5-10l-0.8,10H1352.2z
				"/>
			<path class="st0" d="M1365.3,91.7c0,1.8-0.5,3.1-1.4,3.9c-0.7,0.6-1.5,0.9-2.5,0.9c-1.2,0-2.1-0.4-2.8-1.3c-0.7-0.9-1-2-1-3.3v-3
				h2.7v3.5c0,0.3,0.1,0.6,0.3,0.9c0.2,0.3,0.4,0.4,0.7,0.4c0.6,0,0.9-0.4,0.9-1.3c0-2.1-0.6-4.6-1.9-7.5c-1.8-4.2-2.7-7.2-2.7-9.1
				c0-1.5,0.3-2.7,0.9-3.6c0.7-0.9,1.7-1.4,3-1.4c1,0,1.8,0.4,2.5,1.4c0.7,0.9,1,2,1,3.3v3.4h-2.7v-3.8c0-0.8-0.3-1.1-0.9-1.1
				c-0.6,0-0.9,0.4-0.9,1.1c0,1.5,0.1,2.8,0.4,3.8c0.2,0.6,0.7,1.8,1.5,3.8C1364.4,86.8,1365.3,89.8,1365.3,91.7z"/>
			<path class="st0" d="M1374.7,74.4h-1.9v21.8h-2.9V74.4h-2.1v-3.3h7V74.4z"/>
			<path class="st0" d="M1383.3,96.2h-6.1V71.1h6.1v3h-3.2v7.7h2.1v3h-2.1v8.4h3.2V96.2z"/>
			<path class="st0" d="M1393.6,96.2h-2.9c-0.3-1.3-0.4-2.6-0.4-3.9v-5.9c0-0.7-0.2-1-0.7-1h-0.7v10.8h-3V71.1h3.8
				c2.2,0,3.3,1.3,3.3,4v6.4c0,1-0.5,1.9-1.4,2.6c0.9,0.8,1.4,1.7,1.4,2.6V92C1393.2,93,1393.3,94.4,1393.6,96.2z M1390.2,81.5v-6.4
				c0-0.7-0.2-1-0.5-1h-0.8v8.5h0.8C1390,82.5,1390.2,82.2,1390.2,81.5z"/>
		</g>
	</g>
	<g>
		<path class="st0" d="M1354.8,57.7c-0.9,0.6-0.9,0.6-1.6-0.3c-0.3-0.5-0.7-1-1.2-1.4c0.1,0.5,0.2,0.9,0.3,1.4
			c0.2,0.8,0,0.9-0.7,1.3c-2.2,1.1-4.7,0.5-6.9,0.8c-1.1-1.7-1.2-3.6-1.5-5.5c-0.1,0-0.1,0-0.2,0c0,1.7,0,3.5,0,5.3
			c-0.3,0-0.5,0-0.7,0c-6.1,0-12.2,0-18.3,0c-0.5,0-0.6-0.1-0.7-0.6c-0.1-0.8-0.3-1.5-0.6-2.3c-0.2,1-0.4,1.9-0.6,2.9
			c-0.3,0-0.5,0-0.9,0c0.2-1.7,0.4-3.4,0.6-5.1c0.4-2.4,0.8-4.8,1.8-7c0.9-2,2-3.8,3.4-5.6c0.7-1,1.7-1.4,2.9-1.4
			c6.8,0,13.5,0,20.3,0c1.2,0,1.8,0.9,1.5,2c-0.2,0.7-0.5,1.4-0.5,2.1c-0.1,1.3-0.2,2.7-0.1,4c0.2,2.2,0.7,4.4,1.8,6.4
			C1353.5,55.9,1354.2,56.7,1354.8,57.7z"/>
		<path class="st0" d="M1352.4,41.8c0-0.3,0-0.4,0-0.5c-0.1-1-0.6-1.4-1.6-1.4c-6.7,0-13.5,0-20.2,0c-0.6,0-1.1,0-1.8,0
			c1.3-1.6,2.4-3.2,3.7-4.7c0.3-0.4,1.1-0.5,1.6-0.6c1.4-0.1,2.9,0,4.3,0c0.5,0,1-0.1,1.5-0.1c0.9-0.1,1.5-0.5,1.8-1.4
			c0.8-2,1.8-4.1,2.6-6.1c0.4-0.8,0.8-1.6,1.6-2.1c1.4-0.9,2.5-0.7,3.6,0.2c0.9,0.7,1,2.3,0.4,3.4c-0.8,1.4-1.7,2.8-2.5,4.2
			c-0.3,0.6-0.7,1.1-1.1,1.8c0.4,0.1,0.8,0.2,1.1,0.2c1.7,0,3.5,0,5.2,0c1.1,0,2,0.6,2.2,1.6c0,0.2,0,0.4-0.1,0.6
			c-0.6,1.4-1.2,2.8-1.8,4.3C1352.8,41.3,1352.6,41.5,1352.4,41.8z"/>
	</g>
	<path class="st0" d="M64.9,366.1c0-5.8,1.8-10.5,5.3-14.2c3.5-3.7,8.1-5.5,13.8-5.5c5.7,0,10.3,1.8,13.8,5.5
		c3.5,3.7,5.3,8.4,5.3,14.2s-1.8,10.5-5.3,14.2c-3.5,3.7-8.1,5.5-13.8,5.5c-5.7,0-10.3-1.8-13.8-5.5
		C66.6,376.6,64.9,371.9,64.9,366.1z M76.5,366.1c0,3.8,0.9,6.5,2.6,8.3c1.3,1.3,2.9,2,4.8,2s3.5-0.7,4.8-2c1.8-1.8,2.6-4.6,2.6-8.3
		c0-3.8-0.9-6.5-2.6-8.3c-1.3-1.3-2.9-2-4.8-2s-3.5,0.7-4.8,2C77.4,359.6,76.5,362.3,76.5,366.1z"/>
	<path class="st0" d="M147.5,347.3L137,384.9h-11.3l-4.1-22.9h-0.1l-3.9,22.9h-11.3l-10.2-37.6h11.4l4.6,23.2h0.1l4.5-23.2h10.2
		l4.4,23.5h0.1l4.7-23.5H147.5z"/>
	<path class="st0" d="M143.1,384.9v-37.6H155l11,20.1v-20.1h11v37.6h-11.3l-11.6-20.5v20.5H143.1z"/>
	<rect x="64.9" y="389.7" class="st0" width="112.1" height="4.1"/>
	<path class="st0" d="M318.2,356h-2l2.3-10.5H315v-4.1h1.8v2.5h4L318.2,356z M326.9,356H325l-0.3-2.7c-0.3,1.4-1.3,2.7-2.7,2.7h-0.4
		v-1.9h0.4c2.1,0,2.6-2.1,2.3-4.1c-0.1-1.1-0.5-4.5-0.5-4.5h-1.3v-1.6h3.1L326.9,356z"/>
	<rect x="327.7" y="348.8" class="st0" width="4.4" height="1.6"/>
	<path class="st0" d="M335.3,343.9c3.3,0,3.5,2.2,3.5,5.2c0,1.2,0,6.9,0,6.9h-2.1c0,0,0-6.5,0-7.2c0-1.8,0.1-3.3-1.6-3.3h-2.1v-1.6
		H335.3z M347.2,343.9V356h-2v-10.5h-4.2v-1.6H347.2z M340.9,348.6h2v7.5h-2V348.6z"/>
	<path class="st0" d="M290.3,362.9c2.9,0,2.9,1.9,2.9,4.6v6h-1.1v-6.7c0-2.2-0.4-3-1.7-3h-0.9v9.7h-2.7v-0.8h1.6v-8.9h-1v-0.8H290.3
		z M296.7,362.9v10.5h-1.1v-10.5H296.7z M301.8,362.9c2.9,0,3.1,1.9,3.1,4.6v6h-1.1v-6.9c0-1.8-0.6-2.9-2.1-2.9h-1.3v9.7h-1.1v-10.5
		H301.8z M308.1,362.9c2.3,0,2.9,1.2,2.9,4.1v2.4c0,2.8-0.6,4.1-2.9,4.1h-1.5v-0.8h1.8c0.9,0,1.6-0.7,1.6-2.8v-3.3
		c0-2.1-0.6-2.8-1.6-2.8h-1.8v-0.8H308.1z M314.5,362.9v10.5h-1.1v-10.5H314.5z M317.1,372.7c1,0,1.2-0.6,1.2-1.7v-7.3h-1.4v-0.8
		h2.5v7.6c0,1.9-0.3,3-2,3h-1.1v-0.8H317.1z M325.1,371.6h1v1.1l-1.3,3.1h-0.5L325.1,371.6z M329.4,362.9c2.9,0,2.9,2,2.9,4.6v5.9
		h-1.1v-6.8c0-1.5-0.1-2.9-1.9-2.9h-1.8v-0.8H329.4z M335.4,362.9c2.3,0,2.9,1.2,2.9,4.1v2.4c0,2.8-0.6,4.1-2.9,4.1h-1.5v-0.8h1.8
		c0.9,0,1.6-0.7,1.6-2.8v-3.3c0-2.1-0.6-2.8-1.6-2.8h-1.8v-0.8H335.4z M347.5,362.9v6c0,3.8-1.4,4.5-3.7,4.5h-2.9l-0.9-10.5h1.1
		l0.9,9.7h1.7c1.6,0,2.7-0.3,2.7-3.3v-6.4H347.5z M344.5,369.5h-1.1v-6.6h1.1V369.5z"/>
	<path class="st0" d="M288.6,381.1v6c0,3.8-1.4,4.5-3.7,4.5h-2.9l-0.9-10.5h1.1l0.9,9.7h1.7c1.6,0,2.7-0.3,2.7-3.3v-6.4H288.6z
		 M285.6,387.7h-1.1v-6.6h1.1V387.7z M291.9,381.1v10.5h-1.1v-10.5H291.9z M294.6,390.8c1,0,1.2-0.6,1.2-1.7v-7.3h-1.4v-0.8h2.5v7.6
		c0,1.9-0.3,3-2,3h-1.1v-0.8H294.6z M304.2,391.6l-3.1-6.3c-0.6,0.2-0.9,0.8-0.9,1.4v4.9h-1.1v-4.5c0-1.3,0.3-2.3,1.6-2.6l-1.6-3.4
		h1.1l2.6,5.6c1-0.4,1.3-0.7,1.3-1.8v-3.8h1.1v3.5c0,1.6-0.4,2.4-2,2.8l2,4.2H304.2z M311.9,381.1v5.6h-1.1v-5.6H311.9z
		 M319.2,391.6h-5.3v-0.8h3.1v-8.9H314v-0.8h4.2v9.7h1V391.6z M325.6,391.6l-3.1-6.3c-0.6,0.2-0.9,0.8-0.9,1.4v4.9h-1.1v-4.5
		c0-1.3,0.3-2.3,1.6-2.6l-1.6-3.4h1.1l2.6,5.6c1-0.4,1.3-0.7,1.3-1.8v-3.8h1.1v3.5c0,1.6-0.4,2.4-2,2.8l2,4.2H325.6z M335.9,381.1v6
		c0,3.8-1.4,4.5-3.7,4.5h-2.9l-0.9-10.5h1.1l0.9,9.7h1.7c1.6,0,2.7-0.3,2.7-3.3v-6.4H335.9z M332.9,387.7h-1.1v-6.6h1.1V387.7z
		 M340.6,390.8h1.8v-6.5c0-1.6-0.5-2.5-1.8-2.5H340l-1.3,9.7h-1.2l1.4-9.7h-1.4v-0.8h3c2.3,0,3,1.4,3,4.1v6.5h-2.9V390.8z
		 M347.1,381.1v10.5H346v-10.5H347.1z"/>
	
		<rect x="361" y="343.8" transform="matrix(-1 -1.224647e-16 1.224647e-16 -1 722.3555 735.3354)" class="st0" width="0.4" height="47.7"/>
	<g>
		<path class="st0" d="M561.4,350.4c-2.8,0-4.9,1.1-6.3,3.3c-1.2,1.8-1.8,4.4-1.8,7.8c0,4,0.9,7,2.7,8.9c1.3,1.3,3,2,5.3,2
			c1.5,0,2.8-0.3,3.8-0.9c1.3-0.7,2.3-1.9,3.1-3.6c0.7-1.6,1.1-3.8,1.1-6.4c0-3.1-0.4-5.5-1.1-7c-0.7-1.5-1.7-2.6-2.8-3.3
			C564.2,350.7,562.9,350.4,561.4,350.4z"/>
		<path class="st0" d="M532.2,363.6v7.1c0,1.4,0.1,2.3,0.3,2.6s0.5,0.6,0.9,0.9c0.4,0.2,1.2,0.3,2.4,0.3v0.7h-13v-0.7
			c1.2,0,2-0.1,2.4-0.3c0.4-0.2,0.7-0.5,0.9-0.9c0.2-0.4,0.3-1.2,0.3-2.6v-16.6c0-1.4-0.1-2.3-0.3-2.6s-0.5-0.6-0.9-0.9
			c-0.4-0.2-1.2-0.3-2.4-0.3v-0.7h11.1c3.7,0,6.3,0.7,7.9,2c1.6,1.3,2.4,2.9,2.4,4.9c0,1.7-0.5,3.1-1.5,4.3c-1,1.2-2.4,2-4.3,2.4
			C537.2,363.4,535.1,363.6,532.2,363.6z M532.2,351.1v11c0.4,0,0.7,0,0.9,0c1.5,0,2.7-0.5,3.5-1.4c0.8-0.9,1.2-2.3,1.2-4.2
			c0-1.9-0.4-3.3-1.2-4.2c-0.8-0.9-2.1-1.3-3.7-1.3H532.2z"/>
		<path class="st0" d="M586,349.6l12.6,15.8v-11c0-1.5-0.2-2.6-0.7-3.1c-0.6-0.7-1.6-1.1-3-1.1v-0.7h8.4v0.7
			c-1.1,0.1-1.8,0.3-2.2,0.5c-0.4,0.2-0.7,0.6-0.9,1.1c-0.2,0.5-0.3,1.3-0.3,2.6v21.3h-0.6l-17.3-21.3v16.2c0,1.5,0.3,2.5,1,3
			c0.7,0.5,1.4,0.8,2.3,0.8h0.6v0.7H577v-0.7c1.4,0,2.4-0.3,2.9-0.9c0.6-0.6,0.8-1.5,0.8-2.9v-18l-0.5-0.7c-0.5-0.7-1-1.1-1.4-1.3
			c-0.4-0.2-1-0.3-1.8-0.4v-0.7H586z"/>
		<path class="st0" d="M629,349.6v6.9h-0.7c-0.4-1.6-0.8-2.7-1.3-3.4c-0.5-0.7-1.2-1.3-2-1.7c-0.5-0.2-1.3-0.3-2.5-0.3h-1.9v19.7
			c0,1.3,0.1,2.1,0.2,2.4c0.1,0.3,0.4,0.6,0.8,0.9c0.4,0.2,1,0.4,1.7,0.4h0.8v0.7h-13.4v-0.7h0.8c0.7,0,1.3-0.1,1.8-0.4
			c0.3-0.2,0.6-0.5,0.8-0.9c0.1-0.3,0.2-1.1,0.2-2.4v-19.7h-1.8c-1.7,0-3,0.4-3.7,1.1c-1.1,1-1.8,2.5-2.1,4.4h-0.7v-6.9H629z"/>
		<path class="st0" d="M645.4,374.5v0.7h-13.4v-0.7h0.8c0.7,0,1.3-0.1,1.8-0.4c0.3-0.2,0.6-0.5,0.8-0.9c0.1-0.3,0.2-1.1,0.2-2.4V354
			c0-1.3-0.1-2.1-0.2-2.4c-0.1-0.3-0.4-0.6-0.8-0.9c-0.4-0.2-1-0.4-1.7-0.4h-0.8v-0.7h13.4v0.7h-0.8c-0.7,0-1.3,0.1-1.8,0.4
			c-0.3,0.2-0.6,0.5-0.8,0.9c-0.1,0.3-0.2,1.1-0.2,2.4v16.8c0,1.3,0.1,2.1,0.2,2.4c0.1,0.3,0.4,0.6,0.8,0.9c0.4,0.2,1,0.4,1.7,0.4
			H645.4z"/>
		<path class="st0" d="M664.1,349l0.2,8.5h-0.8c-0.4-2.1-1.3-3.9-2.7-5.2c-1.4-1.3-3-2-4.6-2c-1.3,0-2.3,0.3-3,1
			c-0.7,0.7-1.1,1.5-1.1,2.4c0,0.6,0.1,1.1,0.4,1.5c0.4,0.6,0.9,1.2,1.8,1.8c0.6,0.4,2,1.1,4.1,2.2c3,1.5,5,2.9,6,4.2
			c1,1.3,1.5,2.8,1.5,4.5c0,2.1-0.8,4-2.5,5.5c-1.7,1.5-3.8,2.3-6.3,2.3c-0.8,0-1.6-0.1-2.3-0.2c-0.7-0.2-1.6-0.5-2.7-0.9
			c-0.6-0.3-1.1-0.4-1.5-0.4c-0.3,0-0.7,0.1-1,0.4c-0.4,0.3-0.7,0.6-0.9,1.1h-0.7v-9.6h0.7c0.6,2.7,1.6,4.8,3.2,6.2
			c1.6,1.4,3.3,2.1,5.1,2.1c1.4,0,2.5-0.4,3.4-1.1c0.8-0.8,1.3-1.7,1.3-2.7c0-0.6-0.2-1.2-0.5-1.8c-0.3-0.6-0.8-1.1-1.5-1.6
			c-0.7-0.5-1.8-1.2-3.5-2c-2.3-1.1-4-2.1-5-2.9c-1-0.8-1.8-1.7-2.3-2.7c-0.5-1-0.8-2.1-0.8-3.3c0-2,0.7-3.8,2.2-5.2
			c1.5-1.4,3.4-2.1,5.7-2.1c0.8,0,1.6,0.1,2.4,0.3c0.6,0.2,1.3,0.4,2.2,0.8c0.8,0.4,1.4,0.6,1.8,0.6c0.3,0,0.6-0.1,0.8-0.3
			c0.2-0.2,0.4-0.7,0.5-1.5H664.1z"/>
		<g>
			<path class="st0" d="M568.3,350.4c0-0.1-0.1-0.1-0.1-0.2c-1.8-2.9-4.2-4.3-7-4.2c-2.7-0.2-4.9,1.2-6.8,4.2c0,0.1-0.1,0.1-0.1,0.2
				c2-1.3,4.2-1.9,6.8-1.8C563.9,348.4,566.3,349,568.3,350.4z"/>
			<path class="st0" d="M550.6,354.3c-3.2,1.8-4.8,4.1-4.8,7.2c0,3,1.6,5.4,4.9,7.1c-1.3-2.1-1.9-4.6-1.9-7.4
				C548.8,358.7,549.4,356.4,550.6,354.3z"/>
			<path class="st0" d="M554.4,372.5c1.7,2.9,4.1,4.4,7,4.4c2.9,0,5.1-1.5,6.9-4.4c-1.9,1.3-4.2,1.9-6.9,1.9
				C558.6,374.4,556.3,373.8,554.4,372.5z"/>
			<path class="st0" d="M572.6,354.6c-0.2-0.1-0.4-0.2-0.6-0.3c1.2,2,1.8,4.4,1.8,7c0,2.8-0.7,5.4-2.1,7.6c0.3-0.2,0.6-0.3,0.9-0.5
				c2.9-1.8,4.3-4.2,4.2-7C576.9,358.7,575.5,356.4,572.6,354.6z"/>
		</g>
		<g>
			<path class="st0" d="M559.7,381.4h1.3v8.5h4.9v1.1h-6.2V381.4z"/>
			<path class="st0" d="M569.9,383.9c0.5,0,1,0.1,1.4,0.3c0.5,0.2,0.8,0.6,1.1,1c0.2,0.3,0.3,0.7,0.4,1.2c0.1,0.4,0.1,0.9,0.1,1.5
				h-5.1c0,1.6,0.7,2.4,2,2.4c0.6,0,1.1-0.2,1.5-0.6c0.2-0.2,0.4-0.5,0.4-0.8h1.2c-0.1,0.6-0.4,1.1-0.9,1.6
				c-0.6,0.5-1.3,0.8-2.3,0.8c-1,0-1.8-0.4-2.3-1.1c-0.5-0.7-0.8-1.5-0.8-2.5c0-1.1,0.3-2,0.8-2.7
				C568,384.3,568.9,383.9,569.9,383.9z M571.8,387c0-0.5-0.2-0.9-0.3-1.2c-0.3-0.6-0.9-0.9-1.6-0.9c-0.6,0-1,0.2-1.4,0.6
				c-0.3,0.4-0.5,0.9-0.5,1.5H571.8z"/>
			<path class="st0" d="M574.7,382.1h1.2v2h1.1v1h-1.1v4.6c0,0.2,0.1,0.4,0.2,0.5c0.1,0,0.2,0.1,0.5,0.1c0.1,0,0.3,0,0.4,0v0.9
				c-0.3,0.1-0.6,0.1-0.9,0.1c-0.9,0-1.4-0.5-1.4-1.5V385h-0.9v-1h0.9V382.1z"/>
			<path class="st0" d="M578.4,384.2c0.5-0.1,0.7-0.5,0.7-1.2c0-0.1,0-0.1,0-0.2h-0.7v-1.4h1.4v1.3c0,0.5-0.1,1-0.3,1.3
				c-0.2,0.4-0.6,0.7-1.1,0.7V384.2z"/>
			<path class="st0" d="M581.8,388.9c0,0.4,0.1,0.7,0.3,0.9c0.3,0.4,0.8,0.6,1.5,0.6c0.4,0,0.8-0.1,1.1-0.2c0.4-0.2,0.5-0.5,0.5-0.9
				c0-0.3-0.1-0.5-0.4-0.7c-0.2-0.1-0.5-0.2-1-0.3l-0.9-0.2c-0.6-0.1-1-0.3-1.3-0.5c-0.5-0.3-0.8-0.8-0.8-1.3c0-0.7,0.3-1.3,0.8-1.7
				c0.5-0.4,1.1-0.5,1.8-0.5c1.1,0,1.8,0.3,2.3,0.9c0.3,0.4,0.4,0.8,0.4,1.3h-1.1c0-0.3-0.1-0.5-0.3-0.7c-0.3-0.3-0.7-0.5-1.4-0.5
				c-0.9,0-1.4,0.3-1.4,0.9c0,0.3,0.2,0.5,0.5,0.7c0.2,0.1,0.4,0.2,0.8,0.3l0.8,0.2c0.8,0.2,1.4,0.4,1.7,0.6
				c0.5,0.3,0.7,0.8,0.7,1.4c0,0.8-0.3,1.4-0.9,1.8c-0.5,0.4-1.2,0.5-2,0.5c-1.9,0-2.8-0.8-2.9-2.5H581.8z"/>
			<path class="st0" d="M594,383.9c0.6,0,1,0.1,1.4,0.4c0.2,0.1,0.4,0.4,0.7,0.7v-0.9h1.1v6.4c0,0.9-0.1,1.6-0.4,2.1
				c-0.5,1-1.4,1.4-2.8,1.4c-0.8,0-1.4-0.2-1.9-0.5c-0.5-0.4-0.8-0.9-0.9-1.6h1.2c0.1,0.7,0.7,1.1,1.6,1.1c0.9,0,1.5-0.3,1.8-1
				c0.2-0.4,0.2-1,0.2-2c-0.5,0.7-1.2,1.1-2.2,1.1c-1,0-1.7-0.4-2.2-1.1c-0.4-0.6-0.7-1.4-0.7-2.4c0-1,0.2-1.8,0.7-2.5
				C592.3,384.3,593.1,383.9,594,383.9z M596.2,387.5c0-0.7-0.1-1.3-0.4-1.7c-0.3-0.5-0.8-0.8-1.5-0.8c-0.8,0-1.4,0.4-1.7,1.2
				c-0.2,0.4-0.2,1-0.2,1.6c0,0.7,0.1,1.2,0.4,1.6c0.3,0.5,0.8,0.8,1.4,0.8c0.8,0,1.4-0.4,1.8-1.1
				C596.1,388.6,596.2,388.1,596.2,387.5z"/>
			<path class="st0" d="M601.9,383.9c0.5,0,1,0.1,1.4,0.3c0.5,0.2,0.8,0.6,1.1,1c0.2,0.3,0.3,0.7,0.4,1.2c0.1,0.4,0.1,0.9,0.1,1.5
				h-5.1c0,1.6,0.7,2.4,2,2.4c0.6,0,1.1-0.2,1.5-0.6c0.2-0.2,0.4-0.5,0.4-0.8h1.2c-0.1,0.6-0.4,1.1-0.9,1.6
				c-0.6,0.5-1.3,0.8-2.3,0.8c-1,0-1.8-0.4-2.3-1.1c-0.5-0.7-0.8-1.5-0.8-2.5c0-1.1,0.3-2,0.8-2.7
				C600.1,384.3,600.9,383.9,601.9,383.9z M603.8,387c0-0.5-0.2-0.9-0.3-1.2c-0.3-0.6-0.9-0.9-1.6-0.9c-0.6,0-1,0.2-1.4,0.6
				c-0.3,0.4-0.5,0.9-0.5,1.5H603.8z"/>
			<path class="st0" d="M606.7,382.1h1.2v2h1.1v1h-1.1v4.6c0,0.2,0.1,0.4,0.2,0.5c0.1,0,0.2,0.1,0.5,0.1c0.1,0,0.3,0,0.4,0v0.9
				c-0.3,0.1-0.6,0.1-0.9,0.1c-0.9,0-1.4-0.5-1.4-1.5V385h-0.9v-1h0.9V382.1z"/>
			<path class="st0" d="M613.8,384.1h1.1v0.9c0.6-0.8,1.3-1.1,2.2-1.1c0.9,0,1.7,0.4,2.2,1.1c0.5,0.6,0.7,1.5,0.7,2.4
				c0,1.5-0.4,2.6-1.2,3.3c-0.5,0.4-1.1,0.6-1.8,0.6c-0.5,0-1-0.1-1.3-0.3c-0.2-0.1-0.4-0.4-0.7-0.7v3.6h-1.2V384.1z M616.9,390.3
				c0.7,0,1.2-0.3,1.5-0.9c0.3-0.5,0.4-1.1,0.4-1.8c0-0.6-0.1-1-0.2-1.4c-0.3-0.8-0.9-1.2-1.7-1.2c-1.3,0-1.9,1-1.9,2.9
				c0,0.5,0.1,1,0.2,1.4C615.5,389.9,616.1,390.3,616.9,390.3z"/>
			<path class="st0" d="M624.3,383.9c0.5,0,1,0.1,1.4,0.3c0.5,0.2,0.8,0.6,1.1,1c0.2,0.3,0.3,0.7,0.4,1.2c0.1,0.4,0.1,0.9,0.1,1.5
				h-5.1c0,1.6,0.7,2.4,2,2.4c0.6,0,1.1-0.2,1.5-0.6c0.2-0.2,0.4-0.5,0.4-0.8h1.2c-0.1,0.6-0.4,1.1-0.9,1.6
				c-0.6,0.5-1.3,0.8-2.3,0.8c-1,0-1.8-0.4-2.3-1.1c-0.5-0.7-0.8-1.5-0.8-2.5c0-1.1,0.3-2,0.8-2.7
				C622.4,384.3,623.2,383.9,624.3,383.9z M626.2,387c0-0.5-0.2-0.9-0.3-1.2c-0.3-0.6-0.9-0.9-1.6-0.9c-0.6,0-1,0.2-1.4,0.6
				c-0.3,0.4-0.5,0.9-0.5,1.5H626.2z"/>
			<path class="st0" d="M628.8,384h1.1v1.2c0.1-0.4,0.4-0.7,0.8-1c0.4-0.3,0.8-0.4,1.1-0.4c0,0,0.2,0,0.4,0v1.2c-0.1,0-0.2,0-0.4,0
				c-0.5,0-1,0.2-1.3,0.5s-0.5,0.8-0.5,1.4v4h-1.2V384z"/>
			<path class="st0" d="M634,388.9c0,0.4,0.1,0.7,0.3,0.9c0.3,0.4,0.8,0.6,1.5,0.6c0.4,0,0.8-0.1,1.1-0.2c0.4-0.2,0.5-0.5,0.5-0.9
				c0-0.3-0.1-0.5-0.4-0.7c-0.2-0.1-0.5-0.2-1-0.3l-0.9-0.2c-0.6-0.1-1-0.3-1.3-0.5c-0.5-0.3-0.8-0.8-0.8-1.3c0-0.7,0.3-1.3,0.8-1.7
				c0.5-0.4,1.1-0.5,1.8-0.5c1.1,0,1.8,0.3,2.3,0.9c0.3,0.4,0.4,0.8,0.4,1.3h-1.1c0-0.3-0.1-0.5-0.3-0.7c-0.3-0.3-0.7-0.5-1.4-0.5
				c-0.9,0-1.4,0.3-1.4,0.9c0,0.3,0.2,0.5,0.5,0.7c0.2,0.1,0.4,0.2,0.8,0.3l0.8,0.2c0.8,0.2,1.4,0.4,1.7,0.6
				c0.5,0.3,0.7,0.8,0.7,1.4c0,0.8-0.3,1.4-0.9,1.8c-0.5,0.4-1.2,0.5-2,0.5c-1.9,0-2.8-0.8-2.9-2.5H634z"/>
			<path class="st0" d="M642.8,383.8c1,0,1.8,0.3,2.4,1c0.5,0.6,0.8,1.5,0.8,2.5c0,1.2-0.3,2.1-0.8,2.8c-0.6,0.8-1.5,1.1-2.6,1.1
				c-1,0-1.8-0.4-2.4-1.1c-0.5-0.6-0.8-1.5-0.8-2.5c0-1.1,0.3-2,0.8-2.7C640.9,384.2,641.7,383.8,642.8,383.8z M642.8,390.3
				c1.4,0,2-1,2-2.9c0-1.7-0.7-2.6-2-2.6c-0.7,0-1.3,0.3-1.6,0.9c-0.3,0.5-0.4,1.1-0.4,1.9c0,0.8,0.2,1.4,0.5,1.8
				C641.5,390,642,390.3,642.8,390.3z"/>
			<path class="st0" d="M647.4,384h1.1v1c0.6-0.8,1.4-1.2,2.3-1.2c1,0,1.7,0.3,2,1c0.2,0.4,0.3,0.9,0.3,1.6v4.5h-1.2v-4.4
				c0-1.1-0.4-1.7-1.3-1.7c-0.3,0-0.5,0-0.7,0.1c-0.3,0.1-0.6,0.3-0.9,0.6c-0.3,0.4-0.5,1-0.5,1.8v3.7h-1.2V384z"/>
			<path class="st0" d="M658.6,386.8c0.3,0,0.5-0.1,0.5-0.3c0.1-0.1,0.1-0.3,0.1-0.5c0-0.8-0.6-1.1-1.7-1.1c-0.6,0-1.1,0.2-1.3,0.5
				c-0.1,0.2-0.2,0.5-0.3,0.8h-1.1c0-1.5,0.9-2.3,2.7-2.3c0.8,0,1.4,0.1,1.9,0.4c0.6,0.3,0.9,0.8,0.9,1.6v4c0,0.3,0.1,0.4,0.4,0.4
				c0.1,0,0.2,0,0.4,0v0.9c-0.3,0.1-0.5,0.1-0.8,0.1c-0.4,0-0.7-0.1-0.9-0.4c-0.1-0.2-0.2-0.4-0.2-0.6c-0.3,0.4-0.7,0.7-1.1,0.9
				c-0.4,0.2-0.9,0.3-1.4,0.3c-0.6,0-1.1-0.2-1.6-0.6c-0.4-0.4-0.6-0.9-0.6-1.5c0-1.3,0.7-2,2.2-2.2L658.6,386.8z M655.8,389.2
				c0,0.3,0.1,0.6,0.4,0.8c0.2,0.2,0.5,0.3,0.9,0.3c0.4,0,0.8-0.1,1.2-0.3c0.7-0.3,1-0.8,1-1.6v-0.9c-0.3,0.2-0.7,0.3-1.2,0.4
				l-0.7,0.1c-0.4,0.1-0.7,0.1-1,0.3C655.9,388.4,655.8,388.7,655.8,389.2z"/>
			<path class="st0" d="M662.3,381.4h1.2v9.6h-1.2V381.4z"/>
		</g>
	</g>
	<path class="st2" d="M807.3,299.2"/>
	<g>
		<path class="st0" d="M1316.8,370.2l-0.6,3.5h-16.7l0.6-3.5l12.8-9.6h-11.1l0.6-3.5h16.7l-0.6,3.5l-12.9,9.6H1316.8z"/>
		<path class="st0" d="M1317.1,367.3l0.7-3.5h11.6l-0.7,3.5H1317.1z"/>
		<path class="st0" d="M1349.5,357l-0.6,3.5h-12.1c-0.3,0-0.5,0.1-0.8,0.3c-0.2,0.2-0.4,0.4-0.4,0.7l-1.4,7.6
			c-0.1,0.3,0,0.5,0.2,0.7c0.2,0.2,0.4,0.3,0.7,0.3h12.1l-0.6,3.5h-14.7c-0.6,0-1-0.2-1.3-0.6c-0.3-0.4-0.4-0.9-0.3-1.4l2.3-12.6
			c0.1-0.6,0.4-1,0.8-1.4c0.5-0.4,1-0.6,1.5-0.6H1349.5z"/>
		<path class="st0" d="M1365,373.7h-3.5l0.7-4c0-0.3,0-0.5-0.2-0.7c-0.2-0.2-0.4-0.3-0.6-0.3h-7.6c-0.3,0-0.5,0.1-0.8,0.3
			c-0.2,0.2-0.4,0.4-0.4,0.7l-0.8,4h-3.5l2.6-14.7c0.1-0.6,0.4-1,0.8-1.4c0.5-0.4,1-0.6,1.5-0.6h12.6c0.6,0,1,0.2,1.3,0.6
			c0.3,0.4,0.4,0.9,0.3,1.4l-1,5.8c-0.1,0.6-0.4,1-0.9,1.4c-0.5,0.4-1,0.6-1.6,0.6c0.6,0,1.1,0.2,1.4,0.7c0.1,0.1,0.2,0.3,0.2,0.6
			c0.1,0.5,0.1,0.7,0.1,0.7L1365,373.7z M1363.2,364.1l0.5-2.5c0.1-0.3,0-0.5-0.2-0.7c-0.2-0.2-0.4-0.3-0.7-0.3h-7.6
			c-0.3,0-0.5,0.1-0.8,0.3c-0.2,0.2-0.4,0.4-0.4,0.7l-0.5,2.5c-0.1,0.3,0,0.5,0.2,0.7c0.2,0.2,0.4,0.3,0.7,0.3h7.6
			c0.3,0,0.5-0.1,0.8-0.3C1363,364.6,1363.2,364.4,1363.2,364.1z"/>
		<path class="st0" d="M1383.1,363.6l-0.7,3.5h-10.6l-0.4,2c-0.1,0.3,0,0.5,0.2,0.7c0.2,0.2,0.4,0.3,0.7,0.3h12.1l-0.6,3.5h-14.7
			c-0.6,0-1-0.2-1.3-0.6c-0.3-0.4-0.4-0.9-0.3-1.4l2.3-12.6c0.1-0.6,0.4-1,0.8-1.4c0.5-0.4,1-0.6,1.5-0.6h14.7l-0.6,3.5H1374
			c-0.3,0-0.5,0.1-0.8,0.3c-0.2,0.2-0.4,0.4-0.4,0.7l-0.4,2H1383.1z"/>
		<path class="st0" d="M1388.5,357h14.7c0.6,0,1,0.2,1.3,0.6c0.3,0.4,0.4,0.9,0.3,1.4l-2.3,12.6c-0.1,0.6-0.4,1-0.8,1.4
			c-0.5,0.4-1,0.6-1.5,0.6h-14.7L1388.5,357z M1389.7,370.2h8.6c0.3,0,0.5-0.1,0.8-0.3c0.2-0.2,0.4-0.4,0.4-0.7l1.4-7.6
			c0.1-0.3,0-0.5-0.2-0.7c-0.2-0.2-0.4-0.3-0.7-0.3h-8.6L1389.7,370.2z"/>
		<path class="st0" d="M1407.3,357h3.5l-3,16.7h-3.5L1407.3,357z"/>
		<path class="st0" d="M1420.1,373.7h-3.5l2.2-12.1c0.1-0.3,0-0.5-0.2-0.7c-0.2-0.2-0.4-0.3-0.7-0.3h-5.6l0.6-3.5h16.7l-0.6,3.5
			h-5.6c-0.3,0-0.5,0.1-0.8,0.3c-0.2,0.2-0.4,0.4-0.4,0.7L1420.1,373.7z"/>
		<g>
			<path class="st0" d="M1303.4,381.1h-1.2v-2.3c0-0.2,0-0.3-0.1-0.4c-0.1-0.1-0.2-0.1-0.3-0.1h-0.7v1.6c0,0.1,0,0.2,0,0.3
				c0,0.1,0,0.2-0.1,0.3c0,0.1-0.1,0.1-0.1,0.2c0,0.1-0.1,0.1-0.1,0.2c-0.1,0.1-0.2,0.2-0.4,0.2c-0.1,0-0.3,0.1-0.5,0.1
				c-0.1,0-0.2,0-0.3-0.1c-0.1,0-0.2-0.1-0.2-0.1v-0.8c0.1,0.1,0.2,0.1,0.3,0.1c0.1,0,0.2,0,0.2-0.1s0.1-0.1,0.1-0.3v-2.6h0.5h0.7
				h1.2c0.4,0,0.7,0.1,0.9,0.3c0.2,0.2,0.3,0.5,0.3,1V381.1z"/>
			<path class="st0" d="M1306.7,381.1h-1.2v-3.7h1.2V381.1z"/>
			<path class="st0" d="M1312.4,381.1h-1.2l-1.2-1.7l-0.4,1.7h-1V381l0.7-2.5l-0.7-1v-0.1h1.2l1,1.5h0l0.3-1.5h1.1v0.1l-0.7,2.2
				L1312.4,381.1L1312.4,381.1z"/>
			<path class="st0" d="M1317.7,381.1h-1.2v-2.3c0-0.2,0-0.3-0.1-0.4c-0.1-0.1-0.2-0.1-0.3-0.1h-0.8v2.8h-1.2v-2.8v-0.9h2.4
				c0.4,0,0.7,0.1,0.9,0.3c0.2,0.2,0.3,0.5,0.3,1V381.1z"/>
			<path class="st0" d="M1323.5,381.1h-2.1v-0.9h0.9v-1.3c0-0.1,0-0.2,0-0.3c0-0.1-0.1-0.2-0.1-0.2s-0.1-0.1-0.2-0.1
				c-0.1,0-0.1,0-0.2,0c-0.1,0-0.1,0-0.2,0c-0.1,0-0.1,0.1-0.2,0.1c-0.1,0-0.1,0.1-0.2,0.1s-0.1,0.1-0.1,0.2l-0.2,2.5h-1.1l0.2-1.8
				c0-0.2,0-0.3,0-0.4c0-0.1,0-0.2,0-0.4c0-0.1,0-0.2-0.1-0.3c0-0.1-0.1-0.2-0.1-0.3l-0.2-0.4v-0.2h1l0.2,0.3
				c0.2-0.1,0.4-0.2,0.6-0.3c0.2-0.1,0.4-0.1,0.6-0.1c0.5,0,0.9,0.1,1.1,0.3c0.2,0.2,0.3,0.6,0.3,1.1V381.1z"/>
			<path class="st0" d="M1329.1,381.1h-1.2v-2.3c0-0.2,0-0.3-0.1-0.4c-0.1-0.1-0.2-0.1-0.3-0.1h-1.9v-0.9h2.3c0.4,0,0.7,0.1,0.9,0.3
				s0.3,0.5,0.3,1V381.1z M1326.8,381.1h-1.2v-2.2h1.2V381.1z"/>
			<path class="st0" d="M1337.9,381.1h-1.2v-2.3c0-0.2,0-0.3-0.1-0.4c-0.1-0.1-0.2-0.1-0.3-0.1h-0.7v1.6c0,0.1,0,0.2,0,0.3
				c0,0.1,0,0.2-0.1,0.3c0,0.1-0.1,0.1-0.1,0.2c0,0.1-0.1,0.1-0.1,0.2c-0.1,0.1-0.2,0.2-0.4,0.2c-0.1,0-0.3,0.1-0.5,0.1
				c-0.1,0-0.2,0-0.3-0.1c-0.1,0-0.2-0.1-0.2-0.1v-0.8c0.1,0.1,0.2,0.1,0.3,0.1c0.1,0,0.2,0,0.2-0.1s0.1-0.1,0.1-0.3v-2.6h0.5h0.7
				h1.2c0.4,0,0.7,0.1,0.9,0.3c0.2,0.2,0.3,0.5,0.3,1V381.1z"/>
			<path class="st0" d="M1343.5,381.1h-1.2v-2.3c0-0.2,0-0.3-0.1-0.4c-0.1-0.1-0.2-0.1-0.3-0.1h-0.8v2.8h-1.2v-2.8v-0.9h2.4
				c0.4,0,0.7,0.1,0.9,0.3c0.2,0.2,0.3,0.5,0.3,1V381.1z"/>
			<path class="st0" d="M1349.3,377.8l-0.1,2c0,0.3-0.1,0.5-0.2,0.7c-0.1,0.2-0.3,0.4-0.5,0.5c-0.1,0-0.2,0.1-0.3,0.1
				s-0.2,0-0.3,0.1c-0.1,0-0.2,0-0.3,0c-0.1,0-0.2,0-0.3,0c-0.1,0-0.3,0-0.4,0c-0.1,0-0.3,0-0.4,0c-0.1,0-0.3,0-0.4,0
				c-0.1,0-0.2,0-0.3-0.1l-0.2-3.6h1.2l0.1,2.8c0,0,0.1,0,0.1,0s0.1,0,0.2,0c0.1,0,0.1,0,0.2,0s0.1,0,0.1,0c0.3,0,0.5,0,0.6-0.1
				c0.1-0.1,0.2-0.2,0.2-0.4l0-1.4h-0.8v-0.9h2V377.8z"/>
			<path class="st0" d="M1354.6,381.1h-3.3v-0.9h1.8v-1.3c0-0.2,0-0.3-0.1-0.4c-0.1-0.1-0.2-0.1-0.3-0.1h-1.4v-0.9h1.8
				c0.4,0,0.7,0.1,0.9,0.3c0.2,0.2,0.3,0.5,0.3,1v1.5h0.3V381.1z"/>
			<path class="st0" d="M1360,381.1h-1.2v-2.3c0-0.2,0-0.3-0.1-0.4c-0.1-0.1-0.2-0.1-0.3-0.1h-1.9v-0.9h2.3c0.4,0,0.7,0.1,0.9,0.3
				s0.3,0.5,0.3,1V381.1z M1357.7,381.1h-1.2v-2.2h1.2V381.1z"/>
			<path class="st0" d="M1363.2,381.1h-1.2v-3.7h1.2V381.1z"/>
			<path class="st0" d="M1369.4,379.6h-1.2v-2.3h1.2V379.6z"/>
			<path class="st0" d="M1375.1,381.1h-1.2l-1.2-1.7l-0.4,1.7h-1V381l0.7-2.5l-0.7-1v-0.1h1.2l1,1.5h0l0.3-1.5h1.1v0.1l-0.7,2.2
				L1375.1,381.1L1375.1,381.1z"/>
			<path class="st0" d="M1379.7,381.1h-1.2v-2.2c0-0.2,0-0.3-0.1-0.4c-0.1-0.1-0.2-0.1-0.4-0.1h-1.3v-0.9h1.7c0.4,0,0.7,0.1,0.9,0.4
				c0.2,0.2,0.3,0.6,0.3,1V381.1z"/>
			<path class="st0" d="M1386.4,377.4l-0.1,1.9c0,0.2,0,0.4-0.1,0.5s-0.1,0.3-0.1,0.5c-0.1,0.2-0.2,0.3-0.3,0.4
				c-0.1,0.1-0.3,0.2-0.4,0.3c-0.2,0.1-0.4,0.1-0.7,0.2c-0.3,0-0.6,0-0.9,0c-0.4,0-0.8,0-1.1-0.1c-0.3,0-0.6-0.1-0.8-0.1l-0.3-3.6
				h1.2l0.1,1.8c0.1,0,0.1,0,0.2,0c0.1,0,0.1,0,0.2-0.1c0,0,0.1-0.1,0.1-0.1c0-0.1,0-0.1,0-0.3l0-1.4h1.1l0,1.4c0,0.2,0,0.4-0.1,0.5
				c-0.1,0.1-0.1,0.2-0.2,0.3s-0.2,0.1-0.3,0.2c-0.1,0-0.3,0-0.5,0c0,0,0,0-0.1,0c0,0-0.1,0-0.1,0c0,0-0.1,0-0.1,0c0,0-0.1,0-0.1,0
				l0,0.5c0,0,0.1,0,0.1,0c0.1,0,0.1,0,0.2,0c0.1,0,0.1,0,0.2,0c0.1,0,0.1,0,0.2,0c0.3,0,0.6,0,0.8-0.1c0.2,0,0.3-0.1,0.4-0.3
				c0.1-0.2,0.1-0.4,0.1-0.7l0.1-1.8H1386.4z"/>
			<path class="st0" d="M1392.1,381.1h-1.2l-1.2-1.7l-0.4,1.7h-1V381l0.7-2.5l-0.7-1v-0.1h1.2l1,1.5h0l0.3-1.5h1.1v0.1l-0.7,2.2
				L1392.1,381.1L1392.1,381.1z"/>
			<path class="st0" d="M1400.6,381.1h-1.2v-2.3c0-0.2,0-0.3-0.1-0.4s-0.2-0.1-0.3-0.1h-0.7v1.6c0,0.1,0,0.2,0,0.3
				c0,0.1,0,0.2-0.1,0.3s-0.1,0.1-0.1,0.2c0,0.1-0.1,0.1-0.1,0.2c-0.1,0.1-0.2,0.2-0.4,0.2c-0.1,0-0.3,0.1-0.5,0.1
				c-0.1,0-0.2,0-0.3-0.1c-0.1,0-0.2-0.1-0.2-0.1v-0.8c0.1,0.1,0.2,0.1,0.3,0.1c0.1,0,0.2,0,0.2-0.1s0.1-0.1,0.1-0.3v-2.6h0.5h0.7
				h1.2c0.4,0,0.7,0.1,0.9,0.3c0.2,0.2,0.3,0.5,0.3,1V381.1z"/>
			<path class="st0" d="M1406.4,378.6c0,0.2,0,0.3-0.1,0.5c-0.1,0.2-0.1,0.4-0.2,0.5l-0.7,1.5h-1.1V381l0.8-1.5
				c0.1-0.1,0.1-0.3,0.2-0.4c0-0.1,0.1-0.2,0.1-0.3c0-0.1,0-0.1,0-0.2s0-0.1-0.1-0.1c0,0-0.1-0.1-0.1-0.1c-0.1,0-0.1,0-0.2,0h-2.1
				v-0.9h2.3c0.3,0,0.6,0.1,0.8,0.2c0.2,0.1,0.3,0.3,0.4,0.5c0,0.1,0.1,0.2,0.1,0.3C1406.4,378.4,1406.4,378.5,1406.4,378.6z
				 M1403.9,382.2h-1.1v-3.4h1.1V382.2z"/>
			<path class="st0" d="M1409.5,379.6h-1.2v-2.3h1.2V379.6z"/>
			<path class="st0" d="M1414.5,377.9l-0.1,1.5c0,0.3-0.1,0.6-0.2,0.8c-0.1,0.2-0.2,0.4-0.3,0.5c-0.1,0.1-0.3,0.2-0.6,0.3
				c-0.2,0.1-0.5,0.1-0.8,0.1c0,0-0.1,0-0.2,0c-0.1,0-0.2,0-0.2,0v-0.9c0,0,0.1,0,0.2,0s0.1,0,0.2,0c0.1,0,0.2,0,0.3,0
				c0.1,0,0.2-0.1,0.2-0.1c0.1-0.1,0.1-0.1,0.2-0.2c0-0.1,0.1-0.2,0.1-0.4l0.1-1.1h-1.9v-1.9h1.2v0.9h1.9V377.9z"/>
			<path class="st0" d="M1420.3,379.2c0,0.3,0,0.6-0.1,0.8c-0.1,0.2-0.2,0.4-0.4,0.6c-0.2,0.2-0.4,0.3-0.6,0.4
				c-0.2,0.1-0.5,0.1-0.8,0.1c-0.3,0-0.5,0-0.8-0.1c-0.2-0.1-0.4-0.2-0.6-0.3c-0.2-0.2-0.3-0.4-0.4-0.6c-0.1-0.3-0.1-0.6-0.1-0.9
				c0-0.3,0-0.5,0.1-0.8c0.1-0.2,0.2-0.4,0.4-0.6c0.2-0.2,0.4-0.3,0.6-0.4c0.2-0.1,0.5-0.1,0.8-0.1c0.7,0,1.2,0.2,1.5,0.5
				C1420.1,378.1,1420.3,378.6,1420.3,379.2z M1419.1,379.2c0-0.1,0-0.3,0-0.4s-0.1-0.3-0.1-0.4c-0.1-0.1-0.1-0.2-0.2-0.3
				c-0.1-0.1-0.2-0.1-0.4-0.1c-0.1,0-0.2,0-0.3,0.1c-0.1,0.1-0.2,0.2-0.2,0.3c-0.1,0.1-0.1,0.2-0.1,0.4c0,0.1,0,0.3,0,0.4
				c0,0.3,0.1,0.6,0.2,0.8c0.1,0.2,0.3,0.3,0.5,0.3c0.1,0,0.2,0,0.3-0.1c0.1-0.1,0.2-0.1,0.2-0.2c0.1-0.1,0.1-0.2,0.1-0.4
				C1419.1,379.5,1419.1,379.4,1419.1,379.2z"/>
		</g>
		<path class="st0" d="M1302,343.9c0-1.9,0.6-6.4,0.6-6.4s-7.9,3.9-14.4,12.8c-3.6,4.9-6.9,12.3-6.9,12.3l-5.1-9.6l-5.5,3.2
			l-2.2-9.4l23.9-11.3l-0.8,7.8l1.8-1.6l1.2-9.2l-28.1,13.2l2.7,11.3l-2.9,1.6c0,0,1.7,1,3.8,2.5l5,21h13.1l2.2-17l-2.4,2.1
			l-1.4,13.1h-10.2l-4.2-17.6c1.2,0.9,2.3,1.9,3.3,2.8c3.6,3.6,6.2,6.7,6.2,6.7s5-8.3,11.3-14.1c6.4-5.8,9.8-7.9,9.8-7.9
			S1302,345.8,1302,343.9z"/>
	</g>
	<g>
		<path class="st0" d="M814.6,347.2c0.1,0,0.2,0,0.2,0c2.6,0,5.1,0,7.7,0c1.1,0,2.2,0.1,3.3,0.4c1,0.3,1.9,0.7,2.6,1.5
			c0.6,0.7,0.9,1.5,1.2,2.3c0.2,0.9,0.4,1.9,0.5,2.8c0.2,1.8,0.2,3.6,0.2,5.4c0,3.5,0,7,0,10.5c0,1.3-0.1,2.5-0.2,3.8
			c-0.2,1.2-0.4,2.3-0.9,3.4c-0.7,1.5-2,2.4-3.6,2.9c-1,0.3-2,0.4-3.1,0.4c-2.6,0-5.1,0-7.7,0c0,0-0.1,0-0.1,0
			C814.6,369.5,814.6,358.4,814.6,347.2z M819.1,376.7c0.1,0,0.1,0,0.2,0c0.9,0,1.7,0,2.6,0c0.2,0,0.5,0,0.7-0.1
			c1-0.2,1.8-0.8,2.2-1.8c0.1-0.4,0.2-0.7,0.3-1.1c0.2-1.1,0.3-2.2,0.3-3.2c0-4.4,0-8.9,0-13.3c0-0.8,0-1.5-0.1-2.3
			c0-0.6-0.2-1.3-0.4-1.9c-0.3-0.8-0.9-1.4-1.7-1.6c-0.3-0.1-0.7-0.2-1-0.2c-1,0-2,0-2.9-0.1c0,0-0.1,0-0.1,0
			C819.1,359.7,819.1,368.2,819.1,376.7z"/>
		<path class="st0" d="M896.6,366.2c0,4.8,0,9.6,0,14.4c-1.5,0-3,0-4.5,0c0,0,0,0,0,0c0,0,0,0,0,0c0-11,0-22,0-33.1
			c0-0.1,0-0.2,0-0.3c0.1,0,0.2,0,0.3,0c2.7,0,5.5,0,8.2,0c1,0,2,0.1,2.9,0.4c1.4,0.4,2.2,1.3,2.6,2.7c0.2,0.8,0.3,1.6,0.4,2.4
			c0.1,1.7,0.1,3.4,0.1,5.1c0,0.9-0.1,1.9-0.4,2.8c-0.4,1.3-1.2,2.3-2.4,2.9c-0.3,0.1-0.6,0.3-0.9,0.4c-0.1,0-0.2,0.1-0.4,0.1
			c0.3,0.1,0.6,0.1,0.9,0.2c0.9,0.2,1.7,0.5,2.2,1.2c0.5,0.6,0.8,1.3,0.9,2c0.1,0.5,0.1,0.9,0.1,1.4c0,2.7,0,5.5,0,8.2
			c0,1.1,0.1,2.2,0.2,3.3c0,0.1,0,0.1,0,0.2c-1.5,0-3,0-4.5,0c-0.3-0.4-0.3-1-0.3-1.5c0-0.4,0-0.9,0-1.3c0-2.6,0-5.3,0-7.9
			c0-0.5,0-1.1-0.1-1.6c-0.2-1.2-0.8-1.9-2.1-2c-0.5-0.1-1-0.1-1.6-0.1C897.7,366.2,897.2,366.2,896.6,366.2z M896.6,351.2
			c0,3.6,0,7.2,0,10.8c0,0,0.1,0,0.1,0c1.1,0,2.1,0.1,3.2-0.1c1.2-0.2,1.8-0.7,2.1-1.9c0.2-0.8,0.2-1.6,0.2-2.4c0-1.3,0-2.6-0.1-3.9
			c0-0.4-0.1-0.8-0.3-1.2c-0.2-0.6-0.6-1-1.3-1.2c-0.2-0.1-0.5-0.1-0.7-0.1c-1,0-2,0-3,0C896.8,351.1,896.7,351.2,896.6,351.2z"/>
		<path class="st0" d="M882.2,365.6c0,3.7,0,7.4,0,11.1c2.7,0,5.4,0,8.1,0c0,1.3,0,2.6,0,4c-4.2,0-8.4,0-12.6,0
			c0-11.1,0-22.2,0-33.4c4.2,0,8.4,0,12.6,0c0,1.3,0,2.6,0,3.9c-2.7,0-5.4,0-8.1,0c0,3.5,0,7,0,10.5c2.5,0,5,0,7.5,0
			c0.1,0.3,0.1,3.6,0,3.9C887.2,365.6,884.7,365.6,882.2,365.6z"/>
		<path class="st0" d="M844.7,376.7c0,1.3,0,2.6,0,3.9c-0.2,0.1-11.8,0.1-12.6,0c-0.1-0.2-0.1-32.7,0-33.4c0.2-0.1,12.1-0.1,12.6,0
			c0.1,0.2,0.1,3.4,0,3.9c-0.9,0-1.8,0-2.7,0c-0.9,0-1.8,0-2.7,0c-0.9,0-1.8,0-2.7,0c0,3.5,0,7,0,10.5c0.8,0,1.7,0,2.5,0
			c0.8,0,1.7,0,2.5,0c0.8,0,1.7,0,2.5,0c0.1,0.3,0.1,3.6,0,3.9c-2.5,0-5,0-7.5,0c0,3.7,0,7.4,0,11.1
			C839.3,376.7,842,376.7,844.7,376.7z"/>
		<path class="st0" d="M851.1,361.7c2.5,0,5,0,7.5,0c0,1.3,0,2.6,0,3.9c-2.5,0-5,0-7.4,0c-0.1,0.3-0.1,10.7,0,11.1c1.3,0,2.7,0,4,0
			c1.3,0,2.7,0,4,0c0,1.3,0,2.6,0,4c-4.2,0-8.4,0-12.6,0c-0.1-0.2-0.1-32.9,0-33.4c0.2-0.1,12.2-0.1,12.6,0c0,1.3,0,2.6,0,3.9
			c-2.7,0-5.4,0-8.1,0C851.1,354.7,851.1,358.2,851.1,361.7z"/>
		<path class="st0" d="M861.1,351.1c0-1.3,0-2.6,0-3.9c4.9,0,9.8,0,14.7,0c0,0.1,0,0.2,0,0.3c0,1.1,0,2.2,0,3.4c0,0.2,0,0.3-0.1,0.5
			c-3.3,8.2-6.6,16.4-9.8,24.6c-0.1,0.2-0.2,0.4-0.3,0.7c3.4,0,6.8,0,10.2,0c0.1,0.3,0.1,3.5,0,3.9c-4.9,0-9.8,0-14.7,0
			c0-0.1,0-0.2,0-0.3c0-1.1,0-2.3,0-3.4c0-0.2,0-0.3,0.1-0.5c2-4.9,4-9.9,6-14.8c1.4-3.4,2.8-6.8,4.1-10.2c0-0.1,0.1-0.2,0.1-0.4
			C868,351.1,864.5,351.1,861.1,351.1z"/>
		<path class="st0" d="M789.6,372.8c0-1,0-2,0-3c0.2-0.1,9.3-0.1,10,0c0,1,0,2,0,3C796.2,372.8,792.9,372.8,789.6,372.8z"/>
		<path class="st0" d="M778.4,357.1c0-1,0-2,0-3c0.3-0.1,9.6-0.1,10,0c0,1,0,2,0,3C788.2,357.2,779.1,357.2,778.4,357.1z"/>
		<path class="st0" d="M778.4,372.8c0-1,0-2,0-3c3.3,0,6.6,0,9.9,0c0.1,0.2,0.1,2.6,0,3C785.1,372.8,781.8,372.8,778.4,372.8z"/>
		<path class="st0" d="M788.4,361.1c-3.3,0-6.6,0-9.9,0c0-1,0-2,0-3c3.3,0,6.6,0,9.9,0C788.4,358.3,788.5,360.7,788.4,361.1z"/>
		<path class="st0" d="M766.1,372.8c-3.3,0-6.6,0-9.9,0c0-1,0-2,0-3c0.2-0.1,9.3-0.1,9.9,0C766.1,370.8,766.1,371.8,766.1,372.8z"/>
		<path class="st0" d="M766.1,365c-3.3,0-6.6,0-9.9,0c-0.1-0.2-0.1-2.6,0-3c3.3,0,6.6,0,9.9,0C766.1,363,766.1,364,766.1,365z"/>
		<path class="st0" d="M778.4,365c0-1,0-2,0-3c0.3-0.1,9.6-0.1,10,0c0,1,0,2,0,3C788.2,365,779.1,365.1,778.4,365z"/>
		<path class="st0" d="M789.6,365c0-1,0-2,0-3c0.2-0.1,9.4-0.1,9.9,0c0.1,0.2,0.1,2.6,0,3C796.2,365,792.9,365,789.6,365z"/>
		<path class="st0" d="M766.1,365.9c0,1,0,2,0,3c-3.3,0-6.6,0-9.9,0c-0.1-0.2-0.1-2.6,0-3C759.5,365.9,762.8,365.9,766.1,365.9z"/>
		<path class="st0" d="M766.1,373.7c0,1,0,2,0,3c-3.3,0-6.6,0-9.9,0c-0.1-0.2-0.1-2.6,0-3C759.5,373.7,762.8,373.7,766.1,373.7z"/>
		<path class="st0" d="M778.4,376.8c0-1,0-2,0-3c3.3,0,6.6,0,9.9,0c0.1,0.2,0.1,2.5,0,3C785.1,376.8,781.8,376.8,778.4,376.8z"/>
		<path class="st0" d="M788.4,368.9c-3.4,0-6.7,0-10,0c0-1,0-2,0-3c3.3,0,6.6,0,10,0C788.4,366.9,788.4,367.9,788.4,368.9z"/>
		<path class="st0" d="M799.6,365.9c0,1,0,2,0,3c-3.3,0-6.6,0-9.9,0c0-1,0-2,0-3C789.9,365.8,799.2,365.8,799.6,365.9z"/>
		<path class="st0" d="M789.6,376.8c0-1,0-2,0-3c0.2-0.1,9.6-0.1,10,0c0,1,0,2,0,3C796.2,376.8,792.9,376.8,789.6,376.8z"/>
		<path class="st0" d="M777.2,372.8c-3.3,0-6.6,0-9.9,0c-0.1-0.2-0.1-2.6,0-3c3.3,0,6.6,0,9.9,0
			C777.2,370.8,777.2,371.8,777.2,372.8z"/>
		<path class="st0" d="M800.8,357.2c0-1,0-2,0-3c3.3,0,6.6,0,9.9,0c0,1,0,2,0,3C807.4,357.2,804.1,357.2,800.8,357.2z"/>
		<path class="st0" d="M810.7,350.2c0,1,0,2,0,3c-3.3,0-6.6,0-9.9,0c-0.1-0.2-0.1-2.6,0-3C804.1,350.2,807.4,350.2,810.7,350.2z"/>
		<path class="st0" d="M810.7,369.8c0,1,0,2,0,3c-3.3,0-6.6,0-9.9,0c0-1,0-2,0-3C804.1,369.8,807.4,369.8,810.7,369.8z"/>
		<path class="st0" d="M800.8,368.9c0-1,0-2,0-3c0.2-0.1,9.4-0.1,9.9,0c0,1,0,2,0,3C810.5,368.9,801.3,369,800.8,368.9z"/>
		<path class="st0" d="M810.7,362c0,1,0,2,0,3c-3.3,0-6.6,0-9.9,0c0-1,0-2,0-3C804.1,362,807.4,362,810.7,362z"/>
		<path class="st0" d="M800.8,361.1c0-1,0-2,0-3c3.3,0,6.6,0,9.9,0c0,1,0,2,0,3C807.4,361.1,804.1,361.1,800.8,361.1z"/>
		<path class="st0" d="M810.7,376.8c-3.3,0-6.6,0-9.9,0c-0.1-0.2-0.1-2.6,0-3c3.3,0,6.6,0,9.9,0
			C810.7,374.7,810.7,375.7,810.7,376.8z"/>
		<path class="st0" d="M766.1,380.6c-3.3,0-6.6,0-9.9,0c0-1,0-2,0-3c0.2-0.1,9.4-0.1,9.9,0C766.1,378.6,766.1,379.6,766.1,380.6z"/>
		<path class="st0" d="M778.4,377.6c3.3,0,6.6,0,9.9,0c0.1,0.2,0.1,2.6,0,3c-3.3,0-6.6,0-9.9,0C778.4,379.6,778.4,378.7,778.4,377.6
			z"/>
		<path class="st0" d="M799.6,377.7c0,1,0,2,0,3c-3.3,0-6.6,0-10,0c0-1,0-2,0-3C792.9,377.7,796.2,377.7,799.6,377.7z"/>
		<path class="st0" d="M767.3,376.7c0-1,0-2,0-3c0.2-0.1,9.5-0.1,9.9,0c0,1,0,2,0,3C773.9,376.7,770.6,376.7,767.3,376.7z"/>
		<path class="st0" d="M777.2,377.6c0,1,0,2,0,3c-0.2,0.1-9.5,0.1-9.9,0c0-1,0-2,0-3C770.6,377.6,773.9,377.6,777.2,377.6z"/>
		<path class="st0" d="M810.7,377.6c0,1,0,2,0,2.9c-0.2,0.1-9.4,0.1-9.9,0c0-1,0-2,0-3C804.1,377.6,807.4,377.6,810.7,377.6z"/>
	</g>
	<g>
		<path class="st0" d="M1031.2,377.4c-0.4-0.7-0.6-1.5-0.7-2.6h17.6c0-9.8-4.6-14.8-13.7-14.8c-3.8,0-6.8,1.2-9.2,3.7
			c-2.4,2.5-3.6,5.5-3.6,9.1c0,1.7,0.2,3.2,0.7,4.6H1031.2z M1035.2,366c1.2,0,2.1,0.4,2.9,1.2c0.8,0.8,1.1,1.7,1.1,2.9h-8.8
			C1030.9,367.3,1032.5,366,1035.2,366z"/>
		<path class="st0" d="M1091.6,377.4c-0.4-0.7-0.6-1.5-0.7-2.6h17.6c0-9.8-4.6-14.8-13.7-14.8c-3.8,0-6.8,1.2-9.2,3.7
			c-2.4,2.5-3.6,5.5-3.6,9.1c0,1.7,0.2,3.2,0.7,4.6H1091.6z M1095.6,366c1.2,0,2.1,0.4,2.9,1.2c0.8,0.8,1.1,1.7,1.1,2.9h-8.8
			C1091.3,367.3,1092.9,366,1095.6,366z"/>
		<path class="st0" d="M1051.6,377.4h9.2v-11h3.2h1.4h2.4v11h9.2v-11h4.7v-5.7h-4.8c-0.1-1.1,0.1-1.9,0.5-2.3
			c0.4-0.4,1.2-0.6,2.3-0.6c-0.2,0,0.5,0.1,2.2,0.3v-6.3c-0.3,0-1,0-2-0.1c-0.9-0.1-1.6-0.1-2.1-0.1c-1.9,0-3.3,0.1-4.3,0.3
			c-1.5,0.3-2.8,1-3.8,2c-1.4,1.4-2,3.7-1.9,6.8h-2.4h-1.4h-3.4c-0.1-1.1,0.1-1.9,0.5-2.3c0.4-0.4,1.2-0.6,2.3-0.6
			c-0.2,0,0.5,0.1,2.2,0.3v-6.3c-0.3,0-1,0-2-0.1c-0.9-0.1-1.6-0.1-2.1-0.1c-1.9,0-3.3,0.1-4.3,0.3c-1.5,0.3-2.8,1-3.8,2
			c-1.4,1.4-2,3.7-1.9,6.8h-3.8v5.7h3.8V377.4z"/>
		<g>
			<path class="st0" d="M1120.3,377.4c-0.7-1-1.1-2.5-1.1-4.6c0-4,1.4-6,4.1-6c2,0,3.2,1,3.4,3.1h8.8c-0.3-3.2-1.6-5.7-4-7.4
				c-2.2-1.6-5-2.4-8.3-2.4c-3.7,0-6.8,1.2-9.3,3.5c-2.5,2.4-3.8,5.4-3.8,9.2c0,1.7,0.3,3.2,0.8,4.6H1120.3z"/>
		</g>
		<path class="st0" d="M1139.4,377.4h10c-0.1-0.1-0.1-0.1-0.2-0.2c-0.4-0.4-0.6-1.2-0.6-2.4v-8.4h4.9v-5.7h-4.9v-7.4h-9.2v7.4h-4.1
			v5.7h4.1V377.4z"/>
	</g>
	<path class="st0" d="M399.3,338c-16.6,0-30,13.4-30,30c0,16.6,13.4,30,30,30c16.6,0,30-13.4,30-30C429.3,351.4,415.8,338,399.3,338
		z M406.5,390.6c-2.1-0.3-4.4-1-6.9-2.2c-20.3-10-18.4-34.1-18.3-34.5c1.8-3.4,4.2-6.1,6.8-8.2c0.4-0.2,13-5.6,24.6,0.4
		c3.3,3.9,8.2,11.2,7.9,20.6C419.5,382.3,409.5,388.9,406.5,390.6z"/>
</g>
<g id="Layer_2">
</g>
</svg>
