<?xml version="1.0" encoding="utf-8"?>
<!-- Generator: Adobe Illustrator 24.0.2, SVG Export Plug-In . SVG Version: 6.00 Build 0)  -->
<svg version="1.1" xmlns="http://www.w3.org/2000/svg" xmlns:xlink="http://www.w3.org/1999/xlink" x="0px" y="0px"
	 viewBox="0 0 1465.3 137.1" style="enable-background:new 0 0 1465.3 137.1;" xml:space="preserve">
<style type="text/css">
	.st0{fill:#A1A1A1;}
	.st1{fill:#A1A1A1;stroke:#231F20;stroke-width:3;stroke-miterlimit:10;}
</style>
<g id="logo">
	<title>amdocswhite</title>
	<path class="st0" d="M64.9,67.4c0-5.8,1.8-10.5,5.3-14.2c3.5-3.7,8.1-5.5,13.8-5.5c5.7,0,10.3,1.8,13.8,5.5
		c3.5,3.7,5.3,8.4,5.3,14.2s-1.8,10.5-5.3,14.2c-3.5,3.7-8.1,5.5-13.8,5.5c-5.7,0-10.3-1.8-13.8-5.5C66.6,77.9,64.9,73.2,64.9,67.4z
		 M76.5,67.4c0,3.8,0.9,6.5,2.6,8.3c1.3,1.3,2.9,2,4.8,2s3.5-0.7,4.8-2c1.8-1.8,2.6-4.6,2.6-8.3c0-3.8-0.9-6.5-2.6-8.3
		c-1.3-1.3-2.9-2-4.8-2s-3.5,0.7-4.8,2C77.4,60.8,76.5,63.6,76.5,67.4z"/>
	<path class="st0" d="M147.5,48.6L137,86.2h-11.3l-4.1-22.9h-0.1l-3.9,22.9h-11.3L96.1,48.6h11.4l4.6,23.2h0.1l4.5-23.2h10.2
		l4.4,23.5h0.1l4.7-23.5H147.5z"/>
	<path class="st0" d="M143.1,86.2V48.6H155l11,20.1V48.6h11v37.6h-11.3l-11.6-20.5v20.5H143.1z"/>
	<rect x="64.9" y="90.9" class="st0" width="112.1" height="4.1"/>
	<path class="st0" d="M318.2,57.3h-2l2.3-10.5H315v-4.1h1.8v2.5h4L318.2,57.3z M326.9,57.3H325l-0.3-2.7c-0.3,1.4-1.3,2.7-2.7,2.7
		h-0.4v-1.9h0.4c2.1,0,2.6-2.1,2.3-4.1c-0.1-1.1-0.5-4.5-0.5-4.5h-1.3v-1.6h3.1L326.9,57.3z"/>
	<rect x="327.7" y="50.1" class="st0" width="4.4" height="1.6"/>
	<path class="st0" d="M335.3,45.2c3.3,0,3.5,2.2,3.5,5.2c0,1.2,0,6.9,0,6.9h-2.1c0,0,0-6.5,0-7.2c0-1.8,0.1-3.3-1.6-3.3h-2.1v-1.6
		H335.3z M347.2,45.2v12.1h-2V46.8h-4.2v-1.6H347.2z M340.9,49.8h2v7.5h-2V49.8z"/>
	<path class="st0" d="M290.3,64.2c2.9,0,2.9,1.9,2.9,4.6v6h-1.1V68c0-2.2-0.4-3-1.7-3h-0.9v9.7h-2.7V74h1.6V65h-1v-0.8H290.3z
		 M296.7,64.2v10.5h-1.1V64.2H296.7z M301.8,64.2c2.9,0,3.1,1.9,3.1,4.6v6h-1.1v-6.9c0-1.8-0.6-2.9-2.1-2.9h-1.3v9.7h-1.1V64.2
		H301.8z M308.1,64.2c2.3,0,2.9,1.2,2.9,4.1v2.4c0,2.8-0.6,4.1-2.9,4.1h-1.5V74h1.8c0.9,0,1.6-0.7,1.6-2.8v-3.3
		c0-2.1-0.6-2.8-1.6-2.8h-1.8v-0.8H308.1z M314.5,64.2v10.5h-1.1V64.2H314.5z M317.1,74c1,0,1.2-0.6,1.2-1.7V65h-1.4v-0.8h2.5v7.6
		c0,1.9-0.3,3-2,3h-1.1V74H317.1z M325.1,72.9h1V74l-1.3,3.1h-0.5L325.1,72.9z M329.4,64.2c2.9,0,2.9,2,2.9,4.6v5.9h-1.1v-6.8
		c0-1.5-0.1-2.9-1.9-2.9h-1.8v-0.8H329.4z M335.4,64.2c2.3,0,2.9,1.2,2.9,4.1v2.4c0,2.8-0.6,4.1-2.9,4.1h-1.5V74h1.8
		c0.9,0,1.6-0.7,1.6-2.8v-3.3c0-2.1-0.6-2.8-1.6-2.8h-1.8v-0.8H335.4z M347.5,64.2v6c0,3.8-1.4,4.5-3.7,4.5h-2.9L340,64.2h1.1
		L342,74h1.7c1.6,0,2.7-0.3,2.7-3.3v-6.4H347.5z M344.5,70.8h-1.1v-6.6h1.1V70.8z"/>
	<path class="st0" d="M288.6,82.4v6c0,3.8-1.4,4.5-3.7,4.5h-2.9l-0.9-10.5h1.1l0.9,9.7h1.7c1.6,0,2.7-0.3,2.7-3.3v-6.4H288.6z
		 M285.6,89h-1.1v-6.6h1.1V89z M291.9,82.4v10.5h-1.1V82.4H291.9z M294.6,92.1c1,0,1.2-0.6,1.2-1.7v-7.3h-1.4v-0.8h2.5V90
		c0,1.9-0.3,3-2,3h-1.1v-0.8H294.6z M304.2,92.9l-3.1-6.3c-0.6,0.2-0.9,0.8-0.9,1.4v4.9h-1.1v-4.5c0-1.3,0.3-2.3,1.6-2.6l-1.6-3.4
		h1.1L303,88c1-0.4,1.3-0.7,1.3-1.8v-3.8h1.1v3.5c0,1.6-0.4,2.4-2,2.8l2,4.2H304.2z M311.9,82.4v5.6h-1.1v-5.6H311.9z M319.2,92.9
		h-5.3v-0.8h3.1v-8.9H314v-0.8h4.2v9.7h1V92.9z M325.6,92.9l-3.1-6.3c-0.6,0.2-0.9,0.8-0.9,1.4v4.9h-1.1v-4.5c0-1.3,0.3-2.3,1.6-2.6
		l-1.6-3.4h1.1l2.6,5.6c1-0.4,1.3-0.7,1.3-1.8v-3.8h1.1v3.5c0,1.6-0.4,2.4-2,2.8l2,4.2H325.6z M335.9,82.4v6c0,3.8-1.4,4.5-3.7,4.5
		h-2.9l-0.9-10.5h1.1l0.9,9.7h1.7c1.6,0,2.7-0.3,2.7-3.3v-6.4H335.9z M332.9,89h-1.1v-6.6h1.1V89z M340.6,92.1h1.8v-6.5
		c0-1.6-0.5-2.5-1.8-2.5H340l-1.3,9.7h-1.2l1.4-9.7h-1.4v-0.8h3c2.3,0,3,1.4,3,4.1v6.5h-2.9V92.1z M347.1,82.4v10.5H346V82.4H347.1z
		"/>
	
		<rect x="361" y="45.1" transform="matrix(-1 -1.224647e-16 1.224647e-16 -1 722.3555 137.8886)" class="st0" width="0.4" height="47.7"/>
	<g>
		<path class="st0" d="M561.4,53.6c-2.8,0-4.9,1.1-6.3,3.3c-1.2,1.8-1.8,4.4-1.8,7.8c0,4,0.9,7,2.7,8.9c1.3,1.3,3,2,5.3,2
			c1.5,0,2.8-0.3,3.8-0.9c1.3-0.7,2.3-1.9,3.1-3.6c0.7-1.6,1.1-3.8,1.1-6.4c0-3.1-0.4-5.5-1.1-7c-0.7-1.5-1.7-2.6-2.8-3.3
			C564.2,54,562.9,53.6,561.4,53.6z"/>
		<path class="st0" d="M532.2,66.9v7.1c0,1.4,0.1,2.3,0.3,2.6s0.5,0.6,0.9,0.9c0.4,0.2,1.2,0.3,2.4,0.3v0.7h-13v-0.7
			c1.2,0,2-0.1,2.4-0.3c0.4-0.2,0.7-0.5,0.9-0.9c0.2-0.4,0.3-1.2,0.3-2.6V57.4c0-1.4-0.1-2.3-0.3-2.6s-0.5-0.6-0.9-0.9
			c-0.4-0.2-1.2-0.3-2.4-0.3v-0.7h11.1c3.7,0,6.3,0.7,7.9,2c1.6,1.3,2.4,2.9,2.4,4.9c0,1.7-0.5,3.1-1.5,4.3c-1,1.2-2.4,2-4.3,2.4
			C537.2,66.7,535.1,66.9,532.2,66.9z M532.2,54.4v11c0.4,0,0.7,0,0.9,0c1.5,0,2.7-0.5,3.5-1.4c0.8-0.9,1.2-2.3,1.2-4.2
			c0-1.9-0.4-3.3-1.2-4.2c-0.8-0.9-2.1-1.3-3.7-1.3H532.2z"/>
		<path class="st0" d="M586,52.9l12.6,15.8v-11c0-1.5-0.2-2.6-0.7-3.1c-0.6-0.7-1.6-1.1-3-1.1v-0.7h8.4v0.7
			c-1.1,0.1-1.8,0.3-2.2,0.5c-0.4,0.2-0.7,0.6-0.9,1.1c-0.2,0.5-0.3,1.3-0.3,2.6V79h-0.6l-17.3-21.3V74c0,1.5,0.3,2.5,1,3
			c0.7,0.5,1.4,0.8,2.3,0.8h0.6v0.7H577v-0.7c1.4,0,2.4-0.3,2.9-0.9c0.6-0.6,0.8-1.5,0.8-2.9V56l-0.5-0.7c-0.5-0.7-1-1.1-1.4-1.3
			c-0.4-0.2-1-0.3-1.8-0.4v-0.7H586z"/>
		<path class="st0" d="M629,52.9v6.9h-0.7c-0.4-1.6-0.8-2.7-1.3-3.4c-0.5-0.7-1.2-1.3-2-1.7c-0.5-0.2-1.3-0.3-2.5-0.3h-1.9v19.7
			c0,1.3,0.1,2.1,0.2,2.4c0.1,0.3,0.4,0.6,0.8,0.9c0.4,0.2,1,0.4,1.7,0.4h0.8v0.7h-13.4v-0.7h0.8c0.7,0,1.3-0.1,1.8-0.4
			c0.3-0.2,0.6-0.5,0.8-0.9c0.1-0.3,0.2-1.1,0.2-2.4V54.4h-1.8c-1.7,0-3,0.4-3.7,1.1c-1.1,1-1.8,2.5-2.1,4.4h-0.7v-6.9H629z"/>
		<path class="st0" d="M645.4,77.7v0.7h-13.4v-0.7h0.8c0.7,0,1.3-0.1,1.8-0.4c0.3-0.2,0.6-0.5,0.8-0.9c0.1-0.3,0.2-1.1,0.2-2.4V57.3
			c0-1.3-0.1-2.1-0.2-2.4c-0.1-0.3-0.4-0.6-0.8-0.9s-1-0.4-1.7-0.4h-0.8v-0.7h13.4v0.7h-0.8c-0.7,0-1.3,0.1-1.8,0.4
			c-0.3,0.2-0.6,0.5-0.8,0.9c-0.1,0.3-0.2,1.1-0.2,2.4v16.8c0,1.3,0.1,2.1,0.2,2.4c0.1,0.3,0.4,0.6,0.8,0.9c0.4,0.2,1,0.4,1.7,0.4
			H645.4z"/>
		<path class="st0" d="M664.1,52.3l0.2,8.5h-0.8c-0.4-2.1-1.3-3.9-2.7-5.2c-1.4-1.3-3-2-4.6-2c-1.3,0-2.3,0.3-3,1
			c-0.7,0.7-1.1,1.5-1.1,2.4c0,0.6,0.1,1.1,0.4,1.5c0.4,0.6,0.9,1.2,1.8,1.8c0.6,0.4,2,1.1,4.1,2.2c3,1.5,5,2.9,6,4.2
			c1,1.3,1.5,2.8,1.5,4.5c0,2.1-0.8,4-2.5,5.5c-1.7,1.5-3.8,2.3-6.3,2.3c-0.8,0-1.6-0.1-2.3-0.2c-0.7-0.2-1.6-0.5-2.7-0.9
			c-0.6-0.3-1.1-0.4-1.5-0.4c-0.3,0-0.7,0.1-1,0.4c-0.4,0.3-0.7,0.6-0.9,1.1h-0.7v-9.6h0.7c0.6,2.7,1.6,4.8,3.2,6.2
			c1.6,1.4,3.3,2.1,5.1,2.1c1.4,0,2.5-0.4,3.4-1.1c0.8-0.8,1.3-1.7,1.3-2.7c0-0.6-0.2-1.2-0.5-1.8c-0.3-0.6-0.8-1.1-1.5-1.6
			c-0.7-0.5-1.8-1.2-3.5-2c-2.3-1.1-4-2.1-5-2.9c-1-0.8-1.8-1.7-2.3-2.7c-0.5-1-0.8-2.1-0.8-3.3c0-2,0.7-3.8,2.2-5.2
			c1.5-1.4,3.4-2.1,5.7-2.1c0.8,0,1.6,0.1,2.4,0.3c0.6,0.2,1.3,0.4,2.2,0.8c0.8,0.4,1.4,0.6,1.8,0.6c0.3,0,0.6-0.1,0.8-0.3
			c0.2-0.2,0.4-0.7,0.5-1.5H664.1z"/>
		<g>
			<path class="st0" d="M568.3,53.6c0-0.1-0.1-0.1-0.1-0.2c-1.8-2.9-4.2-4.3-7-4.2c-2.7-0.2-4.9,1.2-6.8,4.2c0,0.1-0.1,0.1-0.1,0.2
				c2-1.3,4.2-1.9,6.8-1.8C563.9,51.7,566.3,52.3,568.3,53.6z"/>
			<path class="st0" d="M550.6,57.6c-3.2,1.8-4.8,4.1-4.8,7.2c0,3,1.6,5.4,4.9,7.1c-1.3-2.1-1.9-4.6-1.9-7.4
				C548.8,61.9,549.4,59.6,550.6,57.6z"/>
			<path class="st0" d="M554.4,75.8c1.7,2.9,4.1,4.4,7,4.4c2.9,0,5.1-1.5,6.9-4.4c-1.9,1.3-4.2,1.9-6.9,1.9
				C558.6,77.7,556.3,77.1,554.4,75.8z"/>
			<path class="st0" d="M572.6,57.9c-0.2-0.1-0.4-0.2-0.6-0.3c1.2,2,1.8,4.4,1.8,7c0,2.8-0.7,5.4-2.1,7.6c0.3-0.2,0.6-0.3,0.9-0.5
				c2.9-1.8,4.3-4.2,4.2-7C576.9,62,575.5,59.7,572.6,57.9z"/>
		</g>
		<g>
			<path class="st0" d="M559.7,84.7h1.3v8.5h4.9v1.1h-6.2V84.7z"/>
			<path class="st0" d="M569.9,87.2c0.5,0,1,0.1,1.4,0.3c0.5,0.2,0.8,0.6,1.1,1c0.2,0.3,0.3,0.7,0.4,1.2c0.1,0.4,0.1,0.9,0.1,1.5
				h-5.1c0,1.6,0.7,2.4,2,2.4c0.6,0,1.1-0.2,1.5-0.6c0.2-0.2,0.4-0.5,0.4-0.8h1.2c-0.1,0.6-0.4,1.1-0.9,1.6
				c-0.6,0.5-1.3,0.8-2.3,0.8c-1,0-1.8-0.4-2.3-1.1c-0.5-0.7-0.8-1.5-0.8-2.5c0-1.1,0.3-2,0.8-2.7C568,87.5,568.9,87.2,569.9,87.2z
				 M571.8,90.3c0-0.5-0.2-0.9-0.3-1.2c-0.3-0.6-0.9-0.9-1.6-0.9c-0.6,0-1,0.2-1.4,0.6c-0.3,0.4-0.5,0.9-0.5,1.5H571.8z"/>
			<path class="st0" d="M574.7,85.4h1.2v2h1.1v1h-1.1v4.6c0,0.2,0.1,0.4,0.2,0.5c0.1,0,0.2,0.1,0.5,0.1c0.1,0,0.3,0,0.4,0v0.9
				c-0.3,0.1-0.6,0.1-0.9,0.1c-0.9,0-1.4-0.5-1.4-1.5v-4.6h-0.9v-1h0.9V85.4z"/>
			<path class="st0" d="M578.4,87.5c0.5-0.1,0.7-0.5,0.7-1.2c0-0.1,0-0.1,0-0.2h-0.7v-1.4h1.4V86c0,0.5-0.1,1-0.3,1.3
				c-0.2,0.4-0.6,0.7-1.1,0.7V87.5z"/>
			<path class="st0" d="M581.8,92.1c0,0.4,0.1,0.7,0.3,0.9c0.3,0.4,0.8,0.6,1.5,0.6c0.4,0,0.8-0.1,1.1-0.2c0.4-0.2,0.5-0.5,0.5-0.9
				c0-0.3-0.1-0.5-0.4-0.7c-0.2-0.1-0.5-0.2-1-0.3l-0.9-0.2c-0.6-0.1-1-0.3-1.3-0.5c-0.5-0.3-0.8-0.8-0.8-1.3c0-0.7,0.3-1.3,0.8-1.7
				c0.5-0.4,1.1-0.5,1.8-0.5c1.1,0,1.8,0.3,2.3,0.9c0.3,0.4,0.4,0.8,0.4,1.3h-1.1c0-0.3-0.1-0.5-0.3-0.7c-0.3-0.3-0.7-0.5-1.4-0.5
				c-0.9,0-1.4,0.3-1.4,0.9c0,0.3,0.2,0.5,0.5,0.7c0.2,0.1,0.4,0.2,0.8,0.3l0.8,0.2c0.8,0.2,1.4,0.4,1.7,0.6
				c0.5,0.3,0.7,0.8,0.7,1.4c0,0.8-0.3,1.4-0.9,1.8c-0.5,0.4-1.2,0.5-2,0.5c-1.9,0-2.8-0.8-2.9-2.5H581.8z"/>
			<path class="st0" d="M594,87.2c0.6,0,1,0.1,1.4,0.4c0.2,0.1,0.4,0.4,0.7,0.7v-0.9h1.1v6.4c0,0.9-0.1,1.6-0.4,2.1
				c-0.5,1-1.4,1.4-2.8,1.4c-0.8,0-1.4-0.2-1.9-0.5c-0.5-0.4-0.8-0.9-0.9-1.6h1.2c0.1,0.7,0.7,1.1,1.6,1.1c0.9,0,1.5-0.3,1.8-1
				c0.2-0.4,0.2-1,0.2-2c-0.5,0.7-1.2,1.1-2.2,1.1c-1,0-1.7-0.4-2.2-1.1c-0.4-0.6-0.7-1.4-0.7-2.4c0-1,0.2-1.8,0.7-2.5
				C592.3,87.6,593.1,87.2,594,87.2z M596.2,90.8c0-0.7-0.1-1.3-0.4-1.7c-0.3-0.5-0.8-0.8-1.5-0.8c-0.8,0-1.4,0.4-1.7,1.2
				c-0.2,0.4-0.2,1-0.2,1.6c0,0.7,0.1,1.2,0.4,1.6c0.3,0.5,0.8,0.8,1.4,0.8c0.8,0,1.4-0.4,1.8-1.1C596.1,91.9,596.2,91.4,596.2,90.8
				z"/>
			<path class="st0" d="M601.9,87.2c0.5,0,1,0.1,1.4,0.3c0.5,0.2,0.8,0.6,1.1,1c0.2,0.3,0.3,0.7,0.4,1.2c0.1,0.4,0.1,0.9,0.1,1.5
				h-5.1c0,1.6,0.7,2.4,2,2.4c0.6,0,1.1-0.2,1.5-0.6c0.2-0.2,0.4-0.5,0.4-0.8h1.2c-0.1,0.6-0.4,1.1-0.9,1.6
				c-0.6,0.5-1.3,0.8-2.3,0.8c-1,0-1.8-0.4-2.3-1.1c-0.5-0.7-0.8-1.5-0.8-2.5c0-1.1,0.3-2,0.8-2.7C600.1,87.5,600.9,87.2,601.9,87.2
				z M603.8,90.3c0-0.5-0.2-0.9-0.3-1.2c-0.3-0.6-0.9-0.9-1.6-0.9c-0.6,0-1,0.2-1.4,0.6c-0.3,0.4-0.5,0.9-0.5,1.5H603.8z"/>
			<path class="st0" d="M606.7,85.4h1.2v2h1.1v1h-1.1v4.6c0,0.2,0.1,0.4,0.2,0.5c0.1,0,0.2,0.1,0.5,0.1c0.1,0,0.3,0,0.4,0v0.9
				c-0.3,0.1-0.6,0.1-0.9,0.1c-0.9,0-1.4-0.5-1.4-1.5v-4.6h-0.9v-1h0.9V85.4z"/>
			<path class="st0" d="M613.8,87.4h1.1v0.9c0.6-0.8,1.3-1.1,2.2-1.1c0.9,0,1.7,0.4,2.2,1.1c0.5,0.6,0.7,1.5,0.7,2.4
				c0,1.5-0.4,2.6-1.2,3.3c-0.5,0.4-1.1,0.6-1.8,0.6c-0.5,0-1-0.1-1.3-0.3c-0.2-0.1-0.4-0.4-0.7-0.7v3.6h-1.2V87.4z M616.9,93.5
				c0.7,0,1.2-0.3,1.5-0.9c0.3-0.5,0.4-1.1,0.4-1.8c0-0.6-0.1-1-0.2-1.4c-0.3-0.8-0.9-1.2-1.7-1.2c-1.3,0-1.9,1-1.9,2.9
				c0,0.5,0.1,1,0.2,1.4C615.5,93.2,616.1,93.5,616.9,93.5z"/>
			<path class="st0" d="M624.3,87.2c0.5,0,1,0.1,1.4,0.3c0.5,0.2,0.8,0.6,1.1,1c0.2,0.3,0.3,0.7,0.4,1.2c0.1,0.4,0.1,0.9,0.1,1.5
				h-5.1c0,1.6,0.7,2.4,2,2.4c0.6,0,1.1-0.2,1.5-0.6c0.2-0.2,0.4-0.5,0.4-0.8h1.2c-0.1,0.6-0.4,1.1-0.9,1.6
				c-0.6,0.5-1.3,0.8-2.3,0.8c-1,0-1.8-0.4-2.3-1.1c-0.5-0.7-0.8-1.5-0.8-2.5c0-1.1,0.3-2,0.8-2.7C622.4,87.5,623.2,87.2,624.3,87.2
				z M626.2,90.3c0-0.5-0.2-0.9-0.3-1.2c-0.3-0.6-0.9-0.9-1.6-0.9c-0.6,0-1,0.2-1.4,0.6c-0.3,0.4-0.5,0.9-0.5,1.5H626.2z"/>
			<path class="st0" d="M628.8,87.3h1.1v1.2c0.1-0.4,0.4-0.7,0.8-1c0.4-0.3,0.8-0.4,1.1-0.4c0,0,0.2,0,0.4,0v1.2c-0.1,0-0.2,0-0.4,0
				c-0.5,0-1,0.2-1.3,0.5s-0.5,0.8-0.5,1.4v4h-1.2V87.3z"/>
			<path class="st0" d="M634,92.1c0,0.4,0.1,0.7,0.3,0.9c0.3,0.4,0.8,0.6,1.5,0.6c0.4,0,0.8-0.1,1.1-0.2c0.4-0.2,0.5-0.5,0.5-0.9
				c0-0.3-0.1-0.5-0.4-0.7c-0.2-0.1-0.5-0.2-1-0.3l-0.9-0.2c-0.6-0.1-1-0.3-1.3-0.5c-0.5-0.3-0.8-0.8-0.8-1.3c0-0.7,0.3-1.3,0.8-1.7
				c0.5-0.4,1.1-0.5,1.8-0.5c1.1,0,1.8,0.3,2.3,0.9c0.3,0.4,0.4,0.8,0.4,1.3h-1.1c0-0.3-0.1-0.5-0.3-0.7c-0.3-0.3-0.7-0.5-1.4-0.5
				c-0.9,0-1.4,0.3-1.4,0.9c0,0.3,0.2,0.5,0.5,0.7c0.2,0.1,0.4,0.2,0.8,0.3l0.8,0.2c0.8,0.2,1.4,0.4,1.7,0.6
				c0.5,0.3,0.7,0.8,0.7,1.4c0,0.8-0.3,1.4-0.9,1.8c-0.5,0.4-1.2,0.5-2,0.5c-1.9,0-2.8-0.8-2.9-2.5H634z"/>
			<path class="st0" d="M642.8,87.1c1,0,1.8,0.3,2.4,1c0.5,0.6,0.8,1.5,0.8,2.5c0,1.2-0.3,2.1-0.8,2.8c-0.6,0.8-1.5,1.1-2.6,1.1
				c-1,0-1.8-0.4-2.4-1.1c-0.5-0.6-0.8-1.5-0.8-2.5c0-1.1,0.3-2,0.8-2.7C640.9,87.5,641.7,87.1,642.8,87.1z M642.8,93.6
				c1.4,0,2-1,2-2.9c0-1.7-0.7-2.6-2-2.6c-0.7,0-1.3,0.3-1.6,0.9c-0.3,0.5-0.4,1.1-0.4,1.9c0,0.8,0.2,1.4,0.5,1.8
				C641.5,93.3,642,93.6,642.8,93.6z"/>
			<path class="st0" d="M647.4,87.3h1.1v1c0.6-0.8,1.4-1.2,2.3-1.2c1,0,1.7,0.3,2,1c0.2,0.4,0.3,0.9,0.3,1.6v4.5h-1.2v-4.4
				c0-1.1-0.4-1.7-1.3-1.7c-0.3,0-0.5,0-0.7,0.1c-0.3,0.1-0.6,0.3-0.9,0.6c-0.3,0.4-0.5,1-0.5,1.8v3.7h-1.2V87.3z"/>
			<path class="st0" d="M658.6,90.1c0.3,0,0.5-0.1,0.5-0.3c0.1-0.1,0.1-0.3,0.1-0.5c0-0.8-0.6-1.1-1.7-1.1c-0.6,0-1.1,0.2-1.3,0.5
				c-0.1,0.2-0.2,0.5-0.3,0.8h-1.1c0-1.5,0.9-2.3,2.7-2.3c0.8,0,1.4,0.1,1.9,0.4c0.6,0.3,0.9,0.8,0.9,1.6v4c0,0.3,0.1,0.4,0.4,0.4
				c0.1,0,0.2,0,0.4,0v0.9c-0.3,0.1-0.5,0.1-0.8,0.1c-0.4,0-0.7-0.1-0.9-0.4c-0.1-0.2-0.2-0.4-0.2-0.6c-0.3,0.4-0.7,0.7-1.1,0.9
				c-0.4,0.2-0.9,0.3-1.4,0.3c-0.6,0-1.1-0.2-1.6-0.6c-0.4-0.4-0.6-0.9-0.6-1.5c0-1.3,0.7-2,2.2-2.2L658.6,90.1z M655.8,92.5
				c0,0.3,0.1,0.6,0.4,0.8c0.2,0.2,0.5,0.3,0.9,0.3c0.4,0,0.8-0.1,1.2-0.3c0.7-0.3,1-0.8,1-1.6v-0.9c-0.3,0.2-0.7,0.3-1.2,0.4
				l-0.7,0.1c-0.4,0.1-0.7,0.1-1,0.3C655.9,91.7,655.8,92,655.8,92.5z"/>
			<path class="st0" d="M662.3,84.7h1.2v9.6h-1.2V84.7z"/>
		</g>
	</g>
	<path class="st1" d="M807.3,0.5"/>
	<g>
		<path class="st0" d="M1316.8,73.4l-0.6,3.5h-16.7l0.6-3.5l12.8-9.6h-11.1l0.6-3.5h16.7l-0.6,3.5l-12.9,9.6H1316.8z"/>
		<path class="st0" d="M1317.1,70.6l0.7-3.5h11.6l-0.7,3.5H1317.1z"/>
		<path class="st0" d="M1349.5,60.3l-0.6,3.5h-12.1c-0.3,0-0.5,0.1-0.8,0.3c-0.2,0.2-0.4,0.4-0.4,0.7l-1.4,7.6
			c-0.1,0.3,0,0.5,0.2,0.7c0.2,0.2,0.4,0.3,0.7,0.3h12.1l-0.6,3.5h-14.7c-0.6,0-1-0.2-1.3-0.6c-0.3-0.4-0.4-0.9-0.3-1.4l2.3-12.6
			c0.1-0.6,0.4-1,0.8-1.4c0.5-0.4,1-0.6,1.5-0.6H1349.5z"/>
		<path class="st0" d="M1365,77h-3.5l0.7-4c0-0.3,0-0.5-0.2-0.7c-0.2-0.2-0.4-0.3-0.6-0.3h-7.6c-0.3,0-0.5,0.1-0.8,0.3
			c-0.2,0.2-0.4,0.4-0.4,0.7l-0.8,4h-3.5l2.6-14.7c0.1-0.6,0.4-1,0.8-1.4c0.5-0.4,1-0.6,1.5-0.6h12.6c0.6,0,1,0.2,1.3,0.6
			c0.3,0.4,0.4,0.9,0.3,1.4l-1,5.8c-0.1,0.6-0.4,1-0.9,1.4c-0.5,0.4-1,0.6-1.6,0.6c0.6,0,1.1,0.2,1.4,0.7c0.1,0.1,0.2,0.3,0.2,0.6
			c0.1,0.5,0.1,0.7,0.1,0.7L1365,77z M1363.2,67.4l0.5-2.5c0.1-0.3,0-0.5-0.2-0.7c-0.2-0.2-0.4-0.3-0.7-0.3h-7.6
			c-0.3,0-0.5,0.1-0.8,0.3c-0.2,0.2-0.4,0.4-0.4,0.7l-0.5,2.5c-0.1,0.3,0,0.5,0.2,0.7c0.2,0.2,0.4,0.3,0.7,0.3h7.6
			c0.3,0,0.5-0.1,0.8-0.3C1363,67.9,1363.2,67.6,1363.2,67.4z"/>
		<path class="st0" d="M1383.1,66.9l-0.7,3.5h-10.6l-0.4,2c-0.1,0.3,0,0.5,0.2,0.7c0.2,0.2,0.4,0.3,0.7,0.3h12.1l-0.6,3.5h-14.7
			c-0.6,0-1-0.2-1.3-0.6c-0.3-0.4-0.4-0.9-0.3-1.4l2.3-12.6c0.1-0.6,0.4-1,0.8-1.4c0.5-0.4,1-0.6,1.5-0.6h14.7l-0.6,3.5H1374
			c-0.3,0-0.5,0.1-0.8,0.3c-0.2,0.2-0.4,0.4-0.4,0.7l-0.4,2H1383.1z"/>
		<path class="st0" d="M1388.5,60.3h14.7c0.6,0,1,0.2,1.3,0.6c0.3,0.4,0.4,0.9,0.3,1.4l-2.3,12.6c-0.1,0.6-0.4,1-0.8,1.4
			c-0.5,0.4-1,0.6-1.5,0.6h-14.7L1388.5,60.3z M1389.7,73.4h8.6c0.3,0,0.5-0.1,0.8-0.3c0.2-0.2,0.4-0.4,0.4-0.7l1.4-7.6
			c0.1-0.3,0-0.5-0.2-0.7c-0.2-0.2-0.4-0.3-0.7-0.3h-8.6L1389.7,73.4z"/>
		<path class="st0" d="M1407.3,60.3h3.5l-3,16.7h-3.5L1407.3,60.3z"/>
		<path class="st0" d="M1420.1,77h-3.5l2.2-12.1c0.1-0.3,0-0.5-0.2-0.7c-0.2-0.2-0.4-0.3-0.7-0.3h-5.6l0.6-3.5h16.7l-0.6,3.5h-5.6
			c-0.3,0-0.5,0.1-0.8,0.3c-0.2,0.2-0.4,0.4-0.4,0.7L1420.1,77z"/>
		<g>
			<path class="st0" d="M1303.4,84.4h-1.2v-2.3c0-0.2,0-0.3-0.1-0.4c-0.1-0.1-0.2-0.1-0.3-0.1h-0.7v1.6c0,0.1,0,0.2,0,0.3
				c0,0.1,0,0.2-0.1,0.3c0,0.1-0.1,0.1-0.1,0.2c0,0.1-0.1,0.1-0.1,0.2c-0.1,0.1-0.2,0.2-0.4,0.2c-0.1,0-0.3,0.1-0.5,0.1
				c-0.1,0-0.2,0-0.3-0.1c-0.1,0-0.2-0.1-0.2-0.1v-0.8c0.1,0.1,0.2,0.1,0.3,0.1c0.1,0,0.2,0,0.2-0.1s0.1-0.1,0.1-0.3v-2.6h0.5h0.7
				h1.2c0.4,0,0.7,0.1,0.9,0.3c0.2,0.2,0.3,0.5,0.3,1V84.4z"/>
			<path class="st0" d="M1306.7,84.4h-1.2v-3.7h1.2V84.4z"/>
			<path class="st0" d="M1312.4,84.4h-1.2l-1.2-1.7l-0.4,1.7h-1v-0.1l0.7-2.5l-0.7-1v-0.1h1.2l1,1.5h0l0.3-1.5h1.1v0.1l-0.7,2.2
				L1312.4,84.4L1312.4,84.4z"/>
			<path class="st0" d="M1317.7,84.4h-1.2v-2.3c0-0.2,0-0.3-0.1-0.4c-0.1-0.1-0.2-0.1-0.3-0.1h-0.8v2.8h-1.2v-2.8v-0.9h2.4
				c0.4,0,0.7,0.1,0.9,0.3c0.2,0.2,0.3,0.5,0.3,1V84.4z"/>
			<path class="st0" d="M1323.5,84.4h-2.1v-0.9h0.9v-1.3c0-0.1,0-0.2,0-0.3c0-0.1-0.1-0.2-0.1-0.2c-0.1-0.1-0.1-0.1-0.2-0.1
				c-0.1,0-0.1,0-0.2,0c-0.1,0-0.1,0-0.2,0c-0.1,0-0.1,0.1-0.2,0.1c-0.1,0-0.1,0.1-0.2,0.1c-0.1,0-0.1,0.1-0.1,0.2l-0.2,2.5h-1.1
				l0.2-1.8c0-0.2,0-0.3,0-0.4c0-0.1,0-0.2,0-0.4c0-0.1,0-0.2-0.1-0.3c0-0.1-0.1-0.2-0.1-0.3l-0.2-0.4v-0.2h1l0.2,0.3
				c0.2-0.1,0.4-0.2,0.6-0.3c0.2-0.1,0.4-0.1,0.6-0.1c0.5,0,0.9,0.1,1.1,0.3c0.2,0.2,0.3,0.6,0.3,1.1V84.4z"/>
			<path class="st0" d="M1329.1,84.4h-1.2v-2.3c0-0.2,0-0.3-0.1-0.4c-0.1-0.1-0.2-0.1-0.3-0.1h-1.9v-0.9h2.3c0.4,0,0.7,0.1,0.9,0.3
				s0.3,0.5,0.3,1V84.4z M1326.8,84.4h-1.2v-2.2h1.2V84.4z"/>
			<path class="st0" d="M1337.9,84.4h-1.2v-2.3c0-0.2,0-0.3-0.1-0.4c-0.1-0.1-0.2-0.1-0.3-0.1h-0.7v1.6c0,0.1,0,0.2,0,0.3
				c0,0.1,0,0.2-0.1,0.3c0,0.1-0.1,0.1-0.1,0.2c0,0.1-0.1,0.1-0.1,0.2c-0.1,0.1-0.2,0.2-0.4,0.2c-0.1,0-0.3,0.1-0.5,0.1
				c-0.1,0-0.2,0-0.3-0.1c-0.1,0-0.2-0.1-0.2-0.1v-0.8c0.1,0.1,0.2,0.1,0.3,0.1c0.1,0,0.2,0,0.2-0.1s0.1-0.1,0.1-0.3v-2.6h0.5h0.7
				h1.2c0.4,0,0.7,0.1,0.9,0.3c0.2,0.2,0.3,0.5,0.3,1V84.4z"/>
			<path class="st0" d="M1343.5,84.4h-1.2v-2.3c0-0.2,0-0.3-0.1-0.4c-0.1-0.1-0.2-0.1-0.3-0.1h-0.8v2.8h-1.2v-2.8v-0.9h2.4
				c0.4,0,0.7,0.1,0.9,0.3c0.2,0.2,0.3,0.5,0.3,1V84.4z"/>
			<path class="st0" d="M1349.3,81.1l-0.1,2c0,0.3-0.1,0.5-0.2,0.7c-0.1,0.2-0.3,0.4-0.5,0.5c-0.1,0-0.2,0.1-0.3,0.1
				c-0.1,0-0.2,0-0.3,0.1c-0.1,0-0.2,0-0.3,0c-0.1,0-0.2,0-0.3,0c-0.1,0-0.3,0-0.4,0c-0.1,0-0.3,0-0.4,0c-0.1,0-0.3,0-0.4,0
				c-0.1,0-0.2,0-0.3-0.1l-0.2-3.6h1.2l0.1,2.8c0,0,0.1,0,0.1,0s0.1,0,0.2,0c0.1,0,0.1,0,0.2,0s0.1,0,0.1,0c0.3,0,0.5,0,0.6-0.1
				c0.1-0.1,0.2-0.2,0.2-0.4l0-1.4h-0.8v-0.9h2V81.1z"/>
			<path class="st0" d="M1354.6,84.4h-3.3v-0.9h1.8v-1.3c0-0.2,0-0.3-0.1-0.4c-0.1-0.1-0.2-0.1-0.3-0.1h-1.4v-0.9h1.8
				c0.4,0,0.7,0.1,0.9,0.3c0.2,0.2,0.3,0.5,0.3,1v1.5h0.3V84.4z"/>
			<path class="st0" d="M1360,84.4h-1.2v-2.3c0-0.2,0-0.3-0.1-0.4c-0.1-0.1-0.2-0.1-0.3-0.1h-1.9v-0.9h2.3c0.4,0,0.7,0.1,0.9,0.3
				s0.3,0.5,0.3,1V84.4z M1357.7,84.4h-1.2v-2.2h1.2V84.4z"/>
			<path class="st0" d="M1363.2,84.4h-1.2v-3.7h1.2V84.4z"/>
			<path class="st0" d="M1369.4,82.9h-1.2v-2.3h1.2V82.9z"/>
			<path class="st0" d="M1375.1,84.4h-1.2l-1.2-1.7l-0.4,1.7h-1v-0.1l0.7-2.5l-0.7-1v-0.1h1.2l1,1.5h0l0.3-1.5h1.1v0.1l-0.7,2.2
				L1375.1,84.4L1375.1,84.4z"/>
			<path class="st0" d="M1379.7,84.4h-1.2v-2.2c0-0.2,0-0.3-0.1-0.4c-0.1-0.1-0.2-0.1-0.4-0.1h-1.3v-0.9h1.7c0.4,0,0.7,0.1,0.9,0.4
				c0.2,0.2,0.3,0.6,0.3,1V84.4z"/>
			<path class="st0" d="M1386.4,80.7l-0.1,1.9c0,0.2,0,0.4-0.1,0.5c0,0.2-0.1,0.3-0.1,0.5c-0.1,0.2-0.2,0.3-0.3,0.4
				c-0.1,0.1-0.3,0.2-0.4,0.3c-0.2,0.1-0.4,0.1-0.7,0.2c-0.3,0-0.6,0-0.9,0c-0.4,0-0.8,0-1.1-0.1c-0.3,0-0.6-0.1-0.8-0.1l-0.3-3.6
				h1.2l0.1,1.8c0.1,0,0.1,0,0.2,0c0.1,0,0.1,0,0.2-0.1c0,0,0.1-0.1,0.1-0.1c0-0.1,0-0.1,0-0.3l0-1.4h1.1l0,1.4c0,0.2,0,0.4-0.1,0.5
				c-0.1,0.1-0.1,0.2-0.2,0.3c-0.1,0.1-0.2,0.1-0.3,0.2c-0.1,0-0.3,0-0.5,0c0,0,0,0-0.1,0c0,0-0.1,0-0.1,0c0,0-0.1,0-0.1,0
				c0,0-0.1,0-0.1,0l0,0.5c0,0,0.1,0,0.1,0c0.1,0,0.1,0,0.2,0c0.1,0,0.1,0,0.2,0c0.1,0,0.1,0,0.2,0c0.3,0,0.6,0,0.8-0.1
				c0.2,0,0.3-0.1,0.4-0.3c0.1-0.2,0.1-0.4,0.1-0.7l0.1-1.8H1386.4z"/>
			<path class="st0" d="M1392.1,84.4h-1.2l-1.2-1.7l-0.4,1.7h-1v-0.1l0.7-2.5l-0.7-1v-0.1h1.2l1,1.5h0l0.3-1.5h1.1v0.1l-0.7,2.2
				L1392.1,84.4L1392.1,84.4z"/>
			<path class="st0" d="M1400.6,84.4h-1.2v-2.3c0-0.2,0-0.3-0.1-0.4c-0.1-0.1-0.2-0.1-0.3-0.1h-0.7v1.6c0,0.1,0,0.2,0,0.3
				c0,0.1,0,0.2-0.1,0.3s-0.1,0.1-0.1,0.2c0,0.1-0.1,0.1-0.1,0.2c-0.1,0.1-0.2,0.2-0.4,0.2c-0.1,0-0.3,0.1-0.5,0.1
				c-0.1,0-0.2,0-0.3-0.1c-0.1,0-0.2-0.1-0.2-0.1v-0.8c0.1,0.1,0.2,0.1,0.3,0.1c0.1,0,0.2,0,0.2-0.1s0.1-0.1,0.1-0.3v-2.6h0.5h0.7
				h1.2c0.4,0,0.7,0.1,0.9,0.3c0.2,0.2,0.3,0.5,0.3,1V84.4z"/>
			<path class="st0" d="M1406.4,81.9c0,0.2,0,0.3-0.1,0.5c-0.1,0.2-0.1,0.4-0.2,0.5l-0.7,1.5h-1.1v-0.1l0.8-1.5
				c0.1-0.1,0.1-0.3,0.2-0.4c0-0.1,0.1-0.2,0.1-0.3c0-0.1,0-0.1,0-0.2c0-0.1,0-0.1-0.1-0.1c0,0-0.1-0.1-0.1-0.1c-0.1,0-0.1,0-0.2,0
				h-2.1v-0.9h2.3c0.3,0,0.6,0.1,0.8,0.2c0.2,0.1,0.3,0.3,0.4,0.5c0,0.1,0.1,0.2,0.1,0.3C1406.4,81.7,1406.4,81.8,1406.4,81.9z
				 M1403.9,85.5h-1.1v-3.4h1.1V85.5z"/>
			<path class="st0" d="M1409.5,82.9h-1.2v-2.3h1.2V82.9z"/>
			<path class="st0" d="M1414.5,81.2l-0.1,1.5c0,0.3-0.1,0.6-0.2,0.8c-0.1,0.2-0.2,0.4-0.3,0.5c-0.1,0.1-0.3,0.2-0.6,0.3
				c-0.2,0.1-0.5,0.1-0.8,0.1c0,0-0.1,0-0.2,0c-0.1,0-0.2,0-0.2,0v-0.9c0,0,0.1,0,0.2,0s0.1,0,0.2,0c0.1,0,0.2,0,0.3,0
				c0.1,0,0.2-0.1,0.2-0.1c0.1-0.1,0.1-0.1,0.2-0.2c0-0.1,0.1-0.2,0.1-0.4l0.1-1.1h-1.9v-1.9h1.2v0.9h1.9V81.2z"/>
			<path class="st0" d="M1420.3,82.5c0,0.3,0,0.6-0.1,0.8c-0.1,0.2-0.2,0.4-0.4,0.6c-0.2,0.2-0.4,0.3-0.6,0.4
				c-0.2,0.1-0.5,0.1-0.8,0.1c-0.3,0-0.5,0-0.8-0.1c-0.2-0.1-0.4-0.2-0.6-0.3c-0.2-0.2-0.3-0.4-0.4-0.6c-0.1-0.3-0.1-0.6-0.1-0.9
				c0-0.3,0-0.5,0.1-0.8c0.1-0.2,0.2-0.4,0.4-0.6c0.2-0.2,0.4-0.3,0.6-0.4c0.2-0.1,0.5-0.1,0.8-0.1c0.7,0,1.2,0.2,1.5,0.5
				C1420.1,81.3,1420.3,81.8,1420.3,82.5z M1419.1,82.5c0-0.1,0-0.3,0-0.4c0-0.1-0.1-0.3-0.1-0.4c-0.1-0.1-0.1-0.2-0.2-0.3
				c-0.1-0.1-0.2-0.1-0.4-0.1c-0.1,0-0.2,0-0.3,0.1c-0.1,0.1-0.2,0.2-0.2,0.3c-0.1,0.1-0.1,0.2-0.1,0.4c0,0.1,0,0.3,0,0.4
				c0,0.3,0.1,0.6,0.2,0.8c0.1,0.2,0.3,0.3,0.5,0.3c0.1,0,0.2,0,0.3-0.1c0.1-0.1,0.2-0.1,0.2-0.2c0.1-0.1,0.1-0.2,0.1-0.4
				C1419.1,82.8,1419.1,82.7,1419.1,82.5z"/>
		</g>
		<path class="st0" d="M1302,47.2c0-1.9,0.6-6.4,0.6-6.4s-7.9,3.9-14.4,12.8c-3.6,4.9-6.9,12.3-6.9,12.3l-5.1-9.6l-5.5,3.2l-2.2-9.4
			l23.9-11.3l-0.8,7.8l1.8-1.6l1.2-9.2l-28.1,13.2l2.7,11.3l-2.9,1.6c0,0,1.7,1,3.8,2.5l5,21h13.1l2.2-17l-2.4,2.1l-1.4,13.1h-10.2
			l-4.2-17.6c1.2,0.9,2.3,1.9,3.3,2.8c3.6,3.6,6.2,6.7,6.2,6.7s5-8.3,11.3-14.1c6.4-5.8,9.8-7.9,9.8-7.9S1302,49.1,1302,47.2z"/>
	</g>
	<g>
		<path class="st0" d="M814.6,53.5c0.1,0,0.2,0,0.2,0c2.6,0,5.1,0,7.7,0c1.1,0,2.2,0.1,3.3,0.4c1,0.3,1.9,0.7,2.6,1.5
			c0.6,0.7,0.9,1.5,1.2,2.3c0.2,0.9,0.4,1.9,0.5,2.8c0.2,1.8,0.2,3.6,0.2,5.4c0,3.5,0,7,0,10.5c0,1.3-0.1,2.5-0.2,3.8
			c-0.2,1.2-0.4,2.3-0.9,3.4c-0.7,1.5-2,2.4-3.6,2.9c-1,0.3-2,0.4-3.1,0.4c-2.6,0-5.1,0-7.7,0c0,0-0.1,0-0.1,0
			C814.6,75.8,814.6,64.7,814.6,53.5z M819.1,83c0.1,0,0.1,0,0.2,0c0.9,0,1.7,0,2.6,0c0.2,0,0.5,0,0.7-0.1c1-0.2,1.8-0.8,2.2-1.8
			c0.1-0.4,0.2-0.7,0.3-1.1c0.2-1.1,0.3-2.2,0.3-3.2c0-4.4,0-8.9,0-13.3c0-0.8,0-1.5-0.1-2.3c0-0.6-0.2-1.3-0.4-1.9
			c-0.3-0.8-0.9-1.4-1.7-1.6c-0.3-0.1-0.7-0.2-1-0.2c-1,0-2,0-2.9-0.1c0,0-0.1,0-0.1,0C819.1,65.9,819.1,74.5,819.1,83z"/>
		<path class="st0" d="M896.6,72.5c0,4.8,0,9.6,0,14.4c-1.5,0-3,0-4.5,0c0,0,0,0,0,0c0,0,0,0,0,0c0-11,0-22,0-33.1
			c0-0.1,0-0.2,0-0.3c0.1,0,0.2,0,0.3,0c2.7,0,5.5,0,8.2,0c1,0,2,0.1,2.9,0.4c1.4,0.4,2.2,1.3,2.6,2.7c0.2,0.8,0.3,1.6,0.4,2.4
			c0.1,1.7,0.1,3.4,0.1,5.1c0,0.9-0.1,1.9-0.4,2.8c-0.4,1.3-1.2,2.3-2.4,2.9c-0.3,0.1-0.6,0.3-0.9,0.4c-0.1,0-0.2,0.1-0.4,0.1
			c0.3,0.1,0.6,0.1,0.9,0.2c0.9,0.2,1.7,0.5,2.2,1.2c0.5,0.6,0.8,1.3,0.9,2c0.1,0.5,0.1,0.9,0.1,1.4c0,2.7,0,5.5,0,8.2
			c0,1.1,0.1,2.2,0.2,3.3c0,0.1,0,0.1,0,0.2c-1.5,0-3,0-4.5,0c-0.3-0.4-0.3-1-0.3-1.5c0-0.4,0-0.9,0-1.3c0-2.6,0-5.3,0-7.9
			c0-0.5,0-1.1-0.1-1.6c-0.2-1.2-0.8-1.9-2.1-2c-0.5-0.1-1-0.1-1.6-0.1C897.7,72.4,897.2,72.5,896.6,72.5z M896.6,57.4
			c0,3.6,0,7.2,0,10.8c0,0,0.1,0,0.1,0c1.1,0,2.1,0.1,3.2-0.1c1.2-0.2,1.8-0.7,2.1-1.9c0.2-0.8,0.2-1.6,0.2-2.4c0-1.3,0-2.6-0.1-3.9
			c0-0.4-0.1-0.8-0.3-1.2c-0.2-0.6-0.6-1-1.3-1.2c-0.2-0.1-0.5-0.1-0.7-0.1c-1,0-2,0-3,0C896.8,57.4,896.7,57.4,896.6,57.4z"/>
		<path class="st0" d="M882.2,71.9c0,3.7,0,7.4,0,11.1c2.7,0,5.4,0,8.1,0c0,1.3,0,2.6,0,4c-4.2,0-8.4,0-12.6,0c0-11.1,0-22.2,0-33.4
			c4.2,0,8.4,0,12.6,0c0,1.3,0,2.6,0,3.9c-2.7,0-5.4,0-8.1,0c0,3.5,0,7,0,10.5c2.5,0,5,0,7.5,0c0.1,0.3,0.1,3.6,0,3.9
			C887.2,71.9,884.7,71.9,882.2,71.9z"/>
		<path class="st0" d="M844.7,82.9c0,1.3,0,2.6,0,3.9c-0.2,0.1-11.8,0.1-12.6,0c-0.1-0.2-0.1-32.7,0-33.4c0.2-0.1,12.1-0.1,12.6,0
			c0.1,0.2,0.1,3.4,0,3.9c-0.9,0-1.8,0-2.7,0c-0.9,0-1.8,0-2.7,0c-0.9,0-1.8,0-2.7,0c0,3.5,0,7,0,10.5c0.8,0,1.7,0,2.5,0
			c0.8,0,1.7,0,2.5,0c0.8,0,1.7,0,2.5,0c0.1,0.3,0.1,3.6,0,3.9c-2.5,0-5,0-7.5,0c0,3.7,0,7.4,0,11.1C839.3,82.9,842,82.9,844.7,82.9
			z"/>
		<path class="st0" d="M851.1,67.9c2.5,0,5,0,7.5,0c0,1.3,0,2.6,0,3.9c-2.5,0-5,0-7.4,0c-0.1,0.3-0.1,10.7,0,11.1c1.3,0,2.7,0,4,0
			c1.3,0,2.7,0,4,0c0,1.3,0,2.6,0,4c-4.2,0-8.4,0-12.6,0c-0.1-0.2-0.1-32.9,0-33.4c0.2-0.1,12.2-0.1,12.6,0c0,1.3,0,2.6,0,3.9
			c-2.7,0-5.4,0-8.1,0C851.1,61,851.1,64.4,851.1,67.9z"/>
		<path class="st0" d="M861.1,57.4c0-1.3,0-2.6,0-3.9c4.9,0,9.8,0,14.7,0c0,0.1,0,0.2,0,0.3c0,1.1,0,2.2,0,3.4c0,0.2,0,0.3-0.1,0.5
			c-3.3,8.2-6.6,16.4-9.8,24.6c-0.1,0.2-0.2,0.4-0.3,0.7c3.4,0,6.8,0,10.2,0c0.1,0.3,0.1,3.5,0,3.9c-4.9,0-9.8,0-14.7,0
			c0-0.1,0-0.2,0-0.3c0-1.1,0-2.3,0-3.4c0-0.2,0-0.3,0.1-0.5c2-4.9,4-9.9,6-14.8c1.4-3.4,2.8-6.8,4.1-10.2c0-0.1,0.1-0.2,0.1-0.4
			C868,57.4,864.5,57.4,861.1,57.4z"/>
		<path class="st0" d="M789.6,79.1c0-1,0-2,0-3c0.2-0.1,9.3-0.1,10,0c0,1,0,2,0,3C796.2,79.1,792.9,79.1,789.6,79.1z"/>
		<path class="st0" d="M778.4,63.4c0-1,0-2,0-3c0.3-0.1,9.6-0.1,10,0c0,1,0,2,0,3C788.2,63.5,779.1,63.5,778.4,63.4z"/>
		<path class="st0" d="M778.4,79.1c0-1,0-2,0-3c3.3,0,6.6,0,9.9,0c0.1,0.2,0.1,2.6,0,3C785.1,79.1,781.8,79.1,778.4,79.1z"/>
		<path class="st0" d="M788.4,67.3c-3.3,0-6.6,0-9.9,0c0-1,0-2,0-3c3.3,0,6.6,0,9.9,0C788.4,64.6,788.5,67,788.4,67.3z"/>
		<path class="st0" d="M766.1,79.1c-3.3,0-6.6,0-9.9,0c0-1,0-2,0-3c0.2-0.1,9.3-0.1,9.9,0C766.1,77.1,766.1,78.1,766.1,79.1z"/>
		<path class="st0" d="M766.1,71.3c-3.3,0-6.6,0-9.9,0c-0.1-0.2-0.1-2.6,0-3c3.3,0,6.6,0,9.9,0C766.1,69.3,766.1,70.2,766.1,71.3z"
			/>
		<path class="st0" d="M778.4,71.3c0-1,0-2,0-3c0.3-0.1,9.6-0.1,10,0c0,1,0,2,0,3C788.2,71.3,779.1,71.3,778.4,71.3z"/>
		<path class="st0" d="M789.6,71.3c0-1,0-2,0-3c0.2-0.1,9.4-0.1,9.9,0c0.1,0.2,0.1,2.6,0,3C796.2,71.3,792.9,71.3,789.6,71.3z"/>
		<path class="st0" d="M766.1,72.2c0,1,0,2,0,3c-3.3,0-6.6,0-9.9,0c-0.1-0.2-0.1-2.6,0-3C759.5,72.2,762.8,72.2,766.1,72.2z"/>
		<path class="st0" d="M766.1,80c0,1,0,2,0,3c-3.3,0-6.6,0-9.9,0c-0.1-0.2-0.1-2.6,0-3C759.5,80,762.8,80,766.1,80z"/>
		<path class="st0" d="M778.4,83c0-1,0-2,0-3c3.3,0,6.6,0,9.9,0c0.1,0.2,0.1,2.5,0,3C785.1,83,781.8,83,778.4,83z"/>
		<path class="st0" d="M788.4,75.2c-3.4,0-6.7,0-10,0c0-1,0-2,0-3c3.3,0,6.6,0,10,0C788.4,73.2,788.4,74.2,788.4,75.2z"/>
		<path class="st0" d="M799.6,72.2c0,1,0,2,0,3c-3.3,0-6.6,0-9.9,0c0-1,0-2,0-3C789.9,72.1,799.2,72.1,799.6,72.2z"/>
		<path class="st0" d="M789.6,83c0-1,0-2,0-3c0.2-0.1,9.6-0.1,10,0c0,1,0,2,0,3C796.2,83,792.9,83,789.6,83z"/>
		<path class="st0" d="M777.2,79.1c-3.3,0-6.6,0-9.9,0c-0.1-0.2-0.1-2.6,0-3c3.3,0,6.6,0,9.9,0C777.2,77.1,777.2,78.1,777.2,79.1z"
			/>
		<path class="st0" d="M800.8,63.4c0-1,0-2,0-3c3.3,0,6.6,0,9.9,0c0,1,0,2,0,3C807.4,63.4,804.1,63.4,800.8,63.4z"/>
		<path class="st0" d="M810.7,56.5c0,1,0,2,0,3c-3.3,0-6.6,0-9.9,0c-0.1-0.2-0.1-2.6,0-3C804.1,56.5,807.4,56.5,810.7,56.5z"/>
		<path class="st0" d="M810.7,76.1c0,1,0,2,0,3c-3.3,0-6.6,0-9.9,0c0-1,0-2,0-3C804.1,76.1,807.4,76.1,810.7,76.1z"/>
		<path class="st0" d="M800.8,75.2c0-1,0-2,0-3c0.2-0.1,9.4-0.1,9.9,0c0,1,0,2,0,3C810.5,75.2,801.3,75.2,800.8,75.2z"/>
		<path class="st0" d="M810.7,68.2c0,1,0,2,0,3c-3.3,0-6.6,0-9.9,0c0-1,0-2,0-3C804.1,68.2,807.4,68.2,810.7,68.2z"/>
		<path class="st0" d="M800.8,67.3c0-1,0-2,0-3c3.3,0,6.6,0,9.9,0c0,1,0,2,0,3C807.4,67.3,804.1,67.3,800.8,67.3z"/>
		<path class="st0" d="M810.7,83c-3.3,0-6.6,0-9.9,0c-0.1-0.2-0.1-2.6,0-3c3.3,0,6.6,0,9.9,0C810.7,81,810.7,82,810.7,83z"/>
		<path class="st0" d="M766.1,86.9c-3.3,0-6.6,0-9.9,0c0-1,0-2,0-3c0.2-0.1,9.4-0.1,9.9,0C766.1,84.9,766.1,85.9,766.1,86.9z"/>
		<path class="st0" d="M778.4,83.9c3.3,0,6.6,0,9.9,0c0.1,0.2,0.1,2.6,0,3c-3.3,0-6.6,0-9.9,0C778.4,85.9,778.4,84.9,778.4,83.9z"/>
		<path class="st0" d="M799.6,83.9c0,1,0,2,0,3c-3.3,0-6.6,0-10,0c0-1,0-2,0-3C792.9,83.9,796.2,83.9,799.6,83.9z"/>
		<path class="st0" d="M767.3,83c0-1,0-2,0-3c0.2-0.1,9.5-0.1,9.9,0c0,1,0,2,0,3C773.9,83,770.6,83,767.3,83z"/>
		<path class="st0" d="M777.2,83.9c0,1,0,2,0,3c-0.2,0.1-9.5,0.1-9.9,0c0-1,0-2,0-3C770.6,83.9,773.9,83.9,777.2,83.9z"/>
		<path class="st0" d="M810.7,83.9c0,1,0,2,0,2.9c-0.2,0.1-9.4,0.1-9.9,0c0-1,0-2,0-3C804.1,83.9,807.4,83.9,810.7,83.9z"/>
	</g>
	<g>
		<path class="st0" d="M1031.2,77.6c-0.4-0.7-0.6-1.5-0.7-2.6h17.6c0-9.8-4.6-14.8-13.7-14.8c-3.8,0-6.8,1.2-9.2,3.7
			c-2.4,2.5-3.6,5.5-3.6,9.1c0,1.7,0.2,3.2,0.7,4.6H1031.2z M1035.2,66.2c1.2,0,2.1,0.4,2.9,1.2c0.8,0.8,1.1,1.7,1.1,2.9h-8.8
			C1030.9,67.6,1032.5,66.2,1035.2,66.2z"/>
		<path class="st0" d="M1091.6,77.6c-0.4-0.7-0.6-1.5-0.7-2.6h17.6c0-9.8-4.6-14.8-13.7-14.8c-3.8,0-6.8,1.2-9.2,3.7
			c-2.4,2.5-3.6,5.5-3.6,9.1c0,1.7,0.2,3.2,0.7,4.6H1091.6z M1095.6,66.2c1.2,0,2.1,0.4,2.9,1.2c0.8,0.8,1.1,1.7,1.1,2.9h-8.8
			C1091.3,67.6,1092.9,66.2,1095.6,66.2z"/>
		<path class="st0" d="M1051.6,77.6h9.2v-11h3.2h1.4h2.4v11h9.2v-11h4.7v-5.7h-4.8c-0.1-1.1,0.1-1.9,0.5-2.3
			c0.4-0.4,1.2-0.6,2.3-0.6c-0.2,0,0.5,0.1,2.2,0.3V52c-0.3,0-1,0-2-0.1c-0.9-0.1-1.6-0.1-2.1-0.1c-1.9,0-3.3,0.1-4.3,0.3
			c-1.5,0.3-2.8,1-3.8,2c-1.4,1.4-2,3.7-1.9,6.8h-2.4h-1.4h-3.4c-0.1-1.1,0.1-1.9,0.5-2.3c0.4-0.4,1.2-0.6,2.3-0.6
			c-0.2,0,0.5,0.1,2.2,0.3V52c-0.3,0-1,0-2-0.1c-0.9-0.1-1.6-0.1-2.1-0.1c-1.9,0-3.3,0.1-4.3,0.3c-1.5,0.3-2.8,1-3.8,2
			c-1.4,1.4-2,3.7-1.9,6.8h-3.8v5.7h3.8V77.6z"/>
		<g>
			<path class="st0" d="M1120.3,77.6c-0.7-1-1.1-2.5-1.1-4.6c0-4,1.4-6,4.1-6c2,0,3.2,1,3.4,3.1h8.8c-0.3-3.2-1.6-5.7-4-7.4
				c-2.2-1.6-5-2.4-8.3-2.4c-3.7,0-6.8,1.2-9.3,3.5c-2.5,2.4-3.8,5.4-3.8,9.2c0,1.7,0.3,3.2,0.8,4.6H1120.3z"/>
		</g>
		<path class="st0" d="M1139.4,77.6h10c-0.1-0.1-0.1-0.1-0.2-0.2c-0.4-0.4-0.6-1.2-0.6-2.4v-8.4h4.9v-5.7h-4.9v-7.4h-9.2v7.4h-4.1
			v5.7h4.1V77.6z"/>
	</g>
	<path class="st0" d="M399.3,39.3c-16.6,0-30,13.4-30,30c0,16.6,13.4,30,30,30c16.6,0,30-13.4,30-30
		C429.3,52.7,415.8,39.3,399.3,39.3z M406.5,91.9c-2.1-0.3-4.4-1-6.9-2.2c-20.3-10-18.4-34.1-18.3-34.5c1.8-3.4,4.2-6.1,6.8-8.2
		c0.4-0.2,13-5.6,24.6,0.4c3.3,3.9,8.2,11.2,7.9,20.6C419.5,83.6,409.5,90.2,406.5,91.9z"/>
</g>
<g id="Layer_2">
</g>
</svg>
